solid 
 facet normal  8.321055e-01 -5.546173e-01  0.000000e+00
   outer loop
     vertex  6.129886e+00 -3.380015e+00  5.000000e+01
     vertex  5.478530e+00 -4.357259e+00  0.000000e+00
     vertex  6.129886e+00 -3.380015e+00  0.000000e+00
   endloop
 endfacet
 facet normal  8.321055e-01 -5.546173e-01  0.000000e+00
   outer loop
     vertex  6.129886e+00 -3.380015e+00  5.000000e+01
     vertex  5.478530e+00 -4.357259e+00  5.000000e+01
     vertex  5.478530e+00 -4.357259e+00  0.000000e+00
   endloop
 endfacet
 facet normal -8.034173e-01  5.954164e-01  0.000000e+00
   outer loop
     vertex -5.254462e+00  4.625000e+00  5.000000e+01
     vertex -5.254462e+00  4.625000e+00  0.000000e+00
     vertex -5.953734e+00  3.681447e+00  0.000000e+00
   endloop
 endfacet
 facet normal  9.131172e-01 -4.076972e-01  0.000000e+00
   outer loop
     vertex  6.608695e+00 -2.307628e+00  5.000000e+01
     vertex  6.129886e+00 -3.380015e+00  0.000000e+00
     vertex  6.608695e+00 -2.307628e+00  0.000000e+00
   endloop
 endfacet
 facet normal  9.131172e-01 -4.076972e-01  0.000000e+00
   outer loop
     vertex  6.608695e+00 -2.307628e+00  5.000000e+01
     vertex  6.129886e+00 -3.380015e+00  5.000000e+01
     vertex  6.129886e+00 -3.380015e+00  0.000000e+00
   endloop
 endfacet
 facet normal -8.034173e-01  5.954164e-01  0.000000e+00
   outer loop
     vertex -5.953734e+00  3.681447e+00  5.000000e+01
     vertex -5.254462e+00  4.625000e+00  5.000000e+01
     vertex -5.953734e+00  3.681447e+00  0.000000e+00
   endloop
 endfacet
 facet normal  9.684260e-01 -2.493010e-01  0.000000e+00
   outer loop
     vertex  6.901481e+00 -1.170285e+00  5.000000e+01
     vertex  6.608695e+00 -2.307628e+00  0.000000e+00
     vertex  6.901481e+00 -1.170285e+00  0.000000e+00
   endloop
 endfacet
 facet normal  9.684260e-01 -2.493010e-01  0.000000e+00
   outer loop
     vertex  6.901481e+00 -1.170285e+00  5.000000e+01
     vertex  6.608695e+00 -2.307628e+00  5.000000e+01
     vertex  6.608695e+00 -2.307628e+00  0.000000e+00
   endloop
 endfacet
 facet normal -8.916536e-01  4.527182e-01  0.000000e+00
   outer loop
     vertex -6.485417e+00  2.634268e+00  5.000000e+01
     vertex -5.953734e+00  3.681447e+00  0.000000e+00
     vertex -6.485417e+00  2.634268e+00  0.000000e+00
   endloop
 endfacet
 facet normal  9.964752e-01 -8.388744e-02  0.000000e+00
   outer loop
     vertex  7.000000e+00 -1.714506e-15  5.000000e+01
     vertex  6.901481e+00 -1.170285e+00  0.000000e+00
     vertex  7.000000e+00 -1.714506e-15  0.000000e+00
   endloop
 endfacet
 facet normal -8.916536e-01  4.527182e-01  0.000000e+00
   outer loop
     vertex -6.485417e+00  2.634268e+00  5.000000e+01
     vertex -5.953734e+00  3.681447e+00  5.000000e+01
     vertex -5.953734e+00  3.681447e+00  0.000000e+00
   endloop
 endfacet
 facet normal  9.964752e-01 -8.388744e-02  0.000000e+00
   outer loop
     vertex  7.000000e+00 -1.714506e-15  5.000000e+01
     vertex  6.901481e+00 -1.170285e+00  5.000000e+01
     vertex  6.901481e+00 -1.170285e+00  0.000000e+00
   endloop
 endfacet
 facet normal -9.547913e-01  2.972768e-01  0.000000e+00
   outer loop
     vertex -6.834546e+00  1.512938e+00  5.000000e+01
     vertex -6.485417e+00  2.634268e+00  0.000000e+00
     vertex -6.834546e+00  1.512938e+00  0.000000e+00
   endloop
 endfacet
 facet normal -9.547913e-01  2.972768e-01  0.000000e+00
   outer loop
     vertex -6.834546e+00  1.512938e+00  5.000000e+01
     vertex -6.485417e+00  2.634268e+00  5.000000e+01
     vertex -6.485417e+00  2.634268e+00  0.000000e+00
   endloop
 endfacet
 facet normal -9.910532e-01  1.334675e-01  0.000000e+00
   outer loop
     vertex -6.991293e+00  3.490207e-01  5.000000e+01
     vertex -6.834546e+00  1.512938e+00  0.000000e+00
     vertex -6.991293e+00  3.490207e-01  0.000000e+00
   endloop
 endfacet
 facet normal -9.910532e-01  1.334675e-01  0.000000e+00
   outer loop
     vertex -6.991293e+00  3.490207e-01  5.000000e+01
     vertex -6.834546e+00  1.512938e+00  5.000000e+01
     vertex -6.834546e+00  1.512938e+00  0.000000e+00
   endloop
 endfacet
 facet normal -9.994185e-01 -3.409874e-02 -0.000000e+00
   outer loop
     vertex -6.951247e+00 -8.247205e-01  5.000000e+01
     vertex -6.991293e+00  3.490207e-01  0.000000e+00
     vertex -6.951247e+00 -8.247205e-01  0.000000e+00
   endloop
 endfacet
 facet normal -9.994185e-01 -3.409874e-02  0.000000e+00
   outer loop
     vertex -6.951247e+00 -8.247205e-01  5.000000e+01
     vertex -6.991293e+00  3.490207e-01  5.000000e+01
     vertex -6.991293e+00  3.490207e-01  0.000000e+00
   endloop
 endfacet
 facet normal -9.796517e-01 -2.007051e-01 -0.000000e+00
   outer loop
     vertex -6.715534e+00 -1.975247e+00  5.000000e+01
     vertex -6.951247e+00 -8.247205e-01  0.000000e+00
     vertex -6.715534e+00 -1.975247e+00  0.000000e+00
   endloop
 endfacet
 facet normal -9.796517e-01 -2.007051e-01  0.000000e+00
   outer loop
     vertex -6.715534e+00 -1.975247e+00  5.000000e+01
     vertex -6.951247e+00 -8.247205e-01  5.000000e+01
     vertex -6.951247e+00 -8.247205e-01  0.000000e+00
   endloop
 endfacet
 facet normal -9.323093e-01 -3.616620e-01 -0.000000e+00
   outer loop
     vertex -6.290790e+00 -3.070174e+00  5.000000e+01
     vertex -6.715534e+00 -1.975247e+00  0.000000e+00
     vertex -6.290790e+00 -3.070174e+00  0.000000e+00
   endloop
 endfacet
 facet normal -9.323093e-01 -3.616620e-01  0.000000e+00
   outer loop
     vertex -6.290790e+00 -3.070174e+00  5.000000e+01
     vertex -6.715534e+00 -1.975247e+00  5.000000e+01
     vertex -6.715534e+00 -1.975247e+00  0.000000e+00
   endloop
 endfacet
 facet normal -8.587239e-01 -5.124386e-01 -0.000000e+00
   outer loop
     vertex -5.688969e+00 -4.078680e+00  5.000000e+01
     vertex -6.290790e+00 -3.070174e+00  0.000000e+00
     vertex -5.688969e+00 -4.078680e+00  0.000000e+00
   endloop
 endfacet
 facet normal -8.587239e-01 -5.124386e-01  0.000000e+00
   outer loop
     vertex -5.688969e+00 -4.078680e+00  5.000000e+01
     vertex -6.290790e+00 -3.070174e+00  5.000000e+01
     vertex -6.290790e+00 -3.070174e+00  0.000000e+00
   endloop
 endfacet
 facet normal -7.609667e-01 -6.487909e-01 -0.000000e+00
   outer loop
     vertex -4.927013e+00 -4.972378e+00  5.000000e+01
     vertex -5.688969e+00 -4.078680e+00  0.000000e+00
     vertex -4.927013e+00 -4.972378e+00  0.000000e+00
   endloop
 endfacet
 facet normal -7.609667e-01 -6.487909e-01  0.000000e+00
   outer loop
     vertex -4.927013e+00 -4.972378e+00  5.000000e+01
     vertex -5.688969e+00 -4.078680e+00  5.000000e+01
     vertex -5.688969e+00 -4.078680e+00  0.000000e+00
   endloop
 endfacet
 facet normal -6.417896e-01 -7.668808e-01 -0.000000e+00
   outer loop
     vertex -4.026370e+00 -5.726111e+00  5.000000e+01
     vertex -4.927013e+00 -4.972378e+00  0.000000e+00
     vertex -4.026370e+00 -5.726111e+00  0.000000e+00
   endloop
 endfacet
 facet normal -6.417896e-01 -7.668808e-01  0.000000e+00
   outer loop
     vertex -4.026370e+00 -5.726111e+00  5.000000e+01
     vertex -4.927013e+00 -4.972378e+00  5.000000e+01
     vertex -4.927013e+00 -4.972378e+00  0.000000e+00
   endloop
 endfacet
 facet normal -5.045470e-01 -8.633842e-01 -0.000000e+00
   outer loop
     vertex -3.012391e+00 -6.318663e+00  5.000000e+01
     vertex -4.026370e+00 -5.726111e+00  0.000000e+00
     vertex -3.012391e+00 -6.318663e+00  0.000000e+00
   endloop
 endfacet
 facet normal -5.045470e-01 -8.633842e-01  0.000000e+00
   outer loop
     vertex -3.012391e+00 -6.318663e+00  5.000000e+01
     vertex -4.026370e+00 -5.726111e+00  5.000000e+01
     vertex -4.026370e+00 -5.726111e+00  0.000000e+00
   endloop
 endfacet
 facet normal -3.531023e-01 -9.355847e-01 -0.000000e+00
   outer loop
     vertex -1.913617e+00 -6.733355e+00  5.000000e+01
     vertex -3.012391e+00 -6.318663e+00  0.000000e+00
     vertex -1.913617e+00 -6.733355e+00  0.000000e+00
   endloop
 endfacet
 facet normal -3.531023e-01 -9.355847e-01  0.000000e+00
   outer loop
     vertex -1.913617e+00 -6.733355e+00  5.000000e+01
     vertex -3.012391e+00 -6.318663e+00  5.000000e+01
     vertex -3.012391e+00 -6.318663e+00  0.000000e+00
   endloop
 endfacet
 facet normal -1.917184e-01 -9.814500e-01  0.000000e+00
   outer loop
     vertex -7.609788e-01 -6.958514e+00  5.000000e+01
     vertex -1.913617e+00 -6.733355e+00  5.000000e+01
     vertex -1.913617e+00 -6.733355e+00  0.000000e+00
   endloop
 endfacet
 facet normal -1.917184e-01 -9.814500e-01 -0.000000e+00
   outer loop
     vertex -7.609788e-01 -6.958514e+00  5.000000e+01
     vertex -1.913617e+00 -6.733355e+00  0.000000e+00
     vertex -7.609788e-01 -6.958514e+00  0.000000e+00
   endloop
 endfacet
 facet normal -2.493781e-02 -9.996890e-01  0.000000e+00
   outer loop
     vertex  4.130801e-01 -6.987801e+00  5.000000e+01
     vertex -7.609788e-01 -6.958514e+00  5.000000e+01
     vertex -7.609788e-01 -6.958514e+00  0.000000e+00
   endloop
 endfacet
 facet normal -2.493781e-02 -9.996890e-01 -0.000000e+00
   outer loop
     vertex  4.130801e-01 -6.987801e+00  5.000000e+01
     vertex -7.609788e-01 -6.958514e+00  0.000000e+00
     vertex  4.130801e-01 -6.987801e+00  0.000000e+00
   endloop
 endfacet
 facet normal  1.425447e-01 -9.897884e-01  0.000000e+00
   outer loop
     vertex  1.575512e+00 -6.820393e+00  5.000000e+01
     vertex  4.130801e-01 -6.987801e+00  5.000000e+01
     vertex  4.130801e-01 -6.987801e+00  0.000000e+00
   endloop
 endfacet
 facet normal  1.425447e-01 -9.897884e-01  0.000000e+00
   outer loop
     vertex  1.575512e+00 -6.820393e+00  5.000000e+01
     vertex  4.130801e-01 -6.987801e+00  0.000000e+00
     vertex  1.575512e+00 -6.820393e+00  0.000000e+00
   endloop
 endfacet
 facet normal  3.060148e-01 -9.520268e-01  0.000000e+00
   outer loop
     vertex  2.693595e+00 -6.461002e+00  5.000000e+01
     vertex  1.575512e+00 -6.820393e+00  0.000000e+00
     vertex  2.693595e+00 -6.461002e+00  0.000000e+00
   endloop
 endfacet
 facet normal  3.060148e-01 -9.520268e-01  0.000000e+00
   outer loop
     vertex  2.693595e+00 -6.461002e+00  5.000000e+01
     vertex  1.575512e+00 -6.820393e+00  5.000000e+01
     vertex  1.575512e+00 -6.820393e+00  0.000000e+00
   endloop
 endfacet
 facet normal  4.608711e-01 -8.874671e-01  0.000000e+00
   outer loop
     vertex  3.735858e+00 -5.919744e+00  5.000000e+01
     vertex  2.693595e+00 -6.461002e+00  5.000000e+01
     vertex  2.693595e+00 -6.461002e+00  0.000000e+00
   endloop
 endfacet
 facet normal  4.608711e-01 -8.874671e-01  0.000000e+00
   outer loop
     vertex  3.735858e+00 -5.919744e+00  5.000000e+01
     vertex  2.693595e+00 -6.461002e+00  0.000000e+00
     vertex  3.735858e+00 -5.919744e+00  0.000000e+00
   endloop
 endfacet
 facet normal  6.027545e-01 -7.979267e-01  0.000000e+00
   outer loop
     vertex  4.672962e+00 -5.211854e+00  5.000000e+01
     vertex  3.735858e+00 -5.919744e+00  0.000000e+00
     vertex  4.672962e+00 -5.211854e+00  0.000000e+00
   endloop
 endfacet
 facet normal  6.027545e-01 -7.979267e-01  0.000000e+00
   outer loop
     vertex  4.672962e+00 -5.211854e+00  5.000000e+01
     vertex  3.735858e+00 -5.919744e+00  5.000000e+01
     vertex  3.735858e+00 -5.919744e+00  0.000000e+00
   endloop
 endfacet
 facet normal  7.276714e-01 -6.859259e-01  0.000000e+00
   outer loop
     vertex  5.478530e+00 -4.357259e+00  5.000000e+01
     vertex  4.672962e+00 -5.211854e+00  0.000000e+00
     vertex  5.478530e+00 -4.357259e+00  0.000000e+00
   endloop
 endfacet
 facet normal  7.276714e-01 -6.859259e-01  0.000000e+00
   outer loop
     vertex  5.478530e+00 -4.357259e+00  5.000000e+01
     vertex  4.672962e+00 -5.211854e+00  5.000000e+01
     vertex  4.672962e+00 -5.211854e+00  0.000000e+00
   endloop
 endfacet
 facet normal  9.973964e-01  7.211434e-02  0.000000e+00
   outer loop
     vertex  6.927193e+00  1.006972e+00  5.000000e+01
     vertex  7.000000e+00 -1.714506e-15  0.000000e+00
     vertex  6.927193e+00  1.006972e+00  0.000000e+00
   endloop
 endfacet
 facet normal  9.973964e-01  7.211434e-02  0.000000e+00
   outer loop
     vertex  6.927193e+00  1.006972e+00  5.000000e+01
     vertex  7.000000e+00 -1.714506e-15  5.000000e+01
     vertex  7.000000e+00 -1.714506e-15  0.000000e+00
   endloop
 endfacet
 facet normal  9.766486e-01  2.148429e-01  0.000000e+00
   outer loop
     vertex  6.710288e+00  1.992997e+00  5.000000e+01
     vertex  6.927193e+00  1.006972e+00  0.000000e+00
     vertex  6.710288e+00  1.992997e+00  0.000000e+00
   endloop
 endfacet
 facet normal  9.766486e-01  2.148429e-01  0.000000e+00
   outer loop
     vertex  6.710288e+00  1.992997e+00  5.000000e+01
     vertex  6.927193e+00  1.006972e+00  5.000000e+01
     vertex  6.927193e+00  1.006972e+00  0.000000e+00
   endloop
 endfacet
 facet normal  9.355847e-01  3.531023e-01  0.000000e+00
   outer loop
     vertex  6.353795e+00  2.937564e+00  5.000000e+01
     vertex  6.710288e+00  1.992997e+00  0.000000e+00
     vertex  6.353795e+00  2.937564e+00  0.000000e+00
   endloop
 endfacet
 facet normal  9.355847e-01  3.531023e-01  0.000000e+00
   outer loop
     vertex  6.353795e+00  2.937564e+00  5.000000e+01
     vertex  6.710288e+00  1.992997e+00  5.000000e+01
     vertex  6.710288e+00  1.992997e+00  0.000000e+00
   endloop
 endfacet
 facet normal  8.750588e-01  4.840166e-01  0.000000e+00
   outer loop
     vertex  5.865132e+00  3.821025e+00  5.000000e+01
     vertex  6.353795e+00  2.937564e+00  0.000000e+00
     vertex  5.865132e+00  3.821025e+00  0.000000e+00
   endloop
 endfacet
 facet normal  7.963301e-01  6.048623e-01  0.000000e+00
   outer loop
     vertex  5.865132e+00  3.821025e+00  5.000000e+01
     vertex  5.865132e+00  3.821025e+00  0.000000e+00
     vertex  5.254462e+00  4.625000e+00  0.000000e+00
   endloop
 endfacet
 facet normal  8.750588e-01  4.840166e-01  0.000000e+00
   outer loop
     vertex  5.865132e+00  3.821025e+00  5.000000e+01
     vertex  6.353795e+00  2.937564e+00  5.000000e+01
     vertex  6.353795e+00  2.937564e+00  0.000000e+00
   endloop
 endfacet
 facet normal  7.963301e-01  6.048623e-01  0.000000e+00
   outer loop
     vertex  5.254462e+00  4.625000e+00  5.000000e+01
     vertex  5.865132e+00  3.821025e+00  5.000000e+01
     vertex  5.254462e+00  4.625000e+00  0.000000e+00
   endloop
 endfacet
 facet normal  0.000000e+00 -0.000000e+00 -1.000000e+00
   outer loop
     vertex  1.640416e+00 -2.249670e+00  0.000000e+00
     vertex  2.693595e+00 -6.461002e+00  0.000000e+00
     vertex  6.678825e-01 -2.459298e+00  0.000000e+00
   endloop
 endfacet
 facet normal  0.000000e+00  0.000000e+00 -1.000000e+00
   outer loop
     vertex  1.640416e+00 -2.249670e+00  0.000000e+00
     vertex  3.735858e+00 -5.919744e+00  0.000000e+00
     vertex  2.693595e+00 -6.461002e+00  0.000000e+00
   endloop
 endfacet
 facet normal  0.000000e+00 -0.000000e+00 -1.000000e+00
   outer loop
     vertex  2.559276e+00 -1.868276e+00  0.000000e+00
     vertex  3.735858e+00 -5.919744e+00  0.000000e+00
     vertex  1.640416e+00 -2.249670e+00  0.000000e+00
   endloop
 endfacet
 facet normal  0.000000e+00  0.000000e+00 -1.000000e+00
   outer loop
     vertex  2.559276e+00 -1.868276e+00  0.000000e+00
     vertex  4.672962e+00 -5.211854e+00  0.000000e+00
     vertex  3.735858e+00 -5.919744e+00  0.000000e+00
   endloop
 endfacet
 facet normal -0.000000e+00  0.000000e+00 -1.000000e+00
   outer loop
     vertex  5.478530e+00 -4.357259e+00  0.000000e+00
     vertex  4.672962e+00 -5.211854e+00  0.000000e+00
     vertex  2.559276e+00 -1.868276e+00  0.000000e+00
   endloop
 endfacet
 facet normal  0.000000e+00 -0.000000e+00 -1.000000e+00
   outer loop
     vertex  3.394397e+00 -1.327594e+00  0.000000e+00
     vertex  5.478530e+00 -4.357259e+00  0.000000e+00
     vertex  2.559276e+00 -1.868276e+00  0.000000e+00
   endloop
 endfacet
 facet normal -0.000000e+00  0.000000e+00 -1.000000e+00
   outer loop
     vertex  6.129886e+00 -3.380015e+00  0.000000e+00
     vertex  5.478530e+00 -4.357259e+00  0.000000e+00
     vertex  3.394397e+00 -1.327594e+00  0.000000e+00
   endloop
 endfacet
 facet normal  0.000000e+00 -0.000000e+00 -1.000000e+00
   outer loop
     vertex  4.118456e+00 -6.453152e-01  0.000000e+00
     vertex  6.129886e+00 -3.380015e+00  0.000000e+00
     vertex  3.394397e+00 -1.327594e+00  0.000000e+00
   endloop
 endfacet
 facet normal -0.000000e+00  0.000000e+00 -1.000000e+00
   outer loop
     vertex  6.608695e+00 -2.307628e+00  0.000000e+00
     vertex  6.129886e+00 -3.380015e+00  0.000000e+00
     vertex  4.118456e+00 -6.453152e-01  0.000000e+00
   endloop
 endfacet
 facet normal -0.000000e+00  0.000000e+00 -1.000000e+00
   outer loop
     vertex  6.901481e+00 -1.170285e+00  0.000000e+00
     vertex  6.608695e+00 -2.307628e+00  0.000000e+00
     vertex  4.118456e+00 -6.453152e-01  0.000000e+00
   endloop
 endfacet
 facet normal  0.000000e+00  0.000000e+00 -1.000000e+00
   outer loop
     vertex  6.901481e+00 -1.170285e+00  0.000000e+00
     vertex  4.118456e+00 -6.453152e-01  0.000000e+00
     vertex  4.707760e+00  1.562363e-01  0.000000e+00
   endloop
 endfacet
 facet normal -0.000000e+00  0.000000e+00 -1.000000e+00
   outer loop
     vertex  7.000000e+00 -1.714506e-15  0.000000e+00
     vertex  6.901481e+00 -1.170285e+00  0.000000e+00
     vertex  4.707760e+00  1.562363e-01  0.000000e+00
   endloop
 endfacet
 facet normal  0.000000e+00  0.000000e+00 -1.000000e+00
   outer loop
     vertex  7.000000e+00 -1.714506e-15  0.000000e+00
     vertex  4.707760e+00  1.562363e-01  0.000000e+00
     vertex  5.143030e+00  1.050834e+00  0.000000e+00
   endloop
 endfacet
 facet normal -0.000000e+00 -0.000000e+00 -1.000000e+00
   outer loop
     vertex  6.927193e+00  1.006972e+00  0.000000e+00
     vertex  7.000000e+00 -1.714506e-15  0.000000e+00
     vertex  5.143030e+00  1.050834e+00  0.000000e+00
   endloop
 endfacet
 facet normal  0.000000e+00  0.000000e+00 -1.000000e+00
   outer loop
     vertex  6.927193e+00  1.006972e+00  0.000000e+00
     vertex  5.143030e+00  1.050834e+00  0.000000e+00
     vertex  5.410021e+00  2.009208e+00  0.000000e+00
   endloop
 endfacet
 facet normal -0.000000e+00 -0.000000e+00 -1.000000e+00
   outer loop
     vertex  6.710288e+00  1.992997e+00  0.000000e+00
     vertex  6.927193e+00  1.006972e+00  0.000000e+00
     vertex  5.410021e+00  2.009208e+00  0.000000e+00
   endloop
 endfacet
 facet normal  0.000000e+00  0.000000e+00 -1.000000e+00
   outer loop
     vertex -3.883376e+00 -8.947907e-01  0.000000e+00
     vertex -6.290790e+00 -3.070174e+00  0.000000e+00
     vertex -6.715534e+00 -1.975247e+00  0.000000e+00
   endloop
 endfacet
 facet normal  0.000000e+00 -0.000000e+00 -1.000000e+00
   outer loop
     vertex  6.353795e+00  2.937564e+00  0.000000e+00
     vertex  6.710288e+00  1.992997e+00  0.000000e+00
     vertex  5.410021e+00  2.009208e+00  0.000000e+00
   endloop
 endfacet
 facet normal -0.000000e+00  0.000000e+00 -1.000000e+00
   outer loop
     vertex  6.353795e+00  2.937564e+00  0.000000e+00
     vertex  5.410021e+00  2.009208e+00  0.000000e+00
     vertex  5.500000e+00  3.000000e+00  0.000000e+00
   endloop
 endfacet
 facet normal  0.000000e+00  0.000000e+00 -1.000000e+00
   outer loop
     vertex  5.865132e+00  3.821025e+00  0.000000e+00
     vertex  5.500000e+00  3.000000e+00  0.000000e+00
     vertex  5.472535e+00  3.548958e+00  0.000000e+00
   endloop
 endfacet
 facet normal -0.000000e+00  0.000000e+00 -1.000000e+00
   outer loop
     vertex  5.865132e+00  3.821025e+00  0.000000e+00
     vertex  5.472535e+00  3.548958e+00  0.000000e+00
     vertex  5.390416e+00  4.092434e+00  0.000000e+00
   endloop
 endfacet
 facet normal  0.000000e+00 -0.000000e+00 -1.000000e+00
   outer loop
     vertex  5.865132e+00  3.821025e+00  0.000000e+00
     vertex  6.353795e+00  2.937564e+00  0.000000e+00
     vertex  5.500000e+00  3.000000e+00  0.000000e+00
   endloop
 endfacet
 facet normal  0.000000e+00  0.000000e+00 -1.000000e+00
   outer loop
     vertex -4.521468e+00 -1.315061e-01  0.000000e+00
     vertex -6.715534e+00 -1.975247e+00  0.000000e+00
     vertex -6.951247e+00 -8.247205e-01  0.000000e+00
   endloop
 endfacet
 facet normal  0.000000e+00 -0.000000e+00 -1.000000e+00
   outer loop
     vertex -4.521468e+00 -1.315061e-01  0.000000e+00
     vertex -3.883376e+00 -8.947907e-01  0.000000e+00
     vertex -6.715534e+00 -1.975247e+00  0.000000e+00
   endloop
 endfacet
 facet normal  0.000000e+00  0.000000e+00 -1.000000e+00
   outer loop
     vertex  5.254462e+00  4.625000e+00  0.000000e+00
     vertex  5.865132e+00  3.821025e+00  0.000000e+00
     vertex  5.390416e+00  4.092434e+00  0.000000e+00
   endloop
 endfacet
 facet normal  0.000000e+00  0.000000e+00 -1.000000e+00
   outer loop
     vertex -3.118221e+00 -1.530640e+00  0.000000e+00
     vertex -5.688969e+00 -4.078680e+00  0.000000e+00
     vertex -6.290790e+00 -3.070174e+00  0.000000e+00
   endloop
 endfacet
 facet normal  0.000000e+00  0.000000e+00 -1.000000e+00
   outer loop
     vertex -3.118221e+00 -1.530640e+00  0.000000e+00
     vertex -4.927013e+00 -4.972378e+00  0.000000e+00
     vertex -5.688969e+00 -4.078680e+00  0.000000e+00
   endloop
 endfacet
 facet normal -0.000000e+00  0.000000e+00 -1.000000e+00
   outer loop
     vertex -3.118221e+00 -1.530640e+00  0.000000e+00
     vertex -6.290790e+00 -3.070174e+00  0.000000e+00
     vertex -3.883376e+00 -8.947907e-01  0.000000e+00
   endloop
 endfacet
 facet normal -0.000000e+00  0.000000e+00 -1.000000e+00
   outer loop
     vertex -5.011620e+00  7.342398e-01  0.000000e+00
     vertex -6.991293e+00  3.490207e-01  0.000000e+00
     vertex -6.834546e+00  1.512938e+00  0.000000e+00
   endloop
 endfacet
 facet normal  0.000000e+00  0.000000e+00 -1.000000e+00
   outer loop
     vertex -5.011620e+00  7.342398e-01  0.000000e+00
     vertex -6.951247e+00 -8.247205e-01  0.000000e+00
     vertex -6.991293e+00  3.490207e-01  0.000000e+00
   endloop
 endfacet
 facet normal  0.000000e+00 -0.000000e+00 -1.000000e+00
   outer loop
     vertex -5.011620e+00  7.342398e-01  0.000000e+00
     vertex -4.521468e+00 -1.315061e-01  0.000000e+00
     vertex -6.951247e+00 -8.247205e-01  0.000000e+00
   endloop
 endfacet
 facet normal  0.000000e+00  0.000000e+00 -1.000000e+00
   outer loop
     vertex -2.251040e+00 -2.018248e+00  0.000000e+00
     vertex -4.026370e+00 -5.726111e+00  0.000000e+00
     vertex -4.927013e+00 -4.972378e+00  0.000000e+00
   endloop
 endfacet
 facet normal -0.000000e+00  0.000000e+00 -1.000000e+00
   outer loop
     vertex -2.251040e+00 -2.018248e+00  0.000000e+00
     vertex -4.927013e+00 -4.972378e+00  0.000000e+00
     vertex -3.118221e+00 -1.530640e+00  0.000000e+00
   endloop
 endfacet
 facet normal -0.000000e+00  0.000000e+00 -1.000000e+00
   outer loop
     vertex -5.337794e+00  1.674120e+00  0.000000e+00
     vertex -6.834546e+00  1.512938e+00  0.000000e+00
     vertex -6.485417e+00  2.634268e+00  0.000000e+00
   endloop
 endfacet
 facet normal  0.000000e+00 -0.000000e+00 -1.000000e+00
   outer loop
     vertex -5.337794e+00  1.674120e+00  0.000000e+00
     vertex -5.011620e+00  7.342398e-01  0.000000e+00
     vertex -6.834546e+00  1.512938e+00  0.000000e+00
   endloop
 endfacet
 facet normal  0.000000e+00  0.000000e+00 -1.000000e+00
   outer loop
     vertex -1.310207e+00 -2.341663e+00  0.000000e+00
     vertex -3.012391e+00 -6.318663e+00  0.000000e+00
     vertex -4.026370e+00 -5.726111e+00  0.000000e+00
   endloop
 endfacet
 facet normal  0.000000e+00  0.000000e+00 -1.000000e+00
   outer loop
     vertex -1.310207e+00 -2.341663e+00  0.000000e+00
     vertex -1.913617e+00 -6.733355e+00  0.000000e+00
     vertex -3.012391e+00 -6.318663e+00  0.000000e+00
   endloop
 endfacet
 facet normal -0.000000e+00  0.000000e+00 -1.000000e+00
   outer loop
     vertex -1.310207e+00 -2.341663e+00  0.000000e+00
     vertex -4.026370e+00 -5.726111e+00  0.000000e+00
     vertex -2.251040e+00 -2.018248e+00  0.000000e+00
   endloop
 endfacet
 facet normal  0.000000e+00 -0.000000e+00 -1.000000e+00
   outer loop
     vertex -5.489318e+00  2.657383e+00  0.000000e+00
     vertex -5.337794e+00  1.674120e+00  0.000000e+00
     vertex -6.485417e+00  2.634268e+00  0.000000e+00
   endloop
 endfacet
 facet normal  0.000000e+00  0.000000e+00 -1.000000e+00
   outer loop
     vertex -3.265036e-01 -2.490300e+00  0.000000e+00
     vertex -7.609788e-01 -6.958514e+00  0.000000e+00
     vertex -1.913617e+00 -6.733355e+00  0.000000e+00
   endloop
 endfacet
 facet normal  0.000000e+00 -0.000000e+00 -1.000000e+00
   outer loop
     vertex -3.265036e-01 -2.490300e+00  0.000000e+00
     vertex  4.130801e-01 -6.987801e+00  0.000000e+00
     vertex -7.609788e-01 -6.958514e+00  0.000000e+00
   endloop
 endfacet
 facet normal -0.000000e+00  0.000000e+00 -1.000000e+00
   outer loop
     vertex -3.265036e-01 -2.490300e+00  0.000000e+00
     vertex -1.913617e+00 -6.733355e+00  0.000000e+00
     vertex -1.310207e+00 -2.341663e+00  0.000000e+00
   endloop
 endfacet
 facet normal  0.000000e+00 -0.000000e+00 -1.000000e+00
   outer loop
     vertex -5.953734e+00  3.681447e+00  0.000000e+00
     vertex -5.489318e+00  2.657383e+00  0.000000e+00
     vertex -6.485417e+00  2.634268e+00  0.000000e+00
   endloop
 endfacet
 facet normal -0.000000e+00  0.000000e+00 -1.000000e+00
   outer loop
     vertex -5.461235e+00  3.651856e+00  0.000000e+00
     vertex -5.489318e+00  2.657383e+00  0.000000e+00
     vertex -5.953734e+00  3.681447e+00  0.000000e+00
   endloop
 endfacet
 facet normal  0.000000e+00 -0.000000e+00 -1.000000e+00
   outer loop
     vertex  6.678825e-01 -2.459298e+00  0.000000e+00
     vertex  1.575512e+00 -6.820393e+00  0.000000e+00
     vertex  4.130801e-01 -6.987801e+00  0.000000e+00
   endloop
 endfacet
 facet normal  0.000000e+00  0.000000e+00 -1.000000e+00
   outer loop
     vertex  6.678825e-01 -2.459298e+00  0.000000e+00
     vertex  2.693595e+00 -6.461002e+00  0.000000e+00
     vertex  1.575512e+00 -6.820393e+00  0.000000e+00
   endloop
 endfacet
 facet normal  0.000000e+00  0.000000e+00 -1.000000e+00
   outer loop
     vertex  6.678825e-01 -2.459298e+00  0.000000e+00
     vertex  4.130801e-01 -6.987801e+00  0.000000e+00
     vertex -3.265036e-01 -2.490300e+00  0.000000e+00
   endloop
 endfacet
 facet normal  0.000000e+00  0.000000e+00 -1.000000e+00
   outer loop
     vertex -5.254462e+00  4.625000e+00  0.000000e+00
     vertex -5.461235e+00  3.651856e+00  0.000000e+00
     vertex -5.953734e+00  3.681447e+00  0.000000e+00
   endloop
 endfacet
 facet normal  9.781631e-01 -2.078387e-01  0.000000e+00
   outer loop
     vertex -5.254462e+00  4.625000e+00  5.000000e+01
     vertex -5.461235e+00  3.651856e+00  0.000000e+00
     vertex -5.254462e+00  4.625000e+00  0.000000e+00
   endloop
 endfacet
 facet normal  9.781631e-01 -2.078387e-01  0.000000e+00
   outer loop
     vertex -5.461235e+00  3.651856e+00  5.000000e+01
     vertex -5.461235e+00  3.651856e+00  0.000000e+00
     vertex -5.254462e+00  4.625000e+00  5.000000e+01
   endloop
 endfacet
 facet normal  9.996015e-01 -2.822826e-02  0.000000e+00
   outer loop
     vertex -5.489318e+00  2.657383e+00  5.000000e+01
     vertex -5.489318e+00  2.657383e+00  0.000000e+00
     vertex -5.461235e+00  3.651856e+00  0.000000e+00
   endloop
 endfacet
 facet normal  9.996015e-01 -2.822826e-02  0.000000e+00
   outer loop
     vertex -5.489318e+00  2.657383e+00  5.000000e+01
     vertex -5.461235e+00  3.651856e+00  0.000000e+00
     vertex -5.461235e+00  3.651856e+00  5.000000e+01
   endloop
 endfacet
 facet normal  9.883334e-01  1.523058e-01  0.000000e+00
   outer loop
     vertex -5.337794e+00  1.674120e+00  5.000000e+01
     vertex -5.337794e+00  1.674120e+00  0.000000e+00
     vertex -5.489318e+00  2.657383e+00  0.000000e+00
   endloop
 endfacet
 facet normal  9.883334e-01  1.523058e-01  0.000000e+00
   outer loop
     vertex -5.337794e+00  1.674120e+00  5.000000e+01
     vertex -5.489318e+00  2.657383e+00  0.000000e+00
     vertex -5.489318e+00  2.657383e+00  5.000000e+01
   endloop
 endfacet
 facet normal  9.447276e-01  3.278564e-01  0.000000e+00
   outer loop
     vertex -5.011620e+00  7.342398e-01  5.000000e+01
     vertex -5.011620e+00  7.342398e-01  0.000000e+00
     vertex -5.337794e+00  1.674120e+00  0.000000e+00
   endloop
 endfacet
 facet normal  9.447276e-01  3.278564e-01  0.000000e+00
   outer loop
     vertex -5.011620e+00  7.342398e-01  5.000000e+01
     vertex -5.337794e+00  1.674120e+00  0.000000e+00
     vertex -5.337794e+00  1.674120e+00  5.000000e+01
   endloop
 endfacet
 facet normal  8.702107e-01  4.926797e-01  0.000000e+00
   outer loop
     vertex -4.521468e+00 -1.315061e-01  5.000000e+01
     vertex -4.521468e+00 -1.315061e-01  0.000000e+00
     vertex -5.011620e+00  7.342398e-01  0.000000e+00
   endloop
 endfacet
 facet normal  8.702107e-01  4.926797e-01  0.000000e+00
   outer loop
     vertex -4.521468e+00 -1.315061e-01  5.000000e+01
     vertex -5.011620e+00  7.342398e-01  0.000000e+00
     vertex -5.011620e+00  7.342398e-01  5.000000e+01
   endloop
 endfacet
 facet normal  7.672210e-01  6.413829e-01  0.000000e+00
   outer loop
     vertex -3.883376e+00 -8.947907e-01  5.000000e+01
     vertex -3.883376e+00 -8.947907e-01  0.000000e+00
     vertex -4.521468e+00 -1.315061e-01  0.000000e+00
   endloop
 endfacet
 facet normal  7.672210e-01  6.413829e-01  0.000000e+00
   outer loop
     vertex -3.883376e+00 -8.947907e-01  5.000000e+01
     vertex -4.521468e+00 -1.315061e-01  0.000000e+00
     vertex -4.521468e+00 -1.315061e-01  5.000000e+01
   endloop
 endfacet
 facet normal  6.391282e-01  7.691002e-01  0.000000e+00
   outer loop
     vertex -3.118221e+00 -1.530640e+00  5.000000e+01
     vertex -3.118221e+00 -1.530640e+00  0.000000e+00
     vertex -3.883376e+00 -8.947907e-01  0.000000e+00
   endloop
 endfacet
 facet normal  6.391282e-01  7.691002e-01  0.000000e+00
   outer loop
     vertex -3.118221e+00 -1.530640e+00  5.000000e+01
     vertex -3.883376e+00 -8.947907e-01  0.000000e+00
     vertex -3.883376e+00 -8.947907e-01  5.000000e+01
   endloop
 endfacet
 facet normal  4.901234e-01  8.716531e-01  0.000000e+00
   outer loop
     vertex -2.251040e+00 -2.018248e+00  5.000000e+01
     vertex -2.251040e+00 -2.018248e+00  0.000000e+00
     vertex -3.118221e+00 -1.530640e+00  0.000000e+00
   endloop
 endfacet
 facet normal  4.901234e-01  8.716531e-01  0.000000e+00
   outer loop
     vertex -2.251040e+00 -2.018248e+00  5.000000e+01
     vertex -3.118221e+00 -1.530640e+00  0.000000e+00
     vertex -3.118221e+00 -1.530640e+00  5.000000e+01
   endloop
 endfacet
 facet normal  3.250820e-01  9.456858e-01  0.000000e+00
   outer loop
     vertex -1.310207e+00 -2.341663e+00  5.000000e+01
     vertex -1.310207e+00 -2.341663e+00  0.000000e+00
     vertex -2.251040e+00 -2.018248e+00  0.000000e+00
   endloop
 endfacet
 facet normal  1.494042e-01  9.887762e-01  0.000000e+00
   outer loop
     vertex -1.310207e+00 -2.341663e+00  5.000000e+01
     vertex -3.265036e-01 -2.490300e+00  0.000000e+00
     vertex -1.310207e+00 -2.341663e+00  0.000000e+00
   endloop
 endfacet
 facet normal  3.250820e-01  9.456858e-01  0.000000e+00
   outer loop
     vertex -1.310207e+00 -2.341663e+00  5.000000e+01
     vertex -2.251040e+00 -2.018248e+00  0.000000e+00
     vertex -2.251040e+00 -2.018248e+00  5.000000e+01
   endloop
 endfacet
 facet normal  1.494042e-01  9.887762e-01  0.000000e+00
   outer loop
     vertex -3.265036e-01 -2.490300e+00  5.000000e+01
     vertex -3.265036e-01 -2.490300e+00  0.000000e+00
     vertex -1.310207e+00 -2.341663e+00  5.000000e+01
   endloop
 endfacet
 facet normal -3.116216e-02  9.995143e-01  0.000000e+00
   outer loop
     vertex  6.678825e-01 -2.459298e+00  5.000000e+01
     vertex  6.678825e-01 -2.459298e+00  0.000000e+00
     vertex -3.265036e-01 -2.490300e+00  0.000000e+00
   endloop
 endfacet
 facet normal -3.116216e-02  9.995143e-01  0.000000e+00
   outer loop
     vertex  6.678825e-01 -2.459298e+00  5.000000e+01
     vertex -3.265036e-01 -2.490300e+00  0.000000e+00
     vertex -3.265036e-01 -2.490300e+00  5.000000e+01
   endloop
 endfacet
 facet normal -2.107089e-01  9.775489e-01  0.000000e+00
   outer loop
     vertex  1.640416e+00 -2.249670e+00  5.000000e+01
     vertex  1.640416e+00 -2.249670e+00  0.000000e+00
     vertex  6.678825e-01 -2.459298e+00  0.000000e+00
   endloop
 endfacet
 facet normal -2.107089e-01  9.775489e-01  0.000000e+00
   outer loop
     vertex  1.640416e+00 -2.249670e+00  5.000000e+01
     vertex  6.678825e-01 -2.459298e+00  0.000000e+00
     vertex  6.678825e-01 -2.459298e+00  5.000000e+01
   endloop
 endfacet
 facet normal -3.833613e-01  9.235985e-01  0.000000e+00
   outer loop
     vertex  2.559276e+00 -1.868276e+00  5.000000e+01
     vertex  2.559276e+00 -1.868276e+00  0.000000e+00
     vertex  1.640416e+00 -2.249670e+00  0.000000e+00
   endloop
 endfacet
 facet normal -5.434703e-01  8.394284e-01  0.000000e+00
   outer loop
     vertex  2.559276e+00 -1.868276e+00  5.000000e+01
     vertex  3.394397e+00 -1.327594e+00  0.000000e+00
     vertex  2.559276e+00 -1.868276e+00  0.000000e+00
   endloop
 endfacet
 facet normal -3.833613e-01  9.235985e-01  0.000000e+00
   outer loop
     vertex  2.559276e+00 -1.868276e+00  5.000000e+01
     vertex  1.640416e+00 -2.249670e+00  0.000000e+00
     vertex  1.640416e+00 -2.249670e+00  5.000000e+01
   endloop
 endfacet
 facet normal -5.434703e-01  8.394284e-01  0.000000e+00
   outer loop
     vertex  3.394397e+00 -1.327594e+00  5.000000e+01
     vertex  3.394397e+00 -1.327594e+00  0.000000e+00
     vertex  2.559276e+00 -1.868276e+00  5.000000e+01
   endloop
 endfacet
 facet normal -6.857972e-01  7.277927e-01  0.000000e+00
   outer loop
     vertex  4.118456e+00 -6.453152e-01  5.000000e+01
     vertex  3.394397e+00 -1.327594e+00  0.000000e+00
     vertex  3.394397e+00 -1.327594e+00  5.000000e+01
   endloop
 endfacet
 facet normal -6.857972e-01  7.277927e-01  0.000000e+00
   outer loop
     vertex  4.118456e+00 -6.453152e-01  5.000000e+01
     vertex  4.118456e+00 -6.453152e-01  0.000000e+00
     vertex  3.394397e+00 -1.327594e+00  0.000000e+00
   endloop
 endfacet
 facet normal -8.056852e-01  5.923439e-01  0.000000e+00
   outer loop
     vertex  4.707760e+00  1.562363e-01  5.000000e+01
     vertex  4.118456e+00 -6.453152e-01  0.000000e+00
     vertex  4.118456e+00 -6.453152e-01  5.000000e+01
   endloop
 endfacet
 facet normal -8.056852e-01  5.923439e-01  0.000000e+00
   outer loop
     vertex  4.707760e+00  1.562363e-01  5.000000e+01
     vertex  4.707760e+00  1.562363e-01  0.000000e+00
     vertex  4.118456e+00 -6.453152e-01  0.000000e+00
   endloop
 endfacet
 facet normal -8.992116e-01  4.375139e-01  0.000000e+00
   outer loop
     vertex  5.143030e+00  1.050834e+00  5.000000e+01
     vertex  4.707760e+00  1.562363e-01  0.000000e+00
     vertex  4.707760e+00  1.562363e-01  5.000000e+01
   endloop
 endfacet
 facet normal -8.992116e-01  4.375139e-01  0.000000e+00
   outer loop
     vertex  5.143030e+00  1.050834e+00  5.000000e+01
     vertex  5.143030e+00  1.050834e+00  0.000000e+00
     vertex  4.707760e+00  1.562363e-01  0.000000e+00
   endloop
 endfacet
 facet normal -9.633163e-01  2.683687e-01  0.000000e+00
   outer loop
     vertex  5.410021e+00  2.009208e+00  5.000000e+01
     vertex  5.143030e+00  1.050834e+00  0.000000e+00
     vertex  5.143030e+00  1.050834e+00  5.000000e+01
   endloop
 endfacet
 facet normal -9.633163e-01  2.683687e-01  0.000000e+00
   outer loop
     vertex  5.410021e+00  2.009208e+00  5.000000e+01
     vertex  5.410021e+00  2.009208e+00  0.000000e+00
     vertex  5.143030e+00  1.050834e+00  0.000000e+00
   endloop
 endfacet
 facet normal -9.959017e-01  9.044266e-02  0.000000e+00
   outer loop
     vertex  5.500000e+00  3.000000e+00  5.000000e+01
     vertex  5.410021e+00  2.009208e+00  0.000000e+00
     vertex  5.410021e+00  2.009208e+00  5.000000e+01
   endloop
 endfacet
 facet normal -9.959017e-01  9.044266e-02  0.000000e+00
   outer loop
     vertex  5.500000e+00  3.000000e+00  5.000000e+01
     vertex  5.500000e+00  3.000000e+00  0.000000e+00
     vertex  5.410021e+00  2.009208e+00  0.000000e+00
   endloop
 endfacet
 facet normal  0.000000e+00  0.000000e+00  1.000000e+00
   outer loop
     vertex  1.640416e+00 -2.249670e+00  5.000000e+01
     vertex  6.678825e-01 -2.459298e+00  5.000000e+01
     vertex  2.693595e+00 -6.461002e+00  5.000000e+01
   endloop
 endfacet
 facet normal  0.000000e+00  0.000000e+00  1.000000e+00
   outer loop
     vertex  1.640416e+00 -2.249670e+00  5.000000e+01
     vertex  2.693595e+00 -6.461002e+00  5.000000e+01
     vertex  3.735858e+00 -5.919744e+00  5.000000e+01
   endloop
 endfacet
 facet normal  0.000000e+00  0.000000e+00  1.000000e+00
   outer loop
     vertex  2.559276e+00 -1.868276e+00  5.000000e+01
     vertex  1.640416e+00 -2.249670e+00  5.000000e+01
     vertex  3.735858e+00 -5.919744e+00  5.000000e+01
   endloop
 endfacet
 facet normal  0.000000e+00  0.000000e+00  1.000000e+00
   outer loop
     vertex  2.559276e+00 -1.868276e+00  5.000000e+01
     vertex  3.735858e+00 -5.919744e+00  5.000000e+01
     vertex  4.672962e+00 -5.211854e+00  5.000000e+01
   endloop
 endfacet
 facet normal  0.000000e+00  0.000000e+00  1.000000e+00
   outer loop
     vertex  5.478530e+00 -4.357259e+00  5.000000e+01
     vertex  2.559276e+00 -1.868276e+00  5.000000e+01
     vertex  4.672962e+00 -5.211854e+00  5.000000e+01
   endloop
 endfacet
 facet normal  0.000000e+00  0.000000e+00  1.000000e+00
   outer loop
     vertex  3.394397e+00 -1.327594e+00  5.000000e+01
     vertex  2.559276e+00 -1.868276e+00  5.000000e+01
     vertex  5.478530e+00 -4.357259e+00  5.000000e+01
   endloop
 endfacet
 facet normal  0.000000e+00  0.000000e+00  1.000000e+00
   outer loop
     vertex  6.129886e+00 -3.380015e+00  5.000000e+01
     vertex  3.394397e+00 -1.327594e+00  5.000000e+01
     vertex  5.478530e+00 -4.357259e+00  5.000000e+01
   endloop
 endfacet
 facet normal  0.000000e+00  0.000000e+00  1.000000e+00
   outer loop
     vertex  4.118456e+00 -6.453152e-01  5.000000e+01
     vertex  3.394397e+00 -1.327594e+00  5.000000e+01
     vertex  6.129886e+00 -3.380015e+00  5.000000e+01
   endloop
 endfacet
 facet normal  0.000000e+00  0.000000e+00  1.000000e+00
   outer loop
     vertex  6.608695e+00 -2.307628e+00  5.000000e+01
     vertex  4.118456e+00 -6.453152e-01  5.000000e+01
     vertex  6.129886e+00 -3.380015e+00  5.000000e+01
   endloop
 endfacet
 facet normal  0.000000e+00  0.000000e+00  1.000000e+00
   outer loop
     vertex  6.901481e+00 -1.170285e+00  5.000000e+01
     vertex  4.118456e+00 -6.453152e-01  5.000000e+01
     vertex  6.608695e+00 -2.307628e+00  5.000000e+01
   endloop
 endfacet
 facet normal  0.000000e+00  0.000000e+00  1.000000e+00
   outer loop
     vertex  6.901481e+00 -1.170285e+00  5.000000e+01
     vertex  4.707760e+00  1.562363e-01  5.000000e+01
     vertex  4.118456e+00 -6.453152e-01  5.000000e+01
   endloop
 endfacet
 facet normal  0.000000e+00  0.000000e+00  1.000000e+00
   outer loop
     vertex  7.000000e+00 -1.714506e-15  5.000000e+01
     vertex  4.707760e+00  1.562363e-01  5.000000e+01
     vertex  6.901481e+00 -1.170285e+00  5.000000e+01
   endloop
 endfacet
 facet normal  0.000000e+00  0.000000e+00  1.000000e+00
   outer loop
     vertex  7.000000e+00 -1.714506e-15  5.000000e+01
     vertex  5.143030e+00  1.050834e+00  5.000000e+01
     vertex  4.707760e+00  1.562363e-01  5.000000e+01
   endloop
 endfacet
 facet normal  0.000000e+00  0.000000e+00  1.000000e+00
   outer loop
     vertex  6.927193e+00  1.006972e+00  5.000000e+01
     vertex  5.143030e+00  1.050834e+00  5.000000e+01
     vertex  7.000000e+00 -1.714506e-15  5.000000e+01
   endloop
 endfacet
 facet normal  0.000000e+00  0.000000e+00  1.000000e+00
   outer loop
     vertex  6.927193e+00  1.006972e+00  5.000000e+01
     vertex  5.410021e+00  2.009208e+00  5.000000e+01
     vertex  5.143030e+00  1.050834e+00  5.000000e+01
   endloop
 endfacet
 facet normal  0.000000e+00  0.000000e+00  1.000000e+00
   outer loop
     vertex  6.710288e+00  1.992997e+00  5.000000e+01
     vertex  5.410021e+00  2.009208e+00  5.000000e+01
     vertex  6.927193e+00  1.006972e+00  5.000000e+01
   endloop
 endfacet
 facet normal  0.000000e+00  0.000000e+00  1.000000e+00
   outer loop
     vertex -3.883376e+00 -8.947907e-01  5.000000e+01
     vertex -6.715534e+00 -1.975247e+00  5.000000e+01
     vertex -6.290790e+00 -3.070174e+00  5.000000e+01
   endloop
 endfacet
 facet normal  0.000000e+00  0.000000e+00  1.000000e+00
   outer loop
     vertex  6.353795e+00  2.937564e+00  5.000000e+01
     vertex  5.410021e+00  2.009208e+00  5.000000e+01
     vertex  6.710288e+00  1.992997e+00  5.000000e+01
   endloop
 endfacet
 facet normal  0.000000e+00  0.000000e+00  1.000000e+00
   outer loop
     vertex  6.353795e+00  2.937564e+00  5.000000e+01
     vertex  5.500000e+00  3.000000e+00  5.000000e+01
     vertex  5.410021e+00  2.009208e+00  5.000000e+01
   endloop
 endfacet
 facet normal  0.000000e+00  0.000000e+00  1.000000e+00
   outer loop
     vertex  5.865132e+00  3.821025e+00  5.000000e+01
     vertex  5.472535e+00  3.548958e+00  5.000000e+01
     vertex  5.500000e+00  3.000000e+00  5.000000e+01
   endloop
 endfacet
 facet normal  0.000000e+00  0.000000e+00  1.000000e+00
   outer loop
     vertex  5.865132e+00  3.821025e+00  5.000000e+01
     vertex  5.390416e+00  4.092434e+00  5.000000e+01
     vertex  5.472535e+00  3.548958e+00  5.000000e+01
   endloop
 endfacet
 facet normal  0.000000e+00  0.000000e+00  1.000000e+00
   outer loop
     vertex  5.865132e+00  3.821025e+00  5.000000e+01
     vertex  5.500000e+00  3.000000e+00  5.000000e+01
     vertex  6.353795e+00  2.937564e+00  5.000000e+01
   endloop
 endfacet
 facet normal  0.000000e+00  0.000000e+00  1.000000e+00
   outer loop
     vertex -4.521468e+00 -1.315061e-01  5.000000e+01
     vertex -6.951247e+00 -8.247205e-01  5.000000e+01
     vertex -6.715534e+00 -1.975247e+00  5.000000e+01
   endloop
 endfacet
 facet normal  0.000000e+00  0.000000e+00  1.000000e+00
   outer loop
     vertex -4.521468e+00 -1.315061e-01  5.000000e+01
     vertex -6.715534e+00 -1.975247e+00  5.000000e+01
     vertex -3.883376e+00 -8.947907e-01  5.000000e+01
   endloop
 endfacet
 facet normal  0.000000e+00  0.000000e+00  1.000000e+00
   outer loop
     vertex  5.254462e+00  4.625000e+00  5.000000e+01
     vertex  5.390416e+00  4.092434e+00  5.000000e+01
     vertex  5.865132e+00  3.821025e+00  5.000000e+01
   endloop
 endfacet
 facet normal  0.000000e+00  0.000000e+00  1.000000e+00
   outer loop
     vertex -3.118221e+00 -1.530640e+00  5.000000e+01
     vertex -6.290790e+00 -3.070174e+00  5.000000e+01
     vertex -5.688969e+00 -4.078680e+00  5.000000e+01
   endloop
 endfacet
 facet normal  0.000000e+00  0.000000e+00  1.000000e+00
   outer loop
     vertex -3.118221e+00 -1.530640e+00  5.000000e+01
     vertex -5.688969e+00 -4.078680e+00  5.000000e+01
     vertex -4.927013e+00 -4.972378e+00  5.000000e+01
   endloop
 endfacet
 facet normal  0.000000e+00  0.000000e+00  1.000000e+00
   outer loop
     vertex -3.118221e+00 -1.530640e+00  5.000000e+01
     vertex -3.883376e+00 -8.947907e-01  5.000000e+01
     vertex -6.290790e+00 -3.070174e+00  5.000000e+01
   endloop
 endfacet
 facet normal  0.000000e+00  0.000000e+00  1.000000e+00
   outer loop
     vertex -5.011620e+00  7.342398e-01  5.000000e+01
     vertex -6.834546e+00  1.512938e+00  5.000000e+01
     vertex -6.991293e+00  3.490207e-01  5.000000e+01
   endloop
 endfacet
 facet normal  0.000000e+00  0.000000e+00  1.000000e+00
   outer loop
     vertex -5.011620e+00  7.342398e-01  5.000000e+01
     vertex -6.991293e+00  3.490207e-01  5.000000e+01
     vertex -6.951247e+00 -8.247205e-01  5.000000e+01
   endloop
 endfacet
 facet normal  0.000000e+00  0.000000e+00  1.000000e+00
   outer loop
     vertex -5.011620e+00  7.342398e-01  5.000000e+01
     vertex -6.951247e+00 -8.247205e-01  5.000000e+01
     vertex -4.521468e+00 -1.315061e-01  5.000000e+01
   endloop
 endfacet
 facet normal  0.000000e+00  0.000000e+00  1.000000e+00
   outer loop
     vertex -2.251040e+00 -2.018248e+00  5.000000e+01
     vertex -4.927013e+00 -4.972378e+00  5.000000e+01
     vertex -4.026370e+00 -5.726111e+00  5.000000e+01
   endloop
 endfacet
 facet normal  0.000000e+00  0.000000e+00  1.000000e+00
   outer loop
     vertex -2.251040e+00 -2.018248e+00  5.000000e+01
     vertex -3.118221e+00 -1.530640e+00  5.000000e+01
     vertex -4.927013e+00 -4.972378e+00  5.000000e+01
   endloop
 endfacet
 facet normal  0.000000e+00  0.000000e+00  1.000000e+00
   outer loop
     vertex -5.337794e+00  1.674120e+00  5.000000e+01
     vertex -6.485417e+00  2.634268e+00  5.000000e+01
     vertex -6.834546e+00  1.512938e+00  5.000000e+01
   endloop
 endfacet
 facet normal  0.000000e+00  0.000000e+00  1.000000e+00
   outer loop
     vertex -5.337794e+00  1.674120e+00  5.000000e+01
     vertex -6.834546e+00  1.512938e+00  5.000000e+01
     vertex -5.011620e+00  7.342398e-01  5.000000e+01
   endloop
 endfacet
 facet normal  0.000000e+00  0.000000e+00  1.000000e+00
   outer loop
     vertex -1.310207e+00 -2.341663e+00  5.000000e+01
     vertex -4.026370e+00 -5.726111e+00  5.000000e+01
     vertex -3.012391e+00 -6.318663e+00  5.000000e+01
   endloop
 endfacet
 facet normal  0.000000e+00  0.000000e+00  1.000000e+00
   outer loop
     vertex -1.310207e+00 -2.341663e+00  5.000000e+01
     vertex -3.012391e+00 -6.318663e+00  5.000000e+01
     vertex -1.913617e+00 -6.733355e+00  5.000000e+01
   endloop
 endfacet
 facet normal  0.000000e+00  0.000000e+00  1.000000e+00
   outer loop
     vertex -1.310207e+00 -2.341663e+00  5.000000e+01
     vertex -2.251040e+00 -2.018248e+00  5.000000e+01
     vertex -4.026370e+00 -5.726111e+00  5.000000e+01
   endloop
 endfacet
 facet normal  0.000000e+00  0.000000e+00  1.000000e+00
   outer loop
     vertex -5.489318e+00  2.657383e+00  5.000000e+01
     vertex -6.485417e+00  2.634268e+00  5.000000e+01
     vertex -5.337794e+00  1.674120e+00  5.000000e+01
   endloop
 endfacet
 facet normal  0.000000e+00  0.000000e+00  1.000000e+00
   outer loop
     vertex -3.265036e-01 -2.490300e+00  5.000000e+01
     vertex -1.913617e+00 -6.733355e+00  5.000000e+01
     vertex -7.609788e-01 -6.958514e+00  5.000000e+01
   endloop
 endfacet
 facet normal  0.000000e+00  0.000000e+00  1.000000e+00
   outer loop
     vertex -3.265036e-01 -2.490300e+00  5.000000e+01
     vertex -7.609788e-01 -6.958514e+00  5.000000e+01
     vertex  4.130801e-01 -6.987801e+00  5.000000e+01
   endloop
 endfacet
 facet normal  0.000000e+00  0.000000e+00  1.000000e+00
   outer loop
     vertex -3.265036e-01 -2.490300e+00  5.000000e+01
     vertex -1.310207e+00 -2.341663e+00  5.000000e+01
     vertex -1.913617e+00 -6.733355e+00  5.000000e+01
   endloop
 endfacet
 facet normal  0.000000e+00  0.000000e+00  1.000000e+00
   outer loop
     vertex -5.953734e+00  3.681447e+00  5.000000e+01
     vertex -6.485417e+00  2.634268e+00  5.000000e+01
     vertex -5.489318e+00  2.657383e+00  5.000000e+01
   endloop
 endfacet
 facet normal  0.000000e+00  0.000000e+00  1.000000e+00
   outer loop
     vertex -5.461235e+00  3.651856e+00  5.000000e+01
     vertex -5.953734e+00  3.681447e+00  5.000000e+01
     vertex -5.489318e+00  2.657383e+00  5.000000e+01
   endloop
 endfacet
 facet normal  0.000000e+00  0.000000e+00  1.000000e+00
   outer loop
     vertex  6.678825e-01 -2.459298e+00  5.000000e+01
     vertex  4.130801e-01 -6.987801e+00  5.000000e+01
     vertex  1.575512e+00 -6.820393e+00  5.000000e+01
   endloop
 endfacet
 facet normal  0.000000e+00  0.000000e+00  1.000000e+00
   outer loop
     vertex  6.678825e-01 -2.459298e+00  5.000000e+01
     vertex  1.575512e+00 -6.820393e+00  5.000000e+01
     vertex  2.693595e+00 -6.461002e+00  5.000000e+01
   endloop
 endfacet
 facet normal  0.000000e+00  0.000000e+00  1.000000e+00
   outer loop
     vertex  6.678825e-01 -2.459298e+00  5.000000e+01
     vertex -3.265036e-01 -2.490300e+00  5.000000e+01
     vertex  4.130801e-01 -6.987801e+00  5.000000e+01
   endloop
 endfacet
 facet normal  0.000000e+00  0.000000e+00  1.000000e+00
   outer loop
     vertex -5.254462e+00  4.625000e+00  5.000000e+01
     vertex -5.953734e+00  3.681447e+00  5.000000e+01
     vertex -5.461235e+00  3.651856e+00  5.000000e+01
   endloop
 endfacet
 facet normal -9.987508e-01 -4.996773e-02 -0.000000e+00
   outer loop
     vertex  5.472535e+00  3.548958e+00  5.000000e+01
     vertex  5.472535e+00  3.548958e+00  0.000000e+00
     vertex  5.500000e+00  3.000000e+00  0.000000e+00
   endloop
 endfacet
 facet normal -9.987508e-01 -4.996773e-02  0.000000e+00
   outer loop
     vertex  5.472535e+00  3.548958e+00  5.000000e+01
     vertex  5.500000e+00  3.000000e+00  0.000000e+00
     vertex  5.500000e+00  3.000000e+00  5.000000e+01
   endloop
 endfacet
 facet normal -9.887762e-01 -1.494042e-01 -0.000000e+00
   outer loop
     vertex  5.390416e+00  4.092434e+00  5.000000e+01
     vertex  5.390416e+00  4.092434e+00  0.000000e+00
     vertex  5.472535e+00  3.548958e+00  0.000000e+00
   endloop
 endfacet
 facet normal -9.689266e-01 -2.473485e-01 -0.000000e+00
   outer loop
     vertex  5.390416e+00  4.092434e+00  5.000000e+01
     vertex  5.254462e+00  4.625000e+00  0.000000e+00
     vertex  5.390416e+00  4.092434e+00  0.000000e+00
   endloop
 endfacet
 facet normal -9.887762e-01 -1.494042e-01  0.000000e+00
   outer loop
     vertex  5.390416e+00  4.092434e+00  5.000000e+01
     vertex  5.472535e+00  3.548958e+00  0.000000e+00
     vertex  5.472535e+00  3.548958e+00  5.000000e+01
   endloop
 endfacet
 facet normal -9.689266e-01 -2.473485e-01 -0.000000e+00
   outer loop
     vertex  5.254462e+00  4.625000e+00  5.000000e+01
     vertex  5.254462e+00  4.625000e+00  0.000000e+00
     vertex  5.390416e+00  4.092434e+00  5.000000e+01
   endloop
 endfacet
 facet normal  1.182493e-16  5.546173e-01  8.321055e-01
   outer loop
     vertex  2.500000e+01 -6.119985e+00  3.112989e+01
     vertex -2.500000e+01 -5.142741e+00  3.047853e+01
     vertex -2.500000e+01 -6.119985e+00  3.112989e+01
   endloop
 endfacet
 facet normal  5.861070e-17  5.546173e-01  8.321055e-01
   outer loop
     vertex  2.500000e+01 -6.119985e+00  3.112989e+01
     vertex  2.500000e+01 -5.142741e+00  3.047853e+01
     vertex -2.500000e+01 -5.142741e+00  3.047853e+01
   endloop
 endfacet
 facet normal -1.141725e-16 -5.954164e-01 -8.034173e-01
   outer loop
     vertex  2.500000e+01 -1.412500e+01  1.974554e+01
     vertex -2.500000e+01 -1.412500e+01  1.974554e+01
     vertex -2.500000e+01 -1.318145e+01  1.904627e+01
   endloop
 endfacet
 facet normal  1.297618e-16  4.076972e-01  9.131172e-01
   outer loop
     vertex  2.500000e+01 -7.192372e+00  3.160870e+01
     vertex -2.500000e+01 -6.119985e+00  3.112989e+01
     vertex -2.500000e+01 -7.192372e+00  3.160870e+01
   endloop
 endfacet
 facet normal  1.304561e-16  4.076972e-01  9.131172e-01
   outer loop
     vertex  2.500000e+01 -7.192372e+00  3.160870e+01
     vertex  2.500000e+01 -6.119985e+00  3.112989e+01
     vertex -2.500000e+01 -6.119985e+00  3.112989e+01
   endloop
 endfacet
 facet normal -5.708623e-17 -5.954164e-01 -8.034173e-01
   outer loop
     vertex  2.500000e+01 -1.318145e+01  1.904627e+01
     vertex  2.500000e+01 -1.412500e+01  1.974554e+01
     vertex -2.500000e+01 -1.318145e+01  1.904627e+01
   endloop
 endfacet
 facet normal  6.881081e-17  2.493010e-01  9.684260e-01
   outer loop
     vertex  2.500000e+01 -8.329715e+00  3.190148e+01
     vertex -2.500000e+01 -7.192372e+00  3.160870e+01
     vertex -2.500000e+01 -8.329715e+00  3.190148e+01
   endloop
 endfacet
 facet normal  1.380188e-16  2.493010e-01  9.684260e-01
   outer loop
     vertex  2.500000e+01 -8.329715e+00  3.190148e+01
     vertex  2.500000e+01 -7.192372e+00  3.160870e+01
     vertex -2.500000e+01 -7.192372e+00  3.160870e+01
   endloop
 endfacet
 facet normal -1.267116e-16 -4.527182e-01 -8.916536e-01
   outer loop
     vertex  2.500000e+01 -1.213427e+01  1.851458e+01
     vertex -2.500000e+01 -1.318145e+01  1.904627e+01
     vertex -2.500000e+01 -1.213427e+01  1.851458e+01
   endloop
 endfacet
 facet normal  1.416076e-16  8.388744e-02  9.964752e-01
   outer loop
     vertex  2.500000e+01 -9.500000e+00  3.200000e+01
     vertex -2.500000e+01 -8.329715e+00  3.190148e+01
     vertex -2.500000e+01 -9.500000e+00  3.200000e+01
   endloop
 endfacet
 facet normal -6.428271e-17 -4.527182e-01 -8.916536e-01
   outer loop
     vertex  2.500000e+01 -1.213427e+01  1.851458e+01
     vertex  2.500000e+01 -1.318145e+01  1.904627e+01
     vertex -2.500000e+01 -1.318145e+01  1.904627e+01
   endloop
 endfacet
 facet normal  7.090004e-17  8.388744e-02  9.964752e-01
   outer loop
     vertex  2.500000e+01 -9.500000e+00  3.200000e+01
     vertex  2.500000e+01 -8.329715e+00  3.190148e+01
     vertex -2.500000e+01 -8.329715e+00  3.190148e+01
   endloop
 endfacet
 facet normal -2.035260e-16 -2.972768e-01 -9.547913e-01
   outer loop
     vertex  2.500000e+01 -1.101294e+01  1.816545e+01
     vertex -2.500000e+01 -1.213427e+01  1.851458e+01
     vertex -2.500000e+01 -1.101294e+01  1.816545e+01
   endloop
 endfacet
 facet normal -1.351827e-16 -2.972768e-01 -9.547913e-01
   outer loop
     vertex  2.500000e+01 -1.101294e+01  1.816545e+01
     vertex  2.500000e+01 -1.213427e+01  1.851458e+01
     vertex -2.500000e+01 -1.213427e+01  1.851458e+01
   endloop
 endfacet
 facet normal -1.408371e-16 -1.334675e-01 -9.910532e-01
   outer loop
     vertex  2.500000e+01 -9.849021e+00  1.800871e+01
     vertex -2.500000e+01 -1.101294e+01  1.816545e+01
     vertex -2.500000e+01 -9.849021e+00  1.800871e+01
   endloop
 endfacet
 facet normal -2.112821e-16 -1.334675e-01 -9.910532e-01
   outer loop
     vertex  2.500000e+01 -9.849021e+00  1.800871e+01
     vertex  2.500000e+01 -1.101294e+01  1.816545e+01
     vertex -2.500000e+01 -1.101294e+01  1.816545e+01
   endloop
 endfacet
 facet normal -1.420259e-16  3.409874e-02 -9.994185e-01
   outer loop
     vertex  2.500000e+01 -8.675280e+00  1.804875e+01
     vertex -2.500000e+01 -9.849021e+00  1.800871e+01
     vertex -2.500000e+01 -8.675280e+00  1.804875e+01
   endloop
 endfacet
 facet normal -1.420364e-16  3.409874e-02 -9.994185e-01
   outer loop
     vertex  2.500000e+01 -8.675280e+00  1.804875e+01
     vertex  2.500000e+01 -9.849021e+00  1.800871e+01
     vertex -2.500000e+01 -9.849021e+00  1.800871e+01
   endloop
 endfacet
 facet normal  0.000000e+00  2.007051e-01 -9.796517e-01
   outer loop
     vertex  2.500000e+01 -7.524753e+00  1.828447e+01
     vertex -2.500000e+01 -8.675280e+00  1.804875e+01
     vertex -2.500000e+01 -7.524753e+00  1.828447e+01
   endloop
 endfacet
 facet normal -1.389641e-16  2.007051e-01 -9.796517e-01
   outer loop
     vertex  2.500000e+01 -7.524753e+00  1.828447e+01
     vertex  2.500000e+01 -8.675280e+00  1.804875e+01
     vertex -2.500000e+01 -8.675280e+00  1.804875e+01
   endloop
 endfacet
 facet normal -6.624456e-17  3.616620e-01 -9.323093e-01
   outer loop
     vertex  2.500000e+01 -6.429826e+00  1.870921e+01
     vertex -2.500000e+01 -7.524753e+00  1.828447e+01
     vertex -2.500000e+01 -6.429826e+00  1.870921e+01
   endloop
 endfacet
 facet normal  0.000000e+00  3.616620e-01 -9.323093e-01
   outer loop
     vertex  2.500000e+01 -6.429826e+00  1.870921e+01
     vertex  2.500000e+01 -7.524753e+00  1.828447e+01
     vertex -2.500000e+01 -7.524753e+00  1.828447e+01
   endloop
 endfacet
 facet normal -6.101600e-17  5.124386e-01 -8.587239e-01
   outer loop
     vertex  2.500000e+01 -5.421320e+00  1.931103e+01
     vertex -2.500000e+01 -6.429826e+00  1.870921e+01
     vertex -2.500000e+01 -5.421320e+00  1.931103e+01
   endloop
 endfacet
 facet normal -6.050137e-17  5.124386e-01 -8.587239e-01
   outer loop
     vertex  2.500000e+01 -5.421320e+00  1.931103e+01
     vertex  2.500000e+01 -6.429826e+00  1.870921e+01
     vertex -2.500000e+01 -6.429826e+00  1.870921e+01
   endloop
 endfacet
 facet normal -5.406994e-17  6.487909e-01 -7.609667e-01
   outer loop
     vertex  2.500000e+01 -4.527622e+00  2.007299e+01
     vertex -2.500000e+01 -5.421320e+00  1.931103e+01
     vertex -2.500000e+01 -4.527622e+00  2.007299e+01
   endloop
 endfacet
 facet normal -5.482937e-17  6.487909e-01 -7.609667e-01
   outer loop
     vertex  2.500000e+01 -4.527622e+00  2.007299e+01
     vertex  2.500000e+01 -5.421320e+00  1.931103e+01
     vertex -2.500000e+01 -5.421320e+00  1.931103e+01
   endloop
 endfacet
 facet normal -4.560189e-17  7.668808e-01 -6.417896e-01
   outer loop
     vertex  2.500000e+01 -3.773889e+00  2.097363e+01
     vertex -2.500000e+01 -4.527622e+00  2.007299e+01
     vertex -2.500000e+01 -3.773889e+00  2.097363e+01
   endloop
 endfacet
 facet normal -4.537603e-17  7.668808e-01 -6.417896e-01
   outer loop
     vertex  2.500000e+01 -3.773889e+00  2.097363e+01
     vertex  2.500000e+01 -4.527622e+00  2.007299e+01
     vertex -2.500000e+01 -4.527622e+00  2.007299e+01
   endloop
 endfacet
 facet normal -7.170045e-17  8.633842e-01 -5.045470e-01
   outer loop
     vertex  2.500000e+01 -3.181337e+00  2.198761e+01
     vertex -2.500000e+01 -3.773889e+00  2.097363e+01
     vertex -2.500000e+01 -3.181337e+00  2.198761e+01
   endloop
 endfacet
 facet normal -3.592269e-17  8.633842e-01 -5.045470e-01
   outer loop
     vertex  2.500000e+01 -3.181337e+00  2.198761e+01
     vertex  2.500000e+01 -3.773889e+00  2.097363e+01
     vertex -2.500000e+01 -3.773889e+00  2.097363e+01
   endloop
 endfacet
 facet normal -5.017886e-17  9.355847e-01 -3.531023e-01
   outer loop
     vertex  2.500000e+01 -2.766645e+00  2.308638e+01
     vertex -2.500000e+01 -3.181337e+00  2.198761e+01
     vertex -2.500000e+01 -2.766645e+00  2.308638e+01
   endloop
 endfacet
 facet normal -5.010270e-17  9.355847e-01 -3.531023e-01
   outer loop
     vertex  2.500000e+01 -2.766645e+00  2.308638e+01
     vertex  2.500000e+01 -3.181337e+00  2.198761e+01
     vertex -2.500000e+01 -3.181337e+00  2.198761e+01
   endloop
 endfacet
 facet normal -2.741468e-17  9.814500e-01 -1.917184e-01
   outer loop
     vertex  2.500000e+01 -2.541486e+00  2.423902e+01
     vertex  2.500000e+01 -2.766645e+00  2.308638e+01
     vertex -2.500000e+01 -2.766645e+00  2.308638e+01
   endloop
 endfacet
 facet normal -2.724482e-17  9.814500e-01 -1.917184e-01
   outer loop
     vertex  2.500000e+01 -2.541486e+00  2.423902e+01
     vertex -2.500000e+01 -2.766645e+00  2.308638e+01
     vertex -2.500000e+01 -2.541486e+00  2.423902e+01
   endloop
 endfacet
 facet normal -3.545002e-18  9.996890e-01 -2.493781e-02
   outer loop
     vertex  2.500000e+01 -2.512199e+00  2.541308e+01
     vertex  2.500000e+01 -2.541486e+00  2.423902e+01
     vertex -2.500000e+01 -2.541486e+00  2.423902e+01
   endloop
 endfacet
 facet normal -1.771938e-18  9.996890e-01 -2.493781e-02
   outer loop
     vertex  2.500000e+01 -2.512199e+00  2.541308e+01
     vertex -2.500000e+01 -2.541486e+00  2.423902e+01
     vertex -2.500000e+01 -2.512199e+00  2.541308e+01
   endloop
 endfacet
 facet normal  9.926006e-18  9.897884e-01  1.425447e-01
   outer loop
     vertex  2.500000e+01 -2.679607e+00  2.657551e+01
     vertex  2.500000e+01 -2.512199e+00  2.541308e+01
     vertex -2.500000e+01 -2.512199e+00  2.541308e+01
   endloop
 endfacet
 facet normal  1.012841e-17  9.897884e-01  1.425447e-01
   outer loop
     vertex  2.500000e+01 -2.679607e+00  2.657551e+01
     vertex -2.500000e+01 -2.512199e+00  2.541308e+01
     vertex -2.500000e+01 -2.679607e+00  2.657551e+01
   endloop
 endfacet
 facet normal  4.348732e-17  9.520268e-01  3.060148e-01
   outer loop
     vertex  2.500000e+01 -3.038998e+00  2.769359e+01
     vertex -2.500000e+01 -2.679607e+00  2.657551e+01
     vertex -2.500000e+01 -3.038998e+00  2.769359e+01
   endloop
 endfacet
 facet normal  2.174268e-17  9.520268e-01  3.060148e-01
   outer loop
     vertex  2.500000e+01 -3.038998e+00  2.769359e+01
     vertex  2.500000e+01 -2.679607e+00  2.657551e+01
     vertex -2.500000e+01 -2.679607e+00  2.657551e+01
   endloop
 endfacet
 facet normal  6.428271e-17  8.874671e-01  4.608711e-01
   outer loop
     vertex  2.500000e+01 -3.580256e+00  2.873586e+01
     vertex  2.500000e+01 -3.038998e+00  2.769359e+01
     vertex -2.500000e+01 -3.038998e+00  2.769359e+01
   endloop
 endfacet
 facet normal  3.274686e-17  8.874671e-01  4.608711e-01
   outer loop
     vertex  2.500000e+01 -3.580256e+00  2.873586e+01
     vertex -2.500000e+01 -3.038998e+00  2.769359e+01
     vertex -2.500000e+01 -3.580256e+00  2.873586e+01
   endloop
 endfacet
 facet normal  8.565657e-17  7.979267e-01  6.027545e-01
   outer loop
     vertex  2.500000e+01 -4.288146e+00  2.967296e+01
     vertex -2.500000e+01 -3.580256e+00  2.873586e+01
     vertex -2.500000e+01 -4.288146e+00  2.967296e+01
   endloop
 endfacet
 facet normal  4.159469e-17  7.979267e-01  6.027545e-01
   outer loop
     vertex  2.500000e+01 -4.288146e+00  2.967296e+01
     vertex  2.500000e+01 -3.580256e+00  2.873586e+01
     vertex -2.500000e+01 -3.580256e+00  2.873586e+01
   endloop
 endfacet
 facet normal  5.170417e-17  6.859259e-01  7.276714e-01
   outer loop
     vertex  2.500000e+01 -5.142741e+00  3.047853e+01
     vertex -2.500000e+01 -4.288146e+00  2.967296e+01
     vertex -2.500000e+01 -5.142741e+00  3.047853e+01
   endloop
 endfacet
 facet normal  1.020961e-16  6.859259e-01  7.276714e-01
   outer loop
     vertex  2.500000e+01 -5.142741e+00  3.047853e+01
     vertex  2.500000e+01 -4.288146e+00  2.967296e+01
     vertex -2.500000e+01 -4.288146e+00  2.967296e+01
   endloop
 endfacet
 facet normal  1.417385e-16 -7.211434e-02  9.973964e-01
   outer loop
     vertex  2.500000e+01 -1.050697e+01  3.192719e+01
     vertex -2.500000e+01 -9.500000e+00  3.200000e+01
     vertex -2.500000e+01 -1.050697e+01  3.192719e+01
   endloop
 endfacet
 facet normal  1.418568e-16 -7.211434e-02  9.973964e-01
   outer loop
     vertex  2.500000e+01 -1.050697e+01  3.192719e+01
     vertex  2.500000e+01 -9.500000e+00  3.200000e+01
     vertex -2.500000e+01 -9.500000e+00  3.200000e+01
   endloop
 endfacet
 facet normal  1.387901e-16 -2.148429e-01  9.766486e-01
   outer loop
     vertex  2.500000e+01 -1.149300e+01  3.171029e+01
     vertex -2.500000e+01 -1.050697e+01  3.192719e+01
     vertex -2.500000e+01 -1.149300e+01  3.171029e+01
   endloop
 endfacet
 facet normal  1.385578e-16 -2.148429e-01  9.766486e-01
   outer loop
     vertex  2.500000e+01 -1.149300e+01  3.171029e+01
     vertex  2.500000e+01 -1.050697e+01  3.192719e+01
     vertex -2.500000e+01 -1.050697e+01  3.192719e+01
   endloop
 endfacet
 facet normal  1.329546e-16 -3.531023e-01  9.355847e-01
   outer loop
     vertex  2.500000e+01 -1.243756e+01  3.135380e+01
     vertex -2.500000e+01 -1.149300e+01  3.171029e+01
     vertex -2.500000e+01 -1.243756e+01  3.135380e+01
   endloop
 endfacet
 facet normal  1.330595e-16 -3.531023e-01  9.355847e-01
   outer loop
     vertex  2.500000e+01 -1.243756e+01  3.135380e+01
     vertex  2.500000e+01 -1.149300e+01  3.171029e+01
     vertex -2.500000e+01 -1.149300e+01  3.171029e+01
   endloop
 endfacet
 facet normal  6.217667e-17 -4.840166e-01  8.750588e-01
   outer loop
     vertex  2.500000e+01 -1.332102e+01  3.086513e+01
     vertex -2.500000e+01 -1.243756e+01  3.135380e+01
     vertex -2.500000e+01 -1.332102e+01  3.086513e+01
   endloop
 endfacet
 facet normal  5.658266e-17 -6.048623e-01  7.963301e-01
   outer loop
     vertex  2.500000e+01 -1.332102e+01  3.086513e+01
     vertex -2.500000e+01 -1.332102e+01  3.086513e+01
     vertex -2.500000e+01 -1.412500e+01  3.025446e+01
   endloop
 endfacet
 facet normal  1.242622e-16 -4.840166e-01  8.750588e-01
   outer loop
     vertex  2.500000e+01 -1.332102e+01  3.086513e+01
     vertex  2.500000e+01 -1.243756e+01  3.135380e+01
     vertex -2.500000e+01 -1.243756e+01  3.135380e+01
   endloop
 endfacet
 facet normal  5.658266e-17 -6.048623e-01  7.963301e-01
   outer loop
     vertex  2.500000e+01 -1.412500e+01  3.025446e+01
     vertex  2.500000e+01 -1.332102e+01  3.086513e+01
     vertex -2.500000e+01 -1.412500e+01  3.025446e+01
   endloop
 endfacet
 facet normal -1.000000e+00  0.000000e+00  0.000000e+00
   outer loop
     vertex -2.500000e+01 -7.250330e+00  2.664042e+01
     vertex -2.500000e+01 -3.580256e+00  2.873586e+01
     vertex -2.500000e+01 -3.038998e+00  2.769359e+01
   endloop
 endfacet
 facet normal -1.000000e+00  0.000000e+00  0.000000e+00
   outer loop
     vertex -2.500000e+01 -7.250330e+00  2.664042e+01
     vertex -2.500000e+01 -3.038998e+00  2.769359e+01
     vertex -2.500000e+01 -7.040702e+00  2.566788e+01
   endloop
 endfacet
 facet normal -1.000000e+00  0.000000e+00  0.000000e+00
   outer loop
     vertex -2.500000e+01 -7.631724e+00  2.755928e+01
     vertex -2.500000e+01 -3.580256e+00  2.873586e+01
     vertex -2.500000e+01 -7.250330e+00  2.664042e+01
   endloop
 endfacet
 facet normal -1.000000e+00  0.000000e+00  0.000000e+00
   outer loop
     vertex -2.500000e+01 -7.631724e+00  2.755928e+01
     vertex -2.500000e+01 -4.288146e+00  2.967296e+01
     vertex -2.500000e+01 -3.580256e+00  2.873586e+01
   endloop
 endfacet
 facet normal -1.000000e+00  0.000000e+00 -0.000000e+00
   outer loop
     vertex -2.500000e+01 -5.142741e+00  3.047853e+01
     vertex -2.500000e+01 -4.288146e+00  2.967296e+01
     vertex -2.500000e+01 -7.631724e+00  2.755928e+01
   endloop
 endfacet
 facet normal -1.000000e+00  0.000000e+00  0.000000e+00
   outer loop
     vertex -2.500000e+01 -8.172406e+00  2.839440e+01
     vertex -2.500000e+01 -5.142741e+00  3.047853e+01
     vertex -2.500000e+01 -7.631724e+00  2.755928e+01
   endloop
 endfacet
 facet normal -1.000000e+00  0.000000e+00 -0.000000e+00
   outer loop
     vertex -2.500000e+01 -6.119985e+00  3.112989e+01
     vertex -2.500000e+01 -5.142741e+00  3.047853e+01
     vertex -2.500000e+01 -8.172406e+00  2.839440e+01
   endloop
 endfacet
 facet normal -1.000000e+00  0.000000e+00  0.000000e+00
   outer loop
     vertex -2.500000e+01 -8.854685e+00  2.911846e+01
     vertex -2.500000e+01 -6.119985e+00  3.112989e+01
     vertex -2.500000e+01 -8.172406e+00  2.839440e+01
   endloop
 endfacet
 facet normal -1.000000e+00  0.000000e+00 -0.000000e+00
   outer loop
     vertex -2.500000e+01 -7.192372e+00  3.160870e+01
     vertex -2.500000e+01 -6.119985e+00  3.112989e+01
     vertex -2.500000e+01 -8.854685e+00  2.911846e+01
   endloop
 endfacet
 facet normal -1.000000e+00  0.000000e+00 -0.000000e+00
   outer loop
     vertex -2.500000e+01 -8.329715e+00  3.190148e+01
     vertex -2.500000e+01 -7.192372e+00  3.160870e+01
     vertex -2.500000e+01 -8.854685e+00  2.911846e+01
   endloop
 endfacet
 facet normal -1.000000e+00  0.000000e+00  0.000000e+00
   outer loop
     vertex -2.500000e+01 -8.329715e+00  3.190148e+01
     vertex -2.500000e+01 -8.854685e+00  2.911846e+01
     vertex -2.500000e+01 -9.656236e+00  2.970776e+01
   endloop
 endfacet
 facet normal -1.000000e+00  0.000000e+00 -0.000000e+00
   outer loop
     vertex -2.500000e+01 -9.500000e+00  3.200000e+01
     vertex -2.500000e+01 -8.329715e+00  3.190148e+01
     vertex -2.500000e+01 -9.656236e+00  2.970776e+01
   endloop
 endfacet
 facet normal -1.000000e+00  0.000000e+00  0.000000e+00
   outer loop
     vertex -2.500000e+01 -9.500000e+00  3.200000e+01
     vertex -2.500000e+01 -9.656236e+00  2.970776e+01
     vertex -2.500000e+01 -1.055083e+01  3.014303e+01
   endloop
 endfacet
 facet normal -1.000000e+00  0.000000e+00 -0.000000e+00
   outer loop
     vertex -2.500000e+01 -1.050697e+01  3.192719e+01
     vertex -2.500000e+01 -9.500000e+00  3.200000e+01
     vertex -2.500000e+01 -1.055083e+01  3.014303e+01
   endloop
 endfacet
 facet normal -1.000000e+00  0.000000e+00  0.000000e+00
   outer loop
     vertex -2.500000e+01 -1.050697e+01  3.192719e+01
     vertex -2.500000e+01 -1.055083e+01  3.014303e+01
     vertex -2.500000e+01 -1.150921e+01  3.041002e+01
   endloop
 endfacet
 facet normal -1.000000e+00  0.000000e+00 -0.000000e+00
   outer loop
     vertex -2.500000e+01 -1.149300e+01  3.171029e+01
     vertex -2.500000e+01 -1.050697e+01  3.192719e+01
     vertex -2.500000e+01 -1.150921e+01  3.041002e+01
   endloop
 endfacet
 facet normal -1.000000e+00  0.000000e+00  0.000000e+00
   outer loop
     vertex -2.500000e+01 -1.243756e+01  3.135380e+01
     vertex -2.500000e+01 -1.149300e+01  3.171029e+01
     vertex -2.500000e+01 -1.150921e+01  3.041002e+01
   endloop
 endfacet
 facet normal -1.000000e+00  0.000000e+00 -0.000000e+00
   outer loop
     vertex -2.500000e+01 -1.243756e+01  3.135380e+01
     vertex -2.500000e+01 -1.150921e+01  3.041002e+01
     vertex -2.500000e+01 -1.250000e+01  3.050000e+01
   endloop
 endfacet
 facet normal -1.000000e+00  0.000000e+00  0.000000e+00
   outer loop
     vertex -2.500000e+01 -8.605209e+00  2.111662e+01
     vertex -2.500000e+01 -6.429826e+00  1.870921e+01
     vertex -2.500000e+01 -7.524753e+00  1.828447e+01
   endloop
 endfacet
 facet normal -1.000000e+00  0.000000e+00  0.000000e+00
   outer loop
     vertex -2.500000e+01 -1.332102e+01  3.086513e+01
     vertex -2.500000e+01 -1.250000e+01  3.050000e+01
     vertex -2.500000e+01 -1.304896e+01  3.047254e+01
   endloop
 endfacet
 facet normal -1.000000e+00  0.000000e+00 -0.000000e+00
   outer loop
     vertex -2.500000e+01 -1.332102e+01  3.086513e+01
     vertex -2.500000e+01 -1.304896e+01  3.047254e+01
     vertex -2.500000e+01 -1.359243e+01  3.039042e+01
   endloop
 endfacet
 facet normal -1.000000e+00  0.000000e+00  0.000000e+00
   outer loop
     vertex -2.500000e+01 -1.332102e+01  3.086513e+01
     vertex -2.500000e+01 -1.243756e+01  3.135380e+01
     vertex -2.500000e+01 -1.250000e+01  3.050000e+01
   endloop
 endfacet
 facet normal -1.000000e+00  0.000000e+00  0.000000e+00
   outer loop
     vertex -2.500000e+01 -9.368494e+00  2.047853e+01
     vertex -2.500000e+01 -7.524753e+00  1.828447e+01
     vertex -2.500000e+01 -8.675280e+00  1.804875e+01
   endloop
 endfacet
 facet normal -1.000000e+00  0.000000e+00  0.000000e+00
   outer loop
     vertex -2.500000e+01 -1.412500e+01  3.025446e+01
     vertex -2.500000e+01 -1.332102e+01  3.086513e+01
     vertex -2.500000e+01 -1.359243e+01  3.039042e+01
   endloop
 endfacet
 facet normal -1.000000e+00  0.000000e+00  0.000000e+00
   outer loop
     vertex -2.500000e+01 -9.368494e+00  2.047853e+01
     vertex -2.500000e+01 -8.605209e+00  2.111662e+01
     vertex -2.500000e+01 -7.524753e+00  1.828447e+01
   endloop
 endfacet
 facet normal -1.000000e+00  0.000000e+00  0.000000e+00
   outer loop
     vertex -2.500000e+01 -7.969360e+00  2.188178e+01
     vertex -2.500000e+01 -5.421320e+00  1.931103e+01
     vertex -2.500000e+01 -6.429826e+00  1.870921e+01
   endloop
 endfacet
 facet normal -1.000000e+00  0.000000e+00  0.000000e+00
   outer loop
     vertex -2.500000e+01 -7.969360e+00  2.188178e+01
     vertex -2.500000e+01 -4.527622e+00  2.007299e+01
     vertex -2.500000e+01 -5.421320e+00  1.931103e+01
   endloop
 endfacet
 facet normal -1.000000e+00  0.000000e+00 -0.000000e+00
   outer loop
     vertex -2.500000e+01 -7.969360e+00  2.188178e+01
     vertex -2.500000e+01 -6.429826e+00  1.870921e+01
     vertex -2.500000e+01 -8.605209e+00  2.111662e+01
   endloop
 endfacet
 facet normal -1.000000e+00  0.000000e+00 -0.000000e+00
   outer loop
     vertex -2.500000e+01 -1.023424e+01  1.998838e+01
     vertex -2.500000e+01 -9.849021e+00  1.800871e+01
     vertex -2.500000e+01 -1.101294e+01  1.816545e+01
   endloop
 endfacet
 facet normal -1.000000e+00  0.000000e+00  0.000000e+00
   outer loop
     vertex -2.500000e+01 -1.023424e+01  1.998838e+01
     vertex -2.500000e+01 -8.675280e+00  1.804875e+01
     vertex -2.500000e+01 -9.849021e+00  1.800871e+01
   endloop
 endfacet
 facet normal -1.000000e+00  0.000000e+00  0.000000e+00
   outer loop
     vertex -2.500000e+01 -1.023424e+01  1.998838e+01
     vertex -2.500000e+01 -9.368494e+00  2.047853e+01
     vertex -2.500000e+01 -8.675280e+00  1.804875e+01
   endloop
 endfacet
 facet normal -1.000000e+00  0.000000e+00  0.000000e+00
   outer loop
     vertex -2.500000e+01 -7.481752e+00  2.274896e+01
     vertex -2.500000e+01 -3.773889e+00  2.097363e+01
     vertex -2.500000e+01 -4.527622e+00  2.007299e+01
   endloop
 endfacet
 facet normal -1.000000e+00  0.000000e+00 -0.000000e+00
   outer loop
     vertex -2.500000e+01 -7.481752e+00  2.274896e+01
     vertex -2.500000e+01 -4.527622e+00  2.007299e+01
     vertex -2.500000e+01 -7.969360e+00  2.188178e+01
   endloop
 endfacet
 facet normal -1.000000e+00  0.000000e+00 -0.000000e+00
   outer loop
     vertex -2.500000e+01 -1.117412e+01  1.966221e+01
     vertex -2.500000e+01 -1.101294e+01  1.816545e+01
     vertex -2.500000e+01 -1.213427e+01  1.851458e+01
   endloop
 endfacet
 facet normal -1.000000e+00  0.000000e+00  0.000000e+00
   outer loop
     vertex -2.500000e+01 -1.117412e+01  1.966221e+01
     vertex -2.500000e+01 -1.023424e+01  1.998838e+01
     vertex -2.500000e+01 -1.101294e+01  1.816545e+01
   endloop
 endfacet
 facet normal -1.000000e+00  0.000000e+00  0.000000e+00
   outer loop
     vertex -2.500000e+01 -7.158337e+00  2.368979e+01
     vertex -2.500000e+01 -3.181337e+00  2.198761e+01
     vertex -2.500000e+01 -3.773889e+00  2.097363e+01
   endloop
 endfacet
 facet normal -1.000000e+00  0.000000e+00  0.000000e+00
   outer loop
     vertex -2.500000e+01 -7.158337e+00  2.368979e+01
     vertex -2.500000e+01 -2.766645e+00  2.308638e+01
     vertex -2.500000e+01 -3.181337e+00  2.198761e+01
   endloop
 endfacet
 facet normal -1.000000e+00  0.000000e+00 -0.000000e+00
   outer loop
     vertex -2.500000e+01 -7.158337e+00  2.368979e+01
     vertex -2.500000e+01 -3.773889e+00  2.097363e+01
     vertex -2.500000e+01 -7.481752e+00  2.274896e+01
   endloop
 endfacet
 facet normal -1.000000e+00  0.000000e+00  0.000000e+00
   outer loop
     vertex -2.500000e+01 -1.215738e+01  1.951068e+01
     vertex -2.500000e+01 -1.117412e+01  1.966221e+01
     vertex -2.500000e+01 -1.213427e+01  1.851458e+01
   endloop
 endfacet
 facet normal -1.000000e+00  0.000000e+00  0.000000e+00
   outer loop
     vertex -2.500000e+01 -7.009700e+00  2.467350e+01
     vertex -2.500000e+01 -2.541486e+00  2.423902e+01
     vertex -2.500000e+01 -2.766645e+00  2.308638e+01
   endloop
 endfacet
 facet normal -1.000000e+00  0.000000e+00  0.000000e+00
   outer loop
     vertex -2.500000e+01 -7.009700e+00  2.467350e+01
     vertex -2.500000e+01 -2.512199e+00  2.541308e+01
     vertex -2.500000e+01 -2.541486e+00  2.423902e+01
   endloop
 endfacet
 facet normal -1.000000e+00  0.000000e+00 -0.000000e+00
   outer loop
     vertex -2.500000e+01 -7.009700e+00  2.467350e+01
     vertex -2.500000e+01 -2.766645e+00  2.308638e+01
     vertex -2.500000e+01 -7.158337e+00  2.368979e+01
   endloop
 endfacet
 facet normal -1.000000e+00  0.000000e+00  0.000000e+00
   outer loop
     vertex -2.500000e+01 -1.318145e+01  1.904627e+01
     vertex -2.500000e+01 -1.215738e+01  1.951068e+01
     vertex -2.500000e+01 -1.213427e+01  1.851458e+01
   endloop
 endfacet
 facet normal -1.000000e+00  0.000000e+00 -0.000000e+00
   outer loop
     vertex -2.500000e+01 -1.315186e+01  1.953877e+01
     vertex -2.500000e+01 -1.215738e+01  1.951068e+01
     vertex -2.500000e+01 -1.318145e+01  1.904627e+01
   endloop
 endfacet
 facet normal -1.000000e+00  0.000000e+00  0.000000e+00
   outer loop
     vertex -2.500000e+01 -7.040702e+00  2.566788e+01
     vertex -2.500000e+01 -2.679607e+00  2.657551e+01
     vertex -2.500000e+01 -2.512199e+00  2.541308e+01
   endloop
 endfacet
 facet normal -1.000000e+00  0.000000e+00  0.000000e+00
   outer loop
     vertex -2.500000e+01 -7.040702e+00  2.566788e+01
     vertex -2.500000e+01 -3.038998e+00  2.769359e+01
     vertex -2.500000e+01 -2.679607e+00  2.657551e+01
   endloop
 endfacet
 facet normal -1.000000e+00  0.000000e+00  0.000000e+00
   outer loop
     vertex -2.500000e+01 -7.040702e+00  2.566788e+01
     vertex -2.500000e+01 -2.512199e+00  2.541308e+01
     vertex -2.500000e+01 -7.009700e+00  2.467350e+01
   endloop
 endfacet
 facet normal -1.000000e+00  0.000000e+00  0.000000e+00
   outer loop
     vertex -2.500000e+01 -1.412500e+01  1.974554e+01
     vertex -2.500000e+01 -1.315186e+01  1.953877e+01
     vertex -2.500000e+01 -1.318145e+01  1.904627e+01
   endloop
 endfacet
 facet normal  1.390053e-16  2.078387e-01  9.781631e-01
   outer loop
     vertex  2.500000e+01 -1.412500e+01  1.974554e+01
     vertex -2.500000e+01 -1.315186e+01  1.953877e+01
     vertex -2.500000e+01 -1.412500e+01  1.974554e+01
   endloop
 endfacet
 facet normal  6.950267e-17  2.078387e-01  9.781631e-01
   outer loop
     vertex  2.500000e+01 -1.315186e+01  1.953877e+01
     vertex -2.500000e+01 -1.315186e+01  1.953877e+01
     vertex  2.500000e+01 -1.412500e+01  1.974554e+01
   endloop
 endfacet
 facet normal  2.130779e-16  2.822826e-02  9.996015e-01
   outer loop
     vertex  2.500000e+01 -1.215738e+01  1.951068e+01
     vertex -2.500000e+01 -1.215738e+01  1.951068e+01
     vertex -2.500000e+01 -1.315186e+01  1.953877e+01
   endloop
 endfacet
 facet normal  7.100223e-17  2.822826e-02  9.996015e-01
   outer loop
     vertex  2.500000e+01 -1.215738e+01  1.951068e+01
     vertex -2.500000e+01 -1.315186e+01  1.953877e+01
     vertex  2.500000e+01 -1.315186e+01  1.953877e+01
   endloop
 endfacet
 facet normal  1.404506e-16 -1.523058e-01  9.883334e-01
   outer loop
     vertex  2.500000e+01 -1.117412e+01  1.966221e+01
     vertex -2.500000e+01 -1.117412e+01  1.966221e+01
     vertex -2.500000e+01 -1.215738e+01  1.951068e+01
   endloop
 endfacet
 facet normal  2.103563e-16 -1.523058e-01  9.883334e-01
   outer loop
     vertex  2.500000e+01 -1.117412e+01  1.966221e+01
     vertex -2.500000e+01 -1.215738e+01  1.951068e+01
     vertex  2.500000e+01 -1.215738e+01  1.951068e+01
   endloop
 endfacet
 facet normal  1.342539e-16 -3.278564e-01  9.447276e-01
   outer loop
     vertex  2.500000e+01 -1.023424e+01  1.998838e+01
     vertex -2.500000e+01 -1.023424e+01  1.998838e+01
     vertex -2.500000e+01 -1.117412e+01  1.966221e+01
   endloop
 endfacet
 facet normal  1.339138e-16 -3.278564e-01  9.447276e-01
   outer loop
     vertex  2.500000e+01 -1.023424e+01  1.998838e+01
     vertex -2.500000e+01 -1.117412e+01  1.966221e+01
     vertex  2.500000e+01 -1.117412e+01  1.966221e+01
   endloop
 endfacet
 facet normal  6.183219e-17 -4.926797e-01  8.702107e-01
   outer loop
     vertex  2.500000e+01 -9.368494e+00  2.047853e+01
     vertex -2.500000e+01 -9.368494e+00  2.047853e+01
     vertex -2.500000e+01 -1.023424e+01  1.998838e+01
   endloop
 endfacet
 facet normal  1.238703e-16 -4.926797e-01  8.702107e-01
   outer loop
     vertex  2.500000e+01 -9.368494e+00  2.047853e+01
     vertex -2.500000e+01 -1.023424e+01  1.998838e+01
     vertex  2.500000e+01 -1.023424e+01  1.998838e+01
   endloop
 endfacet
 facet normal  1.635430e-16 -6.413829e-01  7.672210e-01
   outer loop
     vertex  2.500000e+01 -8.605209e+00  2.111662e+01
     vertex -2.500000e+01 -8.605209e+00  2.111662e+01
     vertex -2.500000e+01 -9.368494e+00  2.047853e+01
   endloop
 endfacet
 facet normal  5.468148e-17 -6.413829e-01  7.672210e-01
   outer loop
     vertex  2.500000e+01 -8.605209e+00  2.111662e+01
     vertex -2.500000e+01 -9.368494e+00  2.047853e+01
     vertex  2.500000e+01 -9.368494e+00  2.047853e+01
   endloop
 endfacet
 facet normal  9.082557e-17 -7.691002e-01  6.391282e-01
   outer loop
     vertex  2.500000e+01 -7.969360e+00  2.188178e+01
     vertex -2.500000e+01 -7.969360e+00  2.188178e+01
     vertex -2.500000e+01 -8.605209e+00  2.111662e+01
   endloop
 endfacet
 facet normal  1.361457e-16 -7.691002e-01  6.391282e-01
   outer loop
     vertex  2.500000e+01 -7.969360e+00  2.188178e+01
     vertex -2.500000e+01 -8.605209e+00  2.111662e+01
     vertex  2.500000e+01 -8.605209e+00  2.111662e+01
   endloop
 endfacet
 facet normal  6.965072e-17 -8.716531e-01  4.901234e-01
   outer loop
     vertex  2.500000e+01 -7.481752e+00  2.274896e+01
     vertex -2.500000e+01 -7.481752e+00  2.274896e+01
     vertex -2.500000e+01 -7.969360e+00  2.188178e+01
   endloop
 endfacet
 facet normal  6.918882e-17 -8.716531e-01  4.901234e-01
   outer loop
     vertex  2.500000e+01 -7.481752e+00  2.274896e+01
     vertex -2.500000e+01 -7.969360e+00  2.188178e+01
     vertex  2.500000e+01 -7.969360e+00  2.188178e+01
   endloop
 endfacet
 facet normal  4.619694e-17 -9.456858e-01  3.250820e-01
   outer loop
     vertex  2.500000e+01 -7.158337e+00  2.368979e+01
     vertex -2.500000e+01 -7.158337e+00  2.368979e+01
     vertex -2.500000e+01 -7.481752e+00  2.274896e+01
   endloop
 endfacet
 facet normal  2.123161e-17 -9.887762e-01  1.494042e-01
   outer loop
     vertex  2.500000e+01 -7.158337e+00  2.368979e+01
     vertex -2.500000e+01 -7.009700e+00  2.467350e+01
     vertex -2.500000e+01 -7.158337e+00  2.368979e+01
   endloop
 endfacet
 facet normal  4.575389e-17 -9.456858e-01  3.250820e-01
   outer loop
     vertex  2.500000e+01 -7.158337e+00  2.368979e+01
     vertex -2.500000e+01 -7.481752e+00  2.274896e+01
     vertex  2.500000e+01 -7.481752e+00  2.274896e+01
   endloop
 endfacet
 facet normal  1.061580e-17 -9.887762e-01  1.494042e-01
   outer loop
     vertex  2.500000e+01 -7.009700e+00  2.467350e+01
     vertex -2.500000e+01 -7.009700e+00  2.467350e+01
     vertex  2.500000e+01 -7.158337e+00  2.368979e+01
   endloop
 endfacet
 facet normal -2.214204e-18 -9.995143e-01 -3.116216e-02
   outer loop
     vertex  2.500000e+01 -7.040702e+00  2.566788e+01
     vertex -2.500000e+01 -7.040702e+00  2.566788e+01
     vertex -2.500000e+01 -7.009700e+00  2.467350e+01
   endloop
 endfacet
 facet normal -2.162151e-18 -9.995143e-01 -3.116216e-02
   outer loop
     vertex  2.500000e+01 -7.040702e+00  2.566788e+01
     vertex -2.500000e+01 -7.009700e+00  2.467350e+01
     vertex  2.500000e+01 -7.009700e+00  2.467350e+01
   endloop
 endfacet
 facet normal -2.994353e-17 -9.775489e-01 -2.107089e-01
   outer loop
     vertex  2.500000e+01 -7.250330e+00  2.664042e+01
     vertex -2.500000e+01 -7.250330e+00  2.664042e+01
     vertex -2.500000e+01 -7.040702e+00  2.566788e+01
   endloop
 endfacet
 facet normal -1.506531e-17 -9.775489e-01 -2.107089e-01
   outer loop
     vertex  2.500000e+01 -7.250330e+00  2.664042e+01
     vertex -2.500000e+01 -7.040702e+00  2.566788e+01
     vertex  2.500000e+01 -7.040702e+00  2.566788e+01
   endloop
 endfacet
 facet normal -5.447891e-17 -9.235985e-01 -3.833613e-01
   outer loop
     vertex  2.500000e+01 -7.631724e+00  2.755928e+01
     vertex -2.500000e+01 -7.631724e+00  2.755928e+01
     vertex -2.500000e+01 -7.250330e+00  2.664042e+01
   endloop
 endfacet
 facet normal -7.723177e-17 -8.394284e-01 -5.434703e-01
   outer loop
     vertex  2.500000e+01 -7.631724e+00  2.755928e+01
     vertex -2.500000e+01 -8.172406e+00  2.839440e+01
     vertex -2.500000e+01 -7.631724e+00  2.755928e+01
   endloop
 endfacet
 facet normal -5.468148e-17 -9.235985e-01 -3.833613e-01
   outer loop
     vertex  2.500000e+01 -7.631724e+00  2.755928e+01
     vertex -2.500000e+01 -7.250330e+00  2.664042e+01
     vertex  2.500000e+01 -7.250330e+00  2.664042e+01
   endloop
 endfacet
 facet normal -7.723177e-17 -8.394284e-01 -5.434703e-01
   outer loop
     vertex  2.500000e+01 -8.172406e+00  2.839440e+01
     vertex -2.500000e+01 -8.172406e+00  2.839440e+01
     vertex  2.500000e+01 -7.631724e+00  2.755928e+01
   endloop
 endfacet
 facet normal -9.708753e-17 -7.277927e-01 -6.857972e-01
   outer loop
     vertex  2.500000e+01 -8.854685e+00  2.911846e+01
     vertex -2.500000e+01 -8.172406e+00  2.839440e+01
     vertex  2.500000e+01 -8.172406e+00  2.839440e+01
   endloop
 endfacet
 facet normal -1.461865e-16 -7.277927e-01 -6.857972e-01
   outer loop
     vertex  2.500000e+01 -8.854685e+00  2.911846e+01
     vertex -2.500000e+01 -8.854685e+00  2.911846e+01
     vertex -2.500000e+01 -8.172406e+00  2.839440e+01
   endloop
 endfacet
 facet normal -1.718561e-16 -5.923439e-01 -8.056852e-01
   outer loop
     vertex  2.500000e+01 -9.656236e+00  2.970776e+01
     vertex -2.500000e+01 -8.854685e+00  2.911846e+01
     vertex  2.500000e+01 -8.854685e+00  2.911846e+01
   endloop
 endfacet
 facet normal -1.144948e-16 -5.923439e-01 -8.056852e-01
   outer loop
     vertex  2.500000e+01 -9.656236e+00  2.970776e+01
     vertex -2.500000e+01 -9.656236e+00  2.970776e+01
     vertex -2.500000e+01 -8.854685e+00  2.911846e+01
   endloop
 endfacet
 facet normal -1.283341e-16 -4.375139e-01 -8.992116e-01
   outer loop
     vertex  2.500000e+01 -1.055083e+01  3.014303e+01
     vertex -2.500000e+01 -9.656236e+00  2.970776e+01
     vertex  2.500000e+01 -9.656236e+00  2.970776e+01
   endloop
 endfacet
 facet normal -1.277857e-16 -4.375139e-01 -8.992116e-01
   outer loop
     vertex  2.500000e+01 -1.055083e+01  3.014303e+01
     vertex -2.500000e+01 -1.055083e+01  3.014303e+01
     vertex -2.500000e+01 -9.656236e+00  2.970776e+01
   endloop
 endfacet
 facet normal -1.372617e-16 -2.683687e-01 -9.633163e-01
   outer loop
     vertex  2.500000e+01 -1.150921e+01  3.041002e+01
     vertex -2.500000e+01 -1.055083e+01  3.014303e+01
     vertex  2.500000e+01 -1.055083e+01  3.014303e+01
   endloop
 endfacet
 facet normal -1.368955e-16 -2.683687e-01 -9.633163e-01
   outer loop
     vertex  2.500000e+01 -1.150921e+01  3.041002e+01
     vertex -2.500000e+01 -1.150921e+01  3.041002e+01
     vertex -2.500000e+01 -1.055083e+01  3.014303e+01
   endloop
 endfacet
 facet normal -1.414465e-16 -9.044266e-02 -9.959017e-01
   outer loop
     vertex  2.500000e+01 -1.250000e+01  3.050000e+01
     vertex -2.500000e+01 -1.150921e+01  3.041002e+01
     vertex  2.500000e+01 -1.150921e+01  3.041002e+01
   endloop
 endfacet
 facet normal -1.415261e-16 -9.044266e-02 -9.959017e-01
   outer loop
     vertex  2.500000e+01 -1.250000e+01  3.050000e+01
     vertex -2.500000e+01 -1.250000e+01  3.050000e+01
     vertex -2.500000e+01 -1.150921e+01  3.041002e+01
   endloop
 endfacet
 facet normal  1.000000e+00  0.000000e+00  0.000000e+00
   outer loop
     vertex  2.500000e+01 -7.250330e+00  2.664042e+01
     vertex  2.500000e+01 -3.038998e+00  2.769359e+01
     vertex  2.500000e+01 -3.580256e+00  2.873586e+01
   endloop
 endfacet
 facet normal  1.000000e+00 -0.000000e+00  0.000000e+00
   outer loop
     vertex  2.500000e+01 -7.250330e+00  2.664042e+01
     vertex  2.500000e+01 -7.040702e+00  2.566788e+01
     vertex  2.500000e+01 -3.038998e+00  2.769359e+01
   endloop
 endfacet
 facet normal  1.000000e+00 -0.000000e+00  0.000000e+00
   outer loop
     vertex  2.500000e+01 -7.631724e+00  2.755928e+01
     vertex  2.500000e+01 -7.250330e+00  2.664042e+01
     vertex  2.500000e+01 -3.580256e+00  2.873586e+01
   endloop
 endfacet
 facet normal  1.000000e+00  0.000000e+00  0.000000e+00
   outer loop
     vertex  2.500000e+01 -7.631724e+00  2.755928e+01
     vertex  2.500000e+01 -3.580256e+00  2.873586e+01
     vertex  2.500000e+01 -4.288146e+00  2.967296e+01
   endloop
 endfacet
 facet normal  1.000000e+00  0.000000e+00  0.000000e+00
   outer loop
     vertex  2.500000e+01 -5.142741e+00  3.047853e+01
     vertex  2.500000e+01 -7.631724e+00  2.755928e+01
     vertex  2.500000e+01 -4.288146e+00  2.967296e+01
   endloop
 endfacet
 facet normal  1.000000e+00 -0.000000e+00  0.000000e+00
   outer loop
     vertex  2.500000e+01 -8.172406e+00  2.839440e+01
     vertex  2.500000e+01 -7.631724e+00  2.755928e+01
     vertex  2.500000e+01 -5.142741e+00  3.047853e+01
   endloop
 endfacet
 facet normal  1.000000e+00  0.000000e+00  0.000000e+00
   outer loop
     vertex  2.500000e+01 -6.119985e+00  3.112989e+01
     vertex  2.500000e+01 -8.172406e+00  2.839440e+01
     vertex  2.500000e+01 -5.142741e+00  3.047853e+01
   endloop
 endfacet
 facet normal  1.000000e+00 -0.000000e+00  0.000000e+00
   outer loop
     vertex  2.500000e+01 -8.854685e+00  2.911846e+01
     vertex  2.500000e+01 -8.172406e+00  2.839440e+01
     vertex  2.500000e+01 -6.119985e+00  3.112989e+01
   endloop
 endfacet
 facet normal  1.000000e+00  0.000000e+00  0.000000e+00
   outer loop
     vertex  2.500000e+01 -7.192372e+00  3.160870e+01
     vertex  2.500000e+01 -8.854685e+00  2.911846e+01
     vertex  2.500000e+01 -6.119985e+00  3.112989e+01
   endloop
 endfacet
 facet normal  1.000000e+00  0.000000e+00  0.000000e+00
   outer loop
     vertex  2.500000e+01 -8.329715e+00  3.190148e+01
     vertex  2.500000e+01 -8.854685e+00  2.911846e+01
     vertex  2.500000e+01 -7.192372e+00  3.160870e+01
   endloop
 endfacet
 facet normal  1.000000e+00  0.000000e+00  0.000000e+00
   outer loop
     vertex  2.500000e+01 -8.329715e+00  3.190148e+01
     vertex  2.500000e+01 -9.656236e+00  2.970776e+01
     vertex  2.500000e+01 -8.854685e+00  2.911846e+01
   endloop
 endfacet
 facet normal  1.000000e+00  0.000000e+00  0.000000e+00
   outer loop
     vertex  2.500000e+01 -9.500000e+00  3.200000e+01
     vertex  2.500000e+01 -9.656236e+00  2.970776e+01
     vertex  2.500000e+01 -8.329715e+00  3.190148e+01
   endloop
 endfacet
 facet normal  1.000000e+00  0.000000e+00  0.000000e+00
   outer loop
     vertex  2.500000e+01 -9.500000e+00  3.200000e+01
     vertex  2.500000e+01 -1.055083e+01  3.014303e+01
     vertex  2.500000e+01 -9.656236e+00  2.970776e+01
   endloop
 endfacet
 facet normal  1.000000e+00 -0.000000e+00  0.000000e+00
   outer loop
     vertex  2.500000e+01 -1.050697e+01  3.192719e+01
     vertex  2.500000e+01 -1.055083e+01  3.014303e+01
     vertex  2.500000e+01 -9.500000e+00  3.200000e+01
   endloop
 endfacet
 facet normal  1.000000e+00  0.000000e+00  0.000000e+00
   outer loop
     vertex  2.500000e+01 -1.050697e+01  3.192719e+01
     vertex  2.500000e+01 -1.150921e+01  3.041002e+01
     vertex  2.500000e+01 -1.055083e+01  3.014303e+01
   endloop
 endfacet
 facet normal  1.000000e+00 -0.000000e+00  0.000000e+00
   outer loop
     vertex  2.500000e+01 -1.149300e+01  3.171029e+01
     vertex  2.500000e+01 -1.150921e+01  3.041002e+01
     vertex  2.500000e+01 -1.050697e+01  3.192719e+01
   endloop
 endfacet
 facet normal  1.000000e+00 -0.000000e+00  0.000000e+00
   outer loop
     vertex  2.500000e+01 -1.243756e+01  3.135380e+01
     vertex  2.500000e+01 -1.150921e+01  3.041002e+01
     vertex  2.500000e+01 -1.149300e+01  3.171029e+01
   endloop
 endfacet
 facet normal  1.000000e+00  0.000000e+00  0.000000e+00
   outer loop
     vertex  2.500000e+01 -1.243756e+01  3.135380e+01
     vertex  2.500000e+01 -1.250000e+01  3.050000e+01
     vertex  2.500000e+01 -1.150921e+01  3.041002e+01
   endloop
 endfacet
 facet normal  1.000000e+00  0.000000e+00  0.000000e+00
   outer loop
     vertex  2.500000e+01 -8.605209e+00  2.111662e+01
     vertex  2.500000e+01 -7.524753e+00  1.828447e+01
     vertex  2.500000e+01 -6.429826e+00  1.870921e+01
   endloop
 endfacet
 facet normal  1.000000e+00  0.000000e+00  0.000000e+00
   outer loop
     vertex  2.500000e+01 -1.332102e+01  3.086513e+01
     vertex  2.500000e+01 -1.304896e+01  3.047254e+01
     vertex  2.500000e+01 -1.250000e+01  3.050000e+01
   endloop
 endfacet
 facet normal  1.000000e+00  0.000000e+00  0.000000e+00
   outer loop
     vertex  2.500000e+01 -1.332102e+01  3.086513e+01
     vertex  2.500000e+01 -1.359243e+01  3.039042e+01
     vertex  2.500000e+01 -1.304896e+01  3.047254e+01
   endloop
 endfacet
 facet normal  1.000000e+00 -0.000000e+00  0.000000e+00
   outer loop
     vertex  2.500000e+01 -1.332102e+01  3.086513e+01
     vertex  2.500000e+01 -1.250000e+01  3.050000e+01
     vertex  2.500000e+01 -1.243756e+01  3.135380e+01
   endloop
 endfacet
 facet normal  1.000000e+00  0.000000e+00  0.000000e+00
   outer loop
     vertex  2.500000e+01 -9.368494e+00  2.047853e+01
     vertex  2.500000e+01 -8.675280e+00  1.804875e+01
     vertex  2.500000e+01 -7.524753e+00  1.828447e+01
   endloop
 endfacet
 facet normal  1.000000e+00  0.000000e+00  0.000000e+00
   outer loop
     vertex  2.500000e+01 -1.412500e+01  3.025446e+01
     vertex  2.500000e+01 -1.359243e+01  3.039042e+01
     vertex  2.500000e+01 -1.332102e+01  3.086513e+01
   endloop
 endfacet
 facet normal  1.000000e+00 -0.000000e+00  0.000000e+00
   outer loop
     vertex  2.500000e+01 -9.368494e+00  2.047853e+01
     vertex  2.500000e+01 -7.524753e+00  1.828447e+01
     vertex  2.500000e+01 -8.605209e+00  2.111662e+01
   endloop
 endfacet
 facet normal  1.000000e+00  0.000000e+00  0.000000e+00
   outer loop
     vertex  2.500000e+01 -7.969360e+00  2.188178e+01
     vertex  2.500000e+01 -6.429826e+00  1.870921e+01
     vertex  2.500000e+01 -5.421320e+00  1.931103e+01
   endloop
 endfacet
 facet normal  1.000000e+00  0.000000e+00  0.000000e+00
   outer loop
     vertex  2.500000e+01 -7.969360e+00  2.188178e+01
     vertex  2.500000e+01 -5.421320e+00  1.931103e+01
     vertex  2.500000e+01 -4.527622e+00  2.007299e+01
   endloop
 endfacet
 facet normal  1.000000e+00  0.000000e+00  0.000000e+00
   outer loop
     vertex  2.500000e+01 -7.969360e+00  2.188178e+01
     vertex  2.500000e+01 -8.605209e+00  2.111662e+01
     vertex  2.500000e+01 -6.429826e+00  1.870921e+01
   endloop
 endfacet
 facet normal  1.000000e+00  0.000000e+00  0.000000e+00
   outer loop
     vertex  2.500000e+01 -1.023424e+01  1.998838e+01
     vertex  2.500000e+01 -1.101294e+01  1.816545e+01
     vertex  2.500000e+01 -9.849021e+00  1.800871e+01
   endloop
 endfacet
 facet normal  1.000000e+00  0.000000e+00  0.000000e+00
   outer loop
     vertex  2.500000e+01 -1.023424e+01  1.998838e+01
     vertex  2.500000e+01 -9.849021e+00  1.800871e+01
     vertex  2.500000e+01 -8.675280e+00  1.804875e+01
   endloop
 endfacet
 facet normal  1.000000e+00 -0.000000e+00  0.000000e+00
   outer loop
     vertex  2.500000e+01 -1.023424e+01  1.998838e+01
     vertex  2.500000e+01 -8.675280e+00  1.804875e+01
     vertex  2.500000e+01 -9.368494e+00  2.047853e+01
   endloop
 endfacet
 facet normal  1.000000e+00  0.000000e+00  0.000000e+00
   outer loop
     vertex  2.500000e+01 -7.481752e+00  2.274896e+01
     vertex  2.500000e+01 -4.527622e+00  2.007299e+01
     vertex  2.500000e+01 -3.773889e+00  2.097363e+01
   endloop
 endfacet
 facet normal  1.000000e+00  0.000000e+00  0.000000e+00
   outer loop
     vertex  2.500000e+01 -7.481752e+00  2.274896e+01
     vertex  2.500000e+01 -7.969360e+00  2.188178e+01
     vertex  2.500000e+01 -4.527622e+00  2.007299e+01
   endloop
 endfacet
 facet normal  1.000000e+00  0.000000e+00  0.000000e+00
   outer loop
     vertex  2.500000e+01 -1.117412e+01  1.966221e+01
     vertex  2.500000e+01 -1.213427e+01  1.851458e+01
     vertex  2.500000e+01 -1.101294e+01  1.816545e+01
   endloop
 endfacet
 facet normal  1.000000e+00 -0.000000e+00  0.000000e+00
   outer loop
     vertex  2.500000e+01 -1.117412e+01  1.966221e+01
     vertex  2.500000e+01 -1.101294e+01  1.816545e+01
     vertex  2.500000e+01 -1.023424e+01  1.998838e+01
   endloop
 endfacet
 facet normal  1.000000e+00  0.000000e+00  0.000000e+00
   outer loop
     vertex  2.500000e+01 -7.158337e+00  2.368979e+01
     vertex  2.500000e+01 -3.773889e+00  2.097363e+01
     vertex  2.500000e+01 -3.181337e+00  2.198761e+01
   endloop
 endfacet
 facet normal  1.000000e+00  0.000000e+00  0.000000e+00
   outer loop
     vertex  2.500000e+01 -7.158337e+00  2.368979e+01
     vertex  2.500000e+01 -3.181337e+00  2.198761e+01
     vertex  2.500000e+01 -2.766645e+00  2.308638e+01
   endloop
 endfacet
 facet normal  1.000000e+00  0.000000e+00  0.000000e+00
   outer loop
     vertex  2.500000e+01 -7.158337e+00  2.368979e+01
     vertex  2.500000e+01 -7.481752e+00  2.274896e+01
     vertex  2.500000e+01 -3.773889e+00  2.097363e+01
   endloop
 endfacet
 facet normal  1.000000e+00 -0.000000e+00  0.000000e+00
   outer loop
     vertex  2.500000e+01 -1.215738e+01  1.951068e+01
     vertex  2.500000e+01 -1.213427e+01  1.851458e+01
     vertex  2.500000e+01 -1.117412e+01  1.966221e+01
   endloop
 endfacet
 facet normal  1.000000e+00  0.000000e+00  0.000000e+00
   outer loop
     vertex  2.500000e+01 -7.009700e+00  2.467350e+01
     vertex  2.500000e+01 -2.766645e+00  2.308638e+01
     vertex  2.500000e+01 -2.541486e+00  2.423902e+01
   endloop
 endfacet
 facet normal  1.000000e+00 -0.000000e+00  0.000000e+00
   outer loop
     vertex  2.500000e+01 -7.009700e+00  2.467350e+01
     vertex  2.500000e+01 -2.541486e+00  2.423902e+01
     vertex  2.500000e+01 -2.512199e+00  2.541308e+01
   endloop
 endfacet
 facet normal  1.000000e+00  0.000000e+00  0.000000e+00
   outer loop
     vertex  2.500000e+01 -7.009700e+00  2.467350e+01
     vertex  2.500000e+01 -7.158337e+00  2.368979e+01
     vertex  2.500000e+01 -2.766645e+00  2.308638e+01
   endloop
 endfacet
 facet normal  1.000000e+00 -0.000000e+00  0.000000e+00
   outer loop
     vertex  2.500000e+01 -1.318145e+01  1.904627e+01
     vertex  2.500000e+01 -1.213427e+01  1.851458e+01
     vertex  2.500000e+01 -1.215738e+01  1.951068e+01
   endloop
 endfacet
 facet normal  1.000000e+00  0.000000e+00  0.000000e+00
   outer loop
     vertex  2.500000e+01 -1.315186e+01  1.953877e+01
     vertex  2.500000e+01 -1.318145e+01  1.904627e+01
     vertex  2.500000e+01 -1.215738e+01  1.951068e+01
   endloop
 endfacet
 facet normal  1.000000e+00 -0.000000e+00  0.000000e+00
   outer loop
     vertex  2.500000e+01 -7.040702e+00  2.566788e+01
     vertex  2.500000e+01 -2.512199e+00  2.541308e+01
     vertex  2.500000e+01 -2.679607e+00  2.657551e+01
   endloop
 endfacet
 facet normal  1.000000e+00  0.000000e+00  0.000000e+00
   outer loop
     vertex  2.500000e+01 -7.040702e+00  2.566788e+01
     vertex  2.500000e+01 -2.679607e+00  2.657551e+01
     vertex  2.500000e+01 -3.038998e+00  2.769359e+01
   endloop
 endfacet
 facet normal  1.000000e+00  0.000000e+00  0.000000e+00
   outer loop
     vertex  2.500000e+01 -7.040702e+00  2.566788e+01
     vertex  2.500000e+01 -7.009700e+00  2.467350e+01
     vertex  2.500000e+01 -2.512199e+00  2.541308e+01
   endloop
 endfacet
 facet normal  1.000000e+00  0.000000e+00  0.000000e+00
   outer loop
     vertex  2.500000e+01 -1.412500e+01  1.974554e+01
     vertex  2.500000e+01 -1.318145e+01  1.904627e+01
     vertex  2.500000e+01 -1.315186e+01  1.953877e+01
   endloop
 endfacet
 facet normal -1.419310e-16  4.996773e-02 -9.987508e-01
   outer loop
     vertex  2.500000e+01 -1.304896e+01  3.047254e+01
     vertex -2.500000e+01 -1.304896e+01  3.047254e+01
     vertex -2.500000e+01 -1.250000e+01  3.050000e+01
   endloop
 endfacet
 facet normal -1.419605e-16  4.996773e-02 -9.987508e-01
   outer loop
     vertex  2.500000e+01 -1.304896e+01  3.047254e+01
     vertex -2.500000e+01 -1.250000e+01  3.050000e+01
     vertex  2.500000e+01 -1.250000e+01  3.050000e+01
   endloop
 endfacet
 facet normal -1.405136e-16  1.494042e-01 -9.887762e-01
   outer loop
     vertex  2.500000e+01 -1.359243e+01  3.039042e+01
     vertex -2.500000e+01 -1.359243e+01  3.039042e+01
     vertex -2.500000e+01 -1.304896e+01  3.047254e+01
   endloop
 endfacet
 facet normal -1.376928e-16  2.473485e-01 -9.689266e-01
   outer loop
     vertex  2.500000e+01 -1.359243e+01  3.039042e+01
     vertex -2.500000e+01 -1.412500e+01  3.025446e+01
     vertex -2.500000e+01 -1.359243e+01  3.039042e+01
   endloop
 endfacet
 facet normal -1.406349e-16  1.494042e-01 -9.887762e-01
   outer loop
     vertex  2.500000e+01 -1.359243e+01  3.039042e+01
     vertex -2.500000e+01 -1.304896e+01  3.047254e+01
     vertex  2.500000e+01 -1.304896e+01  3.047254e+01
   endloop
 endfacet
 facet normal -6.884638e-17  2.473485e-01 -9.689266e-01
   outer loop
     vertex  2.500000e+01 -1.412500e+01  3.025446e+01
     vertex -2.500000e+01 -1.412500e+01  3.025446e+01
     vertex  2.500000e+01 -1.359243e+01  3.039042e+01
   endloop
 endfacet
endsolid
