solid OpenSCAD_Model
  facet normal -1 0 0
    outer loop
      vertex 0 14.5 0
      vertex 0 13 1
      vertex 0 14.5 41.75
    endloop
  endfacet
  facet normal -1 0 0
    outer loop
      vertex 0 0 0
      vertex 0 13 1
      vertex 0 14.5 0
    endloop
  endfacet
  facet normal -1 -0 0
    outer loop
      vertex 0 13 1
      vertex 0 0 0
      vertex 0 0 1
    endloop
  endfacet
  facet normal -1 0 0
    outer loop
      vertex 0 13 40.75
      vertex 0 14.5 41.75
      vertex 0 13 1
    endloop
  endfacet
  facet normal -1 0 0
    outer loop
      vertex 0 0 41.75
      vertex 0 13 40.75
      vertex 0 0 40.75
    endloop
  endfacet
  facet normal -1 0 0
    outer loop
      vertex 0 13 40.75
      vertex 0 0 41.75
      vertex 0 14.5 41.75
    endloop
  endfacet
  facet normal -0 0 1
    outer loop
      vertex 0 14.5 41.75
      vertex 14 0 41.75
      vertex 14 14.5 41.75
    endloop
  endfacet
  facet normal 0 0 1
    outer loop
      vertex 14 0 41.75
      vertex 0 14.5 41.75
      vertex 0 0 41.75
    endloop
  endfacet
  facet normal 1 0 0
    outer loop
      vertex 14 14.5 41.75
      vertex 14 13 40.75
      vertex 14 14.5 0
    endloop
  endfacet
  facet normal 1 -0 0
    outer loop
      vertex 14 0 41.75
      vertex 14 13 40.75
      vertex 14 14.5 41.75
    endloop
  endfacet
  facet normal 1 0 0
    outer loop
      vertex 14 13 40.75
      vertex 14 0 41.75
      vertex 14 0 40.75
    endloop
  endfacet
  facet normal 1 -0 0
    outer loop
      vertex 14 13 1
      vertex 14 14.5 0
      vertex 14 13 40.75
    endloop
  endfacet
  facet normal 1 0 0
    outer loop
      vertex 14 0 0
      vertex 14 13 1
      vertex 14 0 1
    endloop
  endfacet
  facet normal 1 0 0
    outer loop
      vertex 14 13 1
      vertex 14 0 0
      vertex 14 14.5 0
    endloop
  endfacet
  facet normal 0 1 0
    outer loop
      vertex 14 14.5 41.75
      vertex 7 14.5 1
      vertex 0 14.5 41.75
    endloop
  endfacet
  facet normal 0 1 0
    outer loop
      vertex 14 14.5 41.75
      vertex 8.45538 14.5 0.847033
      vertex 7 14.5 1
    endloop
  endfacet
  facet normal 0 1 -0
    outer loop
      vertex 14 14.5 0
      vertex 8.45538 14.5 0.847033
      vertex 14 14.5 41.75
    endloop
  endfacet
  facet normal 0 1 0
    outer loop
      vertex 8.45538 14.5 0.847033
      vertex 14 14.5 0
      vertex 9.84716 14.5 0.394817
    endloop
  endfacet
  facet normal 0 1 0
    outer loop
      vertex 9.84716 14.5 0.394817
      vertex 14 14.5 0
      vertex 10.531 14.5 0
    endloop
  endfacet
  facet normal 0 1 -0
    outer loop
      vertex 5.54462 14.5 0.847033
      vertex 0 14.5 41.75
      vertex 7 14.5 1
    endloop
  endfacet
  facet normal 0 1 0
    outer loop
      vertex 0 14.5 0
      vertex 5.54462 14.5 0.847033
      vertex 4.15284 14.5 0.394817
    endloop
  endfacet
  facet normal 0 1 0
    outer loop
      vertex 0 14.5 0
      vertex 4.15284 14.5 0.394817
      vertex 3.469 14.5 0
    endloop
  endfacet
  facet normal 0 1 0
    outer loop
      vertex 5.54462 14.5 0.847033
      vertex 0 14.5 0
      vertex 0 14.5 41.75
    endloop
  endfacet
  facet normal 0 0 -1
    outer loop
      vertex 0 0 0
      vertex 3.469 14.5 0
      vertex 3.469 0 0
    endloop
  endfacet
  facet normal -0 0 -1
    outer loop
      vertex 3.469 14.5 0
      vertex 0 0 0
      vertex 0 14.5 0
    endloop
  endfacet
  facet normal 0 0 -1
    outer loop
      vertex 14 0 0
      vertex 10.531 7.84039e-16 0
      vertex 14 14.5 0
    endloop
  endfacet
  facet normal 0 -0 -1
    outer loop
      vertex 10.531 7.84039e-16 0
      vertex 14 0 0
      vertex 7 0 0
    endloop
  endfacet
  facet normal -0 0 -1
    outer loop
      vertex 14 14.5 0
      vertex 10.531 7.84039e-16 0
      vertex 10.531 14.5 0
    endloop
  endfacet
  facet normal 0 -1 0
    outer loop
      vertex 7 0 0
      vertex 14 0 1
      vertex 7 0 1
    endloop
  endfacet
  facet normal 0 -1 -0
    outer loop
      vertex 14 0 1
      vertex 7 0 0
      vertex 14 0 0
    endloop
  endfacet
  facet normal 0 -1 0
    outer loop
      vertex 0 0 1
      vertex 5.54462 0 0.847033
      vertex 7 0 1
    endloop
  endfacet
  facet normal 0 -1 0
    outer loop
      vertex 0 0 1
      vertex 4.15284 0 0.394817
      vertex 5.54462 0 0.847033
    endloop
  endfacet
  facet normal 0 -1 0
    outer loop
      vertex 3.469 0 0
      vertex 0 0 1
      vertex 0 0 0
    endloop
  endfacet
  facet normal 0 -1 0
    outer loop
      vertex 0 0 1
      vertex 3.469 0 0
      vertex 4.15284 0 0.394817
    endloop
  endfacet
  facet normal 0 -1 0
    outer loop
      vertex 0 0 40.75
      vertex 14 0 41.75
      vertex 0 0 41.75
    endloop
  endfacet
  facet normal 0 -1 -0
    outer loop
      vertex 14 0 41.75
      vertex 0 0 40.75
      vertex 14 0 40.75
    endloop
  endfacet
  facet normal 0 0 -1
    outer loop
      vertex 0 0 40.75
      vertex 14 13 40.75
      vertex 14 0 40.75
    endloop
  endfacet
  facet normal -0 0 -1
    outer loop
      vertex 14 13 40.75
      vertex 0 0 40.75
      vertex 0 13 40.75
    endloop
  endfacet
  facet normal 0 -1 0
    outer loop
      vertex 7 13 1
      vertex 0 13 40.75
      vertex 0 13 1
    endloop
  endfacet
  facet normal 0 -1 0
    outer loop
      vertex 0 13 40.75
      vertex 7 13 1
      vertex 14 13 40.75
    endloop
  endfacet
  facet normal 0 -1 -0
    outer loop
      vertex 14 13 40.75
      vertex 7 13 1
      vertex 14 13 1
    endloop
  endfacet
  facet normal -0 0 1
    outer loop
      vertex 0 13 1
      vertex 7 0 1
      vertex 7 13 1
    endloop
  endfacet
  facet normal 0 0 1
    outer loop
      vertex 7 0 1
      vertex 0 13 1
      vertex 0 0 1
    endloop
  endfacet
  facet normal -0 0 1
    outer loop
      vertex 7 13 1
      vertex 14 0 1
      vertex 14 13 1
    endloop
  endfacet
  facet normal 0 0 1
    outer loop
      vertex 14 0 1
      vertex 7 13 1
      vertex 7 0 1
    endloop
  endfacet
  facet normal 0.5 0 -0.866026
    outer loop
      vertex 9.84716 6.32196e-16 -12.3948
      vertex 11.1145 20 -11.6631
      vertex 11.1145 9.13602e-16 -11.6631
    endloop
  endfacet
  facet normal 0.5 0 -0.866026
    outer loop
      vertex 11.1145 20 -11.6631
      vertex 9.84716 6.32196e-16 -12.3948
      vertex 9.84716 20 -12.3948
    endloop
  endfacet
  facet normal 0.309017 0 0.951056
    outer loop
      vertex 8.45538 20 0.847033
      vertex 9.84716 14.5 0.394817
      vertex 9.84716 20 0.394817
    endloop
  endfacet
  facet normal 0.309017 0 0.951056
    outer loop
      vertex 9.84716 14.5 0.394817
      vertex 8.45538 20 0.847033
      vertex 8.45538 14.5 0.847033
    endloop
  endfacet
  facet normal 0.66913 0 -0.743145
    outer loop
      vertex 11.1145 9.13602e-16 -11.6631
      vertex 12.202 20 -10.6839
      vertex 12.202 1.15508e-15 -10.6839
    endloop
  endfacet
  facet normal 0.66913 0 -0.743145
    outer loop
      vertex 12.202 20 -10.6839
      vertex 11.1145 9.13602e-16 -11.6631
      vertex 11.1145 20 -11.6631
    endloop
  endfacet
  facet normal 0.978148 0 -0.207912
    outer loop
      vertex 13.9617 2 -6.7317
      vertex 13.6574 20 -8.16312
      vertex 13.9617 20 -6.7317
    endloop
  endfacet
  facet normal 0.978148 0 -0.207912
    outer loop
      vertex 13.6574 20 -8.16312
      vertex 13.9617 2 -6.7317
      vertex 13.6574 2 -8.16312
    endloop
  endfacet
  facet normal 0.913546 0 -0.406736
    outer loop
      vertex 13.2848 2 -9
      vertex 13.6574 20 -8.16312
      vertex 13.6574 2 -8.16312
    endloop
  endfacet
  facet normal 0.913546 3.87012e-09 -0.406736
    outer loop
      vertex 13.6574 20 -8.16312
      vertex 13.2848 2 -9
      vertex 13.0622 20 -9.5
    endloop
  endfacet
  facet normal 0.913545 0 -0.406737
    outer loop
      vertex 13.0622 1.34607e-15 -9.5
      vertex 13.2848 2 -9
      vertex 13.2848 1.3955e-15 -9
    endloop
  endfacet
  facet normal 0.913545 0 -0.406737
    outer loop
      vertex 13.2848 2 -9
      vertex 13.0622 1.34607e-15 -9.5
      vertex 13.0622 20 -9.5
    endloop
  endfacet
  facet normal 0.978148 -0 0.207912
    outer loop
      vertex 13.6574 2 -3.83688
      vertex 13.9617 20 -5.2683
      vertex 13.6574 20 -3.83688
    endloop
  endfacet
  facet normal 0.978148 0 0.207912
    outer loop
      vertex 13.9617 20 -5.2683
      vertex 13.6574 2 -3.83688
      vertex 13.9617 2 -5.2683
    endloop
  endfacet
  facet normal 0.5 0 0.866025
    outer loop
      vertex 11.1145 20 -0.336882
      vertex 10.531 14.5 0
      vertex 11.1145 9.13602e-16 -0.336882
    endloop
  endfacet
  facet normal 0.5 3.65956e-08 0.866026
    outer loop
      vertex 9.84716 20 0.394817
      vertex 10.531 14.5 0
      vertex 11.1145 20 -0.336882
    endloop
  endfacet
  facet normal 0.5 0 0.866026
    outer loop
      vertex 10.531 14.5 0
      vertex 9.84716 20 0.394817
      vertex 9.84716 14.5 0.394817
    endloop
  endfacet
  facet normal 0.5 0 0.866025
    outer loop
      vertex 11.1145 9.13602e-16 -0.336882
      vertex 10.531 14.5 0
      vertex 10.531 7.84039e-16 0
    endloop
  endfacet
  facet normal -0.104529 0 -0.994522
    outer loop
      vertex 5.54462 -3.2316e-16 -12.847
      vertex 7 20 -13
      vertex 7 0 -13
    endloop
  endfacet
  facet normal -0.104529 0 -0.994522
    outer loop
      vertex 7 20 -13
      vertex 5.54462 -3.2316e-16 -12.847
      vertex 5.54462 20 -12.847
    endloop
  endfacet
  facet normal 0.309017 0 -0.951056
    outer loop
      vertex 8.45538 3.2316e-16 -12.847
      vertex 9.84716 20 -12.3948
      vertex 9.84716 6.32196e-16 -12.3948
    endloop
  endfacet
  facet normal 0.309017 0 -0.951056
    outer loop
      vertex 9.84716 20 -12.3948
      vertex 8.45538 3.2316e-16 -12.847
      vertex 8.45538 20 -12.847
    endloop
  endfacet
  facet normal 0.809017 0 -0.587786
    outer loop
      vertex 13.0622 1.34607e-15 -9.5
      vertex 12.202 20 -10.6839
      vertex 13.0622 20 -9.5
    endloop
  endfacet
  facet normal 0.809017 0 -0.587786
    outer loop
      vertex 12.202 20 -10.6839
      vertex 13.0622 1.34607e-15 -9.5
      vertex 12.202 1.15508e-15 -10.6839
    endloop
  endfacet
  facet normal 1 -0 0
    outer loop
      vertex 13.9617 2 -5.2683
      vertex 13.9617 20 -6.7317
      vertex 13.9617 20 -5.2683
    endloop
  endfacet
  facet normal 1 0 0
    outer loop
      vertex 13.9617 20 -6.7317
      vertex 13.9617 2 -5.2683
      vertex 13.9617 2 -6.7317
    endloop
  endfacet
  facet normal 0.104529 0 0.994522
    outer loop
      vertex 7 20 1
      vertex 8.45538 14.5 0.847033
      vertex 8.45538 20 0.847033
    endloop
  endfacet
  facet normal 0.104529 0 0.994522
    outer loop
      vertex 8.45538 14.5 0.847033
      vertex 7 20 1
      vertex 7 14.5 1
    endloop
  endfacet
  facet normal 0.66913 0 0.743145
    outer loop
      vertex 11.1145 20 -0.336882
      vertex 12.202 1.15508e-15 -1.31609
      vertex 12.202 20 -1.31609
    endloop
  endfacet
  facet normal 0.66913 0 0.743145
    outer loop
      vertex 12.202 1.15508e-15 -1.31609
      vertex 11.1145 20 -0.336882
      vertex 11.1145 9.13602e-16 -0.336882
    endloop
  endfacet
  facet normal 0.913545 -4.18957e-09 0.406737
    outer loop
      vertex 13.0622 20 -2.5
      vertex 13.2848 2 -3
      vertex 13.6574 20 -3.83688
    endloop
  endfacet
  facet normal 0.913545 -0 0.406737
    outer loop
      vertex 13.0622 1.34607e-15 -2.5
      vertex 13.2848 2 -3
      vertex 13.0622 20 -2.5
    endloop
  endfacet
  facet normal 0.913545 0 0.406737
    outer loop
      vertex 13.2848 2 -3
      vertex 13.0622 1.34607e-15 -2.5
      vertex 13.2848 1.3955e-15 -3
    endloop
  endfacet
  facet normal 0.913545 0 0.406737
    outer loop
      vertex 13.6574 20 -3.83688
      vertex 13.2848 2 -3
      vertex 13.6574 2 -3.83688
    endloop
  endfacet
  facet normal 0.809017 0 0.587785
    outer loop
      vertex 12.202 20 -1.31609
      vertex 13.0622 1.34607e-15 -2.5
      vertex 13.0622 20 -2.5
    endloop
  endfacet
  facet normal 0.809017 0 0.587785
    outer loop
      vertex 13.0622 1.34607e-15 -2.5
      vertex 12.202 20 -1.31609
      vertex 12.202 1.15508e-15 -1.31609
    endloop
  endfacet
  facet normal 0.104529 0 -0.994522
    outer loop
      vertex 7 0 -13
      vertex 8.45538 20 -12.847
      vertex 8.45538 3.2316e-16 -12.847
    endloop
  endfacet
  facet normal 0.104529 0 -0.994522
    outer loop
      vertex 8.45538 20 -12.847
      vertex 7 0 -13
      vertex 7 20 -13
    endloop
  endfacet
  facet normal -0.309017 0 -0.951056
    outer loop
      vertex 4.15284 -6.32196e-16 -12.3948
      vertex 5.54462 20 -12.847
      vertex 5.54462 -3.2316e-16 -12.847
    endloop
  endfacet
  facet normal -0.309017 0 -0.951056
    outer loop
      vertex 5.54462 20 -12.847
      vertex 4.15284 -6.32196e-16 -12.3948
      vertex 4.15284 20 -12.3948
    endloop
  endfacet
  facet normal -0.809017 0 0.587786
    outer loop
      vertex 0.937822 20 -2.5
      vertex 1.79799 -1.15508e-15 -1.31609
      vertex 1.79799 20 -1.31609
    endloop
  endfacet
  facet normal -0.809017 0 0.587786
    outer loop
      vertex 1.79799 -1.15508e-15 -1.31609
      vertex 0.937822 20 -2.5
      vertex 0.937822 -1.34607e-15 -2.5
    endloop
  endfacet
  facet normal -0.5 0 0.866026
    outer loop
      vertex 4.15284 20 0.394817
      vertex 3.469 14.5 0
      vertex 4.15284 14.5 0.394817
    endloop
  endfacet
  facet normal -0.5 0 0.866026
    outer loop
      vertex 2.8855 -9.13602e-16 -0.336882
      vertex 3.469 14.5 0
      vertex 2.8855 20 -0.336882
    endloop
  endfacet
  facet normal -0.5 -6.75316e-09 0.866026
    outer loop
      vertex 2.8855 20 -0.336882
      vertex 3.469 14.5 0
      vertex 4.15284 20 0.394817
    endloop
  endfacet
  facet normal -0.5 0 0.866026
    outer loop
      vertex 3.469 0 0
      vertex 4.15284 -6.32196e-16 0.394817
      vertex 4.15284 0 0.394817
    endloop
  endfacet
  facet normal -1.05545e-08 1 1.82809e-08
    outer loop
      vertex 3.469 0 0
      vertex 2.8855 -9.13602e-16 -0.336882
      vertex 4.15284 -6.32196e-16 0.394817
    endloop
  endfacet
  facet normal -0.5 0 0.866026
    outer loop
      vertex 3.469 14.5 0
      vertex 2.8855 -9.13602e-16 -0.336882
      vertex 3.469 0 0
    endloop
  endfacet
  facet normal -0.809017 0 -0.587786
    outer loop
      vertex 1.79799 -1.15508e-15 -10.6839
      vertex 0.937822 20 -9.5
      vertex 1.79799 20 -10.6839
    endloop
  endfacet
  facet normal -0.809017 -0 -0.587786
    outer loop
      vertex 0.937822 20 -9.5
      vertex 1.79799 -1.15508e-15 -10.6839
      vertex 0.937822 -1.34607e-15 -9.5
    endloop
  endfacet
  facet normal 2.22044e-16 -1 -2.05088e-22
    outer loop
      vertex 1.79799 -1.15508e-15 -10.6839
      vertex 0.715208 -1.3955e-15 -9
      vertex 0.937822 -1.34607e-15 -9.5
    endloop
  endfacet
  facet normal 2.22045e-16 -1 -5.60028e-23
    outer loop
      vertex 2.8855 -9.13602e-16 -11.6631
      vertex 0.715208 -1.3955e-15 -9
      vertex 1.79799 -1.15508e-15 -10.6839
    endloop
  endfacet
  facet normal 2.22045e-16 -1 -1.23348e-23
    outer loop
      vertex 0.715208 -1.3955e-15 -9
      vertex 2.8855 -9.13602e-16 -11.6631
      vertex 13.2848 1.3955e-15 -9
    endloop
  endfacet
  facet normal 2.22045e-16 -1 0
    outer loop
      vertex 13.2848 1.3955e-15 -9
      vertex 12.202 1.15508e-15 -10.6839
      vertex 13.0622 1.34607e-15 -9.5
    endloop
  endfacet
  facet normal 2.22045e-16 -1 0
    outer loop
      vertex 11.1145 9.13602e-16 -11.6631
      vertex 13.2848 1.3955e-15 -9
      vertex 2.8855 -9.13602e-16 -11.6631
    endloop
  endfacet
  facet normal 2.22045e-16 -1 0
    outer loop
      vertex 13.2848 1.3955e-15 -9
      vertex 11.1145 9.13602e-16 -11.6631
      vertex 12.202 1.15508e-15 -10.6839
    endloop
  endfacet
  facet normal 2.22045e-16 -1 0
    outer loop
      vertex 4.15284 -6.32196e-16 -12.3948
      vertex 11.1145 9.13602e-16 -11.6631
      vertex 2.8855 -9.13602e-16 -11.6631
    endloop
  endfacet
  facet normal 2.22045e-16 -1 0
    outer loop
      vertex 4.15284 -6.32196e-16 -12.3948
      vertex 9.84716 6.32196e-16 -12.3948
      vertex 11.1145 9.13602e-16 -11.6631
    endloop
  endfacet
  facet normal 2.22045e-16 -1 0
    outer loop
      vertex 5.54462 -3.2316e-16 -12.847
      vertex 9.84716 6.32196e-16 -12.3948
      vertex 4.15284 -6.32196e-16 -12.3948
    endloop
  endfacet
  facet normal 2.22045e-16 -1 0
    outer loop
      vertex 5.54462 -3.2316e-16 -12.847
      vertex 8.45538 3.2316e-16 -12.847
      vertex 9.84716 6.32196e-16 -12.3948
    endloop
  endfacet
  facet normal 2.22045e-16 -1 0
    outer loop
      vertex 8.45538 3.2316e-16 -12.847
      vertex 5.54462 -3.2316e-16 -12.847
      vertex 7 0 -13
    endloop
  endfacet
  facet normal 2.22045e-16 -1 0
    outer loop
      vertex 7 0 0
      vertex 5.54462 -3.2316e-16 0.847033
      vertex 4.15284 -6.32196e-16 0.394817
    endloop
  endfacet
  facet normal 2.22045e-16 -1 0
    outer loop
      vertex 5.54462 -3.2316e-16 0.847033
      vertex 7 0 0
      vertex 7 0 1
    endloop
  endfacet
  facet normal 2.22045e-16 -1 0
    outer loop
      vertex 2.8855 -9.13602e-16 -0.336882
      vertex 7 0 0
      vertex 4.15284 -6.32196e-16 0.394817
    endloop
  endfacet
  facet normal 2.22045e-16 -1 0
    outer loop
      vertex 1.79799 -1.15508e-15 -1.31609
      vertex 7 0 0
      vertex 2.8855 -9.13602e-16 -0.336882
    endloop
  endfacet
  facet normal 2.22045e-16 -1 2.20581e-24
    outer loop
      vertex 13.2848 1.3955e-15 -3
      vertex 7 0 0
      vertex 0.715208 -1.3955e-15 -3
    endloop
  endfacet
  facet normal 2.22045e-16 -1 9.38661e-24
    outer loop
      vertex 7 0 0
      vertex 1.79799 -1.15508e-15 -1.31609
      vertex 0.715208 -1.3955e-15 -3
    endloop
  endfacet
  facet normal 2.22045e-16 -1 0
    outer loop
      vertex 12.202 1.15508e-15 -1.31609
      vertex 7 0 0
      vertex 13.2848 1.3955e-15 -3
    endloop
  endfacet
  facet normal 2.22045e-16 -1 6.83627e-23
    outer loop
      vertex 0.715208 -1.3955e-15 -3
      vertex 1.79799 -1.15508e-15 -1.31609
      vertex 0.937822 -1.34607e-15 -2.5
    endloop
  endfacet
  facet normal 2.22045e-16 -1 0
    outer loop
      vertex 11.1145 9.13602e-16 -0.336882
      vertex 7 0 0
      vertex 12.202 1.15508e-15 -1.31609
    endloop
  endfacet
  facet normal 2.22045e-16 -1 -3.66228e-22
    outer loop
      vertex 7 0 0
      vertex 11.1145 9.13602e-16 -0.336882
      vertex 10.531 7.84039e-16 0
    endloop
  endfacet
  facet normal 2.22045e-16 -1 0
    outer loop
      vertex 12.202 1.15508e-15 -1.31609
      vertex 13.2848 1.3955e-15 -3
      vertex 13.0622 1.34607e-15 -2.5
    endloop
  endfacet
  facet normal -0.5 0 -0.866026
    outer loop
      vertex 2.8855 -9.13602e-16 -11.6631
      vertex 4.15284 20 -12.3948
      vertex 4.15284 -6.32196e-16 -12.3948
    endloop
  endfacet
  facet normal -0.5 0 -0.866026
    outer loop
      vertex 4.15284 20 -12.3948
      vertex 2.8855 -9.13602e-16 -11.6631
      vertex 2.8855 20 -11.6631
    endloop
  endfacet
  facet normal -0.104529 0 0.994522
    outer loop
      vertex 5.54462 20 0.847033
      vertex 7 14.5 1
      vertex 7 20 1
    endloop
  endfacet
  facet normal -0.104529 0 0.994522
    outer loop
      vertex 7 14.5 1
      vertex 5.54462 20 0.847033
      vertex 5.54462 14.5 0.847033
    endloop
  endfacet
  facet normal -0.104529 0 0.994522
    outer loop
      vertex 7 0 1
      vertex 5.54462 0 0.847033
      vertex 5.54462 -3.2316e-16 0.847033
    endloop
  endfacet
  facet normal -0.66913 0 0.743145
    outer loop
      vertex 1.79799 20 -1.31609
      vertex 2.8855 -9.13602e-16 -0.336882
      vertex 2.8855 20 -0.336882
    endloop
  endfacet
  facet normal -0.66913 0 0.743145
    outer loop
      vertex 2.8855 -9.13602e-16 -0.336882
      vertex 1.79799 20 -1.31609
      vertex 1.79799 -1.15508e-15 -1.31609
    endloop
  endfacet
  facet normal -0.978148 0 -0.207912
    outer loop
      vertex 0.342605 2 -8.16312
      vertex 0.0383472 20 -6.7317
      vertex 0.342605 20 -8.16312
    endloop
  endfacet
  facet normal -0.978148 -0 -0.207912
    outer loop
      vertex 0.0383472 20 -6.7317
      vertex 0.342605 2 -8.16312
      vertex 0.0383472 2 -6.7317
    endloop
  endfacet
  facet normal -0.913546 -2.55412e-09 -0.406736
    outer loop
      vertex 0.937822 20 -9.5
      vertex 0.715208 2 -9
      vertex 0.342605 20 -8.16312
    endloop
  endfacet
  facet normal -0.913546 0 -0.406736
    outer loop
      vertex 0.937822 -1.34607e-15 -9.5
      vertex 0.715208 2 -9
      vertex 0.937822 20 -9.5
    endloop
  endfacet
  facet normal -0.913546 -0 -0.406736
    outer loop
      vertex 0.715208 2 -9
      vertex 0.937822 -1.34607e-15 -9.5
      vertex 0.715208 -1.3955e-15 -9
    endloop
  endfacet
  facet normal -0.913546 -0 -0.406736
    outer loop
      vertex 0.342605 20 -8.16312
      vertex 0.715208 2 -9
      vertex 0.342605 2 -8.16312
    endloop
  endfacet
  facet normal -0.913546 0 0.406736
    outer loop
      vertex 0.715208 2 -3
      vertex 0.342605 20 -3.83688
      vertex 0.342605 2 -3.83688
    endloop
  endfacet
  facet normal -0.913546 8.4503e-10 0.406736
    outer loop
      vertex 0.342605 20 -3.83688
      vertex 0.715208 2 -3
      vertex 0.937822 20 -2.5
    endloop
  endfacet
  facet normal -0.913546 0 0.406736
    outer loop
      vertex 0.715208 2 -3
      vertex 0.937822 -1.34607e-15 -2.5
      vertex 0.937822 20 -2.5
    endloop
  endfacet
  facet normal -0.913546 0 0.406736
    outer loop
      vertex 0.937822 -1.34607e-15 -2.5
      vertex 0.715208 2 -3
      vertex 0.715208 -1.3955e-15 -3
    endloop
  endfacet
  facet normal -1 0 0
    outer loop
      vertex 0.0383472 2 -6.7317
      vertex 0.0383472 20 -5.2683
      vertex 0.0383472 20 -6.7317
    endloop
  endfacet
  facet normal -1 -0 0
    outer loop
      vertex 0.0383472 20 -5.2683
      vertex 0.0383472 2 -6.7317
      vertex 0.0383472 2 -5.2683
    endloop
  endfacet
  facet normal 0 1 -0
    outer loop
      vertex 7.68933 20 -0.543369
      vertex 7 20 1
      vertex 8.45538 20 0.847033
    endloop
  endfacet
  facet normal 0 1 -0
    outer loop
      vertex 9.02468 20 -0.88623
      vertex 8.45538 20 0.847033
      vertex 9.84716 20 0.394817
    endloop
  endfacet
  facet normal 0 1 0
    outer loop
      vertex 6.31067 20 -0.543369
      vertex 7 20 1
      vertex 7.68933 20 -0.543369
    endloop
  endfacet
  facet normal 0 1 -0
    outer loop
      vertex 10.2328 20 -1.55041
      vertex 9.84716 20 0.394817
      vertex 11.1145 20 -0.336882
    endloop
  endfacet
  facet normal 0 1 0
    outer loop
      vertex 7 20 1
      vertex 6.31067 20 -0.543369
      vertex 5.54462 20 0.847033
    endloop
  endfacet
  facet normal 0 1 0
    outer loop
      vertex 4.97532 20 -0.88623
      vertex 5.54462 20 0.847033
      vertex 6.31067 20 -0.543369
    endloop
  endfacet
  facet normal 0 1 0
    outer loop
      vertex 8.45538 20 0.847033
      vertex 9.02468 20 -0.88623
      vertex 7.68933 20 -0.543369
    endloop
  endfacet
  facet normal 0 1 0
    outer loop
      vertex 10.2328 20 -1.55041
      vertex 11.1145 20 -0.336882
      vertex 12.202 20 -1.31609
    endloop
  endfacet
  facet normal 0 1 0
    outer loop
      vertex 9.84716 20 0.394817
      vertex 10.2328 20 -1.55041
      vertex 9.02468 20 -0.88623
    endloop
  endfacet
  facet normal 0 1 0
    outer loop
      vertex 12.202 20 -1.31609
      vertex 11.2378 20 -2.49417
      vertex 10.2328 20 -1.55041
    endloop
  endfacet
  facet normal 0 1 0
    outer loop
      vertex 13.0622 20 -2.5
      vertex 11.2378 20 -2.49417
      vertex 12.202 20 -1.31609
    endloop
  endfacet
  facet normal 0 1 0
    outer loop
      vertex 13.0622 20 -2.5
      vertex 11.9765 20 -3.65821
      vertex 11.2378 20 -2.49417
    endloop
  endfacet
  facet normal 0 1 0
    outer loop
      vertex 13.6574 20 -3.83688
      vertex 11.9765 20 -3.65821
      vertex 13.0622 20 -2.5
    endloop
  endfacet
  facet normal 0 1 0
    outer loop
      vertex 13.6574 20 -3.83688
      vertex 12.4026 20 -4.9694
      vertex 11.9765 20 -3.65821
    endloop
  endfacet
  facet normal 0 1 0
    outer loop
      vertex 13.9617 20 -5.2683
      vertex 12.4026 20 -4.9694
      vertex 13.6574 20 -3.83688
    endloop
  endfacet
  facet normal 0 1 0
    outer loop
      vertex 13.9617 20 -5.2683
      vertex 12.4891 20 -6.34535
      vertex 12.4026 20 -4.9694
    endloop
  endfacet
  facet normal 0 1 -0
    outer loop
      vertex 13.9617 20 -6.7317
      vertex 12.4891 20 -6.34535
      vertex 13.9617 20 -5.2683
    endloop
  endfacet
  facet normal 0 1 0
    outer loop
      vertex 13.9617 20 -6.7317
      vertex 12.2308 20 -7.69959
      vertex 12.4891 20 -6.34535
    endloop
  endfacet
  facet normal 0 1 -0
    outer loop
      vertex 13.6574 20 -8.16312
      vertex 12.2308 20 -7.69959
      vertex 13.9617 20 -6.7317
    endloop
  endfacet
  facet normal 0 1 -0
    outer loop
      vertex 13.0622 20 -9.5
      vertex 12.2308 20 -7.69959
      vertex 13.6574 20 -8.16312
    endloop
  endfacet
  facet normal 0 1 0
    outer loop
      vertex 12.2308 20 -7.69959
      vertex 13.0622 20 -9.5
      vertex 11.6438 20 -8.94705
    endloop
  endfacet
  facet normal 0 1 -0
    outer loop
      vertex 12.202 20 -10.6839
      vertex 11.6438 20 -8.94705
      vertex 13.0622 20 -9.5
    endloop
  endfacet
  facet normal 0 1 0
    outer loop
      vertex 11.6438 20 -8.94705
      vertex 12.202 20 -10.6839
      vertex 10.765 20 -10.0093
    endloop
  endfacet
  facet normal 0 1 -0
    outer loop
      vertex 11.1145 20 -11.6631
      vertex 10.765 20 -10.0093
      vertex 12.202 20 -10.6839
    endloop
  endfacet
  facet normal 0 1 0
    outer loop
      vertex 10.765 20 -10.0093
      vertex 11.1145 20 -11.6631
      vertex 9.64964 20 -10.8197
    endloop
  endfacet
  facet normal 0 1 0
    outer loop
      vertex 9.64964 20 -10.8197
      vertex 9.84716 20 -12.3948
      vertex 8.36779 20 -11.3272
    endloop
  endfacet
  facet normal 0 1 -0
    outer loop
      vertex 9.84716 20 -12.3948
      vertex 9.64964 20 -10.8197
      vertex 11.1145 20 -11.6631
    endloop
  endfacet
  facet normal 0 1 0
    outer loop
      vertex 5.54462 20 0.847033
      vertex 4.97532 20 -0.88623
      vertex 4.15284 20 0.394817
    endloop
  endfacet
  facet normal 0 1 0
    outer loop
      vertex 3.76718 20 -1.55041
      vertex 4.15284 20 0.394817
      vertex 4.97532 20 -0.88623
    endloop
  endfacet
  facet normal 0 1 0
    outer loop
      vertex 4.15284 20 0.394817
      vertex 3.76718 20 -1.55041
      vertex 2.8855 20 -0.336882
    endloop
  endfacet
  facet normal 0 1 0
    outer loop
      vertex 2.8855 20 -0.336882
      vertex 3.76718 20 -1.55041
      vertex 1.79799 20 -1.31609
    endloop
  endfacet
  facet normal 0 1 -0
    outer loop
      vertex 2.76218 20 -2.49417
      vertex 1.79799 20 -1.31609
      vertex 3.76718 20 -1.55041
    endloop
  endfacet
  facet normal 0 1 0
    outer loop
      vertex 2.76218 20 -2.49417
      vertex 0.937822 20 -2.5
      vertex 1.79799 20 -1.31609
    endloop
  endfacet
  facet normal 0 1 -0
    outer loop
      vertex 2.02345 20 -3.65821
      vertex 0.937822 20 -2.5
      vertex 2.76218 20 -2.49417
    endloop
  endfacet
  facet normal 0 1 0
    outer loop
      vertex 2.02345 20 -3.65821
      vertex 0.342605 20 -3.83688
      vertex 0.937822 20 -2.5
    endloop
  endfacet
  facet normal 0 1 -0
    outer loop
      vertex 1.59742 20 -4.9694
      vertex 0.342605 20 -3.83688
      vertex 2.02345 20 -3.65821
    endloop
  endfacet
  facet normal 0 1 0
    outer loop
      vertex 1.59742 20 -4.9694
      vertex 0.0383472 20 -5.2683
      vertex 0.342605 20 -3.83688
    endloop
  endfacet
  facet normal 0 1 -0
    outer loop
      vertex 1.51085 20 -6.34535
      vertex 0.0383472 20 -5.2683
      vertex 1.59742 20 -4.9694
    endloop
  endfacet
  facet normal 0 1 0
    outer loop
      vertex 1.51085 20 -6.34535
      vertex 0.0383472 20 -6.7317
      vertex 0.0383472 20 -5.2683
    endloop
  endfacet
  facet normal 0 1 0
    outer loop
      vertex 1.76919 20 -7.69959
      vertex 0.0383472 20 -6.7317
      vertex 1.51085 20 -6.34535
    endloop
  endfacet
  facet normal 0 1 0
    outer loop
      vertex 1.76919 20 -7.69959
      vertex 0.342605 20 -8.16312
      vertex 0.0383472 20 -6.7317
    endloop
  endfacet
  facet normal 0 1 0
    outer loop
      vertex 0.937822 20 -9.5
      vertex 1.76919 20 -7.69959
      vertex 2.3562 20 -8.94705
    endloop
  endfacet
  facet normal 0 1 0
    outer loop
      vertex 1.76919 20 -7.69959
      vertex 0.937822 20 -9.5
      vertex 0.342605 20 -8.16312
    endloop
  endfacet
  facet normal 0 1 0
    outer loop
      vertex 1.79799 20 -10.6839
      vertex 2.3562 20 -8.94705
      vertex 3.23499 20 -10.0093
    endloop
  endfacet
  facet normal 0 1 0
    outer loop
      vertex 2.3562 20 -8.94705
      vertex 1.79799 20 -10.6839
      vertex 0.937822 20 -9.5
    endloop
  endfacet
  facet normal 0 1 0
    outer loop
      vertex 2.8855 20 -11.6631
      vertex 3.23499 20 -10.0093
      vertex 4.35036 20 -10.8197
    endloop
  endfacet
  facet normal 0 1 0
    outer loop
      vertex 4.15284 20 -12.3948
      vertex 4.35036 20 -10.8197
      vertex 5.63221 20 -11.3272
    endloop
  endfacet
  facet normal 0 1 0
    outer loop
      vertex 3.23499 20 -10.0093
      vertex 2.8855 20 -11.6631
      vertex 1.79799 20 -10.6839
    endloop
  endfacet
  facet normal 0 1 0
    outer loop
      vertex 5.54462 20 -12.847
      vertex 5.63221 20 -11.3272
      vertex 7 20 -11.5
    endloop
  endfacet
  facet normal 0 1 -0
    outer loop
      vertex 8.45538 20 -12.847
      vertex 8.36779 20 -11.3272
      vertex 9.84716 20 -12.3948
    endloop
  endfacet
  facet normal 0 1 0
    outer loop
      vertex 8.36779 20 -11.3272
      vertex 8.45538 20 -12.847
      vertex 7 20 -11.5
    endloop
  endfacet
  facet normal 0 1 0
    outer loop
      vertex 4.35036 20 -10.8197
      vertex 4.15284 20 -12.3948
      vertex 2.8855 20 -11.6631
    endloop
  endfacet
  facet normal 0 1 0
    outer loop
      vertex 7 20 -13
      vertex 7 20 -11.5
      vertex 8.45538 20 -12.847
    endloop
  endfacet
  facet normal 0 1 0
    outer loop
      vertex 5.63221 20 -11.3272
      vertex 5.54462 20 -12.847
      vertex 4.15284 20 -12.3948
    endloop
  endfacet
  facet normal 0 1 0
    outer loop
      vertex 7 20 -11.5
      vertex 7 20 -13
      vertex 5.54462 20 -12.847
    endloop
  endfacet
  facet normal -0.309017 0 0.951056
    outer loop
      vertex 4.15284 0 0.394817
      vertex 5.54462 -3.2316e-16 0.847033
      vertex 5.54462 0 0.847033
    endloop
  endfacet
  facet normal -0.309017 0 0.951056
    outer loop
      vertex 5.54462 -3.2316e-16 0.847033
      vertex 4.15284 0 0.394817
      vertex 4.15284 -6.32196e-16 0.394817
    endloop
  endfacet
  facet normal -0.309017 0 0.951056
    outer loop
      vertex 4.15284 20 0.394817
      vertex 5.54462 14.5 0.847033
      vertex 5.54462 20 0.847033
    endloop
  endfacet
  facet normal -0.309017 0 0.951056
    outer loop
      vertex 5.54462 14.5 0.847033
      vertex 4.15284 20 0.394817
      vertex 4.15284 14.5 0.394817
    endloop
  endfacet
  facet normal -0.66913 0 -0.743145
    outer loop
      vertex 1.79799 -1.15508e-15 -10.6839
      vertex 2.8855 20 -11.6631
      vertex 2.8855 -9.13602e-16 -11.6631
    endloop
  endfacet
  facet normal -0.66913 0 -0.743145
    outer loop
      vertex 2.8855 20 -11.6631
      vertex 1.79799 -1.15508e-15 -10.6839
      vertex 1.79799 20 -10.6839
    endloop
  endfacet
  facet normal -0.978148 0 0.207912
    outer loop
      vertex 0.0383472 2 -5.2683
      vertex 0.342605 20 -3.83688
      vertex 0.0383472 20 -5.2683
    endloop
  endfacet
  facet normal -0.978148 0 0.207912
    outer loop
      vertex 0.342605 20 -3.83688
      vertex 0.0383472 2 -5.2683
      vertex 0.342605 2 -3.83688
    endloop
  endfacet
  facet normal -0.125334 0 0.992115
    outer loop
      vertex 7 20 -11.5
      vertex 8.36779 3.5 -11.3272
      vertex 8.36779 20 -11.3272
    endloop
  endfacet
  facet normal -0.125334 0 0.992115
    outer loop
      vertex 8.36779 3.5 -11.3272
      vertex 7 20 -11.5
      vertex 7 3.5 -11.5
    endloop
  endfacet
  facet normal 0 0 -1
    outer loop
      vertex 6.31067 3.5 -0.543369
      vertex 7.68933 20 -0.543369
      vertex 7.68933 3.5 -0.543369
    endloop
  endfacet
  facet normal -0 0 -1
    outer loop
      vertex 7.68933 20 -0.543369
      vertex 6.31067 3.5 -0.543369
      vertex 6.31067 20 -0.543369
    endloop
  endfacet
  facet normal -0.998027 0 -0.0627904
    outer loop
      vertex 12.4891 3.5 -6.34535
      vertex 12.4026 20 -4.9694
      vertex 12.4891 20 -6.34535
    endloop
  endfacet
  facet normal -0.998027 -0 -0.0627904
    outer loop
      vertex 12.4026 20 -4.9694
      vertex 12.4891 3.5 -6.34535
      vertex 12.4026 3.5 -4.9694
    endloop
  endfacet
  facet normal 0.998027 0 -0.0627904
    outer loop
      vertex 1.59742 3.5 -4.9694
      vertex 1.51085 20 -6.34535
      vertex 1.59742 20 -4.9694
    endloop
  endfacet
  facet normal 0.998027 0 -0.0627904
    outer loop
      vertex 1.51085 20 -6.34535
      vertex 1.59742 3.5 -4.9694
      vertex 1.51085 3.5 -6.34535
    endloop
  endfacet
  facet normal -0.770513 0 0.637424
    outer loop
      vertex 10.765 3.5 -10.0093
      vertex 11.6438 20 -8.94705
      vertex 10.765 20 -10.0093
    endloop
  endfacet
  facet normal -0.770513 0 0.637424
    outer loop
      vertex 11.6438 20 -8.94705
      vertex 10.765 3.5 -10.0093
      vertex 11.6438 3.5 -8.94705
    endloop
  endfacet
  facet normal -0.904827 0 0.425779
    outer loop
      vertex 11.6438 3.5 -8.94705
      vertex 12.2308 20 -7.69959
      vertex 11.6438 20 -8.94705
    endloop
  endfacet
  facet normal -0.904827 0 0.425779
    outer loop
      vertex 12.2308 20 -7.69959
      vertex 11.6438 3.5 -8.94705
      vertex 12.2308 3.5 -7.69959
    endloop
  endfacet
  facet normal -0.684547 0 -0.728969
    outer loop
      vertex 10.2328 3.5 -1.55041
      vertex 11.2378 20 -2.49417
      vertex 11.2378 3.5 -2.49417
    endloop
  endfacet
  facet normal -0.684547 0 -0.728969
    outer loop
      vertex 11.2378 20 -2.49417
      vertex 10.2328 3.5 -1.55041
      vertex 10.2328 20 -1.55041
    endloop
  endfacet
  facet normal -0.481754 0 -0.876306
    outer loop
      vertex 9.02468 3.5 -0.88623
      vertex 10.2328 20 -1.55041
      vertex 10.2328 3.5 -1.55041
    endloop
  endfacet
  facet normal -0.481754 0 -0.876306
    outer loop
      vertex 10.2328 20 -1.55041
      vertex 9.02468 3.5 -0.88623
      vertex 9.02468 20 -0.88623
    endloop
  endfacet
  facet normal -0.844328 0 -0.535826
    outer loop
      vertex 11.9765 3.5 -3.65821
      vertex 11.2378 20 -2.49417
      vertex 11.9765 20 -3.65821
    endloop
  endfacet
  facet normal -0.844328 -0 -0.535826
    outer loop
      vertex 11.2378 20 -2.49417
      vertex 11.9765 3.5 -3.65821
      vertex 11.2378 3.5 -2.49417
    endloop
  endfacet
  facet normal 0.24869 0 -0.968583
    outer loop
      vertex 4.97532 3.5 -0.88623
      vertex 6.31067 20 -0.543369
      vertex 6.31067 3.5 -0.543369
    endloop
  endfacet
  facet normal 0.24869 0 -0.968583
    outer loop
      vertex 6.31067 20 -0.543369
      vertex 4.97532 3.5 -0.88623
      vertex 4.97532 20 -0.88623
    endloop
  endfacet
  facet normal -0.587785 0 0.809017
    outer loop
      vertex 9.64964 20 -10.8197
      vertex 10.765 3.5 -10.0093
      vertex 10.765 20 -10.0093
    endloop
  endfacet
  facet normal -0.587785 0 0.809017
    outer loop
      vertex 10.765 3.5 -10.0093
      vertex 9.64964 20 -10.8197
      vertex 9.64964 3.5 -10.8197
    endloop
  endfacet
  facet normal -0.368125 0 0.929776
    outer loop
      vertex 8.36779 20 -11.3272
      vertex 9.64964 3.5 -10.8197
      vertex 9.64964 20 -10.8197
    endloop
  endfacet
  facet normal -0.368125 0 0.929776
    outer loop
      vertex 9.64964 3.5 -10.8197
      vertex 8.36779 20 -11.3272
      vertex 8.36779 3.5 -11.3272
    endloop
  endfacet
  facet normal -0.982287 0 0.187381
    outer loop
      vertex 12.2308 3.5 -7.69959
      vertex 12.4891 20 -6.34535
      vertex 12.2308 20 -7.69959
    endloop
  endfacet
  facet normal -0.982287 0 0.187381
    outer loop
      vertex 12.4891 20 -6.34535
      vertex 12.2308 3.5 -7.69959
      vertex 12.4891 3.5 -6.34535
    endloop
  endfacet
  facet normal -0.24869 0 -0.968583
    outer loop
      vertex 7.68933 3.5 -0.543369
      vertex 9.02468 20 -0.88623
      vertex 9.02468 3.5 -0.88623
    endloop
  endfacet
  facet normal -0.24869 0 -0.968583
    outer loop
      vertex 9.02468 20 -0.88623
      vertex 7.68933 3.5 -0.543369
      vertex 7.68933 20 -0.543369
    endloop
  endfacet
  facet normal -0.951056 0 -0.309017
    outer loop
      vertex 12.4026 3.5 -4.9694
      vertex 11.9765 20 -3.65821
      vertex 12.4026 20 -4.9694
    endloop
  endfacet
  facet normal -0.951056 -0 -0.309017
    outer loop
      vertex 11.9765 20 -3.65821
      vertex 12.4026 3.5 -4.9694
      vertex 11.9765 3.5 -3.65821
    endloop
  endfacet
  facet normal 0.125334 0 0.992115
    outer loop
      vertex 5.63221 20 -11.3272
      vertex 7 3.5 -11.5
      vertex 7 20 -11.5
    endloop
  endfacet
  facet normal 0.125334 0 0.992115
    outer loop
      vertex 7 3.5 -11.5
      vertex 5.63221 20 -11.3272
      vertex 5.63221 3.5 -11.3272
    endloop
  endfacet
  facet normal 0.982287 -0 0.187381
    outer loop
      vertex 1.51085 3.5 -6.34535
      vertex 1.76919 20 -7.69959
      vertex 1.51085 20 -6.34535
    endloop
  endfacet
  facet normal 0.982287 0 0.187381
    outer loop
      vertex 1.76919 20 -7.69959
      vertex 1.51085 3.5 -6.34535
      vertex 1.76919 3.5 -7.69959
    endloop
  endfacet
  facet normal 0.844328 0 -0.535826
    outer loop
      vertex 2.76218 3.5 -2.49417
      vertex 2.02345 20 -3.65821
      vertex 2.76218 20 -2.49417
    endloop
  endfacet
  facet normal 0.844328 0 -0.535826
    outer loop
      vertex 2.02345 20 -3.65821
      vertex 2.76218 3.5 -2.49417
      vertex 2.02345 3.5 -3.65821
    endloop
  endfacet
  facet normal 0.481754 0 -0.876306
    outer loop
      vertex 3.76718 3.5 -1.55041
      vertex 4.97532 20 -0.88623
      vertex 4.97532 3.5 -0.88623
    endloop
  endfacet
  facet normal 0.481754 0 -0.876306
    outer loop
      vertex 4.97532 20 -0.88623
      vertex 3.76718 3.5 -1.55041
      vertex 3.76718 20 -1.55041
    endloop
  endfacet
  facet normal 0.770513 -0 0.637424
    outer loop
      vertex 2.3562 3.5 -8.94705
      vertex 3.23499 20 -10.0093
      vertex 2.3562 20 -8.94705
    endloop
  endfacet
  facet normal 0.770513 0 0.637424
    outer loop
      vertex 3.23499 20 -10.0093
      vertex 2.3562 3.5 -8.94705
      vertex 3.23499 3.5 -10.0093
    endloop
  endfacet
  facet normal 0.368125 0 0.929776
    outer loop
      vertex 4.35036 20 -10.8197
      vertex 5.63221 3.5 -11.3272
      vertex 5.63221 20 -11.3272
    endloop
  endfacet
  facet normal 0.368125 0 0.929776
    outer loop
      vertex 5.63221 3.5 -11.3272
      vertex 4.35036 20 -10.8197
      vertex 4.35036 3.5 -10.8197
    endloop
  endfacet
  facet normal 0.587785 0 0.809017
    outer loop
      vertex 3.23499 20 -10.0093
      vertex 4.35036 3.5 -10.8197
      vertex 4.35036 20 -10.8197
    endloop
  endfacet
  facet normal 0.587785 0 0.809017
    outer loop
      vertex 4.35036 3.5 -10.8197
      vertex 3.23499 20 -10.0093
      vertex 3.23499 3.5 -10.0093
    endloop
  endfacet
  facet normal 0.904827 -0 0.425779
    outer loop
      vertex 1.76919 3.5 -7.69959
      vertex 2.3562 20 -8.94705
      vertex 1.76919 20 -7.69959
    endloop
  endfacet
  facet normal 0.904827 0 0.425779
    outer loop
      vertex 2.3562 20 -8.94705
      vertex 1.76919 3.5 -7.69959
      vertex 2.3562 3.5 -8.94705
    endloop
  endfacet
  facet normal 0.951056 0 -0.309017
    outer loop
      vertex 2.02345 3.5 -3.65821
      vertex 1.59742 20 -4.9694
      vertex 2.02345 20 -3.65821
    endloop
  endfacet
  facet normal 0.951056 0 -0.309017
    outer loop
      vertex 1.59742 20 -4.9694
      vertex 2.02345 3.5 -3.65821
      vertex 1.59742 3.5 -4.9694
    endloop
  endfacet
  facet normal 0.684547 0 -0.728969
    outer loop
      vertex 2.76218 3.5 -2.49417
      vertex 3.76718 20 -1.55041
      vertex 3.76718 3.5 -1.55041
    endloop
  endfacet
  facet normal 0.684547 0 -0.728969
    outer loop
      vertex 3.76718 20 -1.55041
      vertex 2.76218 3.5 -2.49417
      vertex 2.76218 20 -2.49417
    endloop
  endfacet
  facet normal 0 1 0
    outer loop
      vertex 7.31333 3.5 -3.51971
      vertex 7.68933 3.5 -0.543369
      vertex 9.02468 3.5 -0.88623
    endloop
  endfacet
  facet normal 0 1 0
    outer loop
      vertex 7.68933 3.5 -0.543369
      vertex 7.31333 3.5 -3.51971
      vertex 6.31067 3.5 -0.543369
    endloop
  endfacet
  facet normal 0 1 0
    outer loop
      vertex 7.92031 3.5 -3.67556
      vertex 9.02468 3.5 -0.88623
      vertex 10.2328 3.5 -1.55041
    endloop
  endfacet
  facet normal 0 1 -0
    outer loop
      vertex 6.68667 3.5 -3.51971
      vertex 6.31067 3.5 -0.543369
      vertex 7.31333 3.5 -3.51971
    endloop
  endfacet
  facet normal 0 1 0
    outer loop
      vertex 8.46946 3.5 -3.97746
      vertex 10.2328 3.5 -1.55041
      vertex 11.2378 3.5 -2.49417
    endloop
  endfacet
  facet normal 0 1 0
    outer loop
      vertex 6.31067 3.5 -0.543369
      vertex 6.68667 3.5 -3.51971
      vertex 4.97532 3.5 -0.88623
    endloop
  endfacet
  facet normal 0 1 -0
    outer loop
      vertex 6.07969 3.5 -3.67556
      vertex 4.97532 3.5 -0.88623
      vertex 6.68667 3.5 -3.51971
    endloop
  endfacet
  facet normal 0 1 0
    outer loop
      vertex 8.92628 3.5 -4.40644
      vertex 11.2378 3.5 -2.49417
      vertex 11.9765 3.5 -3.65821
    endloop
  endfacet
  facet normal 0 1 0
    outer loop
      vertex 9.02468 3.5 -0.88623
      vertex 7.92031 3.5 -3.67556
      vertex 7.31333 3.5 -3.51971
    endloop
  endfacet
  facet normal 0 1 0
    outer loop
      vertex 10.2328 3.5 -1.55041
      vertex 8.46946 3.5 -3.97746
      vertex 7.92031 3.5 -3.67556
    endloop
  endfacet
  facet normal 0 1 0
    outer loop
      vertex 11.2378 3.5 -2.49417
      vertex 8.92628 3.5 -4.40644
      vertex 8.46946 3.5 -3.97746
    endloop
  endfacet
  facet normal 0 1 0
    outer loop
      vertex 11.9765 3.5 -3.65821
      vertex 9.26207 3.5 -4.93555
      vertex 8.92628 3.5 -4.40644
    endloop
  endfacet
  facet normal 0 1 0
    outer loop
      vertex 12.4026 3.5 -4.9694
      vertex 9.26207 3.5 -4.93555
      vertex 11.9765 3.5 -3.65821
    endloop
  endfacet
  facet normal 0 1 0
    outer loop
      vertex 12.4026 3.5 -4.9694
      vertex 9.45572 3.5 -5.53155
      vertex 9.26207 3.5 -4.93555
    endloop
  endfacet
  facet normal 0 1 0
    outer loop
      vertex 12.4026 3.5 -4.9694
      vertex 9.49507 3.5 -6.15698
      vertex 9.45572 3.5 -5.53155
    endloop
  endfacet
  facet normal 0 1 0
    outer loop
      vertex 12.4891 3.5 -6.34535
      vertex 9.49507 3.5 -6.15698
      vertex 12.4026 3.5 -4.9694
    endloop
  endfacet
  facet normal 0 1 0
    outer loop
      vertex 12.4891 3.5 -6.34535
      vertex 9.37764 3.5 -6.77254
      vertex 9.49507 3.5 -6.15698
    endloop
  endfacet
  facet normal 0 1 -0
    outer loop
      vertex 12.2308 3.5 -7.69959
      vertex 9.37764 3.5 -6.77254
      vertex 12.4891 3.5 -6.34535
    endloop
  endfacet
  facet normal 0 1 0
    outer loop
      vertex 9.37764 3.5 -6.77254
      vertex 12.2308 3.5 -7.69959
      vertex 9.11082 3.5 -7.33957
    endloop
  endfacet
  facet normal 0 1 -0
    outer loop
      vertex 11.6438 3.5 -8.94705
      vertex 9.11082 3.5 -7.33957
      vertex 12.2308 3.5 -7.69959
    endloop
  endfacet
  facet normal 0 1 0
    outer loop
      vertex 9.11082 3.5 -7.33957
      vertex 11.6438 3.5 -8.94705
      vertex 8.71137 3.5 -7.82242
    endloop
  endfacet
  facet normal 0 1 -0
    outer loop
      vertex 10.765 3.5 -10.0093
      vertex 8.71137 3.5 -7.82242
      vertex 11.6438 3.5 -8.94705
    endloop
  endfacet
  facet normal 0 1 -0
    outer loop
      vertex 9.64964 3.5 -10.8197
      vertex 8.20438 3.5 -8.19077
      vertex 10.765 3.5 -10.0093
    endloop
  endfacet
  facet normal 0 1 0
    outer loop
      vertex 8.71137 3.5 -7.82242
      vertex 10.765 3.5 -10.0093
      vertex 8.20438 3.5 -8.19077
    endloop
  endfacet
  facet normal 0 1 0
    outer loop
      vertex 4.97532 3.5 -0.88623
      vertex 6.07969 3.5 -3.67556
      vertex 3.76718 3.5 -1.55041
    endloop
  endfacet
  facet normal 0 1 -0
    outer loop
      vertex 5.53054 3.5 -3.97746
      vertex 3.76718 3.5 -1.55041
      vertex 6.07969 3.5 -3.67556
    endloop
  endfacet
  facet normal 0 1 0
    outer loop
      vertex 3.76718 3.5 -1.55041
      vertex 5.53054 3.5 -3.97746
      vertex 2.76218 3.5 -2.49417
    endloop
  endfacet
  facet normal 0 1 -0
    outer loop
      vertex 5.07372 3.5 -4.40644
      vertex 2.76218 3.5 -2.49417
      vertex 5.53054 3.5 -3.97746
    endloop
  endfacet
  facet normal 0 1 0
    outer loop
      vertex 2.76218 3.5 -2.49417
      vertex 5.07372 3.5 -4.40644
      vertex 2.02345 3.5 -3.65821
    endloop
  endfacet
  facet normal 0 1 -0
    outer loop
      vertex 4.73793 3.5 -4.93555
      vertex 2.02345 3.5 -3.65821
      vertex 5.07372 3.5 -4.40644
    endloop
  endfacet
  facet normal 0 1 0
    outer loop
      vertex 4.73793 3.5 -4.93555
      vertex 1.59742 3.5 -4.9694
      vertex 2.02345 3.5 -3.65821
    endloop
  endfacet
  facet normal 0 1 -0
    outer loop
      vertex 4.54428 3.5 -5.53155
      vertex 1.59742 3.5 -4.9694
      vertex 4.73793 3.5 -4.93555
    endloop
  endfacet
  facet normal 0 1 -0
    outer loop
      vertex 4.50493 3.5 -6.15698
      vertex 1.59742 3.5 -4.9694
      vertex 4.54428 3.5 -5.53155
    endloop
  endfacet
  facet normal 0 1 0
    outer loop
      vertex 4.50493 3.5 -6.15698
      vertex 1.51085 3.5 -6.34535
      vertex 1.59742 3.5 -4.9694
    endloop
  endfacet
  facet normal 0 1 0
    outer loop
      vertex 4.62236 3.5 -6.77254
      vertex 1.51085 3.5 -6.34535
      vertex 4.50493 3.5 -6.15698
    endloop
  endfacet
  facet normal 0 1 0
    outer loop
      vertex 1.76919 3.5 -7.69959
      vertex 4.62236 3.5 -6.77254
      vertex 4.88918 3.5 -7.33957
    endloop
  endfacet
  facet normal 0 1 0
    outer loop
      vertex 4.62236 3.5 -6.77254
      vertex 1.76919 3.5 -7.69959
      vertex 1.51085 3.5 -6.34535
    endloop
  endfacet
  facet normal 0 1 0
    outer loop
      vertex 2.3562 3.5 -8.94705
      vertex 4.88918 3.5 -7.33957
      vertex 5.28863 3.5 -7.82242
    endloop
  endfacet
  facet normal 0 1 0
    outer loop
      vertex 3.23499 3.5 -10.0093
      vertex 5.28863 3.5 -7.82242
      vertex 5.79562 3.5 -8.19077
    endloop
  endfacet
  facet normal 0 1 0
    outer loop
      vertex 4.35036 3.5 -10.8197
      vertex 5.79562 3.5 -8.19077
      vertex 6.37828 3.5 -8.42146
    endloop
  endfacet
  facet normal 0 1 0
    outer loop
      vertex 4.88918 3.5 -7.33957
      vertex 2.3562 3.5 -8.94705
      vertex 1.76919 3.5 -7.69959
    endloop
  endfacet
  facet normal 0 1 0
    outer loop
      vertex 5.63221 3.5 -11.3272
      vertex 6.37828 3.5 -8.42146
      vertex 7 3.5 -8.5
    endloop
  endfacet
  facet normal 0 1 0
    outer loop
      vertex 8.20438 3.5 -8.19077
      vertex 9.64964 3.5 -10.8197
      vertex 7.62172 3.5 -8.42146
    endloop
  endfacet
  facet normal 0 1 -0
    outer loop
      vertex 8.36779 3.5 -11.3272
      vertex 7.62172 3.5 -8.42146
      vertex 9.64964 3.5 -10.8197
    endloop
  endfacet
  facet normal 0 1 0
    outer loop
      vertex 5.28863 3.5 -7.82242
      vertex 3.23499 3.5 -10.0093
      vertex 2.3562 3.5 -8.94705
    endloop
  endfacet
  facet normal 0 1 0
    outer loop
      vertex 7.62172 3.5 -8.42146
      vertex 8.36779 3.5 -11.3272
      vertex 7 3.5 -8.5
    endloop
  endfacet
  facet normal 0 1 0
    outer loop
      vertex 5.79562 3.5 -8.19077
      vertex 4.35036 3.5 -10.8197
      vertex 3.23499 3.5 -10.0093
    endloop
  endfacet
  facet normal 0 1 0
    outer loop
      vertex 7 3.5 -11.5
      vertex 7 3.5 -8.5
      vertex 8.36779 3.5 -11.3272
    endloop
  endfacet
  facet normal 0 1 0
    outer loop
      vertex 6.37828 3.5 -8.42146
      vertex 5.63221 3.5 -11.3272
      vertex 4.35036 3.5 -10.8197
    endloop
  endfacet
  facet normal 0 1 0
    outer loop
      vertex 7 3.5 -8.5
      vertex 7 3.5 -11.5
      vertex 5.63221 3.5 -11.3272
    endloop
  endfacet
  facet normal -0.125334 0 0.992115
    outer loop
      vertex 7 3.5 -8.5
      vertex 7.62172 2 -8.42146
      vertex 7.62172 3.5 -8.42146
    endloop
  endfacet
  facet normal -0.125334 0 0.992115
    outer loop
      vertex 7.62172 2 -8.42146
      vertex 7 3.5 -8.5
      vertex 7 2 -8.5
    endloop
  endfacet
  facet normal 0 0 -1
    outer loop
      vertex 6.68667 2 -3.51971
      vertex 7.31333 3.5 -3.51971
      vertex 7.31333 2 -3.51971
    endloop
  endfacet
  facet normal -0 0 -1
    outer loop
      vertex 7.31333 3.5 -3.51971
      vertex 6.68667 2 -3.51971
      vertex 6.68667 3.5 -3.51971
    endloop
  endfacet
  facet normal -0.998027 0 -0.0627905
    outer loop
      vertex 9.49507 2 -6.15698
      vertex 9.45572 3.5 -5.53155
      vertex 9.49507 3.5 -6.15698
    endloop
  endfacet
  facet normal -0.998027 -0 -0.0627905
    outer loop
      vertex 9.45572 3.5 -5.53155
      vertex 9.49507 2 -6.15698
      vertex 9.45572 2 -5.53155
    endloop
  endfacet
  facet normal 0.982287 -0 0.187382
    outer loop
      vertex 4.50493 2 -6.15698
      vertex 4.62236 3.5 -6.77254
      vertex 4.50493 3.5 -6.15698
    endloop
  endfacet
  facet normal 0.982287 0 0.187382
    outer loop
      vertex 4.62236 3.5 -6.77254
      vertex 4.50493 2 -6.15698
      vertex 4.62236 2 -6.77254
    endloop
  endfacet
  facet normal 0.684547 0 -0.728969
    outer loop
      vertex 5.07372 2 -4.40644
      vertex 5.53054 3.5 -3.97746
      vertex 5.53054 2 -3.97746
    endloop
  endfacet
  facet normal 0.684547 0 -0.728969
    outer loop
      vertex 5.53054 3.5 -3.97746
      vertex 5.07372 2 -4.40644
      vertex 5.07372 3.5 -4.40644
    endloop
  endfacet
  facet normal -0.770514 0 0.637423
    outer loop
      vertex 8.71137 2 -7.82242
      vertex 9.11082 3.5 -7.33957
      vertex 8.71137 3.5 -7.82242
    endloop
  endfacet
  facet normal -0.770514 0 0.637423
    outer loop
      vertex 9.11082 3.5 -7.33957
      vertex 8.71137 2 -7.82242
      vertex 9.11082 2 -7.33957
    endloop
  endfacet
  facet normal -0.904827 0 0.42578
    outer loop
      vertex 9.11082 2 -7.33957
      vertex 9.37764 3.5 -6.77254
      vertex 9.11082 3.5 -7.33957
    endloop
  endfacet
  facet normal -0.904827 0 0.42578
    outer loop
      vertex 9.37764 3.5 -6.77254
      vertex 9.11082 2 -7.33957
      vertex 9.37764 2 -6.77254
    endloop
  endfacet
  facet normal -0.684547 0 -0.728969
    outer loop
      vertex 8.46946 2 -3.97746
      vertex 8.92628 3.5 -4.40644
      vertex 8.92628 2 -4.40644
    endloop
  endfacet
  facet normal -0.684547 0 -0.728969
    outer loop
      vertex 8.92628 3.5 -4.40644
      vertex 8.46946 2 -3.97746
      vertex 8.46946 3.5 -3.97746
    endloop
  endfacet
  facet normal -0.481754 0 -0.876306
    outer loop
      vertex 7.92031 2 -3.67556
      vertex 8.46946 3.5 -3.97746
      vertex 8.46946 2 -3.97746
    endloop
  endfacet
  facet normal -0.481754 0 -0.876306
    outer loop
      vertex 8.46946 3.5 -3.97746
      vertex 7.92031 2 -3.67556
      vertex 7.92031 3.5 -3.67556
    endloop
  endfacet
  facet normal -0.844328 0 -0.535826
    outer loop
      vertex 9.26207 2 -4.93555
      vertex 8.92628 3.5 -4.40644
      vertex 9.26207 3.5 -4.93555
    endloop
  endfacet
  facet normal -0.844328 -0 -0.535826
    outer loop
      vertex 8.92628 3.5 -4.40644
      vertex 9.26207 2 -4.93555
      vertex 8.92628 2 -4.40644
    endloop
  endfacet
  facet normal 0.24869 0 -0.968583
    outer loop
      vertex 6.07969 2 -3.67556
      vertex 6.68667 3.5 -3.51971
      vertex 6.68667 2 -3.51971
    endloop
  endfacet
  facet normal 0.24869 0 -0.968583
    outer loop
      vertex 6.68667 3.5 -3.51971
      vertex 6.07969 2 -3.67556
      vertex 6.07969 3.5 -3.67556
    endloop
  endfacet
  facet normal -0.587785 0 0.809017
    outer loop
      vertex 8.20438 3.5 -8.19077
      vertex 8.71137 2 -7.82242
      vertex 8.71137 3.5 -7.82242
    endloop
  endfacet
  facet normal -0.587785 0 0.809017
    outer loop
      vertex 8.71137 2 -7.82242
      vertex 8.20438 3.5 -8.19077
      vertex 8.20438 2 -8.19077
    endloop
  endfacet
  facet normal -0.368124 0 0.929777
    outer loop
      vertex 7.62172 3.5 -8.42146
      vertex 8.20438 2 -8.19077
      vertex 8.20438 3.5 -8.19077
    endloop
  endfacet
  facet normal -0.368124 0 0.929777
    outer loop
      vertex 8.20438 2 -8.19077
      vertex 7.62172 3.5 -8.42146
      vertex 7.62172 2 -8.42146
    endloop
  endfacet
  facet normal -0.982287 0 0.187382
    outer loop
      vertex 9.37764 2 -6.77254
      vertex 9.49507 3.5 -6.15698
      vertex 9.37764 3.5 -6.77254
    endloop
  endfacet
  facet normal -0.982287 0 0.187382
    outer loop
      vertex 9.49507 3.5 -6.15698
      vertex 9.37764 2 -6.77254
      vertex 9.49507 2 -6.15698
    endloop
  endfacet
  facet normal -0.24869 0 -0.968583
    outer loop
      vertex 7.31333 2 -3.51971
      vertex 7.92031 3.5 -3.67556
      vertex 7.92031 2 -3.67556
    endloop
  endfacet
  facet normal -0.24869 0 -0.968583
    outer loop
      vertex 7.92031 3.5 -3.67556
      vertex 7.31333 2 -3.51971
      vertex 7.31333 3.5 -3.51971
    endloop
  endfacet
  facet normal -0.951056 0 -0.309018
    outer loop
      vertex 9.45572 2 -5.53155
      vertex 9.26207 3.5 -4.93555
      vertex 9.45572 3.5 -5.53155
    endloop
  endfacet
  facet normal -0.951056 -0 -0.309018
    outer loop
      vertex 9.26207 3.5 -4.93555
      vertex 9.45572 2 -5.53155
      vertex 9.26207 2 -4.93555
    endloop
  endfacet
  facet normal 0.125334 0 0.992115
    outer loop
      vertex 6.37828 3.5 -8.42146
      vertex 7 2 -8.5
      vertex 7 3.5 -8.5
    endloop
  endfacet
  facet normal 0.125334 0 0.992115
    outer loop
      vertex 7 2 -8.5
      vertex 6.37828 3.5 -8.42146
      vertex 6.37828 2 -8.42146
    endloop
  endfacet
  facet normal 0.844328 0 -0.535826
    outer loop
      vertex 5.07372 2 -4.40644
      vertex 4.73793 3.5 -4.93555
      vertex 5.07372 3.5 -4.40644
    endloop
  endfacet
  facet normal 0.844328 0 -0.535826
    outer loop
      vertex 4.73793 3.5 -4.93555
      vertex 5.07372 2 -4.40644
      vertex 4.73793 2 -4.93555
    endloop
  endfacet
  facet normal 0.998027 0 -0.0627905
    outer loop
      vertex 4.54428 2 -5.53155
      vertex 4.50493 3.5 -6.15698
      vertex 4.54428 3.5 -5.53155
    endloop
  endfacet
  facet normal 0.998027 0 -0.0627905
    outer loop
      vertex 4.50493 3.5 -6.15698
      vertex 4.54428 2 -5.53155
      vertex 4.50493 2 -6.15698
    endloop
  endfacet
  facet normal 0.481754 0 -0.876306
    outer loop
      vertex 5.53054 2 -3.97746
      vertex 6.07969 3.5 -3.67556
      vertex 6.07969 2 -3.67556
    endloop
  endfacet
  facet normal 0.481754 0 -0.876306
    outer loop
      vertex 6.07969 3.5 -3.67556
      vertex 5.53054 2 -3.97746
      vertex 5.53054 3.5 -3.97746
    endloop
  endfacet
  facet normal 0.770514 -0 0.637423
    outer loop
      vertex 4.88918 2 -7.33957
      vertex 5.28863 3.5 -7.82242
      vertex 4.88918 3.5 -7.33957
    endloop
  endfacet
  facet normal 0.770514 0 0.637423
    outer loop
      vertex 5.28863 3.5 -7.82242
      vertex 4.88918 2 -7.33957
      vertex 5.28863 2 -7.82242
    endloop
  endfacet
  facet normal 0.368124 0 0.929777
    outer loop
      vertex 5.79562 3.5 -8.19077
      vertex 6.37828 2 -8.42146
      vertex 6.37828 3.5 -8.42146
    endloop
  endfacet
  facet normal 0.368124 0 0.929777
    outer loop
      vertex 6.37828 2 -8.42146
      vertex 5.79562 3.5 -8.19077
      vertex 5.79562 2 -8.19077
    endloop
  endfacet
  facet normal 0.587785 0 0.809017
    outer loop
      vertex 5.28863 3.5 -7.82242
      vertex 5.79562 2 -8.19077
      vertex 5.79562 3.5 -8.19077
    endloop
  endfacet
  facet normal 0.587785 0 0.809017
    outer loop
      vertex 5.79562 2 -8.19077
      vertex 5.28863 3.5 -7.82242
      vertex 5.28863 2 -7.82242
    endloop
  endfacet
  facet normal 0.904827 -0 0.42578
    outer loop
      vertex 4.62236 2 -6.77254
      vertex 4.88918 3.5 -7.33957
      vertex 4.62236 3.5 -6.77254
    endloop
  endfacet
  facet normal 0.904827 0 0.42578
    outer loop
      vertex 4.88918 3.5 -7.33957
      vertex 4.62236 2 -6.77254
      vertex 4.88918 2 -7.33957
    endloop
  endfacet
  facet normal 0.951056 0 -0.309018
    outer loop
      vertex 4.73793 2 -4.93555
      vertex 4.54428 3.5 -5.53155
      vertex 4.73793 3.5 -4.93555
    endloop
  endfacet
  facet normal 0.951056 0 -0.309018
    outer loop
      vertex 4.54428 3.5 -5.53155
      vertex 4.73793 2 -4.93555
      vertex 4.54428 2 -5.53155
    endloop
  endfacet
  facet normal 0 -1 0
    outer loop
      vertex 0.715208 2 -3
      vertex 6.68667 2 -3.51971
      vertex 13.2848 2 -3
    endloop
  endfacet
  facet normal 0 -1 0
    outer loop
      vertex 0.715208 2 -3
      vertex 6.07969 2 -3.67556
      vertex 6.68667 2 -3.51971
    endloop
  endfacet
  facet normal 0 -1 0
    outer loop
      vertex 4.73793 2 -4.93555
      vertex 0.715208 2 -3
      vertex 0.342605 2 -3.83688
    endloop
  endfacet
  facet normal 0 -1 0
    outer loop
      vertex 0.715208 2 -3
      vertex 5.53054 2 -3.97746
      vertex 6.07969 2 -3.67556
    endloop
  endfacet
  facet normal 0 -1 0
    outer loop
      vertex 0.715208 2 -3
      vertex 5.07372 2 -4.40644
      vertex 5.53054 2 -3.97746
    endloop
  endfacet
  facet normal 0 -1 0
    outer loop
      vertex 0.715208 2 -3
      vertex 4.73793 2 -4.93555
      vertex 5.07372 2 -4.40644
    endloop
  endfacet
  facet normal 0 -1 0
    outer loop
      vertex 4.54428 2 -5.53155
      vertex 0.342605 2 -3.83688
      vertex 0.0383472 2 -5.2683
    endloop
  endfacet
  facet normal 0 -1 0
    outer loop
      vertex 0.342605 2 -3.83688
      vertex 4.54428 2 -5.53155
      vertex 4.73793 2 -4.93555
    endloop
  endfacet
  facet normal 0 -1 0
    outer loop
      vertex 0.0383472 2 -5.2683
      vertex 4.50493 2 -6.15698
      vertex 4.54428 2 -5.53155
    endloop
  endfacet
  facet normal 0 -1 0
    outer loop
      vertex 0.0383472 2 -6.7317
      vertex 4.50493 2 -6.15698
      vertex 0.0383472 2 -5.2683
    endloop
  endfacet
  facet normal 0 -1 0
    outer loop
      vertex 0.0383472 2 -6.7317
      vertex 4.62236 2 -6.77254
      vertex 4.50493 2 -6.15698
    endloop
  endfacet
  facet normal 0 -1 0
    outer loop
      vertex 0.342605 2 -8.16312
      vertex 4.62236 2 -6.77254
      vertex 0.0383472 2 -6.7317
    endloop
  endfacet
  facet normal 0 -1 0
    outer loop
      vertex 0.715208 2 -9
      vertex 4.62236 2 -6.77254
      vertex 0.342605 2 -8.16312
    endloop
  endfacet
  facet normal 0 -1 -0
    outer loop
      vertex 4.62236 2 -6.77254
      vertex 0.715208 2 -9
      vertex 4.88918 2 -7.33957
    endloop
  endfacet
  facet normal 0 -1 -0
    outer loop
      vertex 4.88918 2 -7.33957
      vertex 0.715208 2 -9
      vertex 5.28863 2 -7.82242
    endloop
  endfacet
  facet normal 0 -1 -0
    outer loop
      vertex 5.28863 2 -7.82242
      vertex 0.715208 2 -9
      vertex 5.79562 2 -8.19077
    endloop
  endfacet
  facet normal 0 -1 -0
    outer loop
      vertex 5.79562 2 -8.19077
      vertex 0.715208 2 -9
      vertex 6.37828 2 -8.42146
    endloop
  endfacet
  facet normal 0 -1 -0
    outer loop
      vertex 6.37828 2 -8.42146
      vertex 0.715208 2 -9
      vertex 7 2 -8.5
    endloop
  endfacet
  facet normal 0 -1 0
    outer loop
      vertex 7.31333 2 -3.51971
      vertex 13.2848 2 -3
      vertex 6.68667 2 -3.51971
    endloop
  endfacet
  facet normal 0 -1 0
    outer loop
      vertex 7.92031 2 -3.67556
      vertex 13.2848 2 -3
      vertex 7.31333 2 -3.51971
    endloop
  endfacet
  facet normal 0 -1 0
    outer loop
      vertex 8.46946 2 -3.97746
      vertex 13.2848 2 -3
      vertex 7.92031 2 -3.67556
    endloop
  endfacet
  facet normal 0 -1 0
    outer loop
      vertex 8.92628 2 -4.40644
      vertex 13.2848 2 -3
      vertex 8.46946 2 -3.97746
    endloop
  endfacet
  facet normal 0 -1 0
    outer loop
      vertex 9.26207 2 -4.93555
      vertex 13.2848 2 -3
      vertex 8.92628 2 -4.40644
    endloop
  endfacet
  facet normal 0 -1 -0
    outer loop
      vertex 13.2848 2 -3
      vertex 9.26207 2 -4.93555
      vertex 13.6574 2 -3.83688
    endloop
  endfacet
  facet normal 0 -1 0
    outer loop
      vertex 9.45572 2 -5.53155
      vertex 13.6574 2 -3.83688
      vertex 9.26207 2 -4.93555
    endloop
  endfacet
  facet normal 0 -1 -0
    outer loop
      vertex 13.6574 2 -3.83688
      vertex 9.45572 2 -5.53155
      vertex 13.9617 2 -5.2683
    endloop
  endfacet
  facet normal 0 -1 0
    outer loop
      vertex 9.49507 2 -6.15698
      vertex 13.9617 2 -5.2683
      vertex 9.45572 2 -5.53155
    endloop
  endfacet
  facet normal 0 -1 0
    outer loop
      vertex 9.49507 2 -6.15698
      vertex 13.9617 2 -6.7317
      vertex 13.9617 2 -5.2683
    endloop
  endfacet
  facet normal 0 -1 0
    outer loop
      vertex 9.37764 2 -6.77254
      vertex 13.9617 2 -6.7317
      vertex 9.49507 2 -6.15698
    endloop
  endfacet
  facet normal 0 -1 0
    outer loop
      vertex 13.2848 2 -9
      vertex 9.37764 2 -6.77254
      vertex 9.11082 2 -7.33957
    endloop
  endfacet
  facet normal 0 -1 0
    outer loop
      vertex 13.2848 2 -9
      vertex 9.11082 2 -7.33957
      vertex 8.71137 2 -7.82242
    endloop
  endfacet
  facet normal 0 -1 0
    outer loop
      vertex 9.37764 2 -6.77254
      vertex 13.6574 2 -8.16312
      vertex 13.9617 2 -6.7317
    endloop
  endfacet
  facet normal 0 -1 0
    outer loop
      vertex 13.2848 2 -9
      vertex 8.71137 2 -7.82242
      vertex 8.20438 2 -8.19077
    endloop
  endfacet
  facet normal 0 -1 0
    outer loop
      vertex 13.2848 2 -9
      vertex 8.20438 2 -8.19077
      vertex 7.62172 2 -8.42146
    endloop
  endfacet
  facet normal 0 -1 0
    outer loop
      vertex 13.2848 2 -9
      vertex 7.62172 2 -8.42146
      vertex 7 2 -8.5
    endloop
  endfacet
  facet normal 0 -1 0
    outer loop
      vertex 13.2848 2 -9
      vertex 7 2 -8.5
      vertex 0.715208 2 -9
    endloop
  endfacet
  facet normal 0 -1 0
    outer loop
      vertex 9.37764 2 -6.77254
      vertex 13.2848 2 -9
      vertex 13.6574 2 -8.16312
    endloop
  endfacet
  facet normal 7.58716e-08 0 1
    outer loop
      vertex 0.715208 2 -9
      vertex 13.2848 1.3955e-15 -9
      vertex 13.2848 2 -9
    endloop
  endfacet
  facet normal 7.58716e-08 0 1
    outer loop
      vertex 13.2848 1.3955e-15 -9
      vertex 0.715208 2 -9
      vertex 0.715208 -1.3955e-15 -9
    endloop
  endfacet
  facet normal -7.58716e-08 0 -1
    outer loop
      vertex 0.715208 -1.3955e-15 -3
      vertex 13.2848 2 -3
      vertex 13.2848 1.3955e-15 -3
    endloop
  endfacet
  facet normal -7.58716e-08 0 -1
    outer loop
      vertex 13.2848 2 -3
      vertex 0.715208 -1.3955e-15 -3
      vertex 0.715208 2 -3
    endloop
  endfacet
endsolid OpenSCAD_Model
