solid OpenSCAD_Model
  facet normal 0.866026 0.5 0
    outer loop
      vertex 12.6448 2.84716 10
      vertex 11.9131 4.1145 -10
      vertex 11.9131 4.1145 10
    endloop
  endfacet
  facet normal 0.866026 0.5 0
    outer loop
      vertex 11.9131 4.1145 -10
      vertex 12.6448 2.84716 10
      vertex 12.6448 2.84716 -10
    endloop
  endfacet
  facet normal 0.743145 0.66913 0
    outer loop
      vertex 11.9131 4.1145 10
      vertex 10.9339 5.20201 -10
      vertex 10.9339 5.20201 10
    endloop
  endfacet
  facet normal 0.743145 0.66913 0
    outer loop
      vertex 10.9339 5.20201 -10
      vertex 11.9131 4.1145 10
      vertex 11.9131 4.1145 -10
    endloop
  endfacet
  facet normal 0.207912 0.978148 -0
    outer loop
      vertex 8.41312 6.6574 -10
      vertex 6.9817 6.96165 10
      vertex 8.41312 6.6574 10
    endloop
  endfacet
  facet normal 0.207912 0.978148 0
    outer loop
      vertex 6.9817 6.96165 10
      vertex 8.41312 6.6574 -10
      vertex 6.9817 6.96165 -10
    endloop
  endfacet
  facet normal 0.406736 0.913546 -0
    outer loop
      vertex 9.75 6.06218 -10
      vertex 8.41312 6.6574 10
      vertex 9.75 6.06218 10
    endloop
  endfacet
  facet normal 0.406736 0.913546 0
    outer loop
      vertex 8.41312 6.6574 10
      vertex 9.75 6.06218 -10
      vertex 8.41312 6.6574 -10
    endloop
  endfacet
  facet normal -0.207912 0.978148 0
    outer loop
      vertex 5.5183 6.96165 -10
      vertex 4.08688 6.6574 10
      vertex 5.5183 6.96165 10
    endloop
  endfacet
  facet normal -0.207912 0.978148 0
    outer loop
      vertex 4.08688 6.6574 10
      vertex 5.5183 6.96165 -10
      vertex 4.08688 6.6574 -10
    endloop
  endfacet
  facet normal -0.866026 0.5 0
    outer loop
      vertex 0 3.09799 -10
      vertex 0.586882 4.1145 10
      vertex 0.586882 4.1145 -10
    endloop
  endfacet
  facet normal -0.866026 0.5 0
    outer loop
      vertex 0.586882 4.1145 10
      vertex 0 3.09799 -10
      vertex 0 3.09799 10
    endloop
  endfacet
  facet normal 0.994522 -0.104529 0
    outer loop
      vertex 13.097 -1.45538 10
      vertex 13.25 0 -10
      vertex 13.25 0 10
    endloop
  endfacet
  facet normal 0.994522 -0.104529 0
    outer loop
      vertex 13.25 0 -10
      vertex 13.097 -1.45538 10
      vertex 13.097 -1.45538 -10
    endloop
  endfacet
  facet normal 0.951056 0.309017 0
    outer loop
      vertex 13.097 1.45538 10
      vertex 12.6448 2.84716 -10
      vertex 12.6448 2.84716 10
    endloop
  endfacet
  facet normal 0.951056 0.309017 0
    outer loop
      vertex 12.6448 2.84716 -10
      vertex 13.097 1.45538 10
      vertex 13.097 1.45538 -10
    endloop
  endfacet
  facet normal 0.587786 0.809017 -0
    outer loop
      vertex 10.9339 5.20201 -10
      vertex 9.75 6.06218 10
      vertex 10.9339 5.20201 10
    endloop
  endfacet
  facet normal 0.587786 0.809017 0
    outer loop
      vertex 9.75 6.06218 10
      vertex 10.9339 5.20201 -10
      vertex 9.75 6.06218 -10
    endloop
  endfacet
  facet normal 0 1 -0
    outer loop
      vertex 6.9817 6.96165 -10
      vertex 5.5183 6.96165 10
      vertex 6.9817 6.96165 10
    endloop
  endfacet
  facet normal 0 1 0
    outer loop
      vertex 5.5183 6.96165 10
      vertex 6.9817 6.96165 -10
      vertex 5.5183 6.96165 -10
    endloop
  endfacet
  facet normal -0.743145 0.66913 0
    outer loop
      vertex 0.586882 4.1145 -10
      vertex 1.56609 5.20201 10
      vertex 1.56609 5.20201 -10
    endloop
  endfacet
  facet normal -0.743145 0.66913 0
    outer loop
      vertex 1.56609 5.20201 10
      vertex 0.586882 4.1145 -10
      vertex 0.586882 4.1145 10
    endloop
  endfacet
  facet normal -0.406737 0.913545 0
    outer loop
      vertex 4.08688 6.6574 -10
      vertex 2.75 6.06218 10
      vertex 4.08688 6.6574 10
    endloop
  endfacet
  facet normal -0.406737 0.913545 0
    outer loop
      vertex 2.75 6.06218 10
      vertex 4.08688 6.6574 -10
      vertex 2.75 6.06218 -10
    endloop
  endfacet
  facet normal -0.587785 0.809017 0
    outer loop
      vertex 2.75 6.06218 -10
      vertex 1.56609 5.20201 10
      vertex 2.75 6.06218 10
    endloop
  endfacet
  facet normal -0.587785 0.809017 0
    outer loop
      vertex 1.56609 5.20201 10
      vertex 2.75 6.06218 -10
      vertex 1.56609 5.20201 -10
    endloop
  endfacet
  facet normal 0.994522 0.104529 0
    outer loop
      vertex 13.25 0 10
      vertex 13.097 1.45538 -10
      vertex 13.097 1.45538 10
    endloop
  endfacet
  facet normal 0.994522 0.104529 0
    outer loop
      vertex 13.097 1.45538 -10
      vertex 13.25 0 10
      vertex 13.25 0 -10
    endloop
  endfacet
  facet normal 0.951056 -0.309017 0
    outer loop
      vertex 12.6448 -2.84716 10
      vertex 13.097 -1.45538 -10
      vertex 13.097 -1.45538 10
    endloop
  endfacet
  facet normal 0.951056 -0.309017 0
    outer loop
      vertex 13.097 -1.45538 -10
      vertex 12.6448 -2.84716 10
      vertex 12.6448 -2.84716 -10
    endloop
  endfacet
  facet normal -0.587786 -0.809017 0
    outer loop
      vertex 1.56609 -5.20201 -10
      vertex 2.75 -6.06218 10
      vertex 1.56609 -5.20201 10
    endloop
  endfacet
  facet normal -0.587786 -0.809017 -0
    outer loop
      vertex 2.75 -6.06218 10
      vertex 1.56609 -5.20201 -10
      vertex 2.75 -6.06218 -10
    endloop
  endfacet
  facet normal -0.866026 -0.5 0
    outer loop
      vertex 0.586882 -4.1145 -10
      vertex 0 -3.09799 10
      vertex 0 -3.09799 -10
    endloop
  endfacet
  facet normal -0.866026 -0.5 0
    outer loop
      vertex 0 -3.09799 10
      vertex 0.586882 -4.1145 -10
      vertex 0.586882 -4.1145 10
    endloop
  endfacet
  facet normal 0.587786 -0.809017 0
    outer loop
      vertex 9.75 -6.06218 -10
      vertex 10.9339 -5.20201 10
      vertex 9.75 -6.06218 10
    endloop
  endfacet
  facet normal 0.587786 -0.809017 0
    outer loop
      vertex 10.9339 -5.20201 10
      vertex 9.75 -6.06218 -10
      vertex 10.9339 -5.20201 -10
    endloop
  endfacet
  facet normal -0 0 1
    outer loop
      vertex -1.43031 -2.64964 10
      vertex 0 -3.09799 10
      vertex -0.922793 -1.36779 10
    endloop
  endfacet
  facet normal 0 0 1
    outer loop
      vertex 0 -3.09799 10
      vertex -1.43031 -2.64964 10
      vertex -0.586882 -4.1145 10
    endloop
  endfacet
  facet normal -0 0 1
    outer loop
      vertex -2.24067 -3.76501 10
      vertex -0.586882 -4.1145 10
      vertex -1.43031 -2.64964 10
    endloop
  endfacet
  facet normal 0 0 1
    outer loop
      vertex -0.586882 -4.1145 10
      vertex -2.24067 -3.76501 10
      vertex -1.56609 -5.20201 10
    endloop
  endfacet
  facet normal -0 0 1
    outer loop
      vertex -3.30295 -4.6438 10
      vertex -1.56609 -5.20201 10
      vertex -2.24067 -3.76501 10
    endloop
  endfacet
  facet normal 0 0 1
    outer loop
      vertex -1.56609 -5.20201 10
      vertex -3.30295 -4.6438 10
      vertex -2.75 -6.06218 10
    endloop
  endfacet
  facet normal -0 0 1
    outer loop
      vertex -4.55041 -5.23081 10
      vertex -2.75 -6.06218 10
      vertex -3.30295 -4.6438 10
    endloop
  endfacet
  facet normal 0 0 1
    outer loop
      vertex -2.75 -6.06218 10
      vertex -4.55041 -5.23081 10
      vertex -4.08688 -6.6574 10
    endloop
  endfacet
  facet normal 0 0 1
    outer loop
      vertex -4.55041 -5.23081 10
      vertex -5.5183 -6.96165 10
      vertex -4.08688 -6.6574 10
    endloop
  endfacet
  facet normal -0 0 1
    outer loop
      vertex -5.90465 -5.48915 10
      vertex -5.5183 -6.96165 10
      vertex -4.55041 -5.23081 10
    endloop
  endfacet
  facet normal 0 0 1
    outer loop
      vertex -5.90465 -5.48915 10
      vertex -6.9817 -6.96165 10
      vertex -5.5183 -6.96165 10
    endloop
  endfacet
  facet normal 0 0 1
    outer loop
      vertex -7.2806 -5.40258 10
      vertex -6.9817 -6.96165 10
      vertex -5.90465 -5.48915 10
    endloop
  endfacet
  facet normal 0 0 1
    outer loop
      vertex -7.2806 -5.40258 10
      vertex -8.41312 -6.6574 10
      vertex -6.9817 -6.96165 10
    endloop
  endfacet
  facet normal 0 0 1
    outer loop
      vertex -8.59179 -4.97655 10
      vertex -8.41312 -6.6574 10
      vertex -7.2806 -5.40258 10
    endloop
  endfacet
  facet normal 0 0 1
    outer loop
      vertex -8.59179 -4.97655 10
      vertex -9.75 -6.06218 10
      vertex -8.41312 -6.6574 10
    endloop
  endfacet
  facet normal 0 0 1
    outer loop
      vertex -9.75583 -4.23782 10
      vertex -9.75 -6.06218 10
      vertex -8.59179 -4.97655 10
    endloop
  endfacet
  facet normal 0 0 1
    outer loop
      vertex -10.9339 -5.20201 10
      vertex -9.75583 -4.23782 10
      vertex -10.6996 -3.23282 10
    endloop
  endfacet
  facet normal 0 0 1
    outer loop
      vertex -9.75583 -4.23782 10
      vertex -10.9339 -5.20201 10
      vertex -9.75 -6.06218 10
    endloop
  endfacet
  facet normal -0 0 1
    outer loop
      vertex -12.6448 -2.84716 10
      vertex -10.6996 -3.23282 10
      vertex -11.3638 -2.02468 10
    endloop
  endfacet
  facet normal -0 0 1
    outer loop
      vertex -13.097 -1.45538 10
      vertex -11.3638 -2.02468 10
      vertex -11.7066 -0.689332 10
    endloop
  endfacet
  facet normal 0 0 1
    outer loop
      vertex -10.6996 -3.23282 10
      vertex -11.9131 -4.1145 10
      vertex -10.9339 -5.20201 10
    endloop
  endfacet
  facet normal 0 0 1
    outer loop
      vertex -11.3638 2.02468 10
      vertex -13.097 1.45538 10
      vertex -11.7066 0.689332 10
    endloop
  endfacet
  facet normal 0 0 1
    outer loop
      vertex -13.25 0 10
      vertex -11.7066 0.689332 10
      vertex -13.097 1.45538 10
    endloop
  endfacet
  facet normal 0 0 1
    outer loop
      vertex -10.6996 -3.23282 10
      vertex -12.6448 -2.84716 10
      vertex -11.9131 -4.1145 10
    endloop
  endfacet
  facet normal 0 0 1
    outer loop
      vertex -11.7066 0.689332 10
      vertex -13.25 0 10
      vertex -11.7066 -0.689332 10
    endloop
  endfacet
  facet normal 0 0 1
    outer loop
      vertex -11.3638 -2.02468 10
      vertex -13.097 -1.45538 10
      vertex -12.6448 -2.84716 10
    endloop
  endfacet
  facet normal 0 0 1
    outer loop
      vertex -11.7066 -0.689332 10
      vertex -13.25 0 10
      vertex -13.097 -1.45538 10
    endloop
  endfacet
  facet normal 0 0 1
    outer loop
      vertex 11.75 0 10
      vertex 13.25 0 10
      vertex 13.097 1.45538 10
    endloop
  endfacet
  facet normal 0 0 1
    outer loop
      vertex 11.5772 1.36779 10
      vertex 13.097 1.45538 10
      vertex 12.6448 2.84716 10
    endloop
  endfacet
  facet normal 0 0 1
    outer loop
      vertex 13.25 0 10
      vertex 11.75 0 10
      vertex 13.097 -1.45538 10
    endloop
  endfacet
  facet normal 0 0 1
    outer loop
      vertex 11.0697 2.64964 10
      vertex 12.6448 2.84716 10
      vertex 11.9131 4.1145 10
    endloop
  endfacet
  facet normal -0 0 1
    outer loop
      vertex 11.5772 -1.36779 10
      vertex 13.097 -1.45538 10
      vertex 11.75 0 10
    endloop
  endfacet
  facet normal 0 0 1
    outer loop
      vertex 13.097 -1.45538 10
      vertex 11.5772 -1.36779 10
      vertex 12.6448 -2.84716 10
    endloop
  endfacet
  facet normal 0 0 1
    outer loop
      vertex 13.097 1.45538 10
      vertex 11.5772 1.36779 10
      vertex 11.75 0 10
    endloop
  endfacet
  facet normal 0 0 1
    outer loop
      vertex 12.6448 2.84716 10
      vertex 11.0697 2.64964 10
      vertex 11.5772 1.36779 10
    endloop
  endfacet
  facet normal 0 0 1
    outer loop
      vertex 10.2593 3.76501 10
      vertex 11.9131 4.1145 10
      vertex 10.9339 5.20201 10
    endloop
  endfacet
  facet normal 0 0 1
    outer loop
      vertex 11.9131 4.1145 10
      vertex 10.2593 3.76501 10
      vertex 11.0697 2.64964 10
    endloop
  endfacet
  facet normal 0 0 1
    outer loop
      vertex 9.19705 4.6438 10
      vertex 10.9339 5.20201 10
      vertex 9.75 6.06218 10
    endloop
  endfacet
  facet normal 0 0 1
    outer loop
      vertex 10.9339 5.20201 10
      vertex 9.19705 4.6438 10
      vertex 10.2593 3.76501 10
    endloop
  endfacet
  facet normal 0 0 1
    outer loop
      vertex 7.94959 5.23081 10
      vertex 9.75 6.06218 10
      vertex 8.41312 6.6574 10
    endloop
  endfacet
  facet normal 0 0 1
    outer loop
      vertex 9.75 6.06218 10
      vertex 7.94959 5.23081 10
      vertex 9.19705 4.6438 10
    endloop
  endfacet
  facet normal 0 0 1
    outer loop
      vertex 6.9817 6.96165 10
      vertex 7.94959 5.23081 10
      vertex 8.41312 6.6574 10
    endloop
  endfacet
  facet normal 0 0 1
    outer loop
      vertex 6.9817 6.96165 10
      vertex 6.59535 5.48915 10
      vertex 7.94959 5.23081 10
    endloop
  endfacet
  facet normal -0 0 1
    outer loop
      vertex 5.5183 6.96165 10
      vertex 6.59535 5.48915 10
      vertex 6.9817 6.96165 10
    endloop
  endfacet
  facet normal 0 0 1
    outer loop
      vertex 5.5183 6.96165 10
      vertex 5.2194 5.40258 10
      vertex 6.59535 5.48915 10
    endloop
  endfacet
  facet normal -0 0 1
    outer loop
      vertex 4.08688 6.6574 10
      vertex 5.2194 5.40258 10
      vertex 5.5183 6.96165 10
    endloop
  endfacet
  facet normal 0 0 1
    outer loop
      vertex 4.08688 6.6574 10
      vertex 3.90821 4.97655 10
      vertex 5.2194 5.40258 10
    endloop
  endfacet
  facet normal -0 0 1
    outer loop
      vertex 2.75 6.06218 10
      vertex 3.90821 4.97655 10
      vertex 4.08688 6.6574 10
    endloop
  endfacet
  facet normal 0 0 1
    outer loop
      vertex 2.75 6.06218 10
      vertex 2.74417 4.23782 10
      vertex 3.90821 4.97655 10
    endloop
  endfacet
  facet normal -0 0 1
    outer loop
      vertex 1.56609 5.20201 10
      vertex 2.74417 4.23782 10
      vertex 2.75 6.06218 10
    endloop
  endfacet
  facet normal 0 0 1
    outer loop
      vertex 2.74417 4.23782 10
      vertex 1.56609 5.20201 10
      vertex 1.80041 3.23282 10
    endloop
  endfacet
  facet normal -0 0 1
    outer loop
      vertex 0.586882 4.1145 10
      vertex 1.80041 3.23282 10
      vertex 1.56609 5.20201 10
    endloop
  endfacet
  facet normal 0 0 1
    outer loop
      vertex 0 3.09799 10
      vertex 1.80041 3.23282 10
      vertex 0.586882 4.1145 10
    endloop
  endfacet
  facet normal 0 0 1
    outer loop
      vertex -0.922793 1.36779 10
      vertex 1.13623 2.02468 10
      vertex 0 3.09799 10
    endloop
  endfacet
  facet normal 0 0 1
    outer loop
      vertex 1.80041 3.23282 10
      vertex 0 3.09799 10
      vertex 1.13623 2.02468 10
    endloop
  endfacet
  facet normal -0 0 1
    outer loop
      vertex 11.0697 -2.64964 10
      vertex 12.6448 -2.84716 10
      vertex 11.5772 -1.36779 10
    endloop
  endfacet
  facet normal 0 0 1
    outer loop
      vertex 12.6448 -2.84716 10
      vertex 11.0697 -2.64964 10
      vertex 11.9131 -4.1145 10
    endloop
  endfacet
  facet normal -0 0 1
    outer loop
      vertex 10.2593 -3.76501 10
      vertex 11.9131 -4.1145 10
      vertex 11.0697 -2.64964 10
    endloop
  endfacet
  facet normal 0 0 1
    outer loop
      vertex 11.9131 -4.1145 10
      vertex 10.2593 -3.76501 10
      vertex 10.9339 -5.20201 10
    endloop
  endfacet
  facet normal -0 0 1
    outer loop
      vertex 9.19705 -4.6438 10
      vertex 10.9339 -5.20201 10
      vertex 10.2593 -3.76501 10
    endloop
  endfacet
  facet normal 0 0 1
    outer loop
      vertex 10.9339 -5.20201 10
      vertex 9.19705 -4.6438 10
      vertex 9.75 -6.06218 10
    endloop
  endfacet
  facet normal -0 0 1
    outer loop
      vertex 7.94959 -5.23081 10
      vertex 9.75 -6.06218 10
      vertex 9.19705 -4.6438 10
    endloop
  endfacet
  facet normal 0 0 1
    outer loop
      vertex 9.75 -6.06218 10
      vertex 7.94959 -5.23081 10
      vertex 8.41312 -6.6574 10
    endloop
  endfacet
  facet normal 0 0 1
    outer loop
      vertex 7.94959 -5.23081 10
      vertex 6.9817 -6.96165 10
      vertex 8.41312 -6.6574 10
    endloop
  endfacet
  facet normal -0 0 1
    outer loop
      vertex 6.59535 -5.48915 10
      vertex 6.9817 -6.96165 10
      vertex 7.94959 -5.23081 10
    endloop
  endfacet
  facet normal 0 0 1
    outer loop
      vertex 6.59535 -5.48915 10
      vertex 5.5183 -6.96165 10
      vertex 6.9817 -6.96165 10
    endloop
  endfacet
  facet normal 0 0 1
    outer loop
      vertex 5.2194 -5.40258 10
      vertex 5.5183 -6.96165 10
      vertex 6.59535 -5.48915 10
    endloop
  endfacet
  facet normal 0 0 1
    outer loop
      vertex 5.2194 -5.40258 10
      vertex 4.08688 -6.6574 10
      vertex 5.5183 -6.96165 10
    endloop
  endfacet
  facet normal 0 0 1
    outer loop
      vertex 3.90821 -4.97655 10
      vertex 4.08688 -6.6574 10
      vertex 5.2194 -5.40258 10
    endloop
  endfacet
  facet normal 0 0 1
    outer loop
      vertex 3.90821 -4.97655 10
      vertex 2.75 -6.06218 10
      vertex 4.08688 -6.6574 10
    endloop
  endfacet
  facet normal 0 0 1
    outer loop
      vertex 2.74417 -4.23782 10
      vertex 2.75 -6.06218 10
      vertex 3.90821 -4.97655 10
    endloop
  endfacet
  facet normal 0 0 1
    outer loop
      vertex 1.56609 -5.20201 10
      vertex 2.74417 -4.23782 10
      vertex 1.80041 -3.23282 10
    endloop
  endfacet
  facet normal 0 0 1
    outer loop
      vertex 2.74417 -4.23782 10
      vertex 1.56609 -5.20201 10
      vertex 2.75 -6.06218 10
    endloop
  endfacet
  facet normal -0 0 1
    outer loop
      vertex 0 -3.09799 10
      vertex 1.80041 -3.23282 10
      vertex 1.13623 -2.02468 10
    endloop
  endfacet
  facet normal -0 0 1
    outer loop
      vertex -0.922793 -1.36779 10
      vertex 1.13623 -2.02468 10
      vertex 0.793369 -0.689332 10
    endloop
  endfacet
  facet normal 0 0 1
    outer loop
      vertex 1.80041 -3.23282 10
      vertex 0.586882 -4.1145 10
      vertex 1.56609 -5.20201 10
    endloop
  endfacet
  facet normal 0 0 1
    outer loop
      vertex 1.13623 2.02468 10
      vertex -0.922793 1.36779 10
      vertex 0.793369 0.689332 10
    endloop
  endfacet
  facet normal 0 -0 1
    outer loop
      vertex -0.75 0 10
      vertex 0.793369 0.689332 10
      vertex -0.922793 1.36779 10
    endloop
  endfacet
  facet normal 0 0 1
    outer loop
      vertex 1.80041 -3.23282 10
      vertex 0 -3.09799 10
      vertex 0.586882 -4.1145 10
    endloop
  endfacet
  facet normal 0 0 1
    outer loop
      vertex -1.43031 2.64964 10
      vertex 0 3.09799 10
      vertex -0.586882 4.1145 10
    endloop
  endfacet
  facet normal 0 0 1
    outer loop
      vertex -0.922793 -1.36779 10
      vertex 0.793369 -0.689332 10
      vertex -0.75 0 10
    endloop
  endfacet
  facet normal 0 0 1
    outer loop
      vertex 1.13623 -2.02468 10
      vertex -0.922793 -1.36779 10
      vertex 0 -3.09799 10
    endloop
  endfacet
  facet normal 0 0 1
    outer loop
      vertex 0.793369 0.689332 10
      vertex -0.75 0 10
      vertex 0.793369 -0.689332 10
    endloop
  endfacet
  facet normal 0 0 1
    outer loop
      vertex 0 3.09799 10
      vertex -1.43031 2.64964 10
      vertex -0.922793 1.36779 10
    endloop
  endfacet
  facet normal 0 0 1
    outer loop
      vertex -2.24067 3.76501 10
      vertex -0.586882 4.1145 10
      vertex -1.56609 5.20201 10
    endloop
  endfacet
  facet normal 0 0 1
    outer loop
      vertex -0.586882 4.1145 10
      vertex -2.24067 3.76501 10
      vertex -1.43031 2.64964 10
    endloop
  endfacet
  facet normal 0 0 1
    outer loop
      vertex -3.30295 4.6438 10
      vertex -1.56609 5.20201 10
      vertex -2.75 6.06218 10
    endloop
  endfacet
  facet normal 0 0 1
    outer loop
      vertex -1.56609 5.20201 10
      vertex -3.30295 4.6438 10
      vertex -2.24067 3.76501 10
    endloop
  endfacet
  facet normal 0 0 1
    outer loop
      vertex -4.55041 5.23081 10
      vertex -2.75 6.06218 10
      vertex -4.08688 6.6574 10
    endloop
  endfacet
  facet normal 0 0 1
    outer loop
      vertex -2.75 6.06218 10
      vertex -4.55041 5.23081 10
      vertex -3.30295 4.6438 10
    endloop
  endfacet
  facet normal 0 0 1
    outer loop
      vertex -5.5183 6.96165 10
      vertex -4.55041 5.23081 10
      vertex -4.08688 6.6574 10
    endloop
  endfacet
  facet normal 0 0 1
    outer loop
      vertex -5.5183 6.96165 10
      vertex -5.90465 5.48915 10
      vertex -4.55041 5.23081 10
    endloop
  endfacet
  facet normal -0 0 1
    outer loop
      vertex -6.9817 6.96165 10
      vertex -5.90465 5.48915 10
      vertex -5.5183 6.96165 10
    endloop
  endfacet
  facet normal 0 0 1
    outer loop
      vertex -6.9817 6.96165 10
      vertex -7.2806 5.40258 10
      vertex -5.90465 5.48915 10
    endloop
  endfacet
  facet normal -0 0 1
    outer loop
      vertex -8.41312 6.6574 10
      vertex -7.2806 5.40258 10
      vertex -6.9817 6.96165 10
    endloop
  endfacet
  facet normal 0 0 1
    outer loop
      vertex -8.41312 6.6574 10
      vertex -8.59179 4.97655 10
      vertex -7.2806 5.40258 10
    endloop
  endfacet
  facet normal -0 0 1
    outer loop
      vertex -9.75 6.06218 10
      vertex -8.59179 4.97655 10
      vertex -8.41312 6.6574 10
    endloop
  endfacet
  facet normal 0 0 1
    outer loop
      vertex -9.75 6.06218 10
      vertex -9.75583 4.23782 10
      vertex -8.59179 4.97655 10
    endloop
  endfacet
  facet normal -0 0 1
    outer loop
      vertex -10.9339 5.20201 10
      vertex -9.75583 4.23782 10
      vertex -9.75 6.06218 10
    endloop
  endfacet
  facet normal 0 0 1
    outer loop
      vertex -9.75583 4.23782 10
      vertex -10.9339 5.20201 10
      vertex -10.6996 3.23282 10
    endloop
  endfacet
  facet normal -0 0 1
    outer loop
      vertex -11.9131 4.1145 10
      vertex -10.6996 3.23282 10
      vertex -10.9339 5.20201 10
    endloop
  endfacet
  facet normal 0 0 1
    outer loop
      vertex -12.6448 2.84716 10
      vertex -10.6996 3.23282 10
      vertex -11.9131 4.1145 10
    endloop
  endfacet
  facet normal 0 0 1
    outer loop
      vertex -13.097 1.45538 10
      vertex -11.3638 2.02468 10
      vertex -12.6448 2.84716 10
    endloop
  endfacet
  facet normal 0 0 1
    outer loop
      vertex -10.6996 3.23282 10
      vertex -12.6448 2.84716 10
      vertex -11.3638 2.02468 10
    endloop
  endfacet
  facet normal 0.866026 -0.5 0
    outer loop
      vertex 11.9131 -4.1145 10
      vertex 12.6448 -2.84716 -10
      vertex 12.6448 -2.84716 10
    endloop
  endfacet
  facet normal 0.866026 -0.5 0
    outer loop
      vertex 12.6448 -2.84716 -10
      vertex 11.9131 -4.1145 10
      vertex 11.9131 -4.1145 -10
    endloop
  endfacet
  facet normal -0.743145 -0.66913 0
    outer loop
      vertex 1.56609 -5.20201 -10
      vertex 0.586882 -4.1145 10
      vertex 0.586882 -4.1145 -10
    endloop
  endfacet
  facet normal -0.743145 -0.66913 0
    outer loop
      vertex 0.586882 -4.1145 10
      vertex 1.56609 -5.20201 -10
      vertex 1.56609 -5.20201 10
    endloop
  endfacet
  facet normal 0.207912 -0.978148 0
    outer loop
      vertex 6.9817 -6.96165 -10
      vertex 8.41312 -6.6574 10
      vertex 6.9817 -6.96165 10
    endloop
  endfacet
  facet normal 0.207912 -0.978148 0
    outer loop
      vertex 8.41312 -6.6574 10
      vertex 6.9817 -6.96165 -10
      vertex 8.41312 -6.6574 -10
    endloop
  endfacet
  facet normal 0.406736 -0.913546 0
    outer loop
      vertex 8.41312 -6.6574 -10
      vertex 9.75 -6.06218 10
      vertex 8.41312 -6.6574 10
    endloop
  endfacet
  facet normal 0.406736 -0.913546 0
    outer loop
      vertex 9.75 -6.06218 10
      vertex 8.41312 -6.6574 -10
      vertex 9.75 -6.06218 -10
    endloop
  endfacet
  facet normal -0.406736 -0.913546 0
    outer loop
      vertex 2.75 -6.06218 -10
      vertex 4.08688 -6.6574 10
      vertex 2.75 -6.06218 10
    endloop
  endfacet
  facet normal -0.406736 -0.913546 -0
    outer loop
      vertex 4.08688 -6.6574 10
      vertex 2.75 -6.06218 -10
      vertex 4.08688 -6.6574 -10
    endloop
  endfacet
  facet normal 0 -1 0
    outer loop
      vertex 5.5183 -6.96165 -10
      vertex 6.9817 -6.96165 10
      vertex 5.5183 -6.96165 10
    endloop
  endfacet
  facet normal 0 -1 -0
    outer loop
      vertex 6.9817 -6.96165 10
      vertex 5.5183 -6.96165 -10
      vertex 6.9817 -6.96165 -10
    endloop
  endfacet
  facet normal 0 0 -1
    outer loop
      vertex -1.43031 2.64964 -10
      vertex 0 3.09799 -10
      vertex -0.922793 1.36779 -10
    endloop
  endfacet
  facet normal -0 0 -1
    outer loop
      vertex 0 3.09799 -10
      vertex -1.43031 2.64964 -10
      vertex -0.586882 4.1145 -10
    endloop
  endfacet
  facet normal 0 0 -1
    outer loop
      vertex -2.24067 3.76501 -10
      vertex -0.586882 4.1145 -10
      vertex -1.43031 2.64964 -10
    endloop
  endfacet
  facet normal -0 0 -1
    outer loop
      vertex -0.586882 4.1145 -10
      vertex -2.24067 3.76501 -10
      vertex -1.56609 5.20201 -10
    endloop
  endfacet
  facet normal 0 0 -1
    outer loop
      vertex -3.30295 4.6438 -10
      vertex -1.56609 5.20201 -10
      vertex -2.24067 3.76501 -10
    endloop
  endfacet
  facet normal -0 0 -1
    outer loop
      vertex -1.56609 5.20201 -10
      vertex -3.30295 4.6438 -10
      vertex -2.75 6.06218 -10
    endloop
  endfacet
  facet normal 0 0 -1
    outer loop
      vertex -4.55041 5.23081 -10
      vertex -2.75 6.06218 -10
      vertex -3.30295 4.6438 -10
    endloop
  endfacet
  facet normal -0 0 -1
    outer loop
      vertex -2.75 6.06218 -10
      vertex -4.55041 5.23081 -10
      vertex -4.08688 6.6574 -10
    endloop
  endfacet
  facet normal 0 0 -1
    outer loop
      vertex -4.55041 5.23081 -10
      vertex -5.5183 6.96165 -10
      vertex -4.08688 6.6574 -10
    endloop
  endfacet
  facet normal 0 0 -1
    outer loop
      vertex -5.90465 5.48915 -10
      vertex -5.5183 6.96165 -10
      vertex -4.55041 5.23081 -10
    endloop
  endfacet
  facet normal 0 0 -1
    outer loop
      vertex -5.90465 5.48915 -10
      vertex -6.9817 6.96165 -10
      vertex -5.5183 6.96165 -10
    endloop
  endfacet
  facet normal 0 0 -1
    outer loop
      vertex -7.2806 5.40258 -10
      vertex -6.9817 6.96165 -10
      vertex -5.90465 5.48915 -10
    endloop
  endfacet
  facet normal 0 0 -1
    outer loop
      vertex -7.2806 5.40258 -10
      vertex -8.41312 6.6574 -10
      vertex -6.9817 6.96165 -10
    endloop
  endfacet
  facet normal 0 0 -1
    outer loop
      vertex -8.59179 4.97655 -10
      vertex -8.41312 6.6574 -10
      vertex -7.2806 5.40258 -10
    endloop
  endfacet
  facet normal 0 0 -1
    outer loop
      vertex -8.59179 4.97655 -10
      vertex -9.75 6.06218 -10
      vertex -8.41312 6.6574 -10
    endloop
  endfacet
  facet normal 0 0 -1
    outer loop
      vertex -9.75583 4.23782 -10
      vertex -9.75 6.06218 -10
      vertex -8.59179 4.97655 -10
    endloop
  endfacet
  facet normal 0 0 -1
    outer loop
      vertex -10.9339 5.20201 -10
      vertex -9.75583 4.23782 -10
      vertex -10.6996 3.23282 -10
    endloop
  endfacet
  facet normal 0 0 -1
    outer loop
      vertex -9.75583 4.23782 -10
      vertex -10.9339 5.20201 -10
      vertex -9.75 6.06218 -10
    endloop
  endfacet
  facet normal 0 0 -1
    outer loop
      vertex -12.6448 2.84716 -10
      vertex -10.6996 3.23282 -10
      vertex -11.3638 2.02468 -10
    endloop
  endfacet
  facet normal 0 0 -1
    outer loop
      vertex -13.097 1.45538 -10
      vertex -11.3638 2.02468 -10
      vertex -11.7066 0.689332 -10
    endloop
  endfacet
  facet normal 0 0 -1
    outer loop
      vertex -10.6996 3.23282 -10
      vertex -11.9131 4.1145 -10
      vertex -10.9339 5.20201 -10
    endloop
  endfacet
  facet normal 0 0 -1
    outer loop
      vertex -11.3638 -2.02468 -10
      vertex -13.097 -1.45538 -10
      vertex -11.7066 -0.689332 -10
    endloop
  endfacet
  facet normal 0 0 -1
    outer loop
      vertex -13.25 0 -10
      vertex -11.7066 -0.689332 -10
      vertex -13.097 -1.45538 -10
    endloop
  endfacet
  facet normal -0 0 -1
    outer loop
      vertex -10.6996 3.23282 -10
      vertex -12.6448 2.84716 -10
      vertex -11.9131 4.1145 -10
    endloop
  endfacet
  facet normal 0 0 -1
    outer loop
      vertex -11.7066 -0.689332 -10
      vertex -13.25 0 -10
      vertex -11.7066 0.689332 -10
    endloop
  endfacet
  facet normal -0 0 -1
    outer loop
      vertex -11.3638 2.02468 -10
      vertex -13.097 1.45538 -10
      vertex -12.6448 2.84716 -10
    endloop
  endfacet
  facet normal -0 0 -1
    outer loop
      vertex -11.7066 0.689332 -10
      vertex -13.25 0 -10
      vertex -13.097 1.45538 -10
    endloop
  endfacet
  facet normal 0 0 -1
    outer loop
      vertex 11.75 0 -10
      vertex 13.25 0 -10
      vertex 13.097 -1.45538 -10
    endloop
  endfacet
  facet normal 0 0 -1
    outer loop
      vertex 11.5772 -1.36779 -10
      vertex 13.097 -1.45538 -10
      vertex 12.6448 -2.84716 -10
    endloop
  endfacet
  facet normal 0 0 -1
    outer loop
      vertex 13.25 0 -10
      vertex 11.75 0 -10
      vertex 13.097 1.45538 -10
    endloop
  endfacet
  facet normal 0 0 -1
    outer loop
      vertex 11.0697 -2.64964 -10
      vertex 12.6448 -2.84716 -10
      vertex 11.9131 -4.1145 -10
    endloop
  endfacet
  facet normal 0 0 -1
    outer loop
      vertex 11.5772 1.36779 -10
      vertex 13.097 1.45538 -10
      vertex 11.75 0 -10
    endloop
  endfacet
  facet normal -0 0 -1
    outer loop
      vertex 13.097 1.45538 -10
      vertex 11.5772 1.36779 -10
      vertex 12.6448 2.84716 -10
    endloop
  endfacet
  facet normal 0 0 -1
    outer loop
      vertex 13.097 -1.45538 -10
      vertex 11.5772 -1.36779 -10
      vertex 11.75 0 -10
    endloop
  endfacet
  facet normal 0 0 -1
    outer loop
      vertex 12.6448 -2.84716 -10
      vertex 11.0697 -2.64964 -10
      vertex 11.5772 -1.36779 -10
    endloop
  endfacet
  facet normal 0 0 -1
    outer loop
      vertex 10.2593 -3.76501 -10
      vertex 11.9131 -4.1145 -10
      vertex 10.9339 -5.20201 -10
    endloop
  endfacet
  facet normal 0 0 -1
    outer loop
      vertex 11.9131 -4.1145 -10
      vertex 10.2593 -3.76501 -10
      vertex 11.0697 -2.64964 -10
    endloop
  endfacet
  facet normal 0 0 -1
    outer loop
      vertex 9.19705 -4.6438 -10
      vertex 10.9339 -5.20201 -10
      vertex 9.75 -6.06218 -10
    endloop
  endfacet
  facet normal 0 0 -1
    outer loop
      vertex 10.9339 -5.20201 -10
      vertex 9.19705 -4.6438 -10
      vertex 10.2593 -3.76501 -10
    endloop
  endfacet
  facet normal 0 0 -1
    outer loop
      vertex 7.94959 -5.23081 -10
      vertex 9.75 -6.06218 -10
      vertex 8.41312 -6.6574 -10
    endloop
  endfacet
  facet normal 0 0 -1
    outer loop
      vertex 9.75 -6.06218 -10
      vertex 7.94959 -5.23081 -10
      vertex 9.19705 -4.6438 -10
    endloop
  endfacet
  facet normal 0 0 -1
    outer loop
      vertex 6.9817 -6.96165 -10
      vertex 7.94959 -5.23081 -10
      vertex 8.41312 -6.6574 -10
    endloop
  endfacet
  facet normal 0 0 -1
    outer loop
      vertex 6.9817 -6.96165 -10
      vertex 6.59535 -5.48915 -10
      vertex 7.94959 -5.23081 -10
    endloop
  endfacet
  facet normal 0 0 -1
    outer loop
      vertex 5.5183 -6.96165 -10
      vertex 6.59535 -5.48915 -10
      vertex 6.9817 -6.96165 -10
    endloop
  endfacet
  facet normal 0 0 -1
    outer loop
      vertex 5.5183 -6.96165 -10
      vertex 5.2194 -5.40258 -10
      vertex 6.59535 -5.48915 -10
    endloop
  endfacet
  facet normal 0 0 -1
    outer loop
      vertex 4.08688 -6.6574 -10
      vertex 5.2194 -5.40258 -10
      vertex 5.5183 -6.96165 -10
    endloop
  endfacet
  facet normal 0 0 -1
    outer loop
      vertex 4.08688 -6.6574 -10
      vertex 3.90821 -4.97655 -10
      vertex 5.2194 -5.40258 -10
    endloop
  endfacet
  facet normal 0 0 -1
    outer loop
      vertex 2.75 -6.06218 -10
      vertex 3.90821 -4.97655 -10
      vertex 4.08688 -6.6574 -10
    endloop
  endfacet
  facet normal 0 0 -1
    outer loop
      vertex 2.75 -6.06218 -10
      vertex 2.74417 -4.23782 -10
      vertex 3.90821 -4.97655 -10
    endloop
  endfacet
  facet normal 0 0 -1
    outer loop
      vertex 1.56609 -5.20201 -10
      vertex 2.74417 -4.23782 -10
      vertex 2.75 -6.06218 -10
    endloop
  endfacet
  facet normal -0 0 -1
    outer loop
      vertex 2.74417 -4.23782 -10
      vertex 1.56609 -5.20201 -10
      vertex 1.80041 -3.23282 -10
    endloop
  endfacet
  facet normal 0 0 -1
    outer loop
      vertex 0.586882 -4.1145 -10
      vertex 1.80041 -3.23282 -10
      vertex 1.56609 -5.20201 -10
    endloop
  endfacet
  facet normal 0 0 -1
    outer loop
      vertex 0 -3.09799 -10
      vertex 1.80041 -3.23282 -10
      vertex 0.586882 -4.1145 -10
    endloop
  endfacet
  facet normal 0 0 -1
    outer loop
      vertex -0.922793 -1.36779 -10
      vertex 1.13623 -2.02468 -10
      vertex 0 -3.09799 -10
    endloop
  endfacet
  facet normal 0 0 -1
    outer loop
      vertex 1.80041 -3.23282 -10
      vertex 0 -3.09799 -10
      vertex 1.13623 -2.02468 -10
    endloop
  endfacet
  facet normal 0 0 -1
    outer loop
      vertex 11.0697 2.64964 -10
      vertex 12.6448 2.84716 -10
      vertex 11.5772 1.36779 -10
    endloop
  endfacet
  facet normal -0 0 -1
    outer loop
      vertex 12.6448 2.84716 -10
      vertex 11.0697 2.64964 -10
      vertex 11.9131 4.1145 -10
    endloop
  endfacet
  facet normal 0 0 -1
    outer loop
      vertex 10.2593 3.76501 -10
      vertex 11.9131 4.1145 -10
      vertex 11.0697 2.64964 -10
    endloop
  endfacet
  facet normal -0 0 -1
    outer loop
      vertex 11.9131 4.1145 -10
      vertex 10.2593 3.76501 -10
      vertex 10.9339 5.20201 -10
    endloop
  endfacet
  facet normal 0 0 -1
    outer loop
      vertex 9.19705 4.6438 -10
      vertex 10.9339 5.20201 -10
      vertex 10.2593 3.76501 -10
    endloop
  endfacet
  facet normal -0 0 -1
    outer loop
      vertex 10.9339 5.20201 -10
      vertex 9.19705 4.6438 -10
      vertex 9.75 6.06218 -10
    endloop
  endfacet
  facet normal 0 0 -1
    outer loop
      vertex 7.94959 5.23081 -10
      vertex 9.75 6.06218 -10
      vertex 9.19705 4.6438 -10
    endloop
  endfacet
  facet normal -0 0 -1
    outer loop
      vertex 9.75 6.06218 -10
      vertex 7.94959 5.23081 -10
      vertex 8.41312 6.6574 -10
    endloop
  endfacet
  facet normal 0 0 -1
    outer loop
      vertex 7.94959 5.23081 -10
      vertex 6.9817 6.96165 -10
      vertex 8.41312 6.6574 -10
    endloop
  endfacet
  facet normal 0 0 -1
    outer loop
      vertex 6.59535 5.48915 -10
      vertex 6.9817 6.96165 -10
      vertex 7.94959 5.23081 -10
    endloop
  endfacet
  facet normal 0 0 -1
    outer loop
      vertex 6.59535 5.48915 -10
      vertex 5.5183 6.96165 -10
      vertex 6.9817 6.96165 -10
    endloop
  endfacet
  facet normal 0 0 -1
    outer loop
      vertex 5.2194 5.40258 -10
      vertex 5.5183 6.96165 -10
      vertex 6.59535 5.48915 -10
    endloop
  endfacet
  facet normal 0 0 -1
    outer loop
      vertex 5.2194 5.40258 -10
      vertex 4.08688 6.6574 -10
      vertex 5.5183 6.96165 -10
    endloop
  endfacet
  facet normal 0 0 -1
    outer loop
      vertex 3.90821 4.97655 -10
      vertex 4.08688 6.6574 -10
      vertex 5.2194 5.40258 -10
    endloop
  endfacet
  facet normal 0 0 -1
    outer loop
      vertex 3.90821 4.97655 -10
      vertex 2.75 6.06218 -10
      vertex 4.08688 6.6574 -10
    endloop
  endfacet
  facet normal 0 0 -1
    outer loop
      vertex 2.74417 4.23782 -10
      vertex 2.75 6.06218 -10
      vertex 3.90821 4.97655 -10
    endloop
  endfacet
  facet normal 0 0 -1
    outer loop
      vertex 1.56609 5.20201 -10
      vertex 2.74417 4.23782 -10
      vertex 1.80041 3.23282 -10
    endloop
  endfacet
  facet normal 0 0 -1
    outer loop
      vertex 2.74417 4.23782 -10
      vertex 1.56609 5.20201 -10
      vertex 2.75 6.06218 -10
    endloop
  endfacet
  facet normal 0 0 -1
    outer loop
      vertex 0 3.09799 -10
      vertex 1.80041 3.23282 -10
      vertex 1.13623 2.02468 -10
    endloop
  endfacet
  facet normal 0 0 -1
    outer loop
      vertex -0.922793 1.36779 -10
      vertex 1.13623 2.02468 -10
      vertex 0.793369 0.689332 -10
    endloop
  endfacet
  facet normal 0 0 -1
    outer loop
      vertex 1.80041 3.23282 -10
      vertex 0.586882 4.1145 -10
      vertex 1.56609 5.20201 -10
    endloop
  endfacet
  facet normal 0 0 -1
    outer loop
      vertex 1.13623 -2.02468 -10
      vertex -0.922793 -1.36779 -10
      vertex 0.793369 -0.689332 -10
    endloop
  endfacet
  facet normal 0 -0 -1
    outer loop
      vertex -0.75 0 -10
      vertex 0.793369 -0.689332 -10
      vertex -0.922793 -1.36779 -10
    endloop
  endfacet
  facet normal -0 0 -1
    outer loop
      vertex 1.80041 3.23282 -10
      vertex 0 3.09799 -10
      vertex 0.586882 4.1145 -10
    endloop
  endfacet
  facet normal 0 0 -1
    outer loop
      vertex -1.43031 -2.64964 -10
      vertex 0 -3.09799 -10
      vertex -0.586882 -4.1145 -10
    endloop
  endfacet
  facet normal 0 0 -1
    outer loop
      vertex -0.922793 1.36779 -10
      vertex 0.793369 0.689332 -10
      vertex -0.75 0 -10
    endloop
  endfacet
  facet normal -0 0 -1
    outer loop
      vertex 1.13623 2.02468 -10
      vertex -0.922793 1.36779 -10
      vertex 0 3.09799 -10
    endloop
  endfacet
  facet normal 0 0 -1
    outer loop
      vertex 0.793369 -0.689332 -10
      vertex -0.75 0 -10
      vertex 0.793369 0.689332 -10
    endloop
  endfacet
  facet normal 0 0 -1
    outer loop
      vertex 0 -3.09799 -10
      vertex -1.43031 -2.64964 -10
      vertex -0.922793 -1.36779 -10
    endloop
  endfacet
  facet normal 0 0 -1
    outer loop
      vertex -2.24067 -3.76501 -10
      vertex -0.586882 -4.1145 -10
      vertex -1.56609 -5.20201 -10
    endloop
  endfacet
  facet normal 0 0 -1
    outer loop
      vertex -0.586882 -4.1145 -10
      vertex -2.24067 -3.76501 -10
      vertex -1.43031 -2.64964 -10
    endloop
  endfacet
  facet normal 0 0 -1
    outer loop
      vertex -3.30295 -4.6438 -10
      vertex -1.56609 -5.20201 -10
      vertex -2.75 -6.06218 -10
    endloop
  endfacet
  facet normal 0 0 -1
    outer loop
      vertex -1.56609 -5.20201 -10
      vertex -3.30295 -4.6438 -10
      vertex -2.24067 -3.76501 -10
    endloop
  endfacet
  facet normal 0 0 -1
    outer loop
      vertex -4.55041 -5.23081 -10
      vertex -2.75 -6.06218 -10
      vertex -4.08688 -6.6574 -10
    endloop
  endfacet
  facet normal 0 0 -1
    outer loop
      vertex -2.75 -6.06218 -10
      vertex -4.55041 -5.23081 -10
      vertex -3.30295 -4.6438 -10
    endloop
  endfacet
  facet normal 0 0 -1
    outer loop
      vertex -5.5183 -6.96165 -10
      vertex -4.55041 -5.23081 -10
      vertex -4.08688 -6.6574 -10
    endloop
  endfacet
  facet normal 0 0 -1
    outer loop
      vertex -5.5183 -6.96165 -10
      vertex -5.90465 -5.48915 -10
      vertex -4.55041 -5.23081 -10
    endloop
  endfacet
  facet normal 0 0 -1
    outer loop
      vertex -6.9817 -6.96165 -10
      vertex -5.90465 -5.48915 -10
      vertex -5.5183 -6.96165 -10
    endloop
  endfacet
  facet normal 0 0 -1
    outer loop
      vertex -6.9817 -6.96165 -10
      vertex -7.2806 -5.40258 -10
      vertex -5.90465 -5.48915 -10
    endloop
  endfacet
  facet normal 0 0 -1
    outer loop
      vertex -8.41312 -6.6574 -10
      vertex -7.2806 -5.40258 -10
      vertex -6.9817 -6.96165 -10
    endloop
  endfacet
  facet normal 0 0 -1
    outer loop
      vertex -8.41312 -6.6574 -10
      vertex -8.59179 -4.97655 -10
      vertex -7.2806 -5.40258 -10
    endloop
  endfacet
  facet normal 0 0 -1
    outer loop
      vertex -9.75 -6.06218 -10
      vertex -8.59179 -4.97655 -10
      vertex -8.41312 -6.6574 -10
    endloop
  endfacet
  facet normal 0 0 -1
    outer loop
      vertex -9.75 -6.06218 -10
      vertex -9.75583 -4.23782 -10
      vertex -8.59179 -4.97655 -10
    endloop
  endfacet
  facet normal 0 0 -1
    outer loop
      vertex -10.9339 -5.20201 -10
      vertex -9.75583 -4.23782 -10
      vertex -9.75 -6.06218 -10
    endloop
  endfacet
  facet normal -0 0 -1
    outer loop
      vertex -9.75583 -4.23782 -10
      vertex -10.9339 -5.20201 -10
      vertex -10.6996 -3.23282 -10
    endloop
  endfacet
  facet normal 0 0 -1
    outer loop
      vertex -11.9131 -4.1145 -10
      vertex -10.6996 -3.23282 -10
      vertex -10.9339 -5.20201 -10
    endloop
  endfacet
  facet normal 0 0 -1
    outer loop
      vertex -12.6448 -2.84716 -10
      vertex -10.6996 -3.23282 -10
      vertex -11.9131 -4.1145 -10
    endloop
  endfacet
  facet normal 0 0 -1
    outer loop
      vertex -13.097 -1.45538 -10
      vertex -11.3638 -2.02468 -10
      vertex -12.6448 -2.84716 -10
    endloop
  endfacet
  facet normal 0 0 -1
    outer loop
      vertex -10.6996 -3.23282 -10
      vertex -12.6448 -2.84716 -10
      vertex -11.3638 -2.02468 -10
    endloop
  endfacet
  facet normal 0.743145 -0.66913 0
    outer loop
      vertex 10.9339 -5.20201 10
      vertex 11.9131 -4.1145 -10
      vertex 11.9131 -4.1145 10
    endloop
  endfacet
  facet normal 0.743145 -0.66913 0
    outer loop
      vertex 11.9131 -4.1145 -10
      vertex 10.9339 -5.20201 10
      vertex 10.9339 -5.20201 -10
    endloop
  endfacet
  facet normal -0.207912 -0.978148 0
    outer loop
      vertex 4.08688 -6.6574 -10
      vertex 5.5183 -6.96165 10
      vertex 4.08688 -6.6574 10
    endloop
  endfacet
  facet normal -0.207912 -0.978148 -0
    outer loop
      vertex 5.5183 -6.96165 10
      vertex 4.08688 -6.6574 -10
      vertex 5.5183 -6.96165 -10
    endloop
  endfacet
  facet normal -0.992115 -0.125334 0
    outer loop
      vertex 11.75 0 -10
      vertex 11.5772 1.36779 10
      vertex 11.5772 1.36779 -10
    endloop
  endfacet
  facet normal -0.992115 -0.125334 0
    outer loop
      vertex 11.5772 1.36779 10
      vertex 11.75 0 -10
      vertex 11.75 0 10
    endloop
  endfacet
  facet normal 1 -0 0
    outer loop
      vertex 0.793369 -0.689332 10
      vertex 0.793369 0.689332 -10
      vertex 0.793369 0.689332 10
    endloop
  endfacet
  facet normal 1 0 0
    outer loop
      vertex 0.793369 0.689332 -10
      vertex 0.793369 -0.689332 10
      vertex 0.793369 -0.689332 -10
    endloop
  endfacet
  facet normal 0.0627904 -0.998027 0
    outer loop
      vertex 5.2194 5.40258 -10
      vertex 6.59535 5.48915 10
      vertex 5.2194 5.40258 10
    endloop
  endfacet
  facet normal 0.0627904 -0.998027 0
    outer loop
      vertex 6.59535 5.48915 10
      vertex 5.2194 5.40258 -10
      vertex 6.59535 5.48915 -10
    endloop
  endfacet
  facet normal 0.0627904 0.998027 -0
    outer loop
      vertex 6.59535 -5.48915 -10
      vertex 5.2194 -5.40258 10
      vertex 6.59535 -5.48915 10
    endloop
  endfacet
  facet normal 0.0627904 0.998027 0
    outer loop
      vertex 5.2194 -5.40258 10
      vertex 6.59535 -5.48915 -10
      vertex 5.2194 -5.40258 -10
    endloop
  endfacet
  facet normal -0.637424 -0.770513 0
    outer loop
      vertex 9.19705 4.6438 -10
      vertex 10.2593 3.76501 10
      vertex 9.19705 4.6438 10
    endloop
  endfacet
  facet normal -0.637424 -0.770513 -0
    outer loop
      vertex 10.2593 3.76501 10
      vertex 9.19705 4.6438 -10
      vertex 10.2593 3.76501 -10
    endloop
  endfacet
  facet normal -0.425779 -0.904827 0
    outer loop
      vertex 7.94959 5.23081 -10
      vertex 9.19705 4.6438 10
      vertex 7.94959 5.23081 10
    endloop
  endfacet
  facet normal -0.425779 -0.904827 -0
    outer loop
      vertex 9.19705 4.6438 10
      vertex 7.94959 5.23081 -10
      vertex 9.19705 4.6438 -10
    endloop
  endfacet
  facet normal 0.728969 -0.684547 0
    outer loop
      vertex 1.80041 3.23282 10
      vertex 2.74417 4.23782 -10
      vertex 2.74417 4.23782 10
    endloop
  endfacet
  facet normal 0.728969 -0.684547 0
    outer loop
      vertex 2.74417 4.23782 -10
      vertex 1.80041 3.23282 10
      vertex 1.80041 3.23282 -10
    endloop
  endfacet
  facet normal 0.876306 -0.481754 0
    outer loop
      vertex 1.13623 2.02468 10
      vertex 1.80041 3.23282 -10
      vertex 1.80041 3.23282 10
    endloop
  endfacet
  facet normal 0.876306 -0.481754 0
    outer loop
      vertex 1.80041 3.23282 -10
      vertex 1.13623 2.02468 10
      vertex 1.13623 2.02468 -10
    endloop
  endfacet
  facet normal 0.535826 -0.844328 0
    outer loop
      vertex 2.74417 4.23782 -10
      vertex 3.90821 4.97655 10
      vertex 2.74417 4.23782 10
    endloop
  endfacet
  facet normal 0.535826 -0.844328 0
    outer loop
      vertex 3.90821 4.97655 10
      vertex 2.74417 4.23782 -10
      vertex 3.90821 4.97655 -10
    endloop
  endfacet
  facet normal 0.968583 0.24869 0
    outer loop
      vertex 1.13623 -2.02468 10
      vertex 0.793369 -0.689332 -10
      vertex 0.793369 -0.689332 10
    endloop
  endfacet
  facet normal 0.968583 0.24869 0
    outer loop
      vertex 0.793369 -0.689332 -10
      vertex 1.13623 -2.02468 10
      vertex 1.13623 -2.02468 -10
    endloop
  endfacet
  facet normal -0.809017 -0.587785 0
    outer loop
      vertex 11.0697 2.64964 -10
      vertex 10.2593 3.76501 10
      vertex 10.2593 3.76501 -10
    endloop
  endfacet
  facet normal -0.809017 -0.587785 0
    outer loop
      vertex 10.2593 3.76501 10
      vertex 11.0697 2.64964 -10
      vertex 11.0697 2.64964 10
    endloop
  endfacet
  facet normal -0.929776 -0.368125 0
    outer loop
      vertex 11.5772 1.36779 -10
      vertex 11.0697 2.64964 10
      vertex 11.0697 2.64964 -10
    endloop
  endfacet
  facet normal -0.929776 -0.368125 0
    outer loop
      vertex 11.0697 2.64964 10
      vertex 11.5772 1.36779 -10
      vertex 11.5772 1.36779 10
    endloop
  endfacet
  facet normal -0.187381 -0.982287 0
    outer loop
      vertex 6.59535 5.48915 -10
      vertex 7.94959 5.23081 10
      vertex 6.59535 5.48915 10
    endloop
  endfacet
  facet normal -0.187381 -0.982287 -0
    outer loop
      vertex 7.94959 5.23081 10
      vertex 6.59535 5.48915 -10
      vertex 7.94959 5.23081 -10
    endloop
  endfacet
  facet normal 0.968583 -0.24869 0
    outer loop
      vertex 0.793369 0.689332 10
      vertex 1.13623 2.02468 -10
      vertex 1.13623 2.02468 10
    endloop
  endfacet
  facet normal 0.968583 -0.24869 0
    outer loop
      vertex 1.13623 2.02468 -10
      vertex 0.793369 0.689332 10
      vertex 0.793369 0.689332 -10
    endloop
  endfacet
  facet normal 0.309017 -0.951056 0
    outer loop
      vertex 3.90821 4.97655 -10
      vertex 5.2194 5.40258 10
      vertex 3.90821 4.97655 10
    endloop
  endfacet
  facet normal 0.309017 -0.951056 0
    outer loop
      vertex 5.2194 5.40258 10
      vertex 3.90821 4.97655 -10
      vertex 5.2194 5.40258 -10
    endloop
  endfacet
  facet normal -0.992115 0.125334 0
    outer loop
      vertex 11.5772 -1.36779 -10
      vertex 11.75 0 10
      vertex 11.75 0 -10
    endloop
  endfacet
  facet normal -0.992115 0.125334 0
    outer loop
      vertex 11.75 0 10
      vertex 11.5772 -1.36779 -10
      vertex 11.5772 -1.36779 10
    endloop
  endfacet
  facet normal -0.187381 0.982287 0
    outer loop
      vertex 7.94959 -5.23081 -10
      vertex 6.59535 -5.48915 10
      vertex 7.94959 -5.23081 10
    endloop
  endfacet
  facet normal -0.187381 0.982287 0
    outer loop
      vertex 6.59535 -5.48915 10
      vertex 7.94959 -5.23081 -10
      vertex 6.59535 -5.48915 -10
    endloop
  endfacet
  facet normal 0.535826 0.844328 -0
    outer loop
      vertex 3.90821 -4.97655 -10
      vertex 2.74417 -4.23782 10
      vertex 3.90821 -4.97655 10
    endloop
  endfacet
  facet normal 0.535826 0.844328 0
    outer loop
      vertex 2.74417 -4.23782 10
      vertex 3.90821 -4.97655 -10
      vertex 2.74417 -4.23782 -10
    endloop
  endfacet
  facet normal 0.876306 0.481754 0
    outer loop
      vertex 1.80041 -3.23282 10
      vertex 1.13623 -2.02468 -10
      vertex 1.13623 -2.02468 10
    endloop
  endfacet
  facet normal 0.876306 0.481754 0
    outer loop
      vertex 1.13623 -2.02468 -10
      vertex 1.80041 -3.23282 10
      vertex 1.80041 -3.23282 -10
    endloop
  endfacet
  facet normal -0.637424 0.770513 0
    outer loop
      vertex 10.2593 -3.76501 -10
      vertex 9.19705 -4.6438 10
      vertex 10.2593 -3.76501 10
    endloop
  endfacet
  facet normal -0.637424 0.770513 0
    outer loop
      vertex 9.19705 -4.6438 10
      vertex 10.2593 -3.76501 -10
      vertex 9.19705 -4.6438 -10
    endloop
  endfacet
  facet normal -0.929776 0.368125 0
    outer loop
      vertex 11.0697 -2.64964 -10
      vertex 11.5772 -1.36779 10
      vertex 11.5772 -1.36779 -10
    endloop
  endfacet
  facet normal -0.929776 0.368125 0
    outer loop
      vertex 11.5772 -1.36779 10
      vertex 11.0697 -2.64964 -10
      vertex 11.0697 -2.64964 10
    endloop
  endfacet
  facet normal -0.809017 0.587785 0
    outer loop
      vertex 10.2593 -3.76501 -10
      vertex 11.0697 -2.64964 10
      vertex 11.0697 -2.64964 -10
    endloop
  endfacet
  facet normal -0.809017 0.587785 0
    outer loop
      vertex 11.0697 -2.64964 10
      vertex 10.2593 -3.76501 -10
      vertex 10.2593 -3.76501 10
    endloop
  endfacet
  facet normal -0.425779 0.904827 0
    outer loop
      vertex 9.19705 -4.6438 -10
      vertex 7.94959 -5.23081 10
      vertex 9.19705 -4.6438 10
    endloop
  endfacet
  facet normal -0.425779 0.904827 0
    outer loop
      vertex 7.94959 -5.23081 10
      vertex 9.19705 -4.6438 -10
      vertex 7.94959 -5.23081 -10
    endloop
  endfacet
  facet normal 0.309017 0.951056 -0
    outer loop
      vertex 5.2194 -5.40258 -10
      vertex 3.90821 -4.97655 10
      vertex 5.2194 -5.40258 10
    endloop
  endfacet
  facet normal 0.309017 0.951056 0
    outer loop
      vertex 3.90821 -4.97655 10
      vertex 5.2194 -5.40258 -10
      vertex 3.90821 -4.97655 -10
    endloop
  endfacet
  facet normal 0.728969 0.684547 0
    outer loop
      vertex 2.74417 -4.23782 10
      vertex 1.80041 -3.23282 -10
      vertex 1.80041 -3.23282 10
    endloop
  endfacet
  facet normal 0.728969 0.684547 0
    outer loop
      vertex 1.80041 -3.23282 -10
      vertex 2.74417 -4.23782 10
      vertex 2.74417 -4.23782 -10
    endloop
  endfacet
  facet normal 0.866026 0.5 0
    outer loop
      vertex 0 3.09799 10
      vertex -0.586882 4.1145 -10
      vertex -0.586882 4.1145 10
    endloop
  endfacet
  facet normal 0.866026 0.5 0
    outer loop
      vertex -0.586882 4.1145 -10
      vertex 0 3.09799 10
      vertex 0 3.09799 -10
    endloop
  endfacet
  facet normal -0.951056 0.309017 0
    outer loop
      vertex -13.097 1.45538 -10
      vertex -12.6448 2.84716 10
      vertex -12.6448 2.84716 -10
    endloop
  endfacet
  facet normal -0.951056 0.309017 0
    outer loop
      vertex -12.6448 2.84716 10
      vertex -13.097 1.45538 -10
      vertex -13.097 1.45538 10
    endloop
  endfacet
  facet normal 0.743145 0.66913 0
    outer loop
      vertex -0.586882 4.1145 10
      vertex -1.56609 5.20201 -10
      vertex -1.56609 5.20201 10
    endloop
  endfacet
  facet normal 0.743145 0.66913 0
    outer loop
      vertex -1.56609 5.20201 -10
      vertex -0.586882 4.1145 10
      vertex -0.586882 4.1145 -10
    endloop
  endfacet
  facet normal 0.207912 0.978148 -0
    outer loop
      vertex -4.08688 6.6574 -10
      vertex -5.5183 6.96165 10
      vertex -4.08688 6.6574 10
    endloop
  endfacet
  facet normal 0.207912 0.978148 0
    outer loop
      vertex -5.5183 6.96165 10
      vertex -4.08688 6.6574 -10
      vertex -5.5183 6.96165 -10
    endloop
  endfacet
  facet normal 0.406736 0.913546 -0
    outer loop
      vertex -2.75 6.06218 -10
      vertex -4.08688 6.6574 10
      vertex -2.75 6.06218 10
    endloop
  endfacet
  facet normal 0.406736 0.913546 0
    outer loop
      vertex -4.08688 6.6574 10
      vertex -2.75 6.06218 -10
      vertex -4.08688 6.6574 -10
    endloop
  endfacet
  facet normal -0.207912 0.978148 0
    outer loop
      vertex -6.9817 6.96165 -10
      vertex -8.41312 6.6574 10
      vertex -6.9817 6.96165 10
    endloop
  endfacet
  facet normal -0.207912 0.978148 0
    outer loop
      vertex -8.41312 6.6574 10
      vertex -6.9817 6.96165 -10
      vertex -8.41312 6.6574 -10
    endloop
  endfacet
  facet normal -0.866026 0.5 0
    outer loop
      vertex -12.6448 2.84716 -10
      vertex -11.9131 4.1145 10
      vertex -11.9131 4.1145 -10
    endloop
  endfacet
  facet normal -0.866026 0.5 0
    outer loop
      vertex -11.9131 4.1145 10
      vertex -12.6448 2.84716 -10
      vertex -12.6448 2.84716 10
    endloop
  endfacet
  facet normal 0.587786 0.809017 -0
    outer loop
      vertex -1.56609 5.20201 -10
      vertex -2.75 6.06218 10
      vertex -1.56609 5.20201 10
    endloop
  endfacet
  facet normal 0.587786 0.809017 0
    outer loop
      vertex -2.75 6.06218 10
      vertex -1.56609 5.20201 -10
      vertex -2.75 6.06218 -10
    endloop
  endfacet
  facet normal 0 1 -0
    outer loop
      vertex -5.5183 6.96165 -10
      vertex -6.9817 6.96165 10
      vertex -5.5183 6.96165 10
    endloop
  endfacet
  facet normal 0 1 0
    outer loop
      vertex -6.9817 6.96165 10
      vertex -5.5183 6.96165 -10
      vertex -6.9817 6.96165 -10
    endloop
  endfacet
  facet normal -0.994522 0.104529 0
    outer loop
      vertex -13.25 0 -10
      vertex -13.097 1.45538 10
      vertex -13.097 1.45538 -10
    endloop
  endfacet
  facet normal -0.994522 0.104529 0
    outer loop
      vertex -13.097 1.45538 10
      vertex -13.25 0 -10
      vertex -13.25 0 10
    endloop
  endfacet
  facet normal -0.743145 0.66913 0
    outer loop
      vertex -11.9131 4.1145 -10
      vertex -10.9339 5.20201 10
      vertex -10.9339 5.20201 -10
    endloop
  endfacet
  facet normal -0.743145 0.66913 0
    outer loop
      vertex -10.9339 5.20201 10
      vertex -11.9131 4.1145 -10
      vertex -11.9131 4.1145 10
    endloop
  endfacet
  facet normal -0.406737 0.913545 0
    outer loop
      vertex -8.41312 6.6574 -10
      vertex -9.75 6.06218 10
      vertex -8.41312 6.6574 10
    endloop
  endfacet
  facet normal -0.406737 0.913545 0
    outer loop
      vertex -9.75 6.06218 10
      vertex -8.41312 6.6574 -10
      vertex -9.75 6.06218 -10
    endloop
  endfacet
  facet normal -0.587785 0.809017 0
    outer loop
      vertex -9.75 6.06218 -10
      vertex -10.9339 5.20201 10
      vertex -9.75 6.06218 10
    endloop
  endfacet
  facet normal -0.587785 0.809017 0
    outer loop
      vertex -10.9339 5.20201 10
      vertex -9.75 6.06218 -10
      vertex -10.9339 5.20201 -10
    endloop
  endfacet
  facet normal -0.587786 -0.809017 0
    outer loop
      vertex -10.9339 -5.20201 -10
      vertex -9.75 -6.06218 10
      vertex -10.9339 -5.20201 10
    endloop
  endfacet
  facet normal -0.587786 -0.809017 -0
    outer loop
      vertex -9.75 -6.06218 10
      vertex -10.9339 -5.20201 -10
      vertex -9.75 -6.06218 -10
    endloop
  endfacet
  facet normal -0.866026 -0.5 0
    outer loop
      vertex -11.9131 -4.1145 -10
      vertex -12.6448 -2.84716 10
      vertex -12.6448 -2.84716 -10
    endloop
  endfacet
  facet normal -0.866026 -0.5 0
    outer loop
      vertex -12.6448 -2.84716 10
      vertex -11.9131 -4.1145 -10
      vertex -11.9131 -4.1145 10
    endloop
  endfacet
  facet normal 0.587786 -0.809017 0
    outer loop
      vertex -2.75 -6.06218 -10
      vertex -1.56609 -5.20201 10
      vertex -2.75 -6.06218 10
    endloop
  endfacet
  facet normal 0.587786 -0.809017 0
    outer loop
      vertex -1.56609 -5.20201 10
      vertex -2.75 -6.06218 -10
      vertex -1.56609 -5.20201 -10
    endloop
  endfacet
  facet normal 0.866026 -0.5 0
    outer loop
      vertex -0.586882 -4.1145 10
      vertex 0 -3.09799 -10
      vertex 0 -3.09799 10
    endloop
  endfacet
  facet normal 0.866026 -0.5 0
    outer loop
      vertex 0 -3.09799 -10
      vertex -0.586882 -4.1145 10
      vertex -0.586882 -4.1145 -10
    endloop
  endfacet
  facet normal -0.994522 -0.104529 0
    outer loop
      vertex -13.097 -1.45538 -10
      vertex -13.25 0 10
      vertex -13.25 0 -10
    endloop
  endfacet
  facet normal -0.994522 -0.104529 0
    outer loop
      vertex -13.25 0 10
      vertex -13.097 -1.45538 -10
      vertex -13.097 -1.45538 10
    endloop
  endfacet
  facet normal -0.743145 -0.66913 0
    outer loop
      vertex -10.9339 -5.20201 -10
      vertex -11.9131 -4.1145 10
      vertex -11.9131 -4.1145 -10
    endloop
  endfacet
  facet normal -0.743145 -0.66913 0
    outer loop
      vertex -11.9131 -4.1145 10
      vertex -10.9339 -5.20201 -10
      vertex -10.9339 -5.20201 10
    endloop
  endfacet
  facet normal 0.207912 -0.978148 0
    outer loop
      vertex -5.5183 -6.96165 -10
      vertex -4.08688 -6.6574 10
      vertex -5.5183 -6.96165 10
    endloop
  endfacet
  facet normal 0.207912 -0.978148 0
    outer loop
      vertex -4.08688 -6.6574 10
      vertex -5.5183 -6.96165 -10
      vertex -4.08688 -6.6574 -10
    endloop
  endfacet
  facet normal 0.406736 -0.913546 0
    outer loop
      vertex -4.08688 -6.6574 -10
      vertex -2.75 -6.06218 10
      vertex -4.08688 -6.6574 10
    endloop
  endfacet
  facet normal 0.406736 -0.913546 0
    outer loop
      vertex -2.75 -6.06218 10
      vertex -4.08688 -6.6574 -10
      vertex -2.75 -6.06218 -10
    endloop
  endfacet
  facet normal -0.406736 -0.913546 0
    outer loop
      vertex -9.75 -6.06218 -10
      vertex -8.41312 -6.6574 10
      vertex -9.75 -6.06218 10
    endloop
  endfacet
  facet normal -0.406736 -0.913546 -0
    outer loop
      vertex -8.41312 -6.6574 10
      vertex -9.75 -6.06218 -10
      vertex -8.41312 -6.6574 -10
    endloop
  endfacet
  facet normal 0 -1 0
    outer loop
      vertex -6.9817 -6.96165 -10
      vertex -5.5183 -6.96165 10
      vertex -6.9817 -6.96165 10
    endloop
  endfacet
  facet normal 0 -1 -0
    outer loop
      vertex -5.5183 -6.96165 10
      vertex -6.9817 -6.96165 -10
      vertex -5.5183 -6.96165 -10
    endloop
  endfacet
  facet normal -0.951056 -0.309017 0
    outer loop
      vertex -12.6448 -2.84716 -10
      vertex -13.097 -1.45538 10
      vertex -13.097 -1.45538 -10
    endloop
  endfacet
  facet normal -0.951056 -0.309017 0
    outer loop
      vertex -13.097 -1.45538 10
      vertex -12.6448 -2.84716 -10
      vertex -12.6448 -2.84716 10
    endloop
  endfacet
  facet normal 0.743145 -0.66913 0
    outer loop
      vertex -1.56609 -5.20201 10
      vertex -0.586882 -4.1145 -10
      vertex -0.586882 -4.1145 10
    endloop
  endfacet
  facet normal 0.743145 -0.66913 0
    outer loop
      vertex -0.586882 -4.1145 -10
      vertex -1.56609 -5.20201 10
      vertex -1.56609 -5.20201 -10
    endloop
  endfacet
  facet normal -0.207912 -0.978148 0
    outer loop
      vertex -8.41312 -6.6574 -10
      vertex -6.9817 -6.96165 10
      vertex -8.41312 -6.6574 10
    endloop
  endfacet
  facet normal -0.207912 -0.978148 -0
    outer loop
      vertex -6.9817 -6.96165 10
      vertex -8.41312 -6.6574 -10
      vertex -6.9817 -6.96165 -10
    endloop
  endfacet
  facet normal -0.992115 -0.125334 0
    outer loop
      vertex -0.75 0 -10
      vertex -0.922793 1.36779 10
      vertex -0.922793 1.36779 -10
    endloop
  endfacet
  facet normal -0.992115 -0.125334 0
    outer loop
      vertex -0.922793 1.36779 10
      vertex -0.75 0 -10
      vertex -0.75 0 10
    endloop
  endfacet
  facet normal 1 -0 0
    outer loop
      vertex -11.7066 -0.689332 10
      vertex -11.7066 0.689332 -10
      vertex -11.7066 0.689332 10
    endloop
  endfacet
  facet normal 1 0 0
    outer loop
      vertex -11.7066 0.689332 -10
      vertex -11.7066 -0.689332 10
      vertex -11.7066 -0.689332 -10
    endloop
  endfacet
  facet normal 0.0627904 -0.998027 0
    outer loop
      vertex -7.2806 5.40258 -10
      vertex -5.90465 5.48915 10
      vertex -7.2806 5.40258 10
    endloop
  endfacet
  facet normal 0.0627904 -0.998027 0
    outer loop
      vertex -5.90465 5.48915 10
      vertex -7.2806 5.40258 -10
      vertex -5.90465 5.48915 -10
    endloop
  endfacet
  facet normal 0.0627904 0.998027 -0
    outer loop
      vertex -5.90465 -5.48915 -10
      vertex -7.2806 -5.40258 10
      vertex -5.90465 -5.48915 10
    endloop
  endfacet
  facet normal 0.0627904 0.998027 0
    outer loop
      vertex -7.2806 -5.40258 10
      vertex -5.90465 -5.48915 -10
      vertex -7.2806 -5.40258 -10
    endloop
  endfacet
  facet normal -0.637424 -0.770513 0
    outer loop
      vertex -3.30295 4.6438 -10
      vertex -2.24067 3.76501 10
      vertex -3.30295 4.6438 10
    endloop
  endfacet
  facet normal -0.637424 -0.770513 -0
    outer loop
      vertex -2.24067 3.76501 10
      vertex -3.30295 4.6438 -10
      vertex -2.24067 3.76501 -10
    endloop
  endfacet
  facet normal -0.425779 -0.904827 0
    outer loop
      vertex -4.55041 5.23081 -10
      vertex -3.30295 4.6438 10
      vertex -4.55041 5.23081 10
    endloop
  endfacet
  facet normal -0.425779 -0.904827 -0
    outer loop
      vertex -3.30295 4.6438 10
      vertex -4.55041 5.23081 -10
      vertex -3.30295 4.6438 -10
    endloop
  endfacet
  facet normal 0.728969 -0.684547 0
    outer loop
      vertex -10.6996 3.23282 10
      vertex -9.75583 4.23782 -10
      vertex -9.75583 4.23782 10
    endloop
  endfacet
  facet normal 0.728969 -0.684547 0
    outer loop
      vertex -9.75583 4.23782 -10
      vertex -10.6996 3.23282 10
      vertex -10.6996 3.23282 -10
    endloop
  endfacet
  facet normal 0.876306 -0.481754 0
    outer loop
      vertex -11.3638 2.02468 10
      vertex -10.6996 3.23282 -10
      vertex -10.6996 3.23282 10
    endloop
  endfacet
  facet normal 0.876306 -0.481754 0
    outer loop
      vertex -10.6996 3.23282 -10
      vertex -11.3638 2.02468 10
      vertex -11.3638 2.02468 -10
    endloop
  endfacet
  facet normal 0.535826 -0.844328 0
    outer loop
      vertex -9.75583 4.23782 -10
      vertex -8.59179 4.97655 10
      vertex -9.75583 4.23782 10
    endloop
  endfacet
  facet normal 0.535826 -0.844328 0
    outer loop
      vertex -8.59179 4.97655 10
      vertex -9.75583 4.23782 -10
      vertex -8.59179 4.97655 -10
    endloop
  endfacet
  facet normal 0.968583 0.24869 0
    outer loop
      vertex -11.3638 -2.02468 10
      vertex -11.7066 -0.689332 -10
      vertex -11.7066 -0.689332 10
    endloop
  endfacet
  facet normal 0.968583 0.24869 0
    outer loop
      vertex -11.7066 -0.689332 -10
      vertex -11.3638 -2.02468 10
      vertex -11.3638 -2.02468 -10
    endloop
  endfacet
  facet normal -0.809017 -0.587785 0
    outer loop
      vertex -1.43031 2.64964 -10
      vertex -2.24067 3.76501 10
      vertex -2.24067 3.76501 -10
    endloop
  endfacet
  facet normal -0.809017 -0.587785 0
    outer loop
      vertex -2.24067 3.76501 10
      vertex -1.43031 2.64964 -10
      vertex -1.43031 2.64964 10
    endloop
  endfacet
  facet normal -0.929776 -0.368125 0
    outer loop
      vertex -0.922793 1.36779 -10
      vertex -1.43031 2.64964 10
      vertex -1.43031 2.64964 -10
    endloop
  endfacet
  facet normal -0.929776 -0.368125 0
    outer loop
      vertex -1.43031 2.64964 10
      vertex -0.922793 1.36779 -10
      vertex -0.922793 1.36779 10
    endloop
  endfacet
  facet normal -0.187381 -0.982287 0
    outer loop
      vertex -5.90465 5.48915 -10
      vertex -4.55041 5.23081 10
      vertex -5.90465 5.48915 10
    endloop
  endfacet
  facet normal -0.187381 -0.982287 -0
    outer loop
      vertex -4.55041 5.23081 10
      vertex -5.90465 5.48915 -10
      vertex -4.55041 5.23081 -10
    endloop
  endfacet
  facet normal 0.968583 -0.24869 0
    outer loop
      vertex -11.7066 0.689332 10
      vertex -11.3638 2.02468 -10
      vertex -11.3638 2.02468 10
    endloop
  endfacet
  facet normal 0.968583 -0.24869 0
    outer loop
      vertex -11.3638 2.02468 -10
      vertex -11.7066 0.689332 10
      vertex -11.7066 0.689332 -10
    endloop
  endfacet
  facet normal 0.309017 -0.951056 0
    outer loop
      vertex -8.59179 4.97655 -10
      vertex -7.2806 5.40258 10
      vertex -8.59179 4.97655 10
    endloop
  endfacet
  facet normal 0.309017 -0.951056 0
    outer loop
      vertex -7.2806 5.40258 10
      vertex -8.59179 4.97655 -10
      vertex -7.2806 5.40258 -10
    endloop
  endfacet
  facet normal -0.992115 0.125334 0
    outer loop
      vertex -0.922793 -1.36779 -10
      vertex -0.75 0 10
      vertex -0.75 0 -10
    endloop
  endfacet
  facet normal -0.992115 0.125334 0
    outer loop
      vertex -0.75 0 10
      vertex -0.922793 -1.36779 -10
      vertex -0.922793 -1.36779 10
    endloop
  endfacet
  facet normal -0.187381 0.982287 0
    outer loop
      vertex -4.55041 -5.23081 -10
      vertex -5.90465 -5.48915 10
      vertex -4.55041 -5.23081 10
    endloop
  endfacet
  facet normal -0.187381 0.982287 0
    outer loop
      vertex -5.90465 -5.48915 10
      vertex -4.55041 -5.23081 -10
      vertex -5.90465 -5.48915 -10
    endloop
  endfacet
  facet normal 0.535826 0.844328 -0
    outer loop
      vertex -8.59179 -4.97655 -10
      vertex -9.75583 -4.23782 10
      vertex -8.59179 -4.97655 10
    endloop
  endfacet
  facet normal 0.535826 0.844328 0
    outer loop
      vertex -9.75583 -4.23782 10
      vertex -8.59179 -4.97655 -10
      vertex -9.75583 -4.23782 -10
    endloop
  endfacet
  facet normal 0.876306 0.481754 0
    outer loop
      vertex -10.6996 -3.23282 10
      vertex -11.3638 -2.02468 -10
      vertex -11.3638 -2.02468 10
    endloop
  endfacet
  facet normal 0.876306 0.481754 0
    outer loop
      vertex -11.3638 -2.02468 -10
      vertex -10.6996 -3.23282 10
      vertex -10.6996 -3.23282 -10
    endloop
  endfacet
  facet normal -0.637424 0.770513 0
    outer loop
      vertex -2.24067 -3.76501 -10
      vertex -3.30295 -4.6438 10
      vertex -2.24067 -3.76501 10
    endloop
  endfacet
  facet normal -0.637424 0.770513 0
    outer loop
      vertex -3.30295 -4.6438 10
      vertex -2.24067 -3.76501 -10
      vertex -3.30295 -4.6438 -10
    endloop
  endfacet
  facet normal -0.929776 0.368125 0
    outer loop
      vertex -1.43031 -2.64964 -10
      vertex -0.922793 -1.36779 10
      vertex -0.922793 -1.36779 -10
    endloop
  endfacet
  facet normal -0.929776 0.368125 0
    outer loop
      vertex -0.922793 -1.36779 10
      vertex -1.43031 -2.64964 -10
      vertex -1.43031 -2.64964 10
    endloop
  endfacet
  facet normal -0.809017 0.587785 0
    outer loop
      vertex -2.24067 -3.76501 -10
      vertex -1.43031 -2.64964 10
      vertex -1.43031 -2.64964 -10
    endloop
  endfacet
  facet normal -0.809017 0.587785 0
    outer loop
      vertex -1.43031 -2.64964 10
      vertex -2.24067 -3.76501 -10
      vertex -2.24067 -3.76501 10
    endloop
  endfacet
  facet normal -0.425779 0.904827 0
    outer loop
      vertex -3.30295 -4.6438 -10
      vertex -4.55041 -5.23081 10
      vertex -3.30295 -4.6438 10
    endloop
  endfacet
  facet normal -0.425779 0.904827 0
    outer loop
      vertex -4.55041 -5.23081 10
      vertex -3.30295 -4.6438 -10
      vertex -4.55041 -5.23081 -10
    endloop
  endfacet
  facet normal 0.309017 0.951056 -0
    outer loop
      vertex -7.2806 -5.40258 -10
      vertex -8.59179 -4.97655 10
      vertex -7.2806 -5.40258 10
    endloop
  endfacet
  facet normal 0.309017 0.951056 0
    outer loop
      vertex -8.59179 -4.97655 10
      vertex -7.2806 -5.40258 -10
      vertex -8.59179 -4.97655 -10
    endloop
  endfacet
  facet normal 0.728969 0.684547 0
    outer loop
      vertex -9.75583 -4.23782 10
      vertex -10.6996 -3.23282 -10
      vertex -10.6996 -3.23282 10
    endloop
  endfacet
  facet normal 0.728969 0.684547 0
    outer loop
      vertex -10.6996 -3.23282 -10
      vertex -9.75583 -4.23782 10
      vertex -9.75583 -4.23782 -10
    endloop
  endfacet
endsolid OpenSCAD_Model
