solid OpenSCAD_Model
  facet normal 0.994522 -0 0.104529
    outer loop
      vertex 6.84703 -23.25 1.45538
      vertex 6.91688 -13.25 0.790786
      vertex 6.84703 -13.2811 1.45538
    endloop
  endfacet
  facet normal 0.994522 -2.22701e-08 0.104529
    outer loop
      vertex 6.91688 -13.25 0.790786
      vertex 6.84703 -23.25 1.45538
      vertex 7 -23.25 1.11022e-15
    endloop
  endfacet
  facet normal 0.994522 2.44345e-17 0.104529
    outer loop
      vertex 6.91688 -13.25 0.790786
      vertex 7 -23.25 1.11022e-15
      vertex 7 -13.25 -1.11022e-15
    endloop
  endfacet
  facet normal -0.994522 2.321e-17 0.104529
    outer loop
      vertex -7 -23.25 1.11022e-15
      vertex -6.91688 -13.25 0.790786
      vertex -7 -13.25 -1.11022e-15
    endloop
  endfacet
  facet normal -0.994522 -2.22701e-08 0.104529
    outer loop
      vertex -6.84703 -23.25 1.45538
      vertex -6.91688 -13.25 0.790786
      vertex -7 -23.25 1.11022e-15
    endloop
  endfacet
  facet normal -0.994522 0 0.104529
    outer loop
      vertex -6.91688 -13.25 0.790786
      vertex -6.84703 -23.25 1.45538
      vertex -6.84703 -13.2811 1.45538
    endloop
  endfacet
  facet normal -0 0 1
    outer loop
      vertex -0.731699 -14.9178 6.96165
      vertex 0.731699 -23.25 6.96165
      vertex 0.731699 -14.9178 6.96165
    endloop
  endfacet
  facet normal 0 0 1
    outer loop
      vertex 0.731699 -23.25 6.96165
      vertex -0.731699 -14.9178 6.96165
      vertex -0.731699 -23.25 6.96165
    endloop
  endfacet
  facet normal 0 0 -1
    outer loop
      vertex -0.731699 -23.25 -6.96165
      vertex 0.731699 -14.9178 -6.96165
      vertex 0.731699 -23.25 -6.96165
    endloop
  endfacet
  facet normal -0 0 -1
    outer loop
      vertex 0.731699 -14.9178 -6.96165
      vertex -0.731699 -23.25 -6.96165
      vertex -0.731699 -14.9178 -6.96165
    endloop
  endfacet
  facet normal 0.587787 0 0.809016
    outer loop
      vertex 4.63525 -14.2658 5.23737
      vertex 4.68391 -23.25 5.20201
      vertex 4.68391 -14.2442 5.20201
    endloop
  endfacet
  facet normal 0.587785 -8.32914e-09 0.809017
    outer loop
      vertex 3.5 -14.5072 6.06218
      vertex 4.68391 -23.25 5.20201
      vertex 4.63525 -14.2658 5.23737
    endloop
  endfacet
  facet normal 0.587786 0 0.809017
    outer loop
      vertex 4.68391 -23.25 5.20201
      vertex 3.5 -14.5072 6.06218
      vertex 3.5 -23.25 6.06218
    endloop
  endfacet
  facet normal 0.406736 0 0.913546
    outer loop
      vertex 2.16312 -14.7913 6.6574
      vertex 3.5 -23.25 6.06218
      vertex 3.5 -14.5072 6.06218
    endloop
  endfacet
  facet normal 0.406736 0 0.913546
    outer loop
      vertex 3.5 -23.25 6.06218
      vertex 2.16312 -14.7913 6.6574
      vertex 2.16312 -23.25 6.6574
    endloop
  endfacet
  facet normal -0.587785 -1.10004e-08 0.809017
    outer loop
      vertex -4.68391 -23.25 5.20201
      vertex -3.5 -14.5072 6.06218
      vertex -4.63525 -14.2658 5.23737
    endloop
  endfacet
  facet normal -0.587787 0 0.809016
    outer loop
      vertex -4.68391 -23.25 5.20201
      vertex -4.63525 -14.2658 5.23737
      vertex -4.68391 -14.2442 5.20201
    endloop
  endfacet
  facet normal -0.587785 0 0.809017
    outer loop
      vertex -3.5 -14.5072 6.06218
      vertex -4.68391 -23.25 5.20201
      vertex -3.5 -23.25 6.06218
    endloop
  endfacet
  facet normal -0.207911 0 0.978148
    outer loop
      vertex -1.56793 -14.9178 6.78391
      vertex -0.731699 -23.25 6.96165
      vertex -0.731699 -14.9178 6.96165
    endloop
  endfacet
  facet normal -0.207912 0 0.978148
    outer loop
      vertex -2.16312 -23.25 6.6574
      vertex -1.56793 -14.9178 6.78391
      vertex -2.16312 -14.7913 6.6574
    endloop
  endfacet
  facet normal -0.207912 -2.02953e-08 0.978148
    outer loop
      vertex -1.56793 -14.9178 6.78391
      vertex -2.16312 -23.25 6.6574
      vertex -0.731699 -23.25 6.96165
    endloop
  endfacet
  facet normal 0.866026 0 0.5
    outer loop
      vertex 6.39482 -23.25 2.84716
      vertex 5.66312 -13.8082 4.1145
      vertex 5.66312 -23.25 4.1145
    endloop
  endfacet
  facet normal 0.866026 0 0.5
    outer loop
      vertex 5.66312 -13.8082 4.1145
      vertex 6.39482 -23.25 2.84716
      vertex 6.39482 -13.4824 2.84716
    endloop
  endfacet
  facet normal 0.951056 0 0.309017
    outer loop
      vertex 6.84703 -23.25 1.45538
      vertex 6.39482 -13.4824 2.84716
      vertex 6.39482 -23.25 2.84716
    endloop
  endfacet
  facet normal 0.951056 0 0.309017
    outer loop
      vertex 6.39482 -13.4824 2.84716
      vertex 6.84703 -23.25 1.45538
      vertex 6.84703 -13.2811 1.45538
    endloop
  endfacet
  facet normal 0.743145 0 0.66913
    outer loop
      vertex 5.66312 -23.25 4.1145
      vertex 4.68391 -14.2442 5.20201
      vertex 4.68391 -23.25 5.20201
    endloop
  endfacet
  facet normal 0.743145 0 0.66913
    outer loop
      vertex 4.68391 -14.2442 5.20201
      vertex 5.66312 -23.25 4.1145
      vertex 5.66312 -13.8082 4.1145
    endloop
  endfacet
  facet normal 0.207912 0 0.978148
    outer loop
      vertex 1.56793 -14.9178 6.78391
      vertex 2.16312 -23.25 6.6574
      vertex 2.16312 -14.7913 6.6574
    endloop
  endfacet
  facet normal 0.207911 -0 0.978148
    outer loop
      vertex 0.731699 -23.25 6.96165
      vertex 1.56793 -14.9178 6.78391
      vertex 0.731699 -14.9178 6.96165
    endloop
  endfacet
  facet normal 0.207912 -2.02953e-08 0.978148
    outer loop
      vertex 1.56793 -14.9178 6.78391
      vertex 0.731699 -23.25 6.96165
      vertex 2.16312 -23.25 6.6574
    endloop
  endfacet
  facet normal -0.866026 0 0.5
    outer loop
      vertex -6.39482 -23.25 2.84716
      vertex -5.66312 -13.8082 4.1145
      vertex -6.39482 -13.4824 2.84716
    endloop
  endfacet
  facet normal -0.866026 0 0.5
    outer loop
      vertex -5.66312 -13.8082 4.1145
      vertex -6.39482 -23.25 2.84716
      vertex -5.66312 -23.25 4.1145
    endloop
  endfacet
  facet normal -0.743145 0 0.66913
    outer loop
      vertex -5.66312 -23.25 4.1145
      vertex -4.68391 -14.2442 5.20201
      vertex -5.66312 -13.8082 4.1145
    endloop
  endfacet
  facet normal -0.743145 0 0.66913
    outer loop
      vertex -4.68391 -14.2442 5.20201
      vertex -5.66312 -23.25 4.1145
      vertex -4.68391 -23.25 5.20201
    endloop
  endfacet
  facet normal -0.951056 0 0.309017
    outer loop
      vertex -6.84703 -23.25 1.45538
      vertex -6.39482 -13.4824 2.84716
      vertex -6.84703 -13.2811 1.45538
    endloop
  endfacet
  facet normal -0.951056 0 0.309017
    outer loop
      vertex -6.39482 -13.4824 2.84716
      vertex -6.84703 -23.25 1.45538
      vertex -6.39482 -23.25 2.84716
    endloop
  endfacet
  facet normal 0 -1 0
    outer loop
      vertex -1.0306 -23.25 5.40258
      vertex -0.731699 -23.25 6.96165
      vertex -2.16312 -23.25 6.6574
    endloop
  endfacet
  facet normal -0 -1 0
    outer loop
      vertex 0.345347 -23.25 5.48915
      vertex -0.731699 -23.25 6.96165
      vertex -1.0306 -23.25 5.40258
    endloop
  endfacet
  facet normal 0 -1 0
    outer loop
      vertex -2.34179 -23.25 4.97655
      vertex -2.16312 -23.25 6.6574
      vertex -3.5 -23.25 6.06218
    endloop
  endfacet
  facet normal 0 -1 0
    outer loop
      vertex -0.731699 -23.25 6.96165
      vertex 0.345347 -23.25 5.48915
      vertex 0.731699 -23.25 6.96165
    endloop
  endfacet
  facet normal 0 -1 0
    outer loop
      vertex 0.731699 -23.25 6.96165
      vertex 1.69959 -23.25 5.23081
      vertex 2.16312 -23.25 6.6574
    endloop
  endfacet
  facet normal 0 -1 0
    outer loop
      vertex 1.69959 -23.25 5.23081
      vertex 0.731699 -23.25 6.96165
      vertex 0.345347 -23.25 5.48915
    endloop
  endfacet
  facet normal 0 -1 0
    outer loop
      vertex -3.50583 -23.25 4.23782
      vertex -3.5 -23.25 6.06218
      vertex -4.68391 -23.25 5.20201
    endloop
  endfacet
  facet normal 0 -1 -0
    outer loop
      vertex -2.16312 -23.25 6.6574
      vertex -2.34179 -23.25 4.97655
      vertex -1.0306 -23.25 5.40258
    endloop
  endfacet
  facet normal 0 -1 -0
    outer loop
      vertex -3.5 -23.25 6.06218
      vertex -3.50583 -23.25 4.23782
      vertex -2.34179 -23.25 4.97655
    endloop
  endfacet
  facet normal 0 -1 0
    outer loop
      vertex -4.44959 -23.25 3.23282
      vertex -4.68391 -23.25 5.20201
      vertex -5.66312 -23.25 4.1145
    endloop
  endfacet
  facet normal 0 -1 0
    outer loop
      vertex -4.68391 -23.25 5.20201
      vertex -4.44959 -23.25 3.23282
      vertex -3.50583 -23.25 4.23782
    endloop
  endfacet
  facet normal 0 -1 0
    outer loop
      vertex -6.39482 -23.25 2.84716
      vertex -4.44959 -23.25 3.23282
      vertex -5.66312 -23.25 4.1145
    endloop
  endfacet
  facet normal 0 -1 0
    outer loop
      vertex -6.39482 -23.25 2.84716
      vertex -5.11377 -23.25 2.02468
      vertex -4.44959 -23.25 3.23282
    endloop
  endfacet
  facet normal 0 -1 0
    outer loop
      vertex -6.84703 -23.25 1.45538
      vertex -5.11377 -23.25 2.02468
      vertex -6.39482 -23.25 2.84716
    endloop
  endfacet
  facet normal 0 -1 0
    outer loop
      vertex -6.84703 -23.25 1.45538
      vertex -5.45663 -23.25 0.689332
      vertex -5.11377 -23.25 2.02468
    endloop
  endfacet
  facet normal 0 -1 0
    outer loop
      vertex -7 -23.25 1.11022e-15
      vertex -5.45663 -23.25 0.689332
      vertex -6.84703 -23.25 1.45538
    endloop
  endfacet
  facet normal 0 -1 0
    outer loop
      vertex -7 -23.25 1.11022e-15
      vertex -5.45663 -23.25 -0.689332
      vertex -5.45663 -23.25 0.689332
    endloop
  endfacet
  facet normal 0 -1 0
    outer loop
      vertex -6.84703 -23.25 -1.45538
      vertex -5.45663 -23.25 -0.689332
      vertex -7 -23.25 1.11022e-15
    endloop
  endfacet
  facet normal 0 -1 0
    outer loop
      vertex -6.84703 -23.25 -1.45538
      vertex -5.11377 -23.25 -2.02468
      vertex -5.45663 -23.25 -0.689332
    endloop
  endfacet
  facet normal 0 -1 0
    outer loop
      vertex -6.39482 -23.25 -2.84716
      vertex -5.11377 -23.25 -2.02468
      vertex -6.84703 -23.25 -1.45538
    endloop
  endfacet
  facet normal 0 -1 0
    outer loop
      vertex -6.39482 -23.25 -2.84716
      vertex -4.44959 -23.25 -3.23282
      vertex -5.11377 -23.25 -2.02468
    endloop
  endfacet
  facet normal 0 -1 0
    outer loop
      vertex -5.66312 -23.25 -4.1145
      vertex -4.44959 -23.25 -3.23282
      vertex -6.39482 -23.25 -2.84716
    endloop
  endfacet
  facet normal 0 -1 0
    outer loop
      vertex -4.68391 -23.25 -5.20201
      vertex -4.44959 -23.25 -3.23282
      vertex -5.66312 -23.25 -4.1145
    endloop
  endfacet
  facet normal 0 -1 -0
    outer loop
      vertex -4.44959 -23.25 -3.23282
      vertex -4.68391 -23.25 -5.20201
      vertex -3.50583 -23.25 -4.23782
    endloop
  endfacet
  facet normal 0 -1 0
    outer loop
      vertex -3.5 -23.25 -6.06218
      vertex -3.50583 -23.25 -4.23782
      vertex -4.68391 -23.25 -5.20201
    endloop
  endfacet
  facet normal 0 -1 0
    outer loop
      vertex -3.50583 -23.25 -4.23782
      vertex -3.5 -23.25 -6.06218
      vertex -2.34179 -23.25 -4.97655
    endloop
  endfacet
  facet normal 0 -1 0
    outer loop
      vertex -2.16312 -23.25 -6.6574
      vertex -2.34179 -23.25 -4.97655
      vertex -3.5 -23.25 -6.06218
    endloop
  endfacet
  facet normal 0 -1 0
    outer loop
      vertex -2.34179 -23.25 -4.97655
      vertex -2.16312 -23.25 -6.6574
      vertex -1.0306 -23.25 -5.40258
    endloop
  endfacet
  facet normal 0 -1 -0
    outer loop
      vertex 2.16312 -23.25 6.6574
      vertex 1.69959 -23.25 5.23081
      vertex 3.5 -23.25 6.06218
    endloop
  endfacet
  facet normal 0 -1 0
    outer loop
      vertex 2.94705 -23.25 4.6438
      vertex 3.5 -23.25 6.06218
      vertex 1.69959 -23.25 5.23081
    endloop
  endfacet
  facet normal 0 -1 -0
    outer loop
      vertex 3.5 -23.25 6.06218
      vertex 2.94705 -23.25 4.6438
      vertex 4.68391 -23.25 5.20201
    endloop
  endfacet
  facet normal 0 -1 0
    outer loop
      vertex 4.00933 -23.25 3.76501
      vertex 4.68391 -23.25 5.20201
      vertex 2.94705 -23.25 4.6438
    endloop
  endfacet
  facet normal 0 -1 -0
    outer loop
      vertex 4.68391 -23.25 5.20201
      vertex 4.00933 -23.25 3.76501
      vertex 5.66312 -23.25 4.1145
    endloop
  endfacet
  facet normal 0 -1 0
    outer loop
      vertex 4.81969 -23.25 2.64964
      vertex 5.66312 -23.25 4.1145
      vertex 4.00933 -23.25 3.76501
    endloop
  endfacet
  facet normal 0 -1 -0
    outer loop
      vertex 5.66312 -23.25 4.1145
      vertex 4.81969 -23.25 2.64964
      vertex 6.39482 -23.25 2.84716
    endloop
  endfacet
  facet normal 0 -1 0
    outer loop
      vertex 5.32721 -23.25 1.36779
      vertex 6.39482 -23.25 2.84716
      vertex 4.81969 -23.25 2.64964
    endloop
  endfacet
  facet normal 0 -1 -0
    outer loop
      vertex 6.39482 -23.25 2.84716
      vertex 5.32721 -23.25 1.36779
      vertex 6.84703 -23.25 1.45538
    endloop
  endfacet
  facet normal 0 -1 0
    outer loop
      vertex 5.5 -23.25 1.11022e-15
      vertex 6.84703 -23.25 1.45538
      vertex 5.32721 -23.25 1.36779
    endloop
  endfacet
  facet normal 0 -1 0
    outer loop
      vertex 5.5 -23.25 1.11022e-15
      vertex 7 -23.25 1.11022e-15
      vertex 6.84703 -23.25 1.45538
    endloop
  endfacet
  facet normal 0 -1 0
    outer loop
      vertex 6.84703 -23.25 -1.45538
      vertex 5.5 -23.25 1.11022e-15
      vertex 5.32721 -23.25 -1.36779
    endloop
  endfacet
  facet normal 0 -1 0
    outer loop
      vertex 5.5 -23.25 1.11022e-15
      vertex 6.84703 -23.25 -1.45538
      vertex 7 -23.25 1.11022e-15
    endloop
  endfacet
  facet normal 0 -1 0
    outer loop
      vertex 6.39482 -23.25 -2.84716
      vertex 5.32721 -23.25 -1.36779
      vertex 4.81969 -23.25 -2.64964
    endloop
  endfacet
  facet normal 0 -1 0
    outer loop
      vertex 5.32721 -23.25 -1.36779
      vertex 6.39482 -23.25 -2.84716
      vertex 6.84703 -23.25 -1.45538
    endloop
  endfacet
  facet normal 0 -1 0
    outer loop
      vertex 5.66312 -23.25 -4.1145
      vertex 4.81969 -23.25 -2.64964
      vertex 4.00933 -23.25 -3.76501
    endloop
  endfacet
  facet normal 0 -1 0
    outer loop
      vertex 4.81969 -23.25 -2.64964
      vertex 5.66312 -23.25 -4.1145
      vertex 6.39482 -23.25 -2.84716
    endloop
  endfacet
  facet normal 0 -1 0
    outer loop
      vertex 4.68391 -23.25 -5.20201
      vertex 4.00933 -23.25 -3.76501
      vertex 2.94705 -23.25 -4.6438
    endloop
  endfacet
  facet normal 0 -1 0
    outer loop
      vertex 4.00933 -23.25 -3.76501
      vertex 4.68391 -23.25 -5.20201
      vertex 5.66312 -23.25 -4.1145
    endloop
  endfacet
  facet normal 0 -1 0
    outer loop
      vertex 3.5 -23.25 -6.06218
      vertex 2.94705 -23.25 -4.6438
      vertex 1.69959 -23.25 -5.23081
    endloop
  endfacet
  facet normal 0 -1 0
    outer loop
      vertex 0.731699 -23.25 -6.96165
      vertex 1.69959 -23.25 -5.23081
      vertex 0.345347 -23.25 -5.48915
    endloop
  endfacet
  facet normal 0 -1 0
    outer loop
      vertex -0.731699 -23.25 -6.96165
      vertex -1.0306 -23.25 -5.40258
      vertex -2.16312 -23.25 -6.6574
    endloop
  endfacet
  facet normal 0 -1 0
    outer loop
      vertex 2.94705 -23.25 -4.6438
      vertex 3.5 -23.25 -6.06218
      vertex 4.68391 -23.25 -5.20201
    endloop
  endfacet
  facet normal 0 -1 0
    outer loop
      vertex -1.0306 -23.25 -5.40258
      vertex -0.731699 -23.25 -6.96165
      vertex 0.345347 -23.25 -5.48915
    endloop
  endfacet
  facet normal 0 -1 0
    outer loop
      vertex 1.69959 -23.25 -5.23081
      vertex 2.16312 -23.25 -6.6574
      vertex 3.5 -23.25 -6.06218
    endloop
  endfacet
  facet normal 0 -1 0
    outer loop
      vertex 0.731699 -23.25 -6.96165
      vertex 0.345347 -23.25 -5.48915
      vertex -0.731699 -23.25 -6.96165
    endloop
  endfacet
  facet normal 0 -1 -0
    outer loop
      vertex 1.69959 -23.25 -5.23081
      vertex 0.731699 -23.25 -6.96165
      vertex 2.16312 -23.25 -6.6574
    endloop
  endfacet
  facet normal -0.406737 0 0.913545
    outer loop
      vertex -3.5 -23.25 6.06218
      vertex -2.16312 -14.7913 6.6574
      vertex -3.5 -14.5072 6.06218
    endloop
  endfacet
  facet normal -0.406737 0 0.913545
    outer loop
      vertex -2.16312 -14.7913 6.6574
      vertex -3.5 -23.25 6.06218
      vertex -2.16312 -23.25 6.6574
    endloop
  endfacet
  facet normal 0.994522 -2.321e-17 -0.104529
    outer loop
      vertex 7 -23.25 1.11022e-15
      vertex 6.91688 -13.25 -0.790786
      vertex 7 -13.25 -1.11022e-15
    endloop
  endfacet
  facet normal 0.994522 -2.22701e-08 -0.104529
    outer loop
      vertex 6.84703 -23.25 -1.45538
      vertex 6.91688 -13.25 -0.790786
      vertex 7 -23.25 1.11022e-15
    endloop
  endfacet
  facet normal 0.994522 0 -0.104529
    outer loop
      vertex 6.91688 -13.25 -0.790786
      vertex 6.84703 -23.25 -1.45538
      vertex 6.84703 -13.2811 -1.45538
    endloop
  endfacet
  facet normal 0 1 -0
    outer loop
      vertex -6.91688 -13.25 -0.790786
      vertex -7 -13.25 -1.11022e-15
      vertex -6.91688 -13.25 0.790786
    endloop
  endfacet
  facet normal 0 1 0
    outer loop
      vertex 7 -13.25 -1.11022e-15
      vertex 6.91688 -13.25 -0.790786
      vertex 6.91688 -13.25 0.790786
    endloop
  endfacet
  facet normal 0.207912 0 -0.978148
    outer loop
      vertex 2.16312 -23.25 -6.6574
      vertex 1.56793 -14.9178 -6.78391
      vertex 2.16312 -14.7913 -6.6574
    endloop
  endfacet
  facet normal 0.207912 -2.02953e-08 -0.978148
    outer loop
      vertex 0.731699 -23.25 -6.96165
      vertex 1.56793 -14.9178 -6.78391
      vertex 2.16312 -23.25 -6.6574
    endloop
  endfacet
  facet normal 0.207911 0 -0.978148
    outer loop
      vertex 1.56793 -14.9178 -6.78391
      vertex 0.731699 -23.25 -6.96165
      vertex 0.731699 -14.9178 -6.96165
    endloop
  endfacet
  facet normal 0.743145 0 -0.66913
    outer loop
      vertex 5.66312 -23.25 -4.1145
      vertex 4.68391 -14.2442 -5.20201
      vertex 5.66312 -13.8082 -4.1145
    endloop
  endfacet
  facet normal 0.743145 0 -0.66913
    outer loop
      vertex 4.68391 -14.2442 -5.20201
      vertex 5.66312 -23.25 -4.1145
      vertex 4.68391 -23.25 -5.20201
    endloop
  endfacet
  facet normal 0.951056 0 -0.309017
    outer loop
      vertex 6.84703 -23.25 -1.45538
      vertex 6.39482 -13.4824 -2.84716
      vertex 6.84703 -13.2811 -1.45538
    endloop
  endfacet
  facet normal 0.951056 0 -0.309017
    outer loop
      vertex 6.39482 -13.4824 -2.84716
      vertex 6.84703 -23.25 -1.45538
      vertex 6.39482 -23.25 -2.84716
    endloop
  endfacet
  facet normal 0.866026 0 -0.5
    outer loop
      vertex 6.39482 -23.25 -2.84716
      vertex 5.66312 -13.8082 -4.1145
      vertex 6.39482 -13.4824 -2.84716
    endloop
  endfacet
  facet normal 0.866026 0 -0.5
    outer loop
      vertex 5.66312 -13.8082 -4.1145
      vertex 6.39482 -23.25 -2.84716
      vertex 5.66312 -23.25 -4.1145
    endloop
  endfacet
  facet normal -0.587786 0 -0.809017
    outer loop
      vertex -4.68391 -23.25 -5.20201
      vertex -3.5 -14.5072 -6.06218
      vertex -3.5 -23.25 -6.06218
    endloop
  endfacet
  facet normal -0.587785 -8.32914e-09 -0.809017
    outer loop
      vertex -3.5 -14.5072 -6.06218
      vertex -4.68391 -23.25 -5.20201
      vertex -4.63525 -14.2658 -5.23737
    endloop
  endfacet
  facet normal -0.587787 0 -0.809016
    outer loop
      vertex -4.63525 -14.2658 -5.23737
      vertex -4.68391 -23.25 -5.20201
      vertex -4.68391 -14.2442 -5.20201
    endloop
  endfacet
  facet normal -0.866026 0 -0.5
    outer loop
      vertex -6.39482 -23.25 -2.84716
      vertex -5.66312 -13.8082 -4.1145
      vertex -5.66312 -23.25 -4.1145
    endloop
  endfacet
  facet normal -0.866026 0 -0.5
    outer loop
      vertex -5.66312 -13.8082 -4.1145
      vertex -6.39482 -23.25 -2.84716
      vertex -6.39482 -13.4824 -2.84716
    endloop
  endfacet
  facet normal 0.587787 0 -0.809016
    outer loop
      vertex 4.68391 -23.25 -5.20201
      vertex 4.63525 -14.2658 -5.23737
      vertex 4.68391 -14.2442 -5.20201
    endloop
  endfacet
  facet normal 0.587786 0 -0.809017
    outer loop
      vertex 3.5 -14.5072 -6.06218
      vertex 4.68391 -23.25 -5.20201
      vertex 3.5 -23.25 -6.06218
    endloop
  endfacet
  facet normal 0.587785 -8.32914e-09 -0.809017
    outer loop
      vertex 4.68391 -23.25 -5.20201
      vertex 3.5 -14.5072 -6.06218
      vertex 4.63525 -14.2658 -5.23737
    endloop
  endfacet
  facet normal 0.406736 0 -0.913546
    outer loop
      vertex 2.16312 -14.7913 -6.6574
      vertex 3.5 -23.25 -6.06218
      vertex 2.16312 -23.25 -6.6574
    endloop
  endfacet
  facet normal 0.406736 0 -0.913546
    outer loop
      vertex 3.5 -23.25 -6.06218
      vertex 2.16312 -14.7913 -6.6574
      vertex 3.5 -14.5072 -6.06218
    endloop
  endfacet
  facet normal -0.207911 0 -0.978148
    outer loop
      vertex -0.731699 -23.25 -6.96165
      vertex -1.56793 -14.9178 -6.78391
      vertex -0.731699 -14.9178 -6.96165
    endloop
  endfacet
  facet normal -0.207912 -2.02953e-08 -0.978148
    outer loop
      vertex -2.16312 -23.25 -6.6574
      vertex -1.56793 -14.9178 -6.78391
      vertex -0.731699 -23.25 -6.96165
    endloop
  endfacet
  facet normal -0.207912 0 -0.978148
    outer loop
      vertex -1.56793 -14.9178 -6.78391
      vertex -2.16312 -23.25 -6.6574
      vertex -2.16312 -14.7913 -6.6574
    endloop
  endfacet
  facet normal -0.406736 0 -0.913546
    outer loop
      vertex -3.5 -23.25 -6.06218
      vertex -2.16312 -14.7913 -6.6574
      vertex -2.16312 -23.25 -6.6574
    endloop
  endfacet
  facet normal -0.406736 0 -0.913546
    outer loop
      vertex -2.16312 -14.7913 -6.6574
      vertex -3.5 -23.25 -6.06218
      vertex -3.5 -14.5072 -6.06218
    endloop
  endfacet
  facet normal -0.743145 0 -0.66913
    outer loop
      vertex -5.66312 -23.25 -4.1145
      vertex -4.68391 -14.2442 -5.20201
      vertex -4.68391 -23.25 -5.20201
    endloop
  endfacet
  facet normal -0.743145 0 -0.66913
    outer loop
      vertex -4.68391 -14.2442 -5.20201
      vertex -5.66312 -23.25 -4.1145
      vertex -5.66312 -13.8082 -4.1145
    endloop
  endfacet
  facet normal -0.951056 0 -0.309017
    outer loop
      vertex -6.84703 -23.25 -1.45538
      vertex -6.39482 -13.4824 -2.84716
      vertex -6.39482 -23.25 -2.84716
    endloop
  endfacet
  facet normal -0.951056 0 -0.309017
    outer loop
      vertex -6.39482 -13.4824 -2.84716
      vertex -6.84703 -23.25 -1.45538
      vertex -6.84703 -13.2811 -1.45538
    endloop
  endfacet
  facet normal -0.994522 0 -0.104529
    outer loop
      vertex -6.84703 -23.25 -1.45538
      vertex -6.91688 -13.25 -0.790786
      vertex -6.84703 -13.2811 -1.45538
    endloop
  endfacet
  facet normal -0.994522 -2.22701e-08 -0.104529
    outer loop
      vertex -6.91688 -13.25 -0.790786
      vertex -6.84703 -23.25 -1.45538
      vertex -7 -23.25 1.11022e-15
    endloop
  endfacet
  facet normal -0.994522 -2.44345e-17 -0.104529
    outer loop
      vertex -6.91688 -13.25 -0.790786
      vertex -7 -23.25 1.11022e-15
      vertex -7 -13.25 -1.11022e-15
    endloop
  endfacet
  facet normal -0.992115 -2.78297e-17 -0.125334
    outer loop
      vertex 5.5 -23.25 1.11022e-15
      vertex 5.32721 -13.9578 1.36779
      vertex 5.5 -13.8808 -9.70149e-16
    endloop
  endfacet
  facet normal -0.992115 -0 -0.125334
    outer loop
      vertex 5.32721 -13.9578 1.36779
      vertex 5.5 -23.25 1.11022e-15
      vertex 5.32721 -23.25 1.36779
    endloop
  endfacet
  facet normal 1 -0 0
    outer loop
      vertex -5.45663 -23.25 0.689332
      vertex -5.45663 -13.9001 -0.689332
      vertex -5.45663 -13.9001 0.689332
    endloop
  endfacet
  facet normal 1 0 0
    outer loop
      vertex -5.45663 -13.9001 -0.689332
      vertex -5.45663 -23.25 0.689332
      vertex -5.45663 -23.25 -0.689332
    endloop
  endfacet
  facet normal 0.0627904 0 -0.998027
    outer loop
      vertex -1.0306 -23.25 5.40258
      vertex 0.345347 -14.9178 5.48915
      vertex 0.345347 -23.25 5.48915
    endloop
  endfacet
  facet normal 0.0627904 0 -0.998027
    outer loop
      vertex 0.345347 -14.9178 5.48915
      vertex -1.0306 -23.25 5.40258
      vertex -1.0306 -14.9178 5.40258
    endloop
  endfacet
  facet normal 0.728969 -0 0.684547
    outer loop
      vertex -4.44959 -23.25 -3.23282
      vertex -3.50583 -14.5059 -4.23782
      vertex -4.44959 -14.3053 -3.23282
    endloop
  endfacet
  facet normal 0.728969 0 0.684547
    outer loop
      vertex -3.50583 -14.5059 -4.23782
      vertex -4.44959 -23.25 -3.23282
      vertex -3.50583 -23.25 -4.23782
    endloop
  endfacet
  facet normal -0.637424 -0 -0.770513
    outer loop
      vertex 2.94705 -14.6247 4.6438
      vertex 4.00933 -23.25 3.76501
      vertex 2.94705 -23.25 4.6438
    endloop
  endfacet
  facet normal -0.637424 0 -0.770513
    outer loop
      vertex 4.00933 -23.25 3.76501
      vertex 2.94705 -14.6247 4.6438
      vertex 4.00933 -14.3989 3.76501
    endloop
  endfacet
  facet normal -0.425779 -0 -0.904827
    outer loop
      vertex 1.69959 -14.8898 5.23081
      vertex 2.94705 -23.25 4.6438
      vertex 1.69959 -23.25 5.23081
    endloop
  endfacet
  facet normal -0.425779 0 -0.904827
    outer loop
      vertex 2.94705 -23.25 4.6438
      vertex 1.69959 -14.8898 5.23081
      vertex 2.94705 -14.6247 4.6438
    endloop
  endfacet
  facet normal 0.728969 0 -0.684547
    outer loop
      vertex -4.44959 -23.25 3.23282
      vertex -3.50583 -14.5059 4.23782
      vertex -3.50583 -23.25 4.23782
    endloop
  endfacet
  facet normal 0.728969 0 -0.684547
    outer loop
      vertex -3.50583 -14.5059 4.23782
      vertex -4.44959 -23.25 3.23282
      vertex -4.44959 -14.3053 3.23282
    endloop
  endfacet
  facet normal 0.876306 0 -0.481754
    outer loop
      vertex -5.11377 -23.25 2.02468
      vertex -4.44959 -14.3053 3.23282
      vertex -4.44959 -23.25 3.23282
    endloop
  endfacet
  facet normal 0.876306 2.12388e-09 -0.481754
    outer loop
      vertex -4.44959 -14.3053 3.23282
      vertex -5.11377 -23.25 2.02468
      vertex -4.63525 -14.2658 2.8951
    endloop
  endfacet
  facet normal 0.876306 0 -0.481754
    outer loop
      vertex -4.63525 -14.2658 2.8951
      vertex -5.11377 -23.25 2.02468
      vertex -5.11377 -14.0528 2.02468
    endloop
  endfacet
  facet normal 0.535826 0 -0.844328
    outer loop
      vertex -3.50583 -23.25 4.23782
      vertex -2.34179 -14.7533 4.97655
      vertex -2.34179 -23.25 4.97655
    endloop
  endfacet
  facet normal 0.535826 0 -0.844328
    outer loop
      vertex -2.34179 -14.7533 4.97655
      vertex -3.50583 -23.25 4.23782
      vertex -3.50583 -14.5059 4.23782
    endloop
  endfacet
  facet normal 0.968583 -0 0.24869
    outer loop
      vertex -5.45663 -23.25 -0.689332
      vertex -5.11377 -14.0528 -2.02468
      vertex -5.45663 -13.9001 -0.689332
    endloop
  endfacet
  facet normal 0.968583 0 0.24869
    outer loop
      vertex -5.11377 -14.0528 -2.02468
      vertex -5.45663 -23.25 -0.689332
      vertex -5.11377 -23.25 -2.02468
    endloop
  endfacet
  facet normal -0.809017 0 -0.587785
    outer loop
      vertex 4.81969 -23.25 2.64964
      vertex 4.63525 -14.2658 2.90349
      vertex 4.81969 -14.1837 2.64964
    endloop
  endfacet
  facet normal -0.809017 8.69147e-09 -0.587785
    outer loop
      vertex 4.81969 -23.25 2.64964
      vertex 4.00933 -14.3989 3.76501
      vertex 4.63525 -14.2658 2.90349
    endloop
  endfacet
  facet normal -0.809017 -0 -0.587785
    outer loop
      vertex 4.00933 -14.3989 3.76501
      vertex 4.81969 -23.25 2.64964
      vertex 4.00933 -23.25 3.76501
    endloop
  endfacet
  facet normal -0.929776 0 -0.368125
    outer loop
      vertex 5.32721 -23.25 1.36779
      vertex 4.81969 -14.1837 2.64964
      vertex 5.32721 -13.9578 1.36779
    endloop
  endfacet
  facet normal -0.929776 -0 -0.368125
    outer loop
      vertex 4.81969 -14.1837 2.64964
      vertex 5.32721 -23.25 1.36779
      vertex 4.81969 -23.25 2.64964
    endloop
  endfacet
  facet normal -0.18738 0 -0.982288
    outer loop
      vertex 1.69959 -23.25 5.23081
      vertex 1.56793 -14.9178 5.25593
      vertex 1.69959 -14.8898 5.23081
    endloop
  endfacet
  facet normal -0.187381 -2.62155e-08 -0.982287
    outer loop
      vertex 0.345347 -23.25 5.48915
      vertex 1.56793 -14.9178 5.25593
      vertex 1.69959 -23.25 5.23081
    endloop
  endfacet
  facet normal -0.187381 0 -0.982287
    outer loop
      vertex 1.56793 -14.9178 5.25593
      vertex 0.345347 -23.25 5.48915
      vertex 0.345347 -14.9178 5.48915
    endloop
  endfacet
  facet normal 0.968583 0 -0.24869
    outer loop
      vertex -5.45663 -23.25 0.689332
      vertex -5.11377 -14.0528 2.02468
      vertex -5.11377 -23.25 2.02468
    endloop
  endfacet
  facet normal 0.968583 0 -0.24869
    outer loop
      vertex -5.11377 -14.0528 2.02468
      vertex -5.45663 -23.25 0.689332
      vertex -5.45663 -13.9001 0.689332
    endloop
  endfacet
  facet normal 0.309017 0 -0.951056
    outer loop
      vertex -1.0306 -23.25 5.40258
      vertex -1.56793 -14.9178 5.22799
      vertex -1.0306 -14.9178 5.40258
    endloop
  endfacet
  facet normal 0.309017 -1.4866e-08 -0.951056
    outer loop
      vertex -2.34179 -23.25 4.97655
      vertex -1.56793 -14.9178 5.22799
      vertex -1.0306 -23.25 5.40258
    endloop
  endfacet
  facet normal 0.309017 0 -0.951057
    outer loop
      vertex -1.56793 -14.9178 5.22799
      vertex -2.34179 -23.25 4.97655
      vertex -2.34179 -14.7533 4.97655
    endloop
  endfacet
  facet normal -0.992115 0 0.125334
    outer loop
      vertex 5.5 -23.25 1.11022e-15
      vertex 5.32721 -13.9578 -1.36779
      vertex 5.32721 -23.25 -1.36779
    endloop
  endfacet
  facet normal -0.992115 2.79341e-17 0.125334
    outer loop
      vertex 5.32721 -13.9578 -1.36779
      vertex 5.5 -23.25 1.11022e-15
      vertex 5.5 -13.8808 -9.70149e-16
    endloop
  endfacet
  facet normal -0.18738 0 0.982288
    outer loop
      vertex 1.56793 -14.9178 -5.25593
      vertex 1.69959 -23.25 -5.23081
      vertex 1.69959 -14.8898 -5.23081
    endloop
  endfacet
  facet normal -0.187381 0 0.982287
    outer loop
      vertex 0.345347 -23.25 -5.48915
      vertex 1.56793 -14.9178 -5.25593
      vertex 0.345347 -14.9178 -5.48915
    endloop
  endfacet
  facet normal -0.187381 -2.62155e-08 0.982287
    outer loop
      vertex 1.56793 -14.9178 -5.25593
      vertex 0.345347 -23.25 -5.48915
      vertex 1.69959 -23.25 -5.23081
    endloop
  endfacet
  facet normal 0.535826 -0 0.844328
    outer loop
      vertex -3.50583 -23.25 -4.23782
      vertex -2.34179 -14.7533 -4.97655
      vertex -3.50583 -14.5059 -4.23782
    endloop
  endfacet
  facet normal 0.535826 0 0.844328
    outer loop
      vertex -2.34179 -14.7533 -4.97655
      vertex -3.50583 -23.25 -4.23782
      vertex -2.34179 -23.25 -4.97655
    endloop
  endfacet
  facet normal 0.0627904 0 0.998027
    outer loop
      vertex -1.0306 -14.9178 -5.40258
      vertex 0.345347 -23.25 -5.48915
      vertex 0.345347 -14.9178 -5.48915
    endloop
  endfacet
  facet normal 0.0627904 0 0.998027
    outer loop
      vertex 0.345347 -23.25 -5.48915
      vertex -1.0306 -14.9178 -5.40258
      vertex -1.0306 -23.25 -5.40258
    endloop
  endfacet
  facet normal 0.876306 -0 0.481754
    outer loop
      vertex -5.11377 -23.25 -2.02468
      vertex -4.63525 -14.2658 -2.8951
      vertex -5.11377 -14.0528 -2.02468
    endloop
  endfacet
  facet normal 0.876306 2.12388e-09 0.481754
    outer loop
      vertex -5.11377 -23.25 -2.02468
      vertex -4.44959 -14.3053 -3.23282
      vertex -4.63525 -14.2658 -2.8951
    endloop
  endfacet
  facet normal 0.876306 0 0.481754
    outer loop
      vertex -4.44959 -14.3053 -3.23282
      vertex -5.11377 -23.25 -2.02468
      vertex -4.44959 -23.25 -3.23282
    endloop
  endfacet
  facet normal -0.809017 0 0.587785
    outer loop
      vertex 4.81969 -23.25 -2.64964
      vertex 4.00933 -14.3989 -3.76501
      vertex 4.00933 -23.25 -3.76501
    endloop
  endfacet
  facet normal -0.809017 8.69147e-09 0.587785
    outer loop
      vertex 4.00933 -14.3989 -3.76501
      vertex 4.81969 -23.25 -2.64964
      vertex 4.63525 -14.2658 -2.90349
    endloop
  endfacet
  facet normal -0.809017 0 0.587785
    outer loop
      vertex 4.63525 -14.2658 -2.90349
      vertex 4.81969 -23.25 -2.64964
      vertex 4.81969 -14.1837 -2.64964
    endloop
  endfacet
  facet normal -0.425779 0 0.904827
    outer loop
      vertex 1.69959 -14.8898 -5.23081
      vertex 2.94705 -23.25 -4.6438
      vertex 2.94705 -14.6247 -4.6438
    endloop
  endfacet
  facet normal -0.425779 0 0.904827
    outer loop
      vertex 2.94705 -23.25 -4.6438
      vertex 1.69959 -14.8898 -5.23081
      vertex 1.69959 -23.25 -5.23081
    endloop
  endfacet
  facet normal 0.309017 0 0.951056
    outer loop
      vertex -1.56793 -14.9178 -5.22799
      vertex -1.0306 -23.25 -5.40258
      vertex -1.0306 -14.9178 -5.40258
    endloop
  endfacet
  facet normal 0.309017 -0 0.951057
    outer loop
      vertex -2.34179 -23.25 -4.97655
      vertex -1.56793 -14.9178 -5.22799
      vertex -2.34179 -14.7533 -4.97655
    endloop
  endfacet
  facet normal 0.309017 -1.4866e-08 0.951056
    outer loop
      vertex -1.56793 -14.9178 -5.22799
      vertex -2.34179 -23.25 -4.97655
      vertex -1.0306 -23.25 -5.40258
    endloop
  endfacet
  facet normal -0.929776 0 0.368125
    outer loop
      vertex 5.32721 -23.25 -1.36779
      vertex 4.81969 -14.1837 -2.64964
      vertex 4.81969 -23.25 -2.64964
    endloop
  endfacet
  facet normal -0.929776 0 0.368125
    outer loop
      vertex 4.81969 -14.1837 -2.64964
      vertex 5.32721 -23.25 -1.36779
      vertex 5.32721 -13.9578 -1.36779
    endloop
  endfacet
  facet normal -0.637424 0 0.770513
    outer loop
      vertex 2.94705 -14.6247 -4.6438
      vertex 4.00933 -23.25 -3.76501
      vertex 4.00933 -14.3989 -3.76501
    endloop
  endfacet
  facet normal -0.637424 0 0.770513
    outer loop
      vertex 4.00933 -23.25 -3.76501
      vertex 2.94705 -14.6247 -4.6438
      vertex 2.94705 -23.25 -4.6438
    endloop
  endfacet
  facet normal 0.994522 0.104529 0
    outer loop
      vertex 15 0 7
      vertex 14.6722 3.11868 -7
      vertex 14.6722 3.11868 7
    endloop
  endfacet
  facet normal 0.994522 0.104529 0
    outer loop
      vertex 14.6722 3.11868 -7
      vertex 15 0 7
      vertex 15 0 -7
    endloop
  endfacet
  facet normal -0.994522 0.104529 0
    outer loop
      vertex -15 0 -7
      vertex -14.6722 3.11868 7
      vertex -14.6722 3.11868 -7
    endloop
  endfacet
  facet normal -0.994522 0.104529 0
    outer loop
      vertex -14.6722 3.11868 7
      vertex -15 0 -7
      vertex -15 0 7
    endloop
  endfacet
  facet normal 0.743145 0.669131 0
    outer loop
      vertex 12.1353 8.81678 7
      vertex 10.037 11.1472 -7
      vertex 10.037 11.1472 7
    endloop
  endfacet
  facet normal 0.743145 0.669131 0
    outer loop
      vertex 10.037 11.1472 -7
      vertex 12.1353 8.81678 7
      vertex 12.1353 8.81678 -7
    endloop
  endfacet
  facet normal -0.587785 0.809017 0
    outer loop
      vertex -8 12.6271 -7
      vertex -10.037 11.1472 7
      vertex -8 12.6271 7
    endloop
  endfacet
  facet normal -0.587785 0.809017 0
    outer loop
      vertex -10.037 11.1472 7
      vertex -8 12.6271 -7
      vertex -10.037 11.1472 -7
    endloop
  endfacet
  facet normal 0 0 -1
    outer loop
      vertex 13.25 0 -7
      vertex 15 0 -7
      vertex 14.6722 -3.11868 -7
    endloop
  endfacet
  facet normal 0 0 -1
    outer loop
      vertex 12.9605 -2.75483 -7
      vertex 14.6722 -3.11868 -7
      vertex 13.7032 -6.10105 -7
    endloop
  endfacet
  facet normal 0 0 -1
    outer loop
      vertex 15 0 -7
      vertex 13.25 0 -7
      vertex 14.6722 3.11868 -7
    endloop
  endfacet
  facet normal 0 0 -1
    outer loop
      vertex 12.9605 2.75483 -7
      vertex 14.6722 3.11868 -7
      vertex 13.25 0 -7
    endloop
  endfacet
  facet normal 0 0 -1
    outer loop
      vertex 14.6722 -3.11868 -7
      vertex 12.9605 -2.75483 -7
      vertex 13.25 0 -7
    endloop
  endfacet
  facet normal 0 0 -1
    outer loop
      vertex 12.1045 -5.38926 -7
      vertex 13.7032 -6.10105 -7
      vertex 12.1353 -8.81678 -7
    endloop
  endfacet
  facet normal 0 0 -1
    outer loop
      vertex 13.7032 -6.10105 -7
      vertex 12.1045 -5.38926 -7
      vertex 12.9605 -2.75483 -7
    endloop
  endfacet
  facet normal 0 0 -1
    outer loop
      vertex 12.1353 -8.81678 -7
      vertex 10.7195 -7.78815 -7
      vertex 12.1045 -5.38926 -7
    endloop
  endfacet
  facet normal 0 0 -1
    outer loop
      vertex 10.037 -11.1472 -7
      vertex 10.7195 -7.78815 -7
      vertex 12.1353 -8.81678 -7
    endloop
  endfacet
  facet normal 0 0 -1
    outer loop
      vertex 10.037 -11.1472 -7
      vertex 8.86598 -9.84667 -7
      vertex 10.7195 -7.78815 -7
    endloop
  endfacet
  facet normal 0 0 -1
    outer loop
      vertex 7.5 -12.9904 -7
      vertex 8.86598 -9.84667 -7
      vertex 10.037 -11.1472 -7
    endloop
  endfacet
  facet normal 0 0 -1
    outer loop
      vertex 7.5 -12.9904 -7
      vertex 6.625 -11.4748 -7
      vertex 8.86598 -9.84667 -7
    endloop
  endfacet
  facet normal 0 0 -1
    outer loop
      vertex 4.63525 -14.2658 -7
      vertex 6.625 -11.4748 -7
      vertex 7.5 -12.9904 -7
    endloop
  endfacet
  facet normal 0 0 -1
    outer loop
      vertex 4.63525 -14.2658 -7
      vertex 4.09447 -12.6015 -7
      vertex 6.625 -11.4748 -7
    endloop
  endfacet
  facet normal 0 0 -1
    outer loop
      vertex 1.56793 -14.9178 -7
      vertex 4.09447 -12.6015 -7
      vertex 4.63525 -14.2658 -7
    endloop
  endfacet
  facet normal 0 0 -1
    outer loop
      vertex 1.56793 -14.9178 -7
      vertex 1.385 -13.1774 -7
      vertex 4.09447 -12.6015 -7
    endloop
  endfacet
  facet normal 0 0 -1
    outer loop
      vertex 1.56793 -14.9178 -7
      vertex -1.385 -13.1774 -7
      vertex 1.385 -13.1774 -7
    endloop
  endfacet
  facet normal 0 0 -1
    outer loop
      vertex -1.56793 -14.9178 -7
      vertex -1.385 -13.1774 -7
      vertex 1.56793 -14.9178 -7
    endloop
  endfacet
  facet normal 0 0 -1
    outer loop
      vertex -1.56793 -14.9178 -7
      vertex -4.09447 -12.6015 -7
      vertex -1.385 -13.1774 -7
    endloop
  endfacet
  facet normal 0 0 -1
    outer loop
      vertex -4.63525 -14.2658 -7
      vertex -4.09447 -12.6015 -7
      vertex -1.56793 -14.9178 -7
    endloop
  endfacet
  facet normal 0 0 -1
    outer loop
      vertex -4.63525 -14.2658 -7
      vertex -6.625 -11.4748 -7
      vertex -4.09447 -12.6015 -7
    endloop
  endfacet
  facet normal 0 0 -1
    outer loop
      vertex -7.5 -12.9904 -7
      vertex -6.625 -11.4748 -7
      vertex -4.63525 -14.2658 -7
    endloop
  endfacet
  facet normal 0 0 -1
    outer loop
      vertex -7.5 -12.9904 -7
      vertex -8.86598 -9.84667 -7
      vertex -6.625 -11.4748 -7
    endloop
  endfacet
  facet normal 0 0 -1
    outer loop
      vertex -10.037 -11.1472 -7
      vertex -8.86598 -9.84667 -7
      vertex -7.5 -12.9904 -7
    endloop
  endfacet
  facet normal 0 0 -1
    outer loop
      vertex -10.037 -11.1472 -7
      vertex -10.7195 -7.78815 -7
      vertex -8.86598 -9.84667 -7
    endloop
  endfacet
  facet normal 0 0 -1
    outer loop
      vertex -12.1353 -8.81678 -7
      vertex -10.7195 -7.78815 -7
      vertex -10.037 -11.1472 -7
    endloop
  endfacet
  facet normal -0 0 -1
    outer loop
      vertex -10.7195 -7.78815 -7
      vertex -12.1353 -8.81678 -7
      vertex -12.1045 -5.38926 -7
    endloop
  endfacet
  facet normal 0 0 -1
    outer loop
      vertex -13.7032 -6.10105 -7
      vertex -12.1045 -5.38926 -7
      vertex -12.1353 -8.81678 -7
    endloop
  endfacet
  facet normal 0 0 -1
    outer loop
      vertex -14.6722 -3.11868 -7
      vertex -12.9605 -2.75483 -7
      vertex -13.7032 -6.10105 -7
    endloop
  endfacet
  facet normal -0 0 -1
    outer loop
      vertex -12.1045 -5.38926 -7
      vertex -13.7032 -6.10105 -7
      vertex -12.9605 -2.75483 -7
    endloop
  endfacet
  facet normal -0 0 -1
    outer loop
      vertex 14.6722 3.11868 -7
      vertex 12.9605 2.75483 -7
      vertex 13.7032 6.10105 -7
    endloop
  endfacet
  facet normal 0 0 -1
    outer loop
      vertex 12.1045 5.38926 -7
      vertex 13.7032 6.10105 -7
      vertex 12.9605 2.75483 -7
    endloop
  endfacet
  facet normal -0 0 -1
    outer loop
      vertex 13.7032 6.10105 -7
      vertex 12.1045 5.38926 -7
      vertex 12.1353 8.81678 -7
    endloop
  endfacet
  facet normal 0 0 -1
    outer loop
      vertex 10.7195 7.78815 -7
      vertex 12.1353 8.81678 -7
      vertex 12.1045 5.38926 -7
    endloop
  endfacet
  facet normal 0 0 -1
    outer loop
      vertex 10 8.58721 -7
      vertex 12.1353 8.81678 -7
      vertex 10.7195 7.78815 -7
    endloop
  endfacet
  facet normal -0 0 -1
    outer loop
      vertex 12.1353 8.81678 -7
      vertex 10 8.58721 -7
      vertex 10.037 11.1472 -7
    endloop
  endfacet
  facet normal -0 0 -1
    outer loop
      vertex 10.037 11.1472 -7
      vertex 10 8.58721 -7
      vertex 10 11.174 -7
    endloop
  endfacet
  facet normal 0 0 -1
    outer loop
      vertex -10.037 11.1472 -7
      vertex -8 10.4758 -7
      vertex -8.86598 9.84667 -7
    endloop
  endfacet
  facet normal 0 0 -1
    outer loop
      vertex -8 10.4758 -7
      vertex -10.037 11.1472 -7
      vertex -8 12.6271 -7
    endloop
  endfacet
  facet normal 0 0 -1
    outer loop
      vertex -10.7195 7.78815 -7
      vertex -10.037 11.1472 -7
      vertex -8.86598 9.84667 -7
    endloop
  endfacet
  facet normal 0 0 -1
    outer loop
      vertex -12.1353 8.81678 -7
      vertex -10.7195 7.78815 -7
      vertex -12.1045 5.38926 -7
    endloop
  endfacet
  facet normal 0 0 -1
    outer loop
      vertex -10.7195 7.78815 -7
      vertex -12.1353 8.81678 -7
      vertex -10.037 11.1472 -7
    endloop
  endfacet
  facet normal 0 0 -1
    outer loop
      vertex -13.7032 6.10105 -7
      vertex -12.1045 5.38926 -7
      vertex -12.9605 2.75483 -7
    endloop
  endfacet
  facet normal 0 0 -1
    outer loop
      vertex -12.1045 5.38926 -7
      vertex -13.7032 6.10105 -7
      vertex -12.1353 8.81678 -7
    endloop
  endfacet
  facet normal 0 0 -1
    outer loop
      vertex -14.6722 3.11868 -7
      vertex -12.9605 2.75483 -7
      vertex -13.25 0 -7
    endloop
  endfacet
  facet normal -0 0 -1
    outer loop
      vertex -12.9605 -2.75483 -7
      vertex -14.6722 -3.11868 -7
      vertex -13.25 0 -7
    endloop
  endfacet
  facet normal 0 0 -1
    outer loop
      vertex -15 0 -7
      vertex -13.25 0 -7
      vertex -14.6722 -3.11868 -7
    endloop
  endfacet
  facet normal 0 0 -1
    outer loop
      vertex -12.9605 2.75483 -7
      vertex -14.6722 3.11868 -7
      vertex -13.7032 6.10105 -7
    endloop
  endfacet
  facet normal 0 0 -1
    outer loop
      vertex -13.25 0 -7
      vertex -15 0 -7
      vertex -14.6722 3.11868 -7
    endloop
  endfacet
  facet normal 0.866025 0.5 0
    outer loop
      vertex 13.7032 6.10105 7
      vertex 12.1353 8.81678 -7
      vertex 12.1353 8.81678 7
    endloop
  endfacet
  facet normal 0.866025 0.5 0
    outer loop
      vertex 12.1353 8.81678 -7
      vertex 13.7032 6.10105 7
      vertex 13.7032 6.10105 -7
    endloop
  endfacet
  facet normal 0.951057 0.309017 0
    outer loop
      vertex 14.6722 3.11868 7
      vertex 13.7032 6.10105 -7
      vertex 13.7032 6.10105 7
    endloop
  endfacet
  facet normal 0.951057 0.309017 0
    outer loop
      vertex 13.7032 6.10105 -7
      vertex 14.6722 3.11868 7
      vertex 14.6722 3.11868 -7
    endloop
  endfacet
  facet normal 0.587779 0.809021 -0
    outer loop
      vertex 10.037 11.1472 -7
      vertex 10 11.174 7
      vertex 10.037 11.1472 7
    endloop
  endfacet
  facet normal 0.587779 0.809021 0
    outer loop
      vertex 10 11.174 7
      vertex 10.037 11.1472 -7
      vertex 10 11.174 -7
    endloop
  endfacet
  facet normal -0.866025 0.5 0
    outer loop
      vertex -13.7032 6.10105 -7
      vertex -12.1353 8.81678 7
      vertex -12.1353 8.81678 -7
    endloop
  endfacet
  facet normal -0.866025 0.5 0
    outer loop
      vertex -12.1353 8.81678 7
      vertex -13.7032 6.10105 -7
      vertex -13.7032 6.10105 7
    endloop
  endfacet
  facet normal -0.743145 0.669131 0
    outer loop
      vertex -12.1353 8.81678 -7
      vertex -10.037 11.1472 7
      vertex -10.037 11.1472 -7
    endloop
  endfacet
  facet normal -0.743145 0.669131 0
    outer loop
      vertex -10.037 11.1472 7
      vertex -12.1353 8.81678 -7
      vertex -12.1353 8.81678 7
    endloop
  endfacet
  facet normal -0.951057 0.309017 0
    outer loop
      vertex -14.6722 3.11868 -7
      vertex -13.7032 6.10105 7
      vertex -13.7032 6.10105 -7
    endloop
  endfacet
  facet normal -0.951057 0.309017 0
    outer loop
      vertex -13.7032 6.10105 7
      vertex -14.6722 3.11868 -7
      vertex -14.6722 3.11868 7
    endloop
  endfacet
  facet normal -0 0 1
    outer loop
      vertex -10.037 11.1472 7
      vertex -8 10.4758 7
      vertex -8 12.6271 7
    endloop
  endfacet
  facet normal 0 0 1
    outer loop
      vertex -8 10.4758 7
      vertex -10.037 11.1472 7
      vertex -8.86598 9.84667 7
    endloop
  endfacet
  facet normal 0 0 1
    outer loop
      vertex -10.037 11.1472 7
      vertex -10.7195 7.78815 7
      vertex -8.86598 9.84667 7
    endloop
  endfacet
  facet normal -0 0 1
    outer loop
      vertex -12.1353 8.81678 7
      vertex -10.7195 7.78815 7
      vertex -10.037 11.1472 7
    endloop
  endfacet
  facet normal 0 0 1
    outer loop
      vertex -10.7195 7.78815 7
      vertex -12.1353 8.81678 7
      vertex -12.1045 5.38926 7
    endloop
  endfacet
  facet normal -0 0 1
    outer loop
      vertex -13.7032 6.10105 7
      vertex -12.1045 5.38926 7
      vertex -12.1353 8.81678 7
    endloop
  endfacet
  facet normal -0 0 1
    outer loop
      vertex -14.6722 3.11868 7
      vertex -12.9605 2.75483 7
      vertex -13.7032 6.10105 7
    endloop
  endfacet
  facet normal 0 0 1
    outer loop
      vertex -12.1045 5.38926 7
      vertex -13.7032 6.10105 7
      vertex -12.9605 2.75483 7
    endloop
  endfacet
  facet normal 0 0 1
    outer loop
      vertex 13.25 0 7
      vertex 15 0 7
      vertex 14.6722 3.11868 7
    endloop
  endfacet
  facet normal 0 0 1
    outer loop
      vertex 12.9605 2.75483 7
      vertex 14.6722 3.11868 7
      vertex 13.7032 6.10105 7
    endloop
  endfacet
  facet normal 0 0 1
    outer loop
      vertex 15 0 7
      vertex 13.25 0 7
      vertex 14.6722 -3.11868 7
    endloop
  endfacet
  facet normal -0 0 1
    outer loop
      vertex 12.9605 -2.75483 7
      vertex 14.6722 -3.11868 7
      vertex 13.25 0 7
    endloop
  endfacet
  facet normal 0 0 1
    outer loop
      vertex 14.6722 3.11868 7
      vertex 12.9605 2.75483 7
      vertex 13.25 0 7
    endloop
  endfacet
  facet normal 0 0 1
    outer loop
      vertex 12.1045 5.38926 7
      vertex 13.7032 6.10105 7
      vertex 12.1353 8.81678 7
    endloop
  endfacet
  facet normal 0 0 1
    outer loop
      vertex 13.7032 6.10105 7
      vertex 12.1045 5.38926 7
      vertex 12.9605 2.75483 7
    endloop
  endfacet
  facet normal 0 0 1
    outer loop
      vertex 12.1353 8.81678 7
      vertex 10.7195 7.78815 7
      vertex 12.1045 5.38926 7
    endloop
  endfacet
  facet normal 0 0 1
    outer loop
      vertex 10 8.58721 7
      vertex 12.1353 8.81678 7
      vertex 10.037 11.1472 7
    endloop
  endfacet
  facet normal 0 0 1
    outer loop
      vertex 10 8.58721 7
      vertex 10.037 11.1472 7
      vertex 10 11.174 7
    endloop
  endfacet
  facet normal 0 0 1
    outer loop
      vertex 12.1353 8.81678 7
      vertex 10 8.58721 7
      vertex 10.7195 7.78815 7
    endloop
  endfacet
  facet normal 0 0 1
    outer loop
      vertex 14.6722 -3.11868 7
      vertex 12.9605 -2.75483 7
      vertex 13.7032 -6.10105 7
    endloop
  endfacet
  facet normal -0 0 1
    outer loop
      vertex 12.1045 -5.38926 7
      vertex 13.7032 -6.10105 7
      vertex 12.9605 -2.75483 7
    endloop
  endfacet
  facet normal 0 0 1
    outer loop
      vertex 13.7032 -6.10105 7
      vertex 12.1045 -5.38926 7
      vertex 12.1353 -8.81678 7
    endloop
  endfacet
  facet normal -0 0 1
    outer loop
      vertex 10.7195 -7.78815 7
      vertex 12.1353 -8.81678 7
      vertex 12.1045 -5.38926 7
    endloop
  endfacet
  facet normal 0 0 1
    outer loop
      vertex 10.7195 -7.78815 7
      vertex 10.037 -11.1472 7
      vertex 12.1353 -8.81678 7
    endloop
  endfacet
  facet normal -0 0 1
    outer loop
      vertex 8.86598 -9.84667 7
      vertex 10.037 -11.1472 7
      vertex 10.7195 -7.78815 7
    endloop
  endfacet
  facet normal 0 0 1
    outer loop
      vertex 8.86598 -9.84667 7
      vertex 7.5 -12.9904 7
      vertex 10.037 -11.1472 7
    endloop
  endfacet
  facet normal -0 0 1
    outer loop
      vertex 6.625 -11.4748 7
      vertex 7.5 -12.9904 7
      vertex 8.86598 -9.84667 7
    endloop
  endfacet
  facet normal 0 0 1
    outer loop
      vertex 6.625 -11.4748 7
      vertex 4.63525 -14.2658 7
      vertex 7.5 -12.9904 7
    endloop
  endfacet
  facet normal -0 0 1
    outer loop
      vertex 4.09447 -12.6015 7
      vertex 4.63525 -14.2658 7
      vertex 6.625 -11.4748 7
    endloop
  endfacet
  facet normal 0 0 1
    outer loop
      vertex 4.09447 -12.6015 7
      vertex 1.56793 -14.9178 7
      vertex 4.63525 -14.2658 7
    endloop
  endfacet
  facet normal -0 0 1
    outer loop
      vertex 1.385 -13.1774 7
      vertex 1.56793 -14.9178 7
      vertex 4.09447 -12.6015 7
    endloop
  endfacet
  facet normal -0 0 1
    outer loop
      vertex -1.385 -13.1774 7
      vertex 1.56793 -14.9178 7
      vertex 1.385 -13.1774 7
    endloop
  endfacet
  facet normal 0 0 1
    outer loop
      vertex -1.385 -13.1774 7
      vertex -1.56793 -14.9178 7
      vertex 1.56793 -14.9178 7
    endloop
  endfacet
  facet normal 0 0 1
    outer loop
      vertex -4.09447 -12.6015 7
      vertex -1.56793 -14.9178 7
      vertex -1.385 -13.1774 7
    endloop
  endfacet
  facet normal 0 0 1
    outer loop
      vertex -4.09447 -12.6015 7
      vertex -4.63525 -14.2658 7
      vertex -1.56793 -14.9178 7
    endloop
  endfacet
  facet normal 0 0 1
    outer loop
      vertex -6.625 -11.4748 7
      vertex -4.63525 -14.2658 7
      vertex -4.09447 -12.6015 7
    endloop
  endfacet
  facet normal 0 0 1
    outer loop
      vertex -6.625 -11.4748 7
      vertex -7.5 -12.9904 7
      vertex -4.63525 -14.2658 7
    endloop
  endfacet
  facet normal 0 0 1
    outer loop
      vertex -8.86598 -9.84667 7
      vertex -7.5 -12.9904 7
      vertex -6.625 -11.4748 7
    endloop
  endfacet
  facet normal 0 0 1
    outer loop
      vertex -8.86598 -9.84667 7
      vertex -10.037 -11.1472 7
      vertex -7.5 -12.9904 7
    endloop
  endfacet
  facet normal 0 0 1
    outer loop
      vertex -10.7195 -7.78815 7
      vertex -10.037 -11.1472 7
      vertex -8.86598 -9.84667 7
    endloop
  endfacet
  facet normal 0 0 1
    outer loop
      vertex -12.1353 -8.81678 7
      vertex -10.7195 -7.78815 7
      vertex -12.1045 -5.38926 7
    endloop
  endfacet
  facet normal 0 0 1
    outer loop
      vertex -10.7195 -7.78815 7
      vertex -12.1353 -8.81678 7
      vertex -10.037 -11.1472 7
    endloop
  endfacet
  facet normal 0 0 1
    outer loop
      vertex -13.7032 -6.10105 7
      vertex -12.1045 -5.38926 7
      vertex -12.9605 -2.75483 7
    endloop
  endfacet
  facet normal 0 0 1
    outer loop
      vertex -12.1045 -5.38926 7
      vertex -13.7032 -6.10105 7
      vertex -12.1353 -8.81678 7
    endloop
  endfacet
  facet normal 0 0 1
    outer loop
      vertex -14.6722 -3.11868 7
      vertex -12.9605 -2.75483 7
      vertex -13.25 0 7
    endloop
  endfacet
  facet normal 0 0 1
    outer loop
      vertex -12.9605 2.75483 7
      vertex -14.6722 3.11868 7
      vertex -13.25 0 7
    endloop
  endfacet
  facet normal 0 0 1
    outer loop
      vertex -15 0 7
      vertex -13.25 0 7
      vertex -14.6722 3.11868 7
    endloop
  endfacet
  facet normal 0 0 1
    outer loop
      vertex -12.9605 -2.75483 7
      vertex -14.6722 -3.11868 7
      vertex -13.7032 -6.10105 7
    endloop
  endfacet
  facet normal 0 0 1
    outer loop
      vertex -13.25 0 7
      vertex -15 0 7
      vertex -14.6722 -3.11868 7
    endloop
  endfacet
  facet normal 0.994522 -0.104529 0
    outer loop
      vertex 14.6722 -3.11868 7
      vertex 15 0 -7
      vertex 15 0 7
    endloop
  endfacet
  facet normal 0.994522 -0.104529 0
    outer loop
      vertex 15 0 -7
      vertex 14.6722 -3.11868 7
      vertex 14.6722 -3.11868 -7
    endloop
  endfacet
  facet normal -0.207912 -0.978148 8.74369e-07
    outer loop
      vertex -2.16312 -14.7913 6.6574
      vertex -1.56793 -14.9178 7
      vertex -4.63525 -14.2658 7
    endloop
  endfacet
  facet normal -0.207911 -0.978148 -0
    outer loop
      vertex -1.56793 -14.9178 7
      vertex -2.16312 -14.7913 6.6574
      vertex -1.56793 -14.9178 6.78391
    endloop
  endfacet
  facet normal -0.207912 -0.978148 2.95846e-07
    outer loop
      vertex -4.63525 -14.2658 7
      vertex -3.5 -14.5072 6.06218
      vertex -2.16312 -14.7913 6.6574
    endloop
  endfacet
  facet normal -0.207912 -0.978148 0
    outer loop
      vertex -3.5 -14.5072 6.06218
      vertex -4.63525 -14.2658 7
      vertex -4.63525 -14.2658 5.23737
    endloop
  endfacet
  facet normal -0.207911 -0.978148 0
    outer loop
      vertex -4.63525 -14.2658 -7
      vertex -3.5 -14.5072 -6.06218
      vertex -4.63525 -14.2658 -5.23737
    endloop
  endfacet
  facet normal -0.207912 -0.978148 6.45297e-07
    outer loop
      vertex -4.63525 -14.2658 -7
      vertex -2.16312 -14.7913 -6.6574
      vertex -3.5 -14.5072 -6.06218
    endloop
  endfacet
  facet normal -0.207912 -0.978148 -8.74369e-07
    outer loop
      vertex -1.56793 -14.9178 -7
      vertex -2.16312 -14.7913 -6.6574
      vertex -4.63525 -14.2658 -7
    endloop
  endfacet
  facet normal -0.207911 -0.978148 0
    outer loop
      vertex -2.16312 -14.7913 -6.6574
      vertex -1.56793 -14.9178 -7
      vertex -1.56793 -14.9178 -6.78391
    endloop
  endfacet
  facet normal -0.207912 -0.978148 1.53475e-06
    outer loop
      vertex -3.50583 -14.5059 4.23782
      vertex -1.56793 -14.9178 5.22799
      vertex -2.34179 -14.7533 4.97655
    endloop
  endfacet
  facet normal -0.20791 -0.978148 -1.8865e-06
    outer loop
      vertex -4.63525 -14.2658 2.8951
      vertex -3.50583 -14.5059 4.23782
      vertex -4.44959 -14.3053 3.23282
    endloop
  endfacet
  facet normal -0.207911 -0.978148 -7.52389e-07
    outer loop
      vertex -3.50583 -14.5059 4.23782
      vertex -4.63525 -14.2658 2.8951
      vertex -1.56793 -14.9178 5.22799
    endloop
  endfacet
  facet normal -0.207912 -0.978148 0
    outer loop
      vertex -4.63525 -14.2658 -2.8951
      vertex -1.56793 -14.9178 5.22799
      vertex -4.63525 -14.2658 2.8951
    endloop
  endfacet
  facet normal -0.20791 -0.978148 1.8865e-06
    outer loop
      vertex -3.50583 -14.5059 -4.23782
      vertex -4.63525 -14.2658 -2.8951
      vertex -4.44959 -14.3053 -3.23282
    endloop
  endfacet
  facet normal -0.207911 -0.978148 7.52389e-07
    outer loop
      vertex -4.63525 -14.2658 -2.8951
      vertex -3.50583 -14.5059 -4.23782
      vertex -1.56793 -14.9178 -5.22799
    endloop
  endfacet
  facet normal -0.207912 -0.978148 -1.53475e-06
    outer loop
      vertex -1.56793 -14.9178 -5.22799
      vertex -3.50583 -14.5059 -4.23782
      vertex -2.34179 -14.7533 -4.97655
    endloop
  endfacet
  facet normal -0.207912 -0.978148 0
    outer loop
      vertex -4.63525 -14.2658 -2.8951
      vertex -1.56793 -14.9178 -5.22799
      vertex -1.56793 -14.9178 5.22799
    endloop
  endfacet
  facet normal 0.207911 -0.978148 0
    outer loop
      vertex 1.56793 -14.9178 -7
      vertex 2.16312 -14.7913 -6.6574
      vertex 1.56793 -14.9178 -6.78391
    endloop
  endfacet
  facet normal 0.207912 -0.978148 -8.74369e-07
    outer loop
      vertex 4.63525 -14.2658 -7
      vertex 2.16312 -14.7913 -6.6574
      vertex 1.56793 -14.9178 -7
    endloop
  endfacet
  facet normal 0.207911 -0.978148 0
    outer loop
      vertex 3.5 -14.5072 -6.06218
      vertex 4.63525 -14.2658 -7
      vertex 4.63525 -14.2658 -5.23737
    endloop
  endfacet
  facet normal 0.207912 -0.978148 6.45297e-07
    outer loop
      vertex 2.16312 -14.7913 -6.6574
      vertex 4.63525 -14.2658 -7
      vertex 3.5 -14.5072 -6.06218
    endloop
  endfacet
  facet normal 0.207911 -0.978148 0
    outer loop
      vertex 2.16312 -14.7913 6.6574
      vertex 1.56793 -14.9178 7
      vertex 1.56793 -14.9178 6.78391
    endloop
  endfacet
  facet normal 0.207912 -0.978148 8.74369e-07
    outer loop
      vertex 1.56793 -14.9178 7
      vertex 2.16312 -14.7913 6.6574
      vertex 4.63525 -14.2658 7
    endloop
  endfacet
  facet normal 0.207912 -0.978148 -6.45297e-07
    outer loop
      vertex 3.5 -14.5072 6.06218
      vertex 4.63525 -14.2658 7
      vertex 2.16312 -14.7913 6.6574
    endloop
  endfacet
  facet normal 0.207911 -0.978148 0
    outer loop
      vertex 4.63525 -14.2658 7
      vertex 3.5 -14.5072 6.06218
      vertex 4.63525 -14.2658 5.23737
    endloop
  endfacet
  facet normal 0.207912 -0.978148 -6.82158e-08
    outer loop
      vertex 1.56793 -14.9178 5.25593
      vertex 2.94705 -14.6247 4.6438
      vertex 1.69959 -14.8898 5.23081
    endloop
  endfacet
  facet normal 0.207912 -0.978148 7.88283e-07
    outer loop
      vertex 4.63525 -14.2658 2.90349
      vertex 2.94705 -14.6247 4.6438
      vertex 1.56793 -14.9178 5.25593
    endloop
  endfacet
  facet normal 0.20791 -0.978148 -1.45416e-06
    outer loop
      vertex 2.94705 -14.6247 4.6438
      vertex 4.63525 -14.2658 2.90349
      vertex 4.00933 -14.3989 3.76501
    endloop
  endfacet
  facet normal 0.207912 -0.978148 0
    outer loop
      vertex 1.56793 -14.9178 5.25593
      vertex 4.63525 -14.2658 -2.90349
      vertex 4.63525 -14.2658 2.90349
    endloop
  endfacet
  facet normal 0.207912 -0.978148 0
    outer loop
      vertex 1.56793 -14.9178 -5.25593
      vertex 4.63525 -14.2658 -2.90349
      vertex 1.56793 -14.9178 5.25593
    endloop
  endfacet
  facet normal 0.20791 -0.978148 1.45416e-06
    outer loop
      vertex 4.63525 -14.2658 -2.90349
      vertex 2.94705 -14.6247 -4.6438
      vertex 4.00933 -14.3989 -3.76501
    endloop
  endfacet
  facet normal 0.207912 -0.978148 -7.88283e-07
    outer loop
      vertex 4.63525 -14.2658 -2.90349
      vertex 1.56793 -14.9178 -5.25593
      vertex 2.94705 -14.6247 -4.6438
    endloop
  endfacet
  facet normal 0.207912 -0.978148 6.82158e-08
    outer loop
      vertex 2.94705 -14.6247 -4.6438
      vertex 1.56793 -14.9178 -5.25593
      vertex 1.69959 -14.8898 -5.23081
    endloop
  endfacet
  facet normal 0.743145 -0.669131 0
    outer loop
      vertex 10.037 -11.1472 7
      vertex 12.1353 -8.81678 -7
      vertex 12.1353 -8.81678 7
    endloop
  endfacet
  facet normal 0.743145 -0.669131 0
    outer loop
      vertex 12.1353 -8.81678 -7
      vertex 10.037 -11.1472 7
      vertex 10.037 -11.1472 -7
    endloop
  endfacet
  facet normal 0.951057 -0.309017 0
    outer loop
      vertex 13.7032 -6.10105 7
      vertex 14.6722 -3.11868 -7
      vertex 14.6722 -3.11868 7
    endloop
  endfacet
  facet normal 0.951057 -0.309017 0
    outer loop
      vertex 14.6722 -3.11868 -7
      vertex 13.7032 -6.10105 7
      vertex 13.7032 -6.10105 -7
    endloop
  endfacet
  facet normal 0.866025 -0.5 0
    outer loop
      vertex 12.1353 -8.81678 7
      vertex 13.7032 -6.10105 -7
      vertex 13.7032 -6.10105 7
    endloop
  endfacet
  facet normal 0.866025 -0.5 0
    outer loop
      vertex 13.7032 -6.10105 -7
      vertex 12.1353 -8.81678 7
      vertex 12.1353 -8.81678 -7
    endloop
  endfacet
  facet normal -0.406737 -0.913545 -4.51179e-08
    outer loop
      vertex -4.68391 -14.2442 5.20201
      vertex -4.63525 -14.2658 7
      vertex -7.5 -12.9904 7
    endloop
  endfacet
  facet normal -0.406738 -0.913545 -0
    outer loop
      vertex -4.63525 -14.2658 7
      vertex -4.68391 -14.2442 5.20201
      vertex -4.63525 -14.2658 5.23737
    endloop
  endfacet
  facet normal -0.406737 -0.913546 2.53754e-07
    outer loop
      vertex -7.5 -12.9904 7
      vertex -5.66312 -13.8082 4.1145
      vertex -4.68391 -14.2442 5.20201
    endloop
  endfacet
  facet normal -0.406737 -0.913545 -2.24664e-07
    outer loop
      vertex -7.5 -12.9904 7
      vertex -6.39482 -13.4824 2.84716
      vertex -5.66312 -13.8082 4.1145
    endloop
  endfacet
  facet normal -0.406736 -0.913546 8.89226e-08
    outer loop
      vertex -7.5 -12.9904 7
      vertex -6.84703 -13.2811 1.45538
      vertex -6.39482 -13.4824 2.84716
    endloop
  endfacet
  facet normal -0.406737 -0.913545 9.67682e-09
    outer loop
      vertex -7.5 -12.9904 7
      vertex -6.91688 -13.25 0.790786
      vertex -6.84703 -13.2811 1.45538
    endloop
  endfacet
  facet normal -0.406737 -0.913545 0
    outer loop
      vertex -7.5 -12.9904 7
      vertex -6.91688 -13.25 -0.790786
      vertex -6.91688 -13.25 0.790786
    endloop
  endfacet
  facet normal -0.406737 -0.913545 0
    outer loop
      vertex -7.5 -12.9904 -7
      vertex -6.91688 -13.25 -0.790786
      vertex -7.5 -12.9904 7
    endloop
  endfacet
  facet normal -0.406737 -0.913545 -9.67682e-09
    outer loop
      vertex -7.5 -12.9904 -7
      vertex -6.84703 -13.2811 -1.45538
      vertex -6.91688 -13.25 -0.790786
    endloop
  endfacet
  facet normal -0.406736 -0.913546 -8.89226e-08
    outer loop
      vertex -7.5 -12.9904 -7
      vertex -6.39482 -13.4824 -2.84716
      vertex -6.84703 -13.2811 -1.45538
    endloop
  endfacet
  facet normal -0.406737 -0.913545 2.24664e-07
    outer loop
      vertex -7.5 -12.9904 -7
      vertex -5.66312 -13.8082 -4.1145
      vertex -6.39482 -13.4824 -2.84716
    endloop
  endfacet
  facet normal -0.406737 -0.913546 -2.53754e-07
    outer loop
      vertex -7.5 -12.9904 -7
      vertex -4.68391 -14.2442 -5.20201
      vertex -5.66312 -13.8082 -4.1145
    endloop
  endfacet
  facet normal -0.406737 -0.913545 4.51179e-08
    outer loop
      vertex -4.63525 -14.2658 -7
      vertex -4.68391 -14.2442 -5.20201
      vertex -7.5 -12.9904 -7
    endloop
  endfacet
  facet normal -0.406738 -0.913545 0
    outer loop
      vertex -4.68391 -14.2442 -5.20201
      vertex -4.63525 -14.2658 -7
      vertex -4.63525 -14.2658 -5.23737
    endloop
  endfacet
  facet normal -0.406738 -0.913545 5.26517e-07
    outer loop
      vertex -5.45663 -13.9001 0.689332
      vertex -4.63525 -14.2658 2.8951
      vertex -5.11377 -14.0528 2.02468
    endloop
  endfacet
  facet normal -0.406736 -0.913546 0
    outer loop
      vertex -5.45663 -13.9001 -0.689332
      vertex -4.63525 -14.2658 2.8951
      vertex -5.45663 -13.9001 0.689332
    endloop
  endfacet
  facet normal -0.406738 -0.913545 -5.26517e-07
    outer loop
      vertex -4.63525 -14.2658 -2.8951
      vertex -5.45663 -13.9001 -0.689332
      vertex -5.11377 -14.0528 -2.02468
    endloop
  endfacet
  facet normal -0.406736 -0.913546 0
    outer loop
      vertex -5.45663 -13.9001 -0.689332
      vertex -4.63525 -14.2658 -2.8951
      vertex -4.63525 -14.2658 2.8951
    endloop
  endfacet
  facet normal -0.866025 -0.5 0
    outer loop
      vertex -12.1353 -8.81678 -7
      vertex -13.7032 -6.10105 7
      vertex -13.7032 -6.10105 -7
    endloop
  endfacet
  facet normal -0.866025 -0.5 0
    outer loop
      vertex -13.7032 -6.10105 7
      vertex -12.1353 -8.81678 -7
      vertex -12.1353 -8.81678 7
    endloop
  endfacet
  facet normal -0.994522 -0.104529 0
    outer loop
      vertex -14.6722 -3.11868 -7
      vertex -15 0 7
      vertex -15 0 -7
    endloop
  endfacet
  facet normal -0.994522 -0.104529 0
    outer loop
      vertex -15 0 7
      vertex -14.6722 -3.11868 -7
      vertex -14.6722 -3.11868 7
    endloop
  endfacet
  facet normal -0.951057 -0.309017 0
    outer loop
      vertex -13.7032 -6.10105 -7
      vertex -14.6722 -3.11868 7
      vertex -14.6722 -3.11868 -7
    endloop
  endfacet
  facet normal -0.951057 -0.309017 0
    outer loop
      vertex -14.6722 -3.11868 7
      vertex -13.7032 -6.10105 -7
      vertex -13.7032 -6.10105 7
    endloop
  endfacet
  facet normal 0.587785 -0.809017 0
    outer loop
      vertex 7.5 -12.9904 -7
      vertex 10.037 -11.1472 7
      vertex 7.5 -12.9904 7
    endloop
  endfacet
  facet normal 0.587785 -0.809017 0
    outer loop
      vertex 10.037 -11.1472 7
      vertex 7.5 -12.9904 -7
      vertex 10.037 -11.1472 -7
    endloop
  endfacet
  facet normal 0.406738 -0.913545 0
    outer loop
      vertex 4.68391 -14.2442 5.20201
      vertex 4.63525 -14.2658 7
      vertex 4.63525 -14.2658 5.23737
    endloop
  endfacet
  facet normal 0.406737 -0.913545 -4.51179e-08
    outer loop
      vertex 4.63525 -14.2658 7
      vertex 4.68391 -14.2442 5.20201
      vertex 7.5 -12.9904 7
    endloop
  endfacet
  facet normal 0.406737 -0.913546 2.53754e-07
    outer loop
      vertex 5.66312 -13.8082 4.1145
      vertex 7.5 -12.9904 7
      vertex 4.68391 -14.2442 5.20201
    endloop
  endfacet
  facet normal 0.406737 -0.913545 -2.24664e-07
    outer loop
      vertex 6.39482 -13.4824 2.84716
      vertex 7.5 -12.9904 7
      vertex 5.66312 -13.8082 4.1145
    endloop
  endfacet
  facet normal 0.406736 -0.913546 8.89226e-08
    outer loop
      vertex 6.84703 -13.2811 1.45538
      vertex 7.5 -12.9904 7
      vertex 6.39482 -13.4824 2.84716
    endloop
  endfacet
  facet normal 0.406737 -0.913545 9.67682e-09
    outer loop
      vertex 6.91688 -13.25 0.790786
      vertex 7.5 -12.9904 7
      vertex 6.84703 -13.2811 1.45538
    endloop
  endfacet
  facet normal 0.406737 -0.913545 0
    outer loop
      vertex 6.91688 -13.25 -0.790786
      vertex 7.5 -12.9904 7
      vertex 6.91688 -13.25 0.790786
    endloop
  endfacet
  facet normal 0.406738 -0.913545 0
    outer loop
      vertex 4.63525 -14.2658 -7
      vertex 4.68391 -14.2442 -5.20201
      vertex 4.63525 -14.2658 -5.23737
    endloop
  endfacet
  facet normal 0.406737 -0.913545 4.51179e-08
    outer loop
      vertex 7.5 -12.9904 -7
      vertex 4.68391 -14.2442 -5.20201
      vertex 4.63525 -14.2658 -7
    endloop
  endfacet
  facet normal 0.406737 -0.913546 -2.53754e-07
    outer loop
      vertex 4.68391 -14.2442 -5.20201
      vertex 7.5 -12.9904 -7
      vertex 5.66312 -13.8082 -4.1145
    endloop
  endfacet
  facet normal 0.406737 -0.913545 0
    outer loop
      vertex 6.91688 -13.25 -0.790786
      vertex 7.5 -12.9904 -7
      vertex 7.5 -12.9904 7
    endloop
  endfacet
  facet normal 0.406737 -0.913545 -9.67682e-09
    outer loop
      vertex 6.84703 -13.2811 -1.45538
      vertex 7.5 -12.9904 -7
      vertex 6.91688 -13.25 -0.790786
    endloop
  endfacet
  facet normal 0.406736 -0.913546 -8.89226e-08
    outer loop
      vertex 6.39482 -13.4824 -2.84716
      vertex 7.5 -12.9904 -7
      vertex 6.84703 -13.2811 -1.45538
    endloop
  endfacet
  facet normal 0.406737 -0.913545 2.24664e-07
    outer loop
      vertex 5.66312 -13.8082 -4.1145
      vertex 7.5 -12.9904 -7
      vertex 6.39482 -13.4824 -2.84716
    endloop
  endfacet
  facet normal 0.406739 -0.913544 1.11764e-06
    outer loop
      vertex 4.63525 -14.2658 2.90349
      vertex 5.32721 -13.9578 1.36779
      vertex 4.81969 -14.1837 2.64964
    endloop
  endfacet
  facet normal 0.406736 -0.913546 -2.8915e-07
    outer loop
      vertex 4.63525 -14.2658 2.90349
      vertex 5.5 -13.8808 -9.70149e-16
      vertex 5.32721 -13.9578 1.36779
    endloop
  endfacet
  facet normal 0.406737 -0.913545 1.16911e-07
    outer loop
      vertex 4.63525 -14.2658 2.90349
      vertex 5.32721 -13.9578 -1.36779
      vertex 5.5 -13.8808 -9.70149e-16
    endloop
  endfacet
  facet normal 0.406737 -0.913545 0
    outer loop
      vertex 4.63525 -14.2658 -2.90349
      vertex 5.32721 -13.9578 -1.36779
      vertex 4.63525 -14.2658 2.90349
    endloop
  endfacet
  facet normal 0.406739 -0.913544 -1.11764e-06
    outer loop
      vertex 5.32721 -13.9578 -1.36779
      vertex 4.63525 -14.2658 -2.90349
      vertex 4.81969 -14.1837 -2.64964
    endloop
  endfacet
  facet normal 0 -1 0
    outer loop
      vertex -1.56793 -14.9178 7
      vertex -0.731699 -14.9178 6.96165
      vertex 1.56793 -14.9178 7
    endloop
  endfacet
  facet normal -0 -1 0
    outer loop
      vertex -0.731699 -14.9178 6.96165
      vertex -1.56793 -14.9178 7
      vertex -1.56793 -14.9178 6.78391
    endloop
  endfacet
  facet normal 0 -1 0
    outer loop
      vertex 0.731699 -14.9178 6.96165
      vertex 1.56793 -14.9178 7
      vertex -0.731699 -14.9178 6.96165
    endloop
  endfacet
  facet normal 0 -1 -0
    outer loop
      vertex 1.56793 -14.9178 7
      vertex 0.731699 -14.9178 6.96165
      vertex 1.56793 -14.9178 6.78391
    endloop
  endfacet
  facet normal 0 -1 -0
    outer loop
      vertex -0.731699 -14.9178 -6.96165
      vertex -1.56793 -14.9178 -7
      vertex 0.731699 -14.9178 -6.96165
    endloop
  endfacet
  facet normal 0 -1 0
    outer loop
      vertex -1.56793 -14.9178 -7
      vertex -0.731699 -14.9178 -6.96165
      vertex -1.56793 -14.9178 -6.78391
    endloop
  endfacet
  facet normal 0 -1 0
    outer loop
      vertex 0.731699 -14.9178 -6.96165
      vertex 1.56793 -14.9178 -7
      vertex 1.56793 -14.9178 -6.78391
    endloop
  endfacet
  facet normal 0 -1 0
    outer loop
      vertex 1.56793 -14.9178 -7
      vertex 0.731699 -14.9178 -6.96165
      vertex -1.56793 -14.9178 -7
    endloop
  endfacet
  facet normal 0 -1 0
    outer loop
      vertex -1.56793 -14.9178 5.22799
      vertex 0.345347 -14.9178 5.48915
      vertex -1.0306 -14.9178 5.40258
    endloop
  endfacet
  facet normal 0 -1 -0
    outer loop
      vertex 0.345347 -14.9178 5.48915
      vertex -1.56793 -14.9178 5.22799
      vertex 1.56793 -14.9178 5.25593
    endloop
  endfacet
  facet normal 0 -1 0
    outer loop
      vertex -1.56793 -14.9178 -5.22799
      vertex 1.56793 -14.9178 5.25593
      vertex -1.56793 -14.9178 5.22799
    endloop
  endfacet
  facet normal 0 -1 0
    outer loop
      vertex -1.56793 -14.9178 -5.22799
      vertex 1.56793 -14.9178 -5.25593
      vertex 1.56793 -14.9178 5.25593
    endloop
  endfacet
  facet normal 0 -1 0
    outer loop
      vertex 0.345347 -14.9178 -5.48915
      vertex -1.56793 -14.9178 -5.22799
      vertex -1.0306 -14.9178 -5.40258
    endloop
  endfacet
  facet normal 0 -1 0
    outer loop
      vertex -1.56793 -14.9178 -5.22799
      vertex 0.345347 -14.9178 -5.48915
      vertex 1.56793 -14.9178 -5.25593
    endloop
  endfacet
  facet normal -0.587785 -0.809017 0
    outer loop
      vertex -10.037 -11.1472 -7
      vertex -7.5 -12.9904 7
      vertex -10.037 -11.1472 7
    endloop
  endfacet
  facet normal -0.587785 -0.809017 -0
    outer loop
      vertex -7.5 -12.9904 7
      vertex -10.037 -11.1472 -7
      vertex -7.5 -12.9904 -7
    endloop
  endfacet
  facet normal -0.743145 -0.669131 0
    outer loop
      vertex -10.037 -11.1472 -7
      vertex -12.1353 -8.81678 7
      vertex -12.1353 -8.81678 -7
    endloop
  endfacet
  facet normal -0.743145 -0.669131 0
    outer loop
      vertex -12.1353 -8.81678 7
      vertex -10.037 -11.1472 -7
      vertex -10.037 -11.1472 7
    endloop
  endfacet
  facet normal -0.994522 -0.104529 0
    outer loop
      vertex 13.25 0 -7
      vertex 12.9605 2.75483 7
      vertex 12.9605 2.75483 -7
    endloop
  endfacet
  facet normal -0.994522 -0.104529 0
    outer loop
      vertex 12.9605 2.75483 7
      vertex 13.25 0 -7
      vertex 13.25 0 7
    endloop
  endfacet
  facet normal 0.994522 -0.104529 0
    outer loop
      vertex -13.25 0 7
      vertex -12.9605 2.75483 -7
      vertex -12.9605 2.75483 7
    endloop
  endfacet
  facet normal 0.994522 -0.104529 0
    outer loop
      vertex -12.9605 2.75483 -7
      vertex -13.25 0 7
      vertex -13.25 0 -7
    endloop
  endfacet
  facet normal 0 1 -0
    outer loop
      vertex 1.385 -13.1774 -7
      vertex -1.385 -13.1774 7
      vertex 1.385 -13.1774 7
    endloop
  endfacet
  facet normal 0 1 0
    outer loop
      vertex -1.385 -13.1774 7
      vertex 1.385 -13.1774 -7
      vertex -1.385 -13.1774 -7
    endloop
  endfacet
  facet normal 0.587785 -0.809017 0
    outer loop
      vertex -8.86598 9.84667 -7
      vertex -8 10.4758 7
      vertex -8.86598 9.84667 7
    endloop
  endfacet
  facet normal 0.587785 -0.809017 0
    outer loop
      vertex -8 10.4758 7
      vertex -8.86598 9.84667 -7
      vertex -8 10.4758 -7
    endloop
  endfacet
  facet normal -0.951057 0.309017 0
    outer loop
      vertex 12.1045 -5.38926 -7
      vertex 12.9605 -2.75483 7
      vertex 12.9605 -2.75483 -7
    endloop
  endfacet
  facet normal -0.951057 0.309017 0
    outer loop
      vertex 12.9605 -2.75483 7
      vertex 12.1045 -5.38926 -7
      vertex 12.1045 -5.38926 7
    endloop
  endfacet
  facet normal -0.866025 -0.5 0
    outer loop
      vertex 12.1045 5.38926 -7
      vertex 10.7195 7.78815 7
      vertex 10.7195 7.78815 -7
    endloop
  endfacet
  facet normal -0.866025 -0.5 0
    outer loop
      vertex 10.7195 7.78815 7
      vertex 12.1045 5.38926 -7
      vertex 12.1045 5.38926 7
    endloop
  endfacet
  facet normal -0.951057 -0.309017 0
    outer loop
      vertex 12.9605 2.75483 -7
      vertex 12.1045 5.38926 7
      vertex 12.1045 5.38926 -7
    endloop
  endfacet
  facet normal -0.951057 -0.309017 0
    outer loop
      vertex 12.1045 5.38926 7
      vertex 12.9605 2.75483 -7
      vertex 12.9605 2.75483 7
    endloop
  endfacet
  facet normal -0.743145 -0.66913 0
    outer loop
      vertex 10.7195 7.78815 -7
      vertex 10 8.58721 7
      vertex 10 8.58721 -7
    endloop
  endfacet
  facet normal -0.743145 -0.66913 0
    outer loop
      vertex 10 8.58721 7
      vertex 10.7195 7.78815 -7
      vertex 10.7195 7.78815 7
    endloop
  endfacet
  facet normal 0.866025 -0.5 0
    outer loop
      vertex -12.1045 5.38926 7
      vertex -10.7195 7.78815 -7
      vertex -10.7195 7.78815 7
    endloop
  endfacet
  facet normal 0.866025 -0.5 0
    outer loop
      vertex -10.7195 7.78815 -7
      vertex -12.1045 5.38926 7
      vertex -12.1045 5.38926 -7
    endloop
  endfacet
  facet normal 0.743145 -0.669131 0
    outer loop
      vertex -10.7195 7.78815 7
      vertex -8.86598 9.84667 -7
      vertex -8.86598 9.84667 7
    endloop
  endfacet
  facet normal 0.743145 -0.669131 0
    outer loop
      vertex -8.86598 9.84667 -7
      vertex -10.7195 7.78815 7
      vertex -10.7195 7.78815 -7
    endloop
  endfacet
  facet normal 0.951057 -0.309017 0
    outer loop
      vertex -12.9605 2.75483 7
      vertex -12.1045 5.38926 -7
      vertex -12.1045 5.38926 7
    endloop
  endfacet
  facet normal 0.951057 -0.309017 0
    outer loop
      vertex -12.1045 5.38926 -7
      vertex -12.9605 2.75483 7
      vertex -12.9605 2.75483 -7
    endloop
  endfacet
  facet normal -0.994522 0.104529 0
    outer loop
      vertex 12.9605 -2.75483 -7
      vertex 13.25 0 7
      vertex 13.25 0 -7
    endloop
  endfacet
  facet normal -0.994522 0.104529 0
    outer loop
      vertex 13.25 0 7
      vertex 12.9605 -2.75483 -7
      vertex 12.9605 -2.75483 7
    endloop
  endfacet
  facet normal -0.866025 0.5 0
    outer loop
      vertex 10.7195 -7.78815 -7
      vertex 12.1045 -5.38926 7
      vertex 12.1045 -5.38926 -7
    endloop
  endfacet
  facet normal -0.866025 0.5 0
    outer loop
      vertex 12.1045 -5.38926 7
      vertex 10.7195 -7.78815 -7
      vertex 10.7195 -7.78815 7
    endloop
  endfacet
  facet normal 0.587785 0.809017 -0
    outer loop
      vertex -6.625 -11.4748 -7
      vertex -8.86598 -9.84667 7
      vertex -6.625 -11.4748 7
    endloop
  endfacet
  facet normal 0.587785 0.809017 0
    outer loop
      vertex -8.86598 -9.84667 7
      vertex -6.625 -11.4748 -7
      vertex -8.86598 -9.84667 -7
    endloop
  endfacet
  facet normal 0.866025 0.5 0
    outer loop
      vertex -10.7195 -7.78815 7
      vertex -12.1045 -5.38926 -7
      vertex -12.1045 -5.38926 7
    endloop
  endfacet
  facet normal 0.866025 0.5 0
    outer loop
      vertex -12.1045 -5.38926 -7
      vertex -10.7195 -7.78815 7
      vertex -10.7195 -7.78815 -7
    endloop
  endfacet
  facet normal 0.743145 0.669131 0
    outer loop
      vertex -8.86598 -9.84667 7
      vertex -10.7195 -7.78815 -7
      vertex -10.7195 -7.78815 7
    endloop
  endfacet
  facet normal 0.743145 0.669131 0
    outer loop
      vertex -10.7195 -7.78815 -7
      vertex -8.86598 -9.84667 7
      vertex -8.86598 -9.84667 -7
    endloop
  endfacet
  facet normal 0.994522 0.104529 0
    outer loop
      vertex -12.9605 -2.75483 7
      vertex -13.25 0 -7
      vertex -13.25 0 7
    endloop
  endfacet
  facet normal 0.994522 0.104529 0
    outer loop
      vertex -13.25 0 -7
      vertex -12.9605 -2.75483 7
      vertex -12.9605 -2.75483 -7
    endloop
  endfacet
  facet normal -0.207912 0.978148 0
    outer loop
      vertex 4.09447 -12.6015 -7
      vertex 1.385 -13.1774 7
      vertex 4.09447 -12.6015 7
    endloop
  endfacet
  facet normal -0.207912 0.978148 0
    outer loop
      vertex 1.385 -13.1774 7
      vertex 4.09447 -12.6015 -7
      vertex 1.385 -13.1774 -7
    endloop
  endfacet
  facet normal -0.587785 0.809017 0
    outer loop
      vertex 8.86598 -9.84667 -7
      vertex 6.625 -11.4748 7
      vertex 8.86598 -9.84667 7
    endloop
  endfacet
  facet normal -0.587785 0.809017 0
    outer loop
      vertex 6.625 -11.4748 7
      vertex 8.86598 -9.84667 -7
      vertex 6.625 -11.4748 -7
    endloop
  endfacet
  facet normal 0.951057 0.309017 0
    outer loop
      vertex -12.1045 -5.38926 7
      vertex -12.9605 -2.75483 -7
      vertex -12.9605 -2.75483 7
    endloop
  endfacet
  facet normal 0.951057 0.309017 0
    outer loop
      vertex -12.9605 -2.75483 -7
      vertex -12.1045 -5.38926 7
      vertex -12.1045 -5.38926 -7
    endloop
  endfacet
  facet normal -0.406737 0.913545 0
    outer loop
      vertex 6.625 -11.4748 -7
      vertex 4.09447 -12.6015 7
      vertex 6.625 -11.4748 7
    endloop
  endfacet
  facet normal -0.406737 0.913545 0
    outer loop
      vertex 4.09447 -12.6015 7
      vertex 6.625 -11.4748 -7
      vertex 4.09447 -12.6015 -7
    endloop
  endfacet
  facet normal -0.743145 0.669131 0
    outer loop
      vertex 8.86598 -9.84667 -7
      vertex 10.7195 -7.78815 7
      vertex 10.7195 -7.78815 -7
    endloop
  endfacet
  facet normal -0.743145 0.669131 0
    outer loop
      vertex 10.7195 -7.78815 7
      vertex 8.86598 -9.84667 -7
      vertex 8.86598 -9.84667 7
    endloop
  endfacet
  facet normal 0.406737 0.913545 -0
    outer loop
      vertex -4.09447 -12.6015 -7
      vertex -6.625 -11.4748 7
      vertex -4.09447 -12.6015 7
    endloop
  endfacet
  facet normal 0.406737 0.913545 0
    outer loop
      vertex -6.625 -11.4748 7
      vertex -4.09447 -12.6015 -7
      vertex -6.625 -11.4748 -7
    endloop
  endfacet
  facet normal 0.207912 0.978148 -0
    outer loop
      vertex -1.385 -13.1774 -7
      vertex -4.09447 -12.6015 7
      vertex -1.385 -13.1774 7
    endloop
  endfacet
  facet normal 0.207912 0.978148 0
    outer loop
      vertex -4.09447 -12.6015 7
      vertex -1.385 -13.1774 -7
      vertex -4.09447 -12.6015 -7
    endloop
  endfacet
  facet normal 1 -0 0
    outer loop
      vertex -8 10.4758 7
      vertex -8 12.6271 -7
      vertex -8 12.6271 7
    endloop
  endfacet
  facet normal 1 0 0
    outer loop
      vertex -8 12.6271 -7
      vertex -8 10.4758 7
      vertex -8 10.4758 -7
    endloop
  endfacet
  facet normal -1 0 0
    outer loop
      vertex 10 8.58721 -7
      vertex 10 11.174 7
      vertex 10 11.174 -7
    endloop
  endfacet
  facet normal -1 -0 0
    outer loop
      vertex 10 11.174 7
      vertex 10 8.58721 -7
      vertex 10 8.58721 7
    endloop
  endfacet
endsolid OpenSCAD_Model
