solid OpenSCAD_Model
  facet normal -0.994522 0.104529 0
    outer loop
      vertex -13.25 0 -5
      vertex -13.097 1.45538 5
      vertex -13.097 1.45538 -5
    endloop
  endfacet
  facet normal -0.994522 0.104529 0
    outer loop
      vertex -13.097 1.45538 5
      vertex -13.25 0 -5
      vertex -13.25 0 5
    endloop
  endfacet
  facet normal 0 1 -0
    outer loop
      vertex -5.5183 6.96165 -5
      vertex -6.9817 6.96165 5
      vertex -5.5183 6.96165 5
    endloop
  endfacet
  facet normal 0 1 0
    outer loop
      vertex -6.9817 6.96165 5
      vertex -5.5183 6.96165 -5
      vertex -6.9817 6.96165 -5
    endloop
  endfacet
  facet normal 0 -1 0
    outer loop
      vertex -6.9817 -6.96165 -5
      vertex -5.5183 -6.96165 5
      vertex -6.9817 -6.96165 5
    endloop
  endfacet
  facet normal 0 -1 -0
    outer loop
      vertex -5.5183 -6.96165 5
      vertex -6.9817 -6.96165 -5
      vertex -5.5183 -6.96165 -5
    endloop
  endfacet
  facet normal 0.587786 0.809017 -0
    outer loop
      vertex -1.56609 5.20201 -5
      vertex -2.75 6.06218 5
      vertex -1.56609 5.20201 5
    endloop
  endfacet
  facet normal 0.587786 0.809017 0
    outer loop
      vertex -2.75 6.06218 5
      vertex -1.56609 5.20201 -5
      vertex -2.75 6.06218 -5
    endloop
  endfacet
  facet normal 0.406736 0.913546 -0
    outer loop
      vertex -2.75 6.06218 -5
      vertex -4.08688 6.6574 5
      vertex -2.75 6.06218 5
    endloop
  endfacet
  facet normal 0.406736 0.913546 0
    outer loop
      vertex -4.08688 6.6574 5
      vertex -2.75 6.06218 -5
      vertex -4.08688 6.6574 -5
    endloop
  endfacet
  facet normal -0.587785 0.809017 0
    outer loop
      vertex -9.75 6.06218 -5
      vertex -10.9339 5.20201 5
      vertex -9.75 6.06218 5
    endloop
  endfacet
  facet normal -0.587785 0.809017 0
    outer loop
      vertex -10.9339 5.20201 5
      vertex -9.75 6.06218 -5
      vertex -10.9339 5.20201 -5
    endloop
  endfacet
  facet normal -0.207912 0.978148 0
    outer loop
      vertex -6.9817 6.96165 -5
      vertex -8.41312 6.6574 5
      vertex -6.9817 6.96165 5
    endloop
  endfacet
  facet normal -0.207912 0.978148 0
    outer loop
      vertex -8.41312 6.6574 5
      vertex -6.9817 6.96165 -5
      vertex -8.41312 6.6574 -5
    endloop
  endfacet
  facet normal 0.866026 0.5 0
    outer loop
      vertex 0 3.09799 5
      vertex -0.586882 4.1145 -5
      vertex -0.586882 4.1145 5
    endloop
  endfacet
  facet normal 0.866026 0.5 0
    outer loop
      vertex -0.586882 4.1145 -5
      vertex 0 3.09799 5
      vertex 0 3.09799 -5
    endloop
  endfacet
  facet normal 0.743145 0.66913 0
    outer loop
      vertex -0.586882 4.1145 5
      vertex -1.56609 5.20201 -5
      vertex -1.56609 5.20201 5
    endloop
  endfacet
  facet normal 0.743145 0.66913 0
    outer loop
      vertex -1.56609 5.20201 -5
      vertex -0.586882 4.1145 5
      vertex -0.586882 4.1145 -5
    endloop
  endfacet
  facet normal 0.207912 0.978148 -0
    outer loop
      vertex -4.08688 6.6574 -5
      vertex -5.5183 6.96165 5
      vertex -4.08688 6.6574 5
    endloop
  endfacet
  facet normal 0.207912 0.978148 0
    outer loop
      vertex -5.5183 6.96165 5
      vertex -4.08688 6.6574 -5
      vertex -5.5183 6.96165 -5
    endloop
  endfacet
  facet normal -0.866026 0.5 0
    outer loop
      vertex -12.6448 2.84716 -5
      vertex -11.9131 4.1145 5
      vertex -11.9131 4.1145 -5
    endloop
  endfacet
  facet normal -0.866026 0.5 0
    outer loop
      vertex -11.9131 4.1145 5
      vertex -12.6448 2.84716 -5
      vertex -12.6448 2.84716 5
    endloop
  endfacet
  facet normal -0.743145 0.66913 0
    outer loop
      vertex -11.9131 4.1145 -5
      vertex -10.9339 5.20201 5
      vertex -10.9339 5.20201 -5
    endloop
  endfacet
  facet normal -0.743145 0.66913 0
    outer loop
      vertex -10.9339 5.20201 5
      vertex -11.9131 4.1145 -5
      vertex -11.9131 4.1145 5
    endloop
  endfacet
  facet normal -0.951056 0.309017 0
    outer loop
      vertex -13.097 1.45538 -5
      vertex -12.6448 2.84716 5
      vertex -12.6448 2.84716 -5
    endloop
  endfacet
  facet normal -0.951056 0.309017 0
    outer loop
      vertex -12.6448 2.84716 5
      vertex -13.097 1.45538 -5
      vertex -13.097 1.45538 5
    endloop
  endfacet
  facet normal 0 0 1
    outer loop
      vertex 1.56609 5.20201 5
      vertex 3.25 6.28479 5
      vertex 2.75 6.06218 5
    endloop
  endfacet
  facet normal 0 0 1
    outer loop
      vertex 3.25 6.28479 5
      vertex 0 3.09799 5
      vertex 3.25 -6.28479 5
    endloop
  endfacet
  facet normal 0 0 1
    outer loop
      vertex 3.25 6.28479 5
      vertex 1.56609 5.20201 5
      vertex 0 3.09799 5
    endloop
  endfacet
  facet normal -0 0 1
    outer loop
      vertex 0 -3.09799 5
      vertex 3.25 -6.28479 5
      vertex 0 3.09799 5
    endloop
  endfacet
  facet normal 0 0 1
    outer loop
      vertex 0 3.09799 5
      vertex 1.56609 5.20201 5
      vertex 0.586882 4.1145 5
    endloop
  endfacet
  facet normal -0 -0 1
    outer loop
      vertex 1.56609 -5.20201 5
      vertex 3.25 -6.28479 5
      vertex 0 -3.09799 5
    endloop
  endfacet
  facet normal 0 0 1
    outer loop
      vertex 3.25 -6.28479 5
      vertex 1.56609 -5.20201 5
      vertex 2.75 -6.06218 5
    endloop
  endfacet
  facet normal 0 0 1
    outer loop
      vertex 1.56609 -5.20201 5
      vertex 0 -3.09799 5
      vertex 0.586882 -4.1145 5
    endloop
  endfacet
  facet normal 0 0 1
    outer loop
      vertex -1.43031 2.64964 5
      vertex 0 3.09799 5
      vertex -0.586882 4.1145 5
    endloop
  endfacet
  facet normal 0 0 1
    outer loop
      vertex 0 3.09799 5
      vertex -0.75 0 5
      vertex 0 -3.09799 5
    endloop
  endfacet
  facet normal -0 0 1
    outer loop
      vertex -0.922793 -1.36779 5
      vertex 0 -3.09799 5
      vertex -0.75 0 5
    endloop
  endfacet
  facet normal 0 0 1
    outer loop
      vertex 0 3.09799 5
      vertex -0.922793 1.36779 5
      vertex -0.75 0 5
    endloop
  endfacet
  facet normal 0 0 1
    outer loop
      vertex 0 3.09799 5
      vertex -1.43031 2.64964 5
      vertex -0.922793 1.36779 5
    endloop
  endfacet
  facet normal 0 0 1
    outer loop
      vertex -2.24067 3.76501 5
      vertex -0.586882 4.1145 5
      vertex -1.56609 5.20201 5
    endloop
  endfacet
  facet normal 0 0 1
    outer loop
      vertex -0.586882 4.1145 5
      vertex -2.24067 3.76501 5
      vertex -1.43031 2.64964 5
    endloop
  endfacet
  facet normal 0 0 1
    outer loop
      vertex -3.30295 4.6438 5
      vertex -1.56609 5.20201 5
      vertex -2.75 6.06218 5
    endloop
  endfacet
  facet normal 0 0 1
    outer loop
      vertex -1.56609 5.20201 5
      vertex -3.30295 4.6438 5
      vertex -2.24067 3.76501 5
    endloop
  endfacet
  facet normal 0 0 1
    outer loop
      vertex -4.55041 5.23081 5
      vertex -2.75 6.06218 5
      vertex -4.08688 6.6574 5
    endloop
  endfacet
  facet normal 0 0 1
    outer loop
      vertex -2.75 6.06218 5
      vertex -4.55041 5.23081 5
      vertex -3.30295 4.6438 5
    endloop
  endfacet
  facet normal 0 0 1
    outer loop
      vertex -5.5183 6.96165 5
      vertex -4.55041 5.23081 5
      vertex -4.08688 6.6574 5
    endloop
  endfacet
  facet normal 0 0 1
    outer loop
      vertex -5.5183 6.96165 5
      vertex -5.90465 5.48915 5
      vertex -4.55041 5.23081 5
    endloop
  endfacet
  facet normal -0 0 1
    outer loop
      vertex -6.9817 6.96165 5
      vertex -5.90465 5.48915 5
      vertex -5.5183 6.96165 5
    endloop
  endfacet
  facet normal 0 0 1
    outer loop
      vertex -6.9817 6.96165 5
      vertex -7.2806 5.40258 5
      vertex -5.90465 5.48915 5
    endloop
  endfacet
  facet normal -0 0 1
    outer loop
      vertex -8.41312 6.6574 5
      vertex -7.2806 5.40258 5
      vertex -6.9817 6.96165 5
    endloop
  endfacet
  facet normal 0 0 1
    outer loop
      vertex -8.41312 6.6574 5
      vertex -8.59179 4.97655 5
      vertex -7.2806 5.40258 5
    endloop
  endfacet
  facet normal -0 0 1
    outer loop
      vertex -9.75 6.06218 5
      vertex -8.59179 4.97655 5
      vertex -8.41312 6.6574 5
    endloop
  endfacet
  facet normal 0 0 1
    outer loop
      vertex -9.75 6.06218 5
      vertex -9.75583 4.23782 5
      vertex -8.59179 4.97655 5
    endloop
  endfacet
  facet normal -0 0 1
    outer loop
      vertex -10.9339 5.20201 5
      vertex -9.75583 4.23782 5
      vertex -9.75 6.06218 5
    endloop
  endfacet
  facet normal 0 0 1
    outer loop
      vertex -9.75583 4.23782 5
      vertex -10.9339 5.20201 5
      vertex -10.6996 3.23282 5
    endloop
  endfacet
  facet normal -0 0 1
    outer loop
      vertex -11.9131 4.1145 5
      vertex -10.6996 3.23282 5
      vertex -10.9339 5.20201 5
    endloop
  endfacet
  facet normal 0 0 1
    outer loop
      vertex -12.6448 2.84716 5
      vertex -10.6996 3.23282 5
      vertex -11.9131 4.1145 5
    endloop
  endfacet
  facet normal 0 0 1
    outer loop
      vertex -13.097 1.45538 5
      vertex -11.3638 2.02468 5
      vertex -12.6448 2.84716 5
    endloop
  endfacet
  facet normal 0 0 1
    outer loop
      vertex -10.6996 3.23282 5
      vertex -12.6448 2.84716 5
      vertex -11.3638 2.02468 5
    endloop
  endfacet
  facet normal -0 0 1
    outer loop
      vertex -1.43031 -2.64964 5
      vertex 0 -3.09799 5
      vertex -0.922793 -1.36779 5
    endloop
  endfacet
  facet normal 0 0 1
    outer loop
      vertex 0 -3.09799 5
      vertex -1.43031 -2.64964 5
      vertex -0.586882 -4.1145 5
    endloop
  endfacet
  facet normal -0 0 1
    outer loop
      vertex -2.24067 -3.76501 5
      vertex -0.586882 -4.1145 5
      vertex -1.43031 -2.64964 5
    endloop
  endfacet
  facet normal 0 0 1
    outer loop
      vertex -0.586882 -4.1145 5
      vertex -2.24067 -3.76501 5
      vertex -1.56609 -5.20201 5
    endloop
  endfacet
  facet normal -0 0 1
    outer loop
      vertex -3.30295 -4.6438 5
      vertex -1.56609 -5.20201 5
      vertex -2.24067 -3.76501 5
    endloop
  endfacet
  facet normal 0 0 1
    outer loop
      vertex -1.56609 -5.20201 5
      vertex -3.30295 -4.6438 5
      vertex -2.75 -6.06218 5
    endloop
  endfacet
  facet normal -0 0 1
    outer loop
      vertex -4.55041 -5.23081 5
      vertex -2.75 -6.06218 5
      vertex -3.30295 -4.6438 5
    endloop
  endfacet
  facet normal 0 0 1
    outer loop
      vertex -2.75 -6.06218 5
      vertex -4.55041 -5.23081 5
      vertex -4.08688 -6.6574 5
    endloop
  endfacet
  facet normal 0 0 1
    outer loop
      vertex -4.55041 -5.23081 5
      vertex -5.5183 -6.96165 5
      vertex -4.08688 -6.6574 5
    endloop
  endfacet
  facet normal -0 0 1
    outer loop
      vertex -5.90465 -5.48915 5
      vertex -5.5183 -6.96165 5
      vertex -4.55041 -5.23081 5
    endloop
  endfacet
  facet normal 0 0 1
    outer loop
      vertex -5.90465 -5.48915 5
      vertex -6.9817 -6.96165 5
      vertex -5.5183 -6.96165 5
    endloop
  endfacet
  facet normal 0 0 1
    outer loop
      vertex -7.2806 -5.40258 5
      vertex -6.9817 -6.96165 5
      vertex -5.90465 -5.48915 5
    endloop
  endfacet
  facet normal 0 0 1
    outer loop
      vertex -7.2806 -5.40258 5
      vertex -8.41312 -6.6574 5
      vertex -6.9817 -6.96165 5
    endloop
  endfacet
  facet normal 0 0 1
    outer loop
      vertex -8.59179 -4.97655 5
      vertex -8.41312 -6.6574 5
      vertex -7.2806 -5.40258 5
    endloop
  endfacet
  facet normal 0 0 1
    outer loop
      vertex -8.59179 -4.97655 5
      vertex -9.75 -6.06218 5
      vertex -8.41312 -6.6574 5
    endloop
  endfacet
  facet normal 0 0 1
    outer loop
      vertex -9.75583 -4.23782 5
      vertex -9.75 -6.06218 5
      vertex -8.59179 -4.97655 5
    endloop
  endfacet
  facet normal 0 0 1
    outer loop
      vertex -10.9339 -5.20201 5
      vertex -9.75583 -4.23782 5
      vertex -10.6996 -3.23282 5
    endloop
  endfacet
  facet normal 0 0 1
    outer loop
      vertex -9.75583 -4.23782 5
      vertex -10.9339 -5.20201 5
      vertex -9.75 -6.06218 5
    endloop
  endfacet
  facet normal -0 0 1
    outer loop
      vertex -12.6448 -2.84716 5
      vertex -10.6996 -3.23282 5
      vertex -11.3638 -2.02468 5
    endloop
  endfacet
  facet normal -0 0 1
    outer loop
      vertex -13.097 -1.45538 5
      vertex -11.3638 -2.02468 5
      vertex -11.7066 -0.689332 5
    endloop
  endfacet
  facet normal 0 0 1
    outer loop
      vertex -10.6996 -3.23282 5
      vertex -11.9131 -4.1145 5
      vertex -10.9339 -5.20201 5
    endloop
  endfacet
  facet normal 0 0 1
    outer loop
      vertex -11.3638 2.02468 5
      vertex -13.097 1.45538 5
      vertex -11.7066 0.689332 5
    endloop
  endfacet
  facet normal 0 0 1
    outer loop
      vertex -13.25 0 5
      vertex -11.7066 0.689332 5
      vertex -13.097 1.45538 5
    endloop
  endfacet
  facet normal 0 0 1
    outer loop
      vertex -10.6996 -3.23282 5
      vertex -12.6448 -2.84716 5
      vertex -11.9131 -4.1145 5
    endloop
  endfacet
  facet normal 0 0 1
    outer loop
      vertex -11.7066 0.689332 5
      vertex -13.25 0 5
      vertex -11.7066 -0.689332 5
    endloop
  endfacet
  facet normal 0 0 1
    outer loop
      vertex -11.3638 -2.02468 5
      vertex -13.097 -1.45538 5
      vertex -12.6448 -2.84716 5
    endloop
  endfacet
  facet normal 0 0 1
    outer loop
      vertex -11.7066 -0.689332 5
      vertex -13.25 0 5
      vertex -13.097 -1.45538 5
    endloop
  endfacet
  facet normal -0.406737 0.913545 0
    outer loop
      vertex -8.41312 6.6574 -5
      vertex -9.75 6.06218 5
      vertex -8.41312 6.6574 5
    endloop
  endfacet
  facet normal -0.406737 0.913545 0
    outer loop
      vertex -9.75 6.06218 5
      vertex -8.41312 6.6574 -5
      vertex -9.75 6.06218 -5
    endloop
  endfacet
  facet normal 0 0 -1
    outer loop
      vertex -1.43031 2.64964 -5
      vertex 0 3.09799 -5
      vertex -0.922793 1.36779 -5
    endloop
  endfacet
  facet normal -0 0 -1
    outer loop
      vertex 0 3.09799 -5
      vertex -1.43031 2.64964 -5
      vertex -0.586882 4.1145 -5
    endloop
  endfacet
  facet normal 0 0 -1
    outer loop
      vertex -2.24067 3.76501 -5
      vertex -0.586882 4.1145 -5
      vertex -1.43031 2.64964 -5
    endloop
  endfacet
  facet normal -0 0 -1
    outer loop
      vertex -0.586882 4.1145 -5
      vertex -2.24067 3.76501 -5
      vertex -1.56609 5.20201 -5
    endloop
  endfacet
  facet normal 0 0 -1
    outer loop
      vertex -3.30295 4.6438 -5
      vertex -1.56609 5.20201 -5
      vertex -2.24067 3.76501 -5
    endloop
  endfacet
  facet normal -0 0 -1
    outer loop
      vertex -1.56609 5.20201 -5
      vertex -3.30295 4.6438 -5
      vertex -2.75 6.06218 -5
    endloop
  endfacet
  facet normal 0 0 -1
    outer loop
      vertex -4.55041 5.23081 -5
      vertex -2.75 6.06218 -5
      vertex -3.30295 4.6438 -5
    endloop
  endfacet
  facet normal -0 0 -1
    outer loop
      vertex -2.75 6.06218 -5
      vertex -4.55041 5.23081 -5
      vertex -4.08688 6.6574 -5
    endloop
  endfacet
  facet normal 0 0 -1
    outer loop
      vertex -4.55041 5.23081 -5
      vertex -5.5183 6.96165 -5
      vertex -4.08688 6.6574 -5
    endloop
  endfacet
  facet normal 0 0 -1
    outer loop
      vertex -5.90465 5.48915 -5
      vertex -5.5183 6.96165 -5
      vertex -4.55041 5.23081 -5
    endloop
  endfacet
  facet normal 0 0 -1
    outer loop
      vertex -5.90465 5.48915 -5
      vertex -6.9817 6.96165 -5
      vertex -5.5183 6.96165 -5
    endloop
  endfacet
  facet normal 0 0 -1
    outer loop
      vertex -7.2806 5.40258 -5
      vertex -6.9817 6.96165 -5
      vertex -5.90465 5.48915 -5
    endloop
  endfacet
  facet normal 0 0 -1
    outer loop
      vertex -7.2806 5.40258 -5
      vertex -8.41312 6.6574 -5
      vertex -6.9817 6.96165 -5
    endloop
  endfacet
  facet normal 0 0 -1
    outer loop
      vertex -8.59179 4.97655 -5
      vertex -8.41312 6.6574 -5
      vertex -7.2806 5.40258 -5
    endloop
  endfacet
  facet normal 0 0 -1
    outer loop
      vertex -8.59179 4.97655 -5
      vertex -9.75 6.06218 -5
      vertex -8.41312 6.6574 -5
    endloop
  endfacet
  facet normal 0 0 -1
    outer loop
      vertex -9.75583 4.23782 -5
      vertex -9.75 6.06218 -5
      vertex -8.59179 4.97655 -5
    endloop
  endfacet
  facet normal 0 0 -1
    outer loop
      vertex -10.9339 5.20201 -5
      vertex -9.75583 4.23782 -5
      vertex -10.6996 3.23282 -5
    endloop
  endfacet
  facet normal 0 0 -1
    outer loop
      vertex -9.75583 4.23782 -5
      vertex -10.9339 5.20201 -5
      vertex -9.75 6.06218 -5
    endloop
  endfacet
  facet normal 0 0 -1
    outer loop
      vertex -12.6448 2.84716 -5
      vertex -10.6996 3.23282 -5
      vertex -11.3638 2.02468 -5
    endloop
  endfacet
  facet normal 0 0 -1
    outer loop
      vertex -13.097 1.45538 -5
      vertex -11.3638 2.02468 -5
      vertex -11.7066 0.689332 -5
    endloop
  endfacet
  facet normal 0 0 -1
    outer loop
      vertex -10.6996 3.23282 -5
      vertex -11.9131 4.1145 -5
      vertex -10.9339 5.20201 -5
    endloop
  endfacet
  facet normal 0 0 -1
    outer loop
      vertex -11.3638 -2.02468 -5
      vertex -13.097 -1.45538 -5
      vertex -11.7066 -0.689332 -5
    endloop
  endfacet
  facet normal 0 0 -1
    outer loop
      vertex -13.25 0 -5
      vertex -11.7066 -0.689332 -5
      vertex -13.097 -1.45538 -5
    endloop
  endfacet
  facet normal -0 0 -1
    outer loop
      vertex -10.6996 3.23282 -5
      vertex -12.6448 2.84716 -5
      vertex -11.9131 4.1145 -5
    endloop
  endfacet
  facet normal 0 0 -1
    outer loop
      vertex -11.7066 -0.689332 -5
      vertex -13.25 0 -5
      vertex -11.7066 0.689332 -5
    endloop
  endfacet
  facet normal -0 0 -1
    outer loop
      vertex -11.3638 2.02468 -5
      vertex -13.097 1.45538 -5
      vertex -12.6448 2.84716 -5
    endloop
  endfacet
  facet normal -0 0 -1
    outer loop
      vertex -11.7066 0.689332 -5
      vertex -13.25 0 -5
      vertex -13.097 1.45538 -5
    endloop
  endfacet
  facet normal 0 0 -1
    outer loop
      vertex 11.75 0 -5
      vertex 13.25 0 -5
      vertex 13.097 -1.45538 -5
    endloop
  endfacet
  facet normal 0 0 -1
    outer loop
      vertex 11.5772 -1.36779 -5
      vertex 13.097 -1.45538 -5
      vertex 12.6448 -2.84716 -5
    endloop
  endfacet
  facet normal 0 0 -1
    outer loop
      vertex 13.25 0 -5
      vertex 11.75 0 -5
      vertex 13.097 1.45538 -5
    endloop
  endfacet
  facet normal 0 0 -1
    outer loop
      vertex 11.0697 -2.64964 -5
      vertex 12.6448 -2.84716 -5
      vertex 11.9131 -4.1145 -5
    endloop
  endfacet
  facet normal 0 0 -1
    outer loop
      vertex 11.5772 1.36779 -5
      vertex 13.097 1.45538 -5
      vertex 11.75 0 -5
    endloop
  endfacet
  facet normal -0 0 -1
    outer loop
      vertex 13.097 1.45538 -5
      vertex 11.5772 1.36779 -5
      vertex 12.6448 2.84716 -5
    endloop
  endfacet
  facet normal 0 0 -1
    outer loop
      vertex 13.097 -1.45538 -5
      vertex 11.5772 -1.36779 -5
      vertex 11.75 0 -5
    endloop
  endfacet
  facet normal 0 0 -1
    outer loop
      vertex 12.6448 -2.84716 -5
      vertex 11.0697 -2.64964 -5
      vertex 11.5772 -1.36779 -5
    endloop
  endfacet
  facet normal 0 0 -1
    outer loop
      vertex 10.2593 -3.76501 -5
      vertex 11.9131 -4.1145 -5
      vertex 10.9339 -5.20201 -5
    endloop
  endfacet
  facet normal 0 0 -1
    outer loop
      vertex 11.9131 -4.1145 -5
      vertex 10.2593 -3.76501 -5
      vertex 11.0697 -2.64964 -5
    endloop
  endfacet
  facet normal 0 0 -1
    outer loop
      vertex 9.19705 -4.6438 -5
      vertex 10.9339 -5.20201 -5
      vertex 9.75 -6.06218 -5
    endloop
  endfacet
  facet normal 0 0 -1
    outer loop
      vertex 10.9339 -5.20201 -5
      vertex 9.19705 -4.6438 -5
      vertex 10.2593 -3.76501 -5
    endloop
  endfacet
  facet normal 0 0 -1
    outer loop
      vertex 7.94959 -5.23081 -5
      vertex 9.75 -6.06218 -5
      vertex 8.41312 -6.6574 -5
    endloop
  endfacet
  facet normal 0 0 -1
    outer loop
      vertex 9.75 -6.06218 -5
      vertex 7.94959 -5.23081 -5
      vertex 9.19705 -4.6438 -5
    endloop
  endfacet
  facet normal 0 0 -1
    outer loop
      vertex 6.9817 -6.96165 -5
      vertex 7.94959 -5.23081 -5
      vertex 8.41312 -6.6574 -5
    endloop
  endfacet
  facet normal 0 0 -1
    outer loop
      vertex 6.9817 -6.96165 -5
      vertex 6.59535 -5.48915 -5
      vertex 7.94959 -5.23081 -5
    endloop
  endfacet
  facet normal 0 0 -1
    outer loop
      vertex 5.5183 -6.96165 -5
      vertex 6.59535 -5.48915 -5
      vertex 6.9817 -6.96165 -5
    endloop
  endfacet
  facet normal 0 0 -1
    outer loop
      vertex 5.5183 -6.96165 -5
      vertex 5.2194 -5.40258 -5
      vertex 6.59535 -5.48915 -5
    endloop
  endfacet
  facet normal 0 0 -1
    outer loop
      vertex 4.08688 -6.6574 -5
      vertex 5.2194 -5.40258 -5
      vertex 5.5183 -6.96165 -5
    endloop
  endfacet
  facet normal 0 0 -1
    outer loop
      vertex 4.08688 -6.6574 -5
      vertex 3.90821 -4.97655 -5
      vertex 5.2194 -5.40258 -5
    endloop
  endfacet
  facet normal 0 0 -1
    outer loop
      vertex 2.75 -6.06218 -5
      vertex 3.90821 -4.97655 -5
      vertex 4.08688 -6.6574 -5
    endloop
  endfacet
  facet normal 0 0 -1
    outer loop
      vertex 2.75 -6.06218 -5
      vertex 2.74417 -4.23782 -5
      vertex 3.90821 -4.97655 -5
    endloop
  endfacet
  facet normal 0 0 -1
    outer loop
      vertex 1.56609 -5.20201 -5
      vertex 2.74417 -4.23782 -5
      vertex 2.75 -6.06218 -5
    endloop
  endfacet
  facet normal -0 0 -1
    outer loop
      vertex 2.74417 -4.23782 -5
      vertex 1.56609 -5.20201 -5
      vertex 1.80041 -3.23282 -5
    endloop
  endfacet
  facet normal 0 0 -1
    outer loop
      vertex 0.586882 -4.1145 -5
      vertex 1.80041 -3.23282 -5
      vertex 1.56609 -5.20201 -5
    endloop
  endfacet
  facet normal 0 0 -1
    outer loop
      vertex 0 -3.09799 -5
      vertex 1.80041 -3.23282 -5
      vertex 0.586882 -4.1145 -5
    endloop
  endfacet
  facet normal 0 0 -1
    outer loop
      vertex -0.922793 -1.36779 -5
      vertex 1.13623 -2.02468 -5
      vertex 0 -3.09799 -5
    endloop
  endfacet
  facet normal 0 0 -1
    outer loop
      vertex 1.80041 -3.23282 -5
      vertex 0 -3.09799 -5
      vertex 1.13623 -2.02468 -5
    endloop
  endfacet
  facet normal 0 0 -1
    outer loop
      vertex 11.0697 2.64964 -5
      vertex 12.6448 2.84716 -5
      vertex 11.5772 1.36779 -5
    endloop
  endfacet
  facet normal -0 0 -1
    outer loop
      vertex 12.6448 2.84716 -5
      vertex 11.0697 2.64964 -5
      vertex 11.9131 4.1145 -5
    endloop
  endfacet
  facet normal 0 0 -1
    outer loop
      vertex 10.2593 3.76501 -5
      vertex 11.9131 4.1145 -5
      vertex 11.0697 2.64964 -5
    endloop
  endfacet
  facet normal -0 0 -1
    outer loop
      vertex 11.9131 4.1145 -5
      vertex 10.2593 3.76501 -5
      vertex 10.9339 5.20201 -5
    endloop
  endfacet
  facet normal 0 0 -1
    outer loop
      vertex 9.19705 4.6438 -5
      vertex 10.9339 5.20201 -5
      vertex 10.2593 3.76501 -5
    endloop
  endfacet
  facet normal -0 0 -1
    outer loop
      vertex 10.9339 5.20201 -5
      vertex 9.19705 4.6438 -5
      vertex 9.75 6.06218 -5
    endloop
  endfacet
  facet normal 0 0 -1
    outer loop
      vertex 7.94959 5.23081 -5
      vertex 9.75 6.06218 -5
      vertex 9.19705 4.6438 -5
    endloop
  endfacet
  facet normal -0 0 -1
    outer loop
      vertex 9.75 6.06218 -5
      vertex 7.94959 5.23081 -5
      vertex 8.41312 6.6574 -5
    endloop
  endfacet
  facet normal 0 0 -1
    outer loop
      vertex 7.94959 5.23081 -5
      vertex 6.9817 6.96165 -5
      vertex 8.41312 6.6574 -5
    endloop
  endfacet
  facet normal 0 0 -1
    outer loop
      vertex 6.59535 5.48915 -5
      vertex 6.9817 6.96165 -5
      vertex 7.94959 5.23081 -5
    endloop
  endfacet
  facet normal 0 0 -1
    outer loop
      vertex 6.59535 5.48915 -5
      vertex 5.5183 6.96165 -5
      vertex 6.9817 6.96165 -5
    endloop
  endfacet
  facet normal 0 0 -1
    outer loop
      vertex 5.2194 5.40258 -5
      vertex 5.5183 6.96165 -5
      vertex 6.59535 5.48915 -5
    endloop
  endfacet
  facet normal 0 0 -1
    outer loop
      vertex 5.2194 5.40258 -5
      vertex 4.08688 6.6574 -5
      vertex 5.5183 6.96165 -5
    endloop
  endfacet
  facet normal 0 0 -1
    outer loop
      vertex 3.90821 4.97655 -5
      vertex 4.08688 6.6574 -5
      vertex 5.2194 5.40258 -5
    endloop
  endfacet
  facet normal 0 0 -1
    outer loop
      vertex 3.90821 4.97655 -5
      vertex 2.75 6.06218 -5
      vertex 4.08688 6.6574 -5
    endloop
  endfacet
  facet normal 0 0 -1
    outer loop
      vertex 2.74417 4.23782 -5
      vertex 2.75 6.06218 -5
      vertex 3.90821 4.97655 -5
    endloop
  endfacet
  facet normal 0 0 -1
    outer loop
      vertex 1.56609 5.20201 -5
      vertex 2.74417 4.23782 -5
      vertex 1.80041 3.23282 -5
    endloop
  endfacet
  facet normal 0 0 -1
    outer loop
      vertex 2.74417 4.23782 -5
      vertex 1.56609 5.20201 -5
      vertex 2.75 6.06218 -5
    endloop
  endfacet
  facet normal 0 0 -1
    outer loop
      vertex 0 3.09799 -5
      vertex 1.80041 3.23282 -5
      vertex 1.13623 2.02468 -5
    endloop
  endfacet
  facet normal 0 0 -1
    outer loop
      vertex -0.922793 1.36779 -5
      vertex 1.13623 2.02468 -5
      vertex 0.793369 0.689332 -5
    endloop
  endfacet
  facet normal 0 0 -1
    outer loop
      vertex 1.80041 3.23282 -5
      vertex 0.586882 4.1145 -5
      vertex 1.56609 5.20201 -5
    endloop
  endfacet
  facet normal 0 0 -1
    outer loop
      vertex 1.13623 -2.02468 -5
      vertex -0.922793 -1.36779 -5
      vertex 0.793369 -0.689332 -5
    endloop
  endfacet
  facet normal 0 -0 -1
    outer loop
      vertex -0.75 0 -5
      vertex 0.793369 -0.689332 -5
      vertex -0.922793 -1.36779 -5
    endloop
  endfacet
  facet normal -0 0 -1
    outer loop
      vertex 1.80041 3.23282 -5
      vertex 0 3.09799 -5
      vertex 0.586882 4.1145 -5
    endloop
  endfacet
  facet normal 0 0 -1
    outer loop
      vertex -1.43031 -2.64964 -5
      vertex 0 -3.09799 -5
      vertex -0.586882 -4.1145 -5
    endloop
  endfacet
  facet normal 0 0 -1
    outer loop
      vertex -0.922793 1.36779 -5
      vertex 0.793369 0.689332 -5
      vertex -0.75 0 -5
    endloop
  endfacet
  facet normal -0 0 -1
    outer loop
      vertex 1.13623 2.02468 -5
      vertex -0.922793 1.36779 -5
      vertex 0 3.09799 -5
    endloop
  endfacet
  facet normal 0 0 -1
    outer loop
      vertex 0.793369 -0.689332 -5
      vertex -0.75 0 -5
      vertex 0.793369 0.689332 -5
    endloop
  endfacet
  facet normal 0 0 -1
    outer loop
      vertex 0 -3.09799 -5
      vertex -1.43031 -2.64964 -5
      vertex -0.922793 -1.36779 -5
    endloop
  endfacet
  facet normal 0 0 -1
    outer loop
      vertex -2.24067 -3.76501 -5
      vertex -0.586882 -4.1145 -5
      vertex -1.56609 -5.20201 -5
    endloop
  endfacet
  facet normal 0 0 -1
    outer loop
      vertex -0.586882 -4.1145 -5
      vertex -2.24067 -3.76501 -5
      vertex -1.43031 -2.64964 -5
    endloop
  endfacet
  facet normal 0 0 -1
    outer loop
      vertex -3.30295 -4.6438 -5
      vertex -1.56609 -5.20201 -5
      vertex -2.75 -6.06218 -5
    endloop
  endfacet
  facet normal 0 0 -1
    outer loop
      vertex -1.56609 -5.20201 -5
      vertex -3.30295 -4.6438 -5
      vertex -2.24067 -3.76501 -5
    endloop
  endfacet
  facet normal 0 0 -1
    outer loop
      vertex -4.55041 -5.23081 -5
      vertex -2.75 -6.06218 -5
      vertex -4.08688 -6.6574 -5
    endloop
  endfacet
  facet normal 0 0 -1
    outer loop
      vertex -2.75 -6.06218 -5
      vertex -4.55041 -5.23081 -5
      vertex -3.30295 -4.6438 -5
    endloop
  endfacet
  facet normal 0 0 -1
    outer loop
      vertex -5.5183 -6.96165 -5
      vertex -4.55041 -5.23081 -5
      vertex -4.08688 -6.6574 -5
    endloop
  endfacet
  facet normal 0 0 -1
    outer loop
      vertex -5.5183 -6.96165 -5
      vertex -5.90465 -5.48915 -5
      vertex -4.55041 -5.23081 -5
    endloop
  endfacet
  facet normal 0 0 -1
    outer loop
      vertex -6.9817 -6.96165 -5
      vertex -5.90465 -5.48915 -5
      vertex -5.5183 -6.96165 -5
    endloop
  endfacet
  facet normal 0 0 -1
    outer loop
      vertex -6.9817 -6.96165 -5
      vertex -7.2806 -5.40258 -5
      vertex -5.90465 -5.48915 -5
    endloop
  endfacet
  facet normal 0 0 -1
    outer loop
      vertex -8.41312 -6.6574 -5
      vertex -7.2806 -5.40258 -5
      vertex -6.9817 -6.96165 -5
    endloop
  endfacet
  facet normal 0 0 -1
    outer loop
      vertex -8.41312 -6.6574 -5
      vertex -8.59179 -4.97655 -5
      vertex -7.2806 -5.40258 -5
    endloop
  endfacet
  facet normal 0 0 -1
    outer loop
      vertex -9.75 -6.06218 -5
      vertex -8.59179 -4.97655 -5
      vertex -8.41312 -6.6574 -5
    endloop
  endfacet
  facet normal 0 0 -1
    outer loop
      vertex -9.75 -6.06218 -5
      vertex -9.75583 -4.23782 -5
      vertex -8.59179 -4.97655 -5
    endloop
  endfacet
  facet normal 0 0 -1
    outer loop
      vertex -10.9339 -5.20201 -5
      vertex -9.75583 -4.23782 -5
      vertex -9.75 -6.06218 -5
    endloop
  endfacet
  facet normal -0 0 -1
    outer loop
      vertex -9.75583 -4.23782 -5
      vertex -10.9339 -5.20201 -5
      vertex -10.6996 -3.23282 -5
    endloop
  endfacet
  facet normal 0 0 -1
    outer loop
      vertex -11.9131 -4.1145 -5
      vertex -10.6996 -3.23282 -5
      vertex -10.9339 -5.20201 -5
    endloop
  endfacet
  facet normal 0 0 -1
    outer loop
      vertex -12.6448 -2.84716 -5
      vertex -10.6996 -3.23282 -5
      vertex -11.9131 -4.1145 -5
    endloop
  endfacet
  facet normal 0 0 -1
    outer loop
      vertex -13.097 -1.45538 -5
      vertex -11.3638 -2.02468 -5
      vertex -12.6448 -2.84716 -5
    endloop
  endfacet
  facet normal 0 0 -1
    outer loop
      vertex -10.6996 -3.23282 -5
      vertex -12.6448 -2.84716 -5
      vertex -11.3638 -2.02468 -5
    endloop
  endfacet
  facet normal 0.207912 -0.978148 0
    outer loop
      vertex -5.5183 -6.96165 -5
      vertex -4.08688 -6.6574 5
      vertex -5.5183 -6.96165 5
    endloop
  endfacet
  facet normal 0.207912 -0.978148 0
    outer loop
      vertex -4.08688 -6.6574 5
      vertex -5.5183 -6.96165 -5
      vertex -4.08688 -6.6574 -5
    endloop
  endfacet
  facet normal 0.743145 -0.66913 0
    outer loop
      vertex -1.56609 -5.20201 5
      vertex -0.586882 -4.1145 -5
      vertex -0.586882 -4.1145 5
    endloop
  endfacet
  facet normal 0.743145 -0.66913 0
    outer loop
      vertex -0.586882 -4.1145 -5
      vertex -1.56609 -5.20201 5
      vertex -1.56609 -5.20201 -5
    endloop
  endfacet
  facet normal 0.866026 -0.5 0
    outer loop
      vertex -0.586882 -4.1145 5
      vertex 0 -3.09799 -5
      vertex 0 -3.09799 5
    endloop
  endfacet
  facet normal 0.866026 -0.5 0
    outer loop
      vertex 0 -3.09799 -5
      vertex -0.586882 -4.1145 5
      vertex -0.586882 -4.1145 -5
    endloop
  endfacet
  facet normal -0.587786 -0.809017 0
    outer loop
      vertex -10.9339 -5.20201 -5
      vertex -9.75 -6.06218 5
      vertex -10.9339 -5.20201 5
    endloop
  endfacet
  facet normal -0.587786 -0.809017 -0
    outer loop
      vertex -9.75 -6.06218 5
      vertex -10.9339 -5.20201 -5
      vertex -9.75 -6.06218 -5
    endloop
  endfacet
  facet normal -0.866026 -0.5 0
    outer loop
      vertex -11.9131 -4.1145 -5
      vertex -12.6448 -2.84716 5
      vertex -12.6448 -2.84716 -5
    endloop
  endfacet
  facet normal -0.866026 -0.5 0
    outer loop
      vertex -12.6448 -2.84716 5
      vertex -11.9131 -4.1145 -5
      vertex -11.9131 -4.1145 5
    endloop
  endfacet
  facet normal 0.587786 -0.809017 0
    outer loop
      vertex -2.75 -6.06218 -5
      vertex -1.56609 -5.20201 5
      vertex -2.75 -6.06218 5
    endloop
  endfacet
  facet normal 0.587786 -0.809017 0
    outer loop
      vertex -1.56609 -5.20201 5
      vertex -2.75 -6.06218 -5
      vertex -1.56609 -5.20201 -5
    endloop
  endfacet
  facet normal 0.406736 -0.913546 0
    outer loop
      vertex -4.08688 -6.6574 -5
      vertex -2.75 -6.06218 5
      vertex -4.08688 -6.6574 5
    endloop
  endfacet
  facet normal 0.406736 -0.913546 0
    outer loop
      vertex -2.75 -6.06218 5
      vertex -4.08688 -6.6574 -5
      vertex -2.75 -6.06218 -5
    endloop
  endfacet
  facet normal -0.207912 -0.978148 0
    outer loop
      vertex -8.41312 -6.6574 -5
      vertex -6.9817 -6.96165 5
      vertex -8.41312 -6.6574 5
    endloop
  endfacet
  facet normal -0.207912 -0.978148 -0
    outer loop
      vertex -6.9817 -6.96165 5
      vertex -8.41312 -6.6574 -5
      vertex -6.9817 -6.96165 -5
    endloop
  endfacet
  facet normal -0.406736 -0.913546 0
    outer loop
      vertex -9.75 -6.06218 -5
      vertex -8.41312 -6.6574 5
      vertex -9.75 -6.06218 5
    endloop
  endfacet
  facet normal -0.406736 -0.913546 -0
    outer loop
      vertex -8.41312 -6.6574 5
      vertex -9.75 -6.06218 -5
      vertex -8.41312 -6.6574 -5
    endloop
  endfacet
  facet normal -0.743145 -0.66913 0
    outer loop
      vertex -10.9339 -5.20201 -5
      vertex -11.9131 -4.1145 5
      vertex -11.9131 -4.1145 -5
    endloop
  endfacet
  facet normal -0.743145 -0.66913 0
    outer loop
      vertex -11.9131 -4.1145 5
      vertex -10.9339 -5.20201 -5
      vertex -10.9339 -5.20201 5
    endloop
  endfacet
  facet normal -0.951056 -0.309017 0
    outer loop
      vertex -12.6448 -2.84716 -5
      vertex -13.097 -1.45538 5
      vertex -13.097 -1.45538 -5
    endloop
  endfacet
  facet normal -0.951056 -0.309017 0
    outer loop
      vertex -13.097 -1.45538 5
      vertex -12.6448 -2.84716 -5
      vertex -12.6448 -2.84716 5
    endloop
  endfacet
  facet normal -0.994522 -0.104529 0
    outer loop
      vertex -13.097 -1.45538 -5
      vertex -13.25 0 5
      vertex -13.25 0 -5
    endloop
  endfacet
  facet normal -0.994522 -0.104529 0
    outer loop
      vertex -13.25 0 5
      vertex -13.097 -1.45538 -5
      vertex -13.097 -1.45538 5
    endloop
  endfacet
  facet normal -0.992115 -0.125334 0
    outer loop
      vertex -0.75 0 -5
      vertex -0.922793 1.36779 5
      vertex -0.922793 1.36779 -5
    endloop
  endfacet
  facet normal -0.992115 -0.125334 0
    outer loop
      vertex -0.922793 1.36779 5
      vertex -0.75 0 -5
      vertex -0.75 0 5
    endloop
  endfacet
  facet normal 1 -0 0
    outer loop
      vertex -11.7066 -0.689332 5
      vertex -11.7066 0.689332 -5
      vertex -11.7066 0.689332 5
    endloop
  endfacet
  facet normal 1 0 0
    outer loop
      vertex -11.7066 0.689332 -5
      vertex -11.7066 -0.689332 5
      vertex -11.7066 -0.689332 -5
    endloop
  endfacet
  facet normal 0.0627904 -0.998027 0
    outer loop
      vertex -7.2806 5.40258 -5
      vertex -5.90465 5.48915 5
      vertex -7.2806 5.40258 5
    endloop
  endfacet
  facet normal 0.0627904 -0.998027 0
    outer loop
      vertex -5.90465 5.48915 5
      vertex -7.2806 5.40258 -5
      vertex -5.90465 5.48915 -5
    endloop
  endfacet
  facet normal 0.728969 0.684547 0
    outer loop
      vertex -9.75583 -4.23782 5
      vertex -10.6996 -3.23282 -5
      vertex -10.6996 -3.23282 5
    endloop
  endfacet
  facet normal 0.728969 0.684547 0
    outer loop
      vertex -10.6996 -3.23282 -5
      vertex -9.75583 -4.23782 5
      vertex -9.75583 -4.23782 -5
    endloop
  endfacet
  facet normal -0.637424 -0.770513 0
    outer loop
      vertex -3.30295 4.6438 -5
      vertex -2.24067 3.76501 5
      vertex -3.30295 4.6438 5
    endloop
  endfacet
  facet normal -0.637424 -0.770513 -0
    outer loop
      vertex -2.24067 3.76501 5
      vertex -3.30295 4.6438 -5
      vertex -2.24067 3.76501 -5
    endloop
  endfacet
  facet normal -0.425779 -0.904827 0
    outer loop
      vertex -4.55041 5.23081 -5
      vertex -3.30295 4.6438 5
      vertex -4.55041 5.23081 5
    endloop
  endfacet
  facet normal -0.425779 -0.904827 -0
    outer loop
      vertex -3.30295 4.6438 5
      vertex -4.55041 5.23081 -5
      vertex -3.30295 4.6438 -5
    endloop
  endfacet
  facet normal 0.728969 -0.684547 0
    outer loop
      vertex -10.6996 3.23282 5
      vertex -9.75583 4.23782 -5
      vertex -9.75583 4.23782 5
    endloop
  endfacet
  facet normal 0.728969 -0.684547 0
    outer loop
      vertex -9.75583 4.23782 -5
      vertex -10.6996 3.23282 5
      vertex -10.6996 3.23282 -5
    endloop
  endfacet
  facet normal 0.876306 -0.481754 0
    outer loop
      vertex -11.3638 2.02468 5
      vertex -10.6996 3.23282 -5
      vertex -10.6996 3.23282 5
    endloop
  endfacet
  facet normal 0.876306 -0.481754 0
    outer loop
      vertex -10.6996 3.23282 -5
      vertex -11.3638 2.02468 5
      vertex -11.3638 2.02468 -5
    endloop
  endfacet
  facet normal 0.535826 -0.844328 0
    outer loop
      vertex -9.75583 4.23782 -5
      vertex -8.59179 4.97655 5
      vertex -9.75583 4.23782 5
    endloop
  endfacet
  facet normal 0.535826 -0.844328 0
    outer loop
      vertex -8.59179 4.97655 5
      vertex -9.75583 4.23782 -5
      vertex -8.59179 4.97655 -5
    endloop
  endfacet
  facet normal 0.968583 0.24869 0
    outer loop
      vertex -11.3638 -2.02468 5
      vertex -11.7066 -0.689332 -5
      vertex -11.7066 -0.689332 5
    endloop
  endfacet
  facet normal 0.968583 0.24869 0
    outer loop
      vertex -11.7066 -0.689332 -5
      vertex -11.3638 -2.02468 5
      vertex -11.3638 -2.02468 -5
    endloop
  endfacet
  facet normal -0.809017 -0.587785 0
    outer loop
      vertex -1.43031 2.64964 -5
      vertex -2.24067 3.76501 5
      vertex -2.24067 3.76501 -5
    endloop
  endfacet
  facet normal -0.809017 -0.587785 0
    outer loop
      vertex -2.24067 3.76501 5
      vertex -1.43031 2.64964 -5
      vertex -1.43031 2.64964 5
    endloop
  endfacet
  facet normal -0.929776 -0.368125 0
    outer loop
      vertex -0.922793 1.36779 -5
      vertex -1.43031 2.64964 5
      vertex -1.43031 2.64964 -5
    endloop
  endfacet
  facet normal -0.929776 -0.368125 0
    outer loop
      vertex -1.43031 2.64964 5
      vertex -0.922793 1.36779 -5
      vertex -0.922793 1.36779 5
    endloop
  endfacet
  facet normal -0.187381 -0.982287 0
    outer loop
      vertex -5.90465 5.48915 -5
      vertex -4.55041 5.23081 5
      vertex -5.90465 5.48915 5
    endloop
  endfacet
  facet normal -0.187381 -0.982287 -0
    outer loop
      vertex -4.55041 5.23081 5
      vertex -5.90465 5.48915 -5
      vertex -4.55041 5.23081 -5
    endloop
  endfacet
  facet normal 0.968583 -0.24869 0
    outer loop
      vertex -11.7066 0.689332 5
      vertex -11.3638 2.02468 -5
      vertex -11.3638 2.02468 5
    endloop
  endfacet
  facet normal 0.968583 -0.24869 0
    outer loop
      vertex -11.3638 2.02468 -5
      vertex -11.7066 0.689332 5
      vertex -11.7066 0.689332 -5
    endloop
  endfacet
  facet normal 0.309017 -0.951056 0
    outer loop
      vertex -8.59179 4.97655 -5
      vertex -7.2806 5.40258 5
      vertex -8.59179 4.97655 5
    endloop
  endfacet
  facet normal 0.309017 -0.951056 0
    outer loop
      vertex -7.2806 5.40258 5
      vertex -8.59179 4.97655 -5
      vertex -7.2806 5.40258 -5
    endloop
  endfacet
  facet normal -0.992115 0.125334 0
    outer loop
      vertex -0.922793 -1.36779 -5
      vertex -0.75 0 5
      vertex -0.75 0 -5
    endloop
  endfacet
  facet normal -0.992115 0.125334 0
    outer loop
      vertex -0.75 0 5
      vertex -0.922793 -1.36779 -5
      vertex -0.922793 -1.36779 5
    endloop
  endfacet
  facet normal -0.187381 0.982287 0
    outer loop
      vertex -4.55041 -5.23081 -5
      vertex -5.90465 -5.48915 5
      vertex -4.55041 -5.23081 5
    endloop
  endfacet
  facet normal -0.187381 0.982287 0
    outer loop
      vertex -5.90465 -5.48915 5
      vertex -4.55041 -5.23081 -5
      vertex -5.90465 -5.48915 -5
    endloop
  endfacet
  facet normal 0.535826 0.844328 -0
    outer loop
      vertex -8.59179 -4.97655 -5
      vertex -9.75583 -4.23782 5
      vertex -8.59179 -4.97655 5
    endloop
  endfacet
  facet normal 0.535826 0.844328 0
    outer loop
      vertex -9.75583 -4.23782 5
      vertex -8.59179 -4.97655 -5
      vertex -9.75583 -4.23782 -5
    endloop
  endfacet
  facet normal 0.0627904 0.998027 -0
    outer loop
      vertex -5.90465 -5.48915 -5
      vertex -7.2806 -5.40258 5
      vertex -5.90465 -5.48915 5
    endloop
  endfacet
  facet normal 0.0627904 0.998027 0
    outer loop
      vertex -7.2806 -5.40258 5
      vertex -5.90465 -5.48915 -5
      vertex -7.2806 -5.40258 -5
    endloop
  endfacet
  facet normal 0.876306 0.481754 0
    outer loop
      vertex -10.6996 -3.23282 5
      vertex -11.3638 -2.02468 -5
      vertex -11.3638 -2.02468 5
    endloop
  endfacet
  facet normal 0.876306 0.481754 0
    outer loop
      vertex -11.3638 -2.02468 -5
      vertex -10.6996 -3.23282 5
      vertex -10.6996 -3.23282 -5
    endloop
  endfacet
  facet normal -0.809017 0.587785 0
    outer loop
      vertex -2.24067 -3.76501 -5
      vertex -1.43031 -2.64964 5
      vertex -1.43031 -2.64964 -5
    endloop
  endfacet
  facet normal -0.809017 0.587785 0
    outer loop
      vertex -1.43031 -2.64964 5
      vertex -2.24067 -3.76501 -5
      vertex -2.24067 -3.76501 5
    endloop
  endfacet
  facet normal -0.425779 0.904827 0
    outer loop
      vertex -3.30295 -4.6438 -5
      vertex -4.55041 -5.23081 5
      vertex -3.30295 -4.6438 5
    endloop
  endfacet
  facet normal -0.425779 0.904827 0
    outer loop
      vertex -4.55041 -5.23081 5
      vertex -3.30295 -4.6438 -5
      vertex -4.55041 -5.23081 -5
    endloop
  endfacet
  facet normal 0.309017 0.951056 -0
    outer loop
      vertex -7.2806 -5.40258 -5
      vertex -8.59179 -4.97655 5
      vertex -7.2806 -5.40258 5
    endloop
  endfacet
  facet normal 0.309017 0.951056 0
    outer loop
      vertex -8.59179 -4.97655 5
      vertex -7.2806 -5.40258 -5
      vertex -8.59179 -4.97655 -5
    endloop
  endfacet
  facet normal -0.929776 0.368125 0
    outer loop
      vertex -1.43031 -2.64964 -5
      vertex -0.922793 -1.36779 5
      vertex -0.922793 -1.36779 -5
    endloop
  endfacet
  facet normal -0.929776 0.368125 0
    outer loop
      vertex -0.922793 -1.36779 5
      vertex -1.43031 -2.64964 -5
      vertex -1.43031 -2.64964 5
    endloop
  endfacet
  facet normal -0.637424 0.770513 0
    outer loop
      vertex -2.24067 -3.76501 -5
      vertex -3.30295 -4.6438 5
      vertex -2.24067 -3.76501 5
    endloop
  endfacet
  facet normal -0.637424 0.770513 0
    outer loop
      vertex -3.30295 -4.6438 5
      vertex -2.24067 -3.76501 -5
      vertex -3.30295 -4.6438 -5
    endloop
  endfacet
  facet normal 0.994522 0.104529 0
    outer loop
      vertex 13.25 0 5
      vertex 13.097 1.45538 -5
      vertex 13.097 1.45538 5
    endloop
  endfacet
  facet normal 0.994522 0.104529 0
    outer loop
      vertex 13.097 1.45538 -5
      vertex 13.25 0 5
      vertex 13.25 0 -5
    endloop
  endfacet
  facet normal 0 1 -0
    outer loop
      vertex 6.9817 6.96165 -5
      vertex 5.5183 6.96165 3
      vertex 6.9817 6.96165 3
    endloop
  endfacet
  facet normal 0 1 0
    outer loop
      vertex 5.5183 6.96165 3
      vertex 6.9817 6.96165 -5
      vertex 5.5183 6.96165 -5
    endloop
  endfacet
  facet normal 0 -1 0
    outer loop
      vertex 5.5183 -6.96165 -5
      vertex 6.9817 -6.96165 3
      vertex 5.5183 -6.96165 3
    endloop
  endfacet
  facet normal 0 -1 -0
    outer loop
      vertex 6.9817 -6.96165 3
      vertex 5.5183 -6.96165 -5
      vertex 6.9817 -6.96165 -5
    endloop
  endfacet
  facet normal 0.587786 0.809017 -0
    outer loop
      vertex 10.9339 5.20201 -5
      vertex 9.75 6.06218 5
      vertex 10.9339 5.20201 5
    endloop
  endfacet
  facet normal 0.587786 0.809017 0
    outer loop
      vertex 9.75 6.06218 5
      vertex 10.9339 5.20201 -5
      vertex 9.75 6.06218 -5
    endloop
  endfacet
  facet normal 0.406737 0.913545 0
    outer loop
      vertex 9.75 6.06218 5
      vertex 9.25 6.28479 3
      vertex 9.25 6.28479 5
    endloop
  endfacet
  facet normal 0.406737 0.913545 -0
    outer loop
      vertex 9.75 6.06218 -5
      vertex 9.25 6.28479 3
      vertex 9.75 6.06218 5
    endloop
  endfacet
  facet normal 0.406736 0.913546 -8.70776e-09
    outer loop
      vertex 8.41312 6.6574 -5
      vertex 9.25 6.28479 3
      vertex 9.75 6.06218 -5
    endloop
  endfacet
  facet normal 0.406736 0.913546 0
    outer loop
      vertex 9.25 6.28479 3
      vertex 8.41312 6.6574 -5
      vertex 8.41312 6.6574 3
    endloop
  endfacet
  facet normal -0.587785 0.809017 0
    outer loop
      vertex 2.75 6.06218 -5
      vertex 1.56609 5.20201 5
      vertex 2.75 6.06218 5
    endloop
  endfacet
  facet normal -0.587785 0.809017 0
    outer loop
      vertex 1.56609 5.20201 5
      vertex 2.75 6.06218 -5
      vertex 1.56609 5.20201 -5
    endloop
  endfacet
  facet normal -0.207912 0.978148 0
    outer loop
      vertex 5.5183 6.96165 -5
      vertex 4.08688 6.6574 3
      vertex 5.5183 6.96165 3
    endloop
  endfacet
  facet normal -0.207912 0.978148 0
    outer loop
      vertex 4.08688 6.6574 3
      vertex 5.5183 6.96165 -5
      vertex 4.08688 6.6574 -5
    endloop
  endfacet
  facet normal 0.866026 0.5 0
    outer loop
      vertex 12.6448 2.84716 5
      vertex 11.9131 4.1145 -5
      vertex 11.9131 4.1145 5
    endloop
  endfacet
  facet normal 0.866026 0.5 0
    outer loop
      vertex 11.9131 4.1145 -5
      vertex 12.6448 2.84716 5
      vertex 12.6448 2.84716 -5
    endloop
  endfacet
  facet normal 0.951056 0.309017 0
    outer loop
      vertex 13.097 1.45538 5
      vertex 12.6448 2.84716 -5
      vertex 12.6448 2.84716 5
    endloop
  endfacet
  facet normal 0.951056 0.309017 0
    outer loop
      vertex 12.6448 2.84716 -5
      vertex 13.097 1.45538 5
      vertex 13.097 1.45538 -5
    endloop
  endfacet
  facet normal 0.743145 0.66913 0
    outer loop
      vertex 11.9131 4.1145 5
      vertex 10.9339 5.20201 -5
      vertex 10.9339 5.20201 5
    endloop
  endfacet
  facet normal 0.743145 0.66913 0
    outer loop
      vertex 10.9339 5.20201 -5
      vertex 11.9131 4.1145 5
      vertex 11.9131 4.1145 -5
    endloop
  endfacet
  facet normal 0.207912 0.978148 -0
    outer loop
      vertex 8.41312 6.6574 -5
      vertex 6.9817 6.96165 3
      vertex 8.41312 6.6574 3
    endloop
  endfacet
  facet normal 0.207912 0.978148 0
    outer loop
      vertex 6.9817 6.96165 3
      vertex 8.41312 6.6574 -5
      vertex 6.9817 6.96165 -5
    endloop
  endfacet
  facet normal -0.866026 0.5 0
    outer loop
      vertex 0 3.09799 -5
      vertex 0.586882 4.1145 5
      vertex 0.586882 4.1145 -5
    endloop
  endfacet
  facet normal -0.866026 0.5 0
    outer loop
      vertex 0.586882 4.1145 5
      vertex 0 3.09799 -5
      vertex 0 3.09799 5
    endloop
  endfacet
  facet normal -0.743145 0.66913 0
    outer loop
      vertex 0.586882 4.1145 -5
      vertex 1.56609 5.20201 5
      vertex 1.56609 5.20201 -5
    endloop
  endfacet
  facet normal -0.743145 0.66913 0
    outer loop
      vertex 1.56609 5.20201 5
      vertex 0.586882 4.1145 -5
      vertex 0.586882 4.1145 5
    endloop
  endfacet
  facet normal 0 0 1
    outer loop
      vertex 13.097 1.45538 5
      vertex 13.097 -1.45538 5
      vertex 13.25 0 5
    endloop
  endfacet
  facet normal 0 0 1
    outer loop
      vertex 12.6448 2.84716 5
      vertex 13.097 -1.45538 5
      vertex 13.097 1.45538 5
    endloop
  endfacet
  facet normal 0 0 1
    outer loop
      vertex 12.6448 2.84716 5
      vertex 12.6448 -2.84716 5
      vertex 13.097 -1.45538 5
    endloop
  endfacet
  facet normal 0 0 1
    outer loop
      vertex 11.9131 4.1145 5
      vertex 12.6448 -2.84716 5
      vertex 12.6448 2.84716 5
    endloop
  endfacet
  facet normal 0 0 1
    outer loop
      vertex 11.9131 4.1145 5
      vertex 11.9131 -4.1145 5
      vertex 12.6448 -2.84716 5
    endloop
  endfacet
  facet normal 0 0 1
    outer loop
      vertex 9.25 6.28479 5
      vertex 11.9131 4.1145 5
      vertex 10.9339 5.20201 5
    endloop
  endfacet
  facet normal 0 0 1
    outer loop
      vertex 11.9131 4.1145 5
      vertex 9.25 6.28479 5
      vertex 11.9131 -4.1145 5
    endloop
  endfacet
  facet normal 0 0 1
    outer loop
      vertex 9.25 6.28479 5
      vertex 10.9339 5.20201 5
      vertex 9.75 6.06218 5
    endloop
  endfacet
  facet normal 0 0 1
    outer loop
      vertex 9.25 -6.28479 5
      vertex 11.9131 -4.1145 5
      vertex 9.25 6.28479 5
    endloop
  endfacet
  facet normal 0 0 1
    outer loop
      vertex 11.9131 -4.1145 5
      vertex 9.25 -6.28479 5
      vertex 10.9339 -5.20201 5
    endloop
  endfacet
  facet normal 0 0 1
    outer loop
      vertex 10.9339 -5.20201 5
      vertex 9.25 -6.28479 5
      vertex 9.75 -6.06218 5
    endloop
  endfacet
  facet normal -0.406737 0.913545 0
    outer loop
      vertex 4.08688 6.6574 3
      vertex 4.08688 6.6574 -5
      vertex 3.25 6.28479 3
    endloop
  endfacet
  facet normal -0.406737 0.913545 0
    outer loop
      vertex 3.25 6.28479 3
      vertex 2.75 6.06218 5
      vertex 3.25 6.28479 5
    endloop
  endfacet
  facet normal -0.406737 0.913545 9.42653e-09
    outer loop
      vertex 2.75 6.06218 -5
      vertex 3.25 6.28479 3
      vertex 4.08688 6.6574 -5
    endloop
  endfacet
  facet normal -0.406737 0.913545 0
    outer loop
      vertex 3.25 6.28479 3
      vertex 2.75 6.06218 -5
      vertex 2.75 6.06218 5
    endloop
  endfacet
  facet normal 0.994522 -0.104529 0
    outer loop
      vertex 13.097 -1.45538 5
      vertex 13.25 0 -5
      vertex 13.25 0 5
    endloop
  endfacet
  facet normal 0.994522 -0.104529 0
    outer loop
      vertex 13.25 0 -5
      vertex 13.097 -1.45538 5
      vertex 13.097 -1.45538 -5
    endloop
  endfacet
  facet normal 0.207912 -0.978148 0
    outer loop
      vertex 6.9817 -6.96165 -5
      vertex 8.41312 -6.6574 3
      vertex 6.9817 -6.96165 3
    endloop
  endfacet
  facet normal 0.207912 -0.978148 0
    outer loop
      vertex 8.41312 -6.6574 3
      vertex 6.9817 -6.96165 -5
      vertex 8.41312 -6.6574 -5
    endloop
  endfacet
  facet normal 0.743145 -0.66913 0
    outer loop
      vertex 10.9339 -5.20201 5
      vertex 11.9131 -4.1145 -5
      vertex 11.9131 -4.1145 5
    endloop
  endfacet
  facet normal 0.743145 -0.66913 0
    outer loop
      vertex 11.9131 -4.1145 -5
      vertex 10.9339 -5.20201 5
      vertex 10.9339 -5.20201 -5
    endloop
  endfacet
  facet normal 0.951056 -0.309017 0
    outer loop
      vertex 12.6448 -2.84716 5
      vertex 13.097 -1.45538 -5
      vertex 13.097 -1.45538 5
    endloop
  endfacet
  facet normal 0.951056 -0.309017 0
    outer loop
      vertex 13.097 -1.45538 -5
      vertex 12.6448 -2.84716 5
      vertex 12.6448 -2.84716 -5
    endloop
  endfacet
  facet normal 0.866026 -0.5 0
    outer loop
      vertex 11.9131 -4.1145 5
      vertex 12.6448 -2.84716 -5
      vertex 12.6448 -2.84716 5
    endloop
  endfacet
  facet normal 0.866026 -0.5 0
    outer loop
      vertex 12.6448 -2.84716 -5
      vertex 11.9131 -4.1145 5
      vertex 11.9131 -4.1145 -5
    endloop
  endfacet
  facet normal -0.587786 -0.809017 0
    outer loop
      vertex 1.56609 -5.20201 -5
      vertex 2.75 -6.06218 5
      vertex 1.56609 -5.20201 5
    endloop
  endfacet
  facet normal -0.587786 -0.809017 -0
    outer loop
      vertex 2.75 -6.06218 5
      vertex 1.56609 -5.20201 -5
      vertex 2.75 -6.06218 -5
    endloop
  endfacet
  facet normal -0.866026 -0.5 0
    outer loop
      vertex 0.586882 -4.1145 -5
      vertex 0 -3.09799 5
      vertex 0 -3.09799 -5
    endloop
  endfacet
  facet normal -0.866026 -0.5 0
    outer loop
      vertex 0 -3.09799 5
      vertex 0.586882 -4.1145 -5
      vertex 0.586882 -4.1145 5
    endloop
  endfacet
  facet normal 0.587786 -0.809017 0
    outer loop
      vertex 9.75 -6.06218 -5
      vertex 10.9339 -5.20201 5
      vertex 9.75 -6.06218 5
    endloop
  endfacet
  facet normal 0.587786 -0.809017 0
    outer loop
      vertex 10.9339 -5.20201 5
      vertex 9.75 -6.06218 -5
      vertex 10.9339 -5.20201 -5
    endloop
  endfacet
  facet normal 0.406736 -0.913546 0
    outer loop
      vertex 8.41312 -6.6574 3
      vertex 8.41312 -6.6574 -5
      vertex 9.25 -6.28479 3
    endloop
  endfacet
  facet normal 0.406737 -0.913545 0
    outer loop
      vertex 9.25 -6.28479 3
      vertex 9.75 -6.06218 5
      vertex 9.25 -6.28479 5
    endloop
  endfacet
  facet normal 0.406736 -0.913546 -1.46726e-08
    outer loop
      vertex 9.75 -6.06218 -5
      vertex 9.25 -6.28479 3
      vertex 8.41312 -6.6574 -5
    endloop
  endfacet
  facet normal 0.406737 -0.913545 0
    outer loop
      vertex 9.25 -6.28479 3
      vertex 9.75 -6.06218 -5
      vertex 9.75 -6.06218 5
    endloop
  endfacet
  facet normal -0.207912 -0.978148 0
    outer loop
      vertex 4.08688 -6.6574 -5
      vertex 5.5183 -6.96165 3
      vertex 4.08688 -6.6574 3
    endloop
  endfacet
  facet normal -0.207912 -0.978148 -0
    outer loop
      vertex 5.5183 -6.96165 3
      vertex 4.08688 -6.6574 -5
      vertex 5.5183 -6.96165 -5
    endloop
  endfacet
  facet normal -0.406737 -0.913545 0
    outer loop
      vertex 2.75 -6.06218 5
      vertex 3.25 -6.28479 3
      vertex 3.25 -6.28479 5
    endloop
  endfacet
  facet normal -0.406737 -0.913545 0
    outer loop
      vertex 2.75 -6.06218 -5
      vertex 3.25 -6.28479 3
      vertex 2.75 -6.06218 5
    endloop
  endfacet
  facet normal -0.406736 -0.913546 -8.70776e-09
    outer loop
      vertex 4.08688 -6.6574 -5
      vertex 3.25 -6.28479 3
      vertex 2.75 -6.06218 -5
    endloop
  endfacet
  facet normal -0.406736 -0.913546 0
    outer loop
      vertex 3.25 -6.28479 3
      vertex 4.08688 -6.6574 -5
      vertex 4.08688 -6.6574 3
    endloop
  endfacet
  facet normal -0.743145 -0.66913 0
    outer loop
      vertex 1.56609 -5.20201 -5
      vertex 0.586882 -4.1145 5
      vertex 0.586882 -4.1145 -5
    endloop
  endfacet
  facet normal -0.743145 -0.66913 0
    outer loop
      vertex 0.586882 -4.1145 5
      vertex 1.56609 -5.20201 -5
      vertex 1.56609 -5.20201 5
    endloop
  endfacet
  facet normal -0.992115 -0.125334 0
    outer loop
      vertex 11.75 0 -5
      vertex 11.5772 1.36779 1.5
      vertex 11.5772 1.36779 -5
    endloop
  endfacet
  facet normal -0.992115 -0.125334 0
    outer loop
      vertex 11.5772 1.36779 1.5
      vertex 11.75 0 -5
      vertex 11.75 0 1.5
    endloop
  endfacet
  facet normal 1 -0 0
    outer loop
      vertex 0.793369 -0.689332 1.5
      vertex 0.793369 0.689332 -5
      vertex 0.793369 0.689332 1.5
    endloop
  endfacet
  facet normal 1 0 0
    outer loop
      vertex 0.793369 0.689332 -5
      vertex 0.793369 -0.689332 1.5
      vertex 0.793369 -0.689332 -5
    endloop
  endfacet
  facet normal 0.0627904 -0.998027 0
    outer loop
      vertex 5.2194 5.40258 -5
      vertex 6.59535 5.48915 1.5
      vertex 5.2194 5.40258 1.5
    endloop
  endfacet
  facet normal 0.0627904 -0.998027 0
    outer loop
      vertex 6.59535 5.48915 1.5
      vertex 5.2194 5.40258 -5
      vertex 6.59535 5.48915 -5
    endloop
  endfacet
  facet normal 0.728969 0.684547 0
    outer loop
      vertex 2.74417 -4.23782 1.5
      vertex 1.80041 -3.23282 -5
      vertex 1.80041 -3.23282 1.5
    endloop
  endfacet
  facet normal 0.728969 0.684547 0
    outer loop
      vertex 1.80041 -3.23282 -5
      vertex 2.74417 -4.23782 1.5
      vertex 2.74417 -4.23782 -5
    endloop
  endfacet
  facet normal -0.637424 -0.770513 0
    outer loop
      vertex 9.19705 4.6438 -5
      vertex 10.2593 3.76501 1.5
      vertex 9.19705 4.6438 1.5
    endloop
  endfacet
  facet normal -0.637424 -0.770513 -0
    outer loop
      vertex 10.2593 3.76501 1.5
      vertex 9.19705 4.6438 -5
      vertex 10.2593 3.76501 -5
    endloop
  endfacet
  facet normal -0.425779 -0.904827 0
    outer loop
      vertex 7.94959 5.23081 -5
      vertex 9.19705 4.6438 1.5
      vertex 7.94959 5.23081 1.5
    endloop
  endfacet
  facet normal -0.425779 -0.904827 -0
    outer loop
      vertex 9.19705 4.6438 1.5
      vertex 7.94959 5.23081 -5
      vertex 9.19705 4.6438 -5
    endloop
  endfacet
  facet normal 0.728969 -0.684547 0
    outer loop
      vertex 1.80041 3.23282 1.5
      vertex 2.74417 4.23782 -5
      vertex 2.74417 4.23782 1.5
    endloop
  endfacet
  facet normal 0.728969 -0.684547 0
    outer loop
      vertex 2.74417 4.23782 -5
      vertex 1.80041 3.23282 1.5
      vertex 1.80041 3.23282 -5
    endloop
  endfacet
  facet normal 0.876306 -0.481754 0
    outer loop
      vertex 1.13623 2.02468 1.5
      vertex 1.80041 3.23282 -5
      vertex 1.80041 3.23282 1.5
    endloop
  endfacet
  facet normal 0.876306 -0.481754 0
    outer loop
      vertex 1.80041 3.23282 -5
      vertex 1.13623 2.02468 1.5
      vertex 1.13623 2.02468 -5
    endloop
  endfacet
  facet normal 0.535826 -0.844328 0
    outer loop
      vertex 2.74417 4.23782 -5
      vertex 3.90821 4.97655 1.5
      vertex 2.74417 4.23782 1.5
    endloop
  endfacet
  facet normal 0.535826 -0.844328 0
    outer loop
      vertex 3.90821 4.97655 1.5
      vertex 2.74417 4.23782 -5
      vertex 3.90821 4.97655 -5
    endloop
  endfacet
  facet normal 0.968583 0.24869 0
    outer loop
      vertex 1.13623 -2.02468 1.5
      vertex 0.793369 -0.689332 -5
      vertex 0.793369 -0.689332 1.5
    endloop
  endfacet
  facet normal 0.968583 0.24869 0
    outer loop
      vertex 0.793369 -0.689332 -5
      vertex 1.13623 -2.02468 1.5
      vertex 1.13623 -2.02468 -5
    endloop
  endfacet
  facet normal -0.809017 -0.587785 0
    outer loop
      vertex 11.0697 2.64964 -5
      vertex 10.2593 3.76501 1.5
      vertex 10.2593 3.76501 -5
    endloop
  endfacet
  facet normal -0.809017 -0.587785 0
    outer loop
      vertex 10.2593 3.76501 1.5
      vertex 11.0697 2.64964 -5
      vertex 11.0697 2.64964 1.5
    endloop
  endfacet
  facet normal -0.929776 -0.368125 0
    outer loop
      vertex 11.5772 1.36779 -5
      vertex 11.0697 2.64964 1.5
      vertex 11.0697 2.64964 -5
    endloop
  endfacet
  facet normal -0.929776 -0.368125 0
    outer loop
      vertex 11.0697 2.64964 1.5
      vertex 11.5772 1.36779 -5
      vertex 11.5772 1.36779 1.5
    endloop
  endfacet
  facet normal -0.187381 -0.982287 0
    outer loop
      vertex 6.59535 5.48915 -5
      vertex 7.94959 5.23081 1.5
      vertex 6.59535 5.48915 1.5
    endloop
  endfacet
  facet normal -0.187381 -0.982287 -0
    outer loop
      vertex 7.94959 5.23081 1.5
      vertex 6.59535 5.48915 -5
      vertex 7.94959 5.23081 -5
    endloop
  endfacet
  facet normal 0.968583 -0.24869 0
    outer loop
      vertex 0.793369 0.689332 1.5
      vertex 1.13623 2.02468 -5
      vertex 1.13623 2.02468 1.5
    endloop
  endfacet
  facet normal 0.968583 -0.24869 0
    outer loop
      vertex 1.13623 2.02468 -5
      vertex 0.793369 0.689332 1.5
      vertex 0.793369 0.689332 -5
    endloop
  endfacet
  facet normal 0.309017 -0.951056 0
    outer loop
      vertex 3.90821 4.97655 -5
      vertex 5.2194 5.40258 1.5
      vertex 3.90821 4.97655 1.5
    endloop
  endfacet
  facet normal 0.309017 -0.951056 0
    outer loop
      vertex 5.2194 5.40258 1.5
      vertex 3.90821 4.97655 -5
      vertex 5.2194 5.40258 -5
    endloop
  endfacet
  facet normal -0.992115 0.125334 0
    outer loop
      vertex 11.5772 -1.36779 -5
      vertex 11.75 0 1.5
      vertex 11.75 0 -5
    endloop
  endfacet
  facet normal -0.992115 0.125334 0
    outer loop
      vertex 11.75 0 1.5
      vertex 11.5772 -1.36779 -5
      vertex 11.5772 -1.36779 1.5
    endloop
  endfacet
  facet normal -0.187381 0.982287 0
    outer loop
      vertex 7.94959 -5.23081 -5
      vertex 6.59535 -5.48915 1.5
      vertex 7.94959 -5.23081 1.5
    endloop
  endfacet
  facet normal -0.187381 0.982287 0
    outer loop
      vertex 6.59535 -5.48915 1.5
      vertex 7.94959 -5.23081 -5
      vertex 6.59535 -5.48915 -5
    endloop
  endfacet
  facet normal 0.535826 0.844328 -0
    outer loop
      vertex 3.90821 -4.97655 -5
      vertex 2.74417 -4.23782 1.5
      vertex 3.90821 -4.97655 1.5
    endloop
  endfacet
  facet normal 0.535826 0.844328 0
    outer loop
      vertex 2.74417 -4.23782 1.5
      vertex 3.90821 -4.97655 -5
      vertex 2.74417 -4.23782 -5
    endloop
  endfacet
  facet normal 0.0627904 0.998027 -0
    outer loop
      vertex 6.59535 -5.48915 -5
      vertex 5.2194 -5.40258 1.5
      vertex 6.59535 -5.48915 1.5
    endloop
  endfacet
  facet normal 0.0627904 0.998027 0
    outer loop
      vertex 5.2194 -5.40258 1.5
      vertex 6.59535 -5.48915 -5
      vertex 5.2194 -5.40258 -5
    endloop
  endfacet
  facet normal 0.876306 0.481754 0
    outer loop
      vertex 1.80041 -3.23282 1.5
      vertex 1.13623 -2.02468 -5
      vertex 1.13623 -2.02468 1.5
    endloop
  endfacet
  facet normal 0.876306 0.481754 0
    outer loop
      vertex 1.13623 -2.02468 -5
      vertex 1.80041 -3.23282 1.5
      vertex 1.80041 -3.23282 -5
    endloop
  endfacet
  facet normal -0.809017 0.587785 0
    outer loop
      vertex 10.2593 -3.76501 -5
      vertex 11.0697 -2.64964 1.5
      vertex 11.0697 -2.64964 -5
    endloop
  endfacet
  facet normal -0.809017 0.587785 0
    outer loop
      vertex 11.0697 -2.64964 1.5
      vertex 10.2593 -3.76501 -5
      vertex 10.2593 -3.76501 1.5
    endloop
  endfacet
  facet normal -0.425779 0.904827 0
    outer loop
      vertex 9.19705 -4.6438 -5
      vertex 7.94959 -5.23081 1.5
      vertex 9.19705 -4.6438 1.5
    endloop
  endfacet
  facet normal -0.425779 0.904827 0
    outer loop
      vertex 7.94959 -5.23081 1.5
      vertex 9.19705 -4.6438 -5
      vertex 7.94959 -5.23081 -5
    endloop
  endfacet
  facet normal 0.309017 0.951056 -0
    outer loop
      vertex 5.2194 -5.40258 -5
      vertex 3.90821 -4.97655 1.5
      vertex 5.2194 -5.40258 1.5
    endloop
  endfacet
  facet normal 0.309017 0.951056 0
    outer loop
      vertex 3.90821 -4.97655 1.5
      vertex 5.2194 -5.40258 -5
      vertex 3.90821 -4.97655 -5
    endloop
  endfacet
  facet normal -0.929776 0.368125 0
    outer loop
      vertex 11.0697 -2.64964 -5
      vertex 11.5772 -1.36779 1.5
      vertex 11.5772 -1.36779 -5
    endloop
  endfacet
  facet normal -0.929776 0.368125 0
    outer loop
      vertex 11.5772 -1.36779 1.5
      vertex 11.0697 -2.64964 -5
      vertex 11.0697 -2.64964 1.5
    endloop
  endfacet
  facet normal -0.637424 0.770513 0
    outer loop
      vertex 10.2593 -3.76501 -5
      vertex 9.19705 -4.6438 1.5
      vertex 10.2593 -3.76501 1.5
    endloop
  endfacet
  facet normal -0.637424 0.770513 0
    outer loop
      vertex 9.19705 -4.6438 1.5
      vertex 10.2593 -3.76501 -5
      vertex 9.19705 -4.6438 -5
    endloop
  endfacet
  facet normal 0 0 -1
    outer loop
      vertex 8.75 0 1.5
      vertex 11.75 0 1.5
      vertex 11.5772 -1.36779 1.5
    endloop
  endfacet
  facet normal 0 0 -1
    outer loop
      vertex 8.67146 -0.621724 1.5
      vertex 11.5772 -1.36779 1.5
      vertex 11.0697 -2.64964 1.5
    endloop
  endfacet
  facet normal 0 0 -1
    outer loop
      vertex 11.75 0 1.5
      vertex 8.75 0 1.5
      vertex 11.5772 1.36779 1.5
    endloop
  endfacet
  facet normal 0 0 -1
    outer loop
      vertex 8.44077 -1.20438 1.5
      vertex 11.0697 -2.64964 1.5
      vertex 10.2593 -3.76501 1.5
    endloop
  endfacet
  facet normal 0 0 -1
    outer loop
      vertex 8.67146 0.621724 1.5
      vertex 11.5772 1.36779 1.5
      vertex 8.75 0 1.5
    endloop
  endfacet
  facet normal 0 0 -1
    outer loop
      vertex 8.07242 -1.71137 1.5
      vertex 10.2593 -3.76501 1.5
      vertex 9.19705 -4.6438 1.5
    endloop
  endfacet
  facet normal -0 0 -1
    outer loop
      vertex 11.5772 1.36779 1.5
      vertex 8.67146 0.621724 1.5
      vertex 11.0697 2.64964 1.5
    endloop
  endfacet
  facet normal 0 0 -1
    outer loop
      vertex 8.44077 1.20438 1.5
      vertex 11.0697 2.64964 1.5
      vertex 8.67146 0.621724 1.5
    endloop
  endfacet
  facet normal 0 0 -1
    outer loop
      vertex 11.5772 -1.36779 1.5
      vertex 8.67146 -0.621724 1.5
      vertex 8.75 0 1.5
    endloop
  endfacet
  facet normal 0 0 -1
    outer loop
      vertex 11.0697 -2.64964 1.5
      vertex 8.44077 -1.20438 1.5
      vertex 8.67146 -0.621724 1.5
    endloop
  endfacet
  facet normal 0 0 -1
    outer loop
      vertex 10.2593 -3.76501 1.5
      vertex 8.07242 -1.71137 1.5
      vertex 8.44077 -1.20438 1.5
    endloop
  endfacet
  facet normal 0 0 -1
    outer loop
      vertex 7.58957 -2.11082 1.5
      vertex 9.19705 -4.6438 1.5
      vertex 7.94959 -5.23081 1.5
    endloop
  endfacet
  facet normal 0 0 -1
    outer loop
      vertex 9.19705 -4.6438 1.5
      vertex 7.58957 -2.11082 1.5
      vertex 8.07242 -1.71137 1.5
    endloop
  endfacet
  facet normal 0 0 -1
    outer loop
      vertex 7.94959 -5.23081 1.5
      vertex 7.02254 -2.37764 1.5
      vertex 7.58957 -2.11082 1.5
    endloop
  endfacet
  facet normal 0 0 -1
    outer loop
      vertex 6.59535 -5.48915 1.5
      vertex 7.02254 -2.37764 1.5
      vertex 7.94959 -5.23081 1.5
    endloop
  endfacet
  facet normal 0 0 -1
    outer loop
      vertex 6.59535 -5.48915 1.5
      vertex 6.40698 -2.49507 1.5
      vertex 7.02254 -2.37764 1.5
    endloop
  endfacet
  facet normal 0 0 -1
    outer loop
      vertex 6.59535 -5.48915 1.5
      vertex 5.78155 -2.45572 1.5
      vertex 6.40698 -2.49507 1.5
    endloop
  endfacet
  facet normal 0 0 -1
    outer loop
      vertex 5.2194 -5.40258 1.5
      vertex 5.78155 -2.45572 1.5
      vertex 6.59535 -5.48915 1.5
    endloop
  endfacet
  facet normal 0 0 -1
    outer loop
      vertex 5.2194 -5.40258 1.5
      vertex 5.18555 -2.26207 1.5
      vertex 5.78155 -2.45572 1.5
    endloop
  endfacet
  facet normal 0 0 -1
    outer loop
      vertex 3.90821 -4.97655 1.5
      vertex 5.18555 -2.26207 1.5
      vertex 5.2194 -5.40258 1.5
    endloop
  endfacet
  facet normal -0 0 -1
    outer loop
      vertex 5.18555 -2.26207 1.5
      vertex 3.90821 -4.97655 1.5
      vertex 4.65644 -1.92628 1.5
    endloop
  endfacet
  facet normal 0 0 -1
    outer loop
      vertex 2.74417 -4.23782 1.5
      vertex 4.65644 -1.92628 1.5
      vertex 3.90821 -4.97655 1.5
    endloop
  endfacet
  facet normal -0 0 -1
    outer loop
      vertex 4.65644 -1.92628 1.5
      vertex 2.74417 -4.23782 1.5
      vertex 4.22746 -1.46946 1.5
    endloop
  endfacet
  facet normal 0 0 -1
    outer loop
      vertex 1.80041 -3.23282 1.5
      vertex 4.22746 -1.46946 1.5
      vertex 2.74417 -4.23782 1.5
    endloop
  endfacet
  facet normal 0 0 -1
    outer loop
      vertex 1.13623 -2.02468 1.5
      vertex 3.92556 -0.920311 1.5
      vertex 1.80041 -3.23282 1.5
    endloop
  endfacet
  facet normal -0 0 -1
    outer loop
      vertex 4.22746 -1.46946 1.5
      vertex 1.80041 -3.23282 1.5
      vertex 3.92556 -0.920311 1.5
    endloop
  endfacet
  facet normal -0 0 -1
    outer loop
      vertex 11.0697 2.64964 1.5
      vertex 8.44077 1.20438 1.5
      vertex 10.2593 3.76501 1.5
    endloop
  endfacet
  facet normal 0 0 -1
    outer loop
      vertex 8.07242 1.71137 1.5
      vertex 10.2593 3.76501 1.5
      vertex 8.44077 1.20438 1.5
    endloop
  endfacet
  facet normal -0 0 -1
    outer loop
      vertex 10.2593 3.76501 1.5
      vertex 8.07242 1.71137 1.5
      vertex 9.19705 4.6438 1.5
    endloop
  endfacet
  facet normal 0 0 -1
    outer loop
      vertex 7.58957 2.11082 1.5
      vertex 9.19705 4.6438 1.5
      vertex 8.07242 1.71137 1.5
    endloop
  endfacet
  facet normal -0 0 -1
    outer loop
      vertex 9.19705 4.6438 1.5
      vertex 7.58957 2.11082 1.5
      vertex 7.94959 5.23081 1.5
    endloop
  endfacet
  facet normal 0 0 -1
    outer loop
      vertex 7.02254 2.37764 1.5
      vertex 7.94959 5.23081 1.5
      vertex 7.58957 2.11082 1.5
    endloop
  endfacet
  facet normal 0 0 -1
    outer loop
      vertex 7.02254 2.37764 1.5
      vertex 6.59535 5.48915 1.5
      vertex 7.94959 5.23081 1.5
    endloop
  endfacet
  facet normal 0 0 -1
    outer loop
      vertex 6.40698 2.49507 1.5
      vertex 6.59535 5.48915 1.5
      vertex 7.02254 2.37764 1.5
    endloop
  endfacet
  facet normal 0 0 -1
    outer loop
      vertex 5.78155 2.45572 1.5
      vertex 6.59535 5.48915 1.5
      vertex 6.40698 2.49507 1.5
    endloop
  endfacet
  facet normal 0 0 -1
    outer loop
      vertex 5.78155 2.45572 1.5
      vertex 5.2194 5.40258 1.5
      vertex 6.59535 5.48915 1.5
    endloop
  endfacet
  facet normal 0 0 -1
    outer loop
      vertex 5.18555 2.26207 1.5
      vertex 5.2194 5.40258 1.5
      vertex 5.78155 2.45572 1.5
    endloop
  endfacet
  facet normal 0 0 -1
    outer loop
      vertex 3.90821 4.97655 1.5
      vertex 5.18555 2.26207 1.5
      vertex 4.65644 1.92628 1.5
    endloop
  endfacet
  facet normal 0 0 -1
    outer loop
      vertex 2.74417 4.23782 1.5
      vertex 4.65644 1.92628 1.5
      vertex 4.22746 1.46946 1.5
    endloop
  endfacet
  facet normal 0 0 -1
    outer loop
      vertex 1.80041 3.23282 1.5
      vertex 4.22746 1.46946 1.5
      vertex 3.92556 0.920311 1.5
    endloop
  endfacet
  facet normal 0 0 -1
    outer loop
      vertex 5.18555 2.26207 1.5
      vertex 3.90821 4.97655 1.5
      vertex 5.2194 5.40258 1.5
    endloop
  endfacet
  facet normal 0 0 -1
    outer loop
      vertex 1.13623 2.02468 1.5
      vertex 3.92556 0.920311 1.5
      vertex 3.76971 0.313333 1.5
    endloop
  endfacet
  facet normal -0 0 -1
    outer loop
      vertex 3.92556 -0.920311 1.5
      vertex 1.13623 -2.02468 1.5
      vertex 3.76971 -0.313333 1.5
    endloop
  endfacet
  facet normal 0 0 -1
    outer loop
      vertex 4.65644 1.92628 1.5
      vertex 2.74417 4.23782 1.5
      vertex 3.90821 4.97655 1.5
    endloop
  endfacet
  facet normal 0 0 -1
    outer loop
      vertex 0.793369 -0.689332 1.5
      vertex 3.76971 -0.313333 1.5
      vertex 1.13623 -2.02468 1.5
    endloop
  endfacet
  facet normal 0 0 -1
    outer loop
      vertex 4.22746 1.46946 1.5
      vertex 1.80041 3.23282 1.5
      vertex 2.74417 4.23782 1.5
    endloop
  endfacet
  facet normal -0 0 -1
    outer loop
      vertex 3.76971 -0.313333 1.5
      vertex 0.793369 -0.689332 1.5
      vertex 3.76971 0.313333 1.5
    endloop
  endfacet
  facet normal 0 0 -1
    outer loop
      vertex 3.92556 0.920311 1.5
      vertex 1.13623 2.02468 1.5
      vertex 1.80041 3.23282 1.5
    endloop
  endfacet
  facet normal 0 0 -1
    outer loop
      vertex 0.793369 0.689332 1.5
      vertex 3.76971 0.313333 1.5
      vertex 0.793369 -0.689332 1.5
    endloop
  endfacet
  facet normal 0 0 -1
    outer loop
      vertex 3.76971 0.313333 1.5
      vertex 0.793369 0.689332 1.5
      vertex 1.13623 2.02468 1.5
    endloop
  endfacet
  facet normal -0.992115 -0.125334 0
    outer loop
      vertex 8.75 0 1.5
      vertex 8.67146 0.621724 3
      vertex 8.67146 0.621724 1.5
    endloop
  endfacet
  facet normal -0.992115 -0.125334 0
    outer loop
      vertex 8.67146 0.621724 3
      vertex 8.75 0 1.5
      vertex 8.75 0 3
    endloop
  endfacet
  facet normal 1 -0 0
    outer loop
      vertex 3.76971 -0.313333 3
      vertex 3.76971 0.313333 1.5
      vertex 3.76971 0.313333 3
    endloop
  endfacet
  facet normal 1 0 0
    outer loop
      vertex 3.76971 0.313333 1.5
      vertex 3.76971 -0.313333 3
      vertex 3.76971 -0.313333 1.5
    endloop
  endfacet
  facet normal 0.0627905 -0.998027 0
    outer loop
      vertex 5.78155 2.45572 1.5
      vertex 6.40698 2.49507 3
      vertex 5.78155 2.45572 3
    endloop
  endfacet
  facet normal 0.0627905 -0.998027 0
    outer loop
      vertex 6.40698 2.49507 3
      vertex 5.78155 2.45572 1.5
      vertex 6.40698 2.49507 1.5
    endloop
  endfacet
  facet normal -0.187382 0.982287 0
    outer loop
      vertex 7.02254 -2.37764 1.5
      vertex 6.40698 -2.49507 3
      vertex 7.02254 -2.37764 3
    endloop
  endfacet
  facet normal -0.187382 0.982287 0
    outer loop
      vertex 6.40698 -2.49507 3
      vertex 7.02254 -2.37764 1.5
      vertex 6.40698 -2.49507 1.5
    endloop
  endfacet
  facet normal 0.728969 0.684547 0
    outer loop
      vertex 4.65644 -1.92628 3
      vertex 4.22746 -1.46946 1.5
      vertex 4.22746 -1.46946 3
    endloop
  endfacet
  facet normal 0.728969 0.684547 0
    outer loop
      vertex 4.22746 -1.46946 1.5
      vertex 4.65644 -1.92628 3
      vertex 4.65644 -1.92628 1.5
    endloop
  endfacet
  facet normal -0.637423 -0.770514 0
    outer loop
      vertex 7.58957 2.11082 1.5
      vertex 8.07242 1.71137 3
      vertex 7.58957 2.11082 3
    endloop
  endfacet
  facet normal -0.637423 -0.770514 -0
    outer loop
      vertex 8.07242 1.71137 3
      vertex 7.58957 2.11082 1.5
      vertex 8.07242 1.71137 1.5
    endloop
  endfacet
  facet normal -0.42578 -0.904827 0
    outer loop
      vertex 7.02254 2.37764 1.5
      vertex 7.58957 2.11082 3
      vertex 7.02254 2.37764 3
    endloop
  endfacet
  facet normal -0.42578 -0.904827 -0
    outer loop
      vertex 7.58957 2.11082 3
      vertex 7.02254 2.37764 1.5
      vertex 7.58957 2.11082 1.5
    endloop
  endfacet
  facet normal 0.728969 -0.684547 0
    outer loop
      vertex 4.22746 1.46946 3
      vertex 4.65644 1.92628 1.5
      vertex 4.65644 1.92628 3
    endloop
  endfacet
  facet normal 0.728969 -0.684547 0
    outer loop
      vertex 4.65644 1.92628 1.5
      vertex 4.22746 1.46946 3
      vertex 4.22746 1.46946 1.5
    endloop
  endfacet
  facet normal 0.876306 -0.481754 0
    outer loop
      vertex 3.92556 0.920311 3
      vertex 4.22746 1.46946 1.5
      vertex 4.22746 1.46946 3
    endloop
  endfacet
  facet normal 0.876306 -0.481754 0
    outer loop
      vertex 4.22746 1.46946 1.5
      vertex 3.92556 0.920311 3
      vertex 3.92556 0.920311 1.5
    endloop
  endfacet
  facet normal 0.535826 -0.844328 0
    outer loop
      vertex 4.65644 1.92628 1.5
      vertex 5.18555 2.26207 3
      vertex 4.65644 1.92628 3
    endloop
  endfacet
  facet normal 0.535826 -0.844328 0
    outer loop
      vertex 5.18555 2.26207 3
      vertex 4.65644 1.92628 1.5
      vertex 5.18555 2.26207 1.5
    endloop
  endfacet
  facet normal 0.968583 0.24869 0
    outer loop
      vertex 3.92556 -0.920311 3
      vertex 3.76971 -0.313333 1.5
      vertex 3.76971 -0.313333 3
    endloop
  endfacet
  facet normal 0.968583 0.24869 0
    outer loop
      vertex 3.76971 -0.313333 1.5
      vertex 3.92556 -0.920311 3
      vertex 3.92556 -0.920311 1.5
    endloop
  endfacet
  facet normal -0.809017 -0.587785 0
    outer loop
      vertex 8.44077 1.20438 1.5
      vertex 8.07242 1.71137 3
      vertex 8.07242 1.71137 1.5
    endloop
  endfacet
  facet normal -0.809017 -0.587785 0
    outer loop
      vertex 8.07242 1.71137 3
      vertex 8.44077 1.20438 1.5
      vertex 8.44077 1.20438 3
    endloop
  endfacet
  facet normal -0.929777 -0.368124 0
    outer loop
      vertex 8.67146 0.621724 1.5
      vertex 8.44077 1.20438 3
      vertex 8.44077 1.20438 1.5
    endloop
  endfacet
  facet normal -0.929777 -0.368124 0
    outer loop
      vertex 8.44077 1.20438 3
      vertex 8.67146 0.621724 1.5
      vertex 8.67146 0.621724 3
    endloop
  endfacet
  facet normal -0.187382 -0.982287 0
    outer loop
      vertex 6.40698 2.49507 1.5
      vertex 7.02254 2.37764 3
      vertex 6.40698 2.49507 3
    endloop
  endfacet
  facet normal -0.187382 -0.982287 -0
    outer loop
      vertex 7.02254 2.37764 3
      vertex 6.40698 2.49507 1.5
      vertex 7.02254 2.37764 1.5
    endloop
  endfacet
  facet normal 0.968583 -0.24869 0
    outer loop
      vertex 3.76971 0.313333 3
      vertex 3.92556 0.920311 1.5
      vertex 3.92556 0.920311 3
    endloop
  endfacet
  facet normal 0.968583 -0.24869 0
    outer loop
      vertex 3.92556 0.920311 1.5
      vertex 3.76971 0.313333 3
      vertex 3.76971 0.313333 1.5
    endloop
  endfacet
  facet normal 0.309018 -0.951056 0
    outer loop
      vertex 5.18555 2.26207 1.5
      vertex 5.78155 2.45572 3
      vertex 5.18555 2.26207 3
    endloop
  endfacet
  facet normal 0.309018 -0.951056 0
    outer loop
      vertex 5.78155 2.45572 3
      vertex 5.18555 2.26207 1.5
      vertex 5.78155 2.45572 1.5
    endloop
  endfacet
  facet normal -0.992115 0.125334 0
    outer loop
      vertex 8.67146 -0.621724 1.5
      vertex 8.75 0 3
      vertex 8.75 0 1.5
    endloop
  endfacet
  facet normal -0.992115 0.125334 0
    outer loop
      vertex 8.75 0 3
      vertex 8.67146 -0.621724 1.5
      vertex 8.67146 -0.621724 3
    endloop
  endfacet
  facet normal 0.535826 0.844328 -0
    outer loop
      vertex 5.18555 -2.26207 1.5
      vertex 4.65644 -1.92628 3
      vertex 5.18555 -2.26207 3
    endloop
  endfacet
  facet normal 0.535826 0.844328 0
    outer loop
      vertex 4.65644 -1.92628 3
      vertex 5.18555 -2.26207 1.5
      vertex 4.65644 -1.92628 1.5
    endloop
  endfacet
  facet normal 0.0627905 0.998027 -0
    outer loop
      vertex 6.40698 -2.49507 1.5
      vertex 5.78155 -2.45572 3
      vertex 6.40698 -2.49507 3
    endloop
  endfacet
  facet normal 0.0627905 0.998027 0
    outer loop
      vertex 5.78155 -2.45572 3
      vertex 6.40698 -2.49507 1.5
      vertex 5.78155 -2.45572 1.5
    endloop
  endfacet
  facet normal 0.876306 0.481754 0
    outer loop
      vertex 4.22746 -1.46946 3
      vertex 3.92556 -0.920311 1.5
      vertex 3.92556 -0.920311 3
    endloop
  endfacet
  facet normal 0.876306 0.481754 0
    outer loop
      vertex 3.92556 -0.920311 1.5
      vertex 4.22746 -1.46946 3
      vertex 4.22746 -1.46946 1.5
    endloop
  endfacet
  facet normal -0.637423 0.770514 0
    outer loop
      vertex 8.07242 -1.71137 1.5
      vertex 7.58957 -2.11082 3
      vertex 8.07242 -1.71137 3
    endloop
  endfacet
  facet normal -0.637423 0.770514 0
    outer loop
      vertex 7.58957 -2.11082 3
      vertex 8.07242 -1.71137 1.5
      vertex 7.58957 -2.11082 1.5
    endloop
  endfacet
  facet normal -0.929777 0.368124 0
    outer loop
      vertex 8.44077 -1.20438 1.5
      vertex 8.67146 -0.621724 3
      vertex 8.67146 -0.621724 1.5
    endloop
  endfacet
  facet normal -0.929777 0.368124 0
    outer loop
      vertex 8.67146 -0.621724 3
      vertex 8.44077 -1.20438 1.5
      vertex 8.44077 -1.20438 3
    endloop
  endfacet
  facet normal -0.809017 0.587785 0
    outer loop
      vertex 8.07242 -1.71137 1.5
      vertex 8.44077 -1.20438 3
      vertex 8.44077 -1.20438 1.5
    endloop
  endfacet
  facet normal -0.809017 0.587785 0
    outer loop
      vertex 8.44077 -1.20438 3
      vertex 8.07242 -1.71137 1.5
      vertex 8.07242 -1.71137 3
    endloop
  endfacet
  facet normal -0.42578 0.904827 0
    outer loop
      vertex 7.58957 -2.11082 1.5
      vertex 7.02254 -2.37764 3
      vertex 7.58957 -2.11082 3
    endloop
  endfacet
  facet normal -0.42578 0.904827 0
    outer loop
      vertex 7.02254 -2.37764 3
      vertex 7.58957 -2.11082 1.5
      vertex 7.02254 -2.37764 1.5
    endloop
  endfacet
  facet normal 0.309018 0.951056 -0
    outer loop
      vertex 5.78155 -2.45572 1.5
      vertex 5.18555 -2.26207 3
      vertex 5.78155 -2.45572 3
    endloop
  endfacet
  facet normal 0.309018 0.951056 0
    outer loop
      vertex 5.18555 -2.26207 3
      vertex 5.78155 -2.45572 1.5
      vertex 5.18555 -2.26207 1.5
    endloop
  endfacet
  facet normal 1 -7.58716e-08 0
    outer loop
      vertex 3.25 -6.28479 5
      vertex 3.25 6.28479 3
      vertex 3.25 6.28479 5
    endloop
  endfacet
  facet normal 1 -7.58716e-08 0
    outer loop
      vertex 3.25 6.28479 3
      vertex 3.25 -6.28479 5
      vertex 3.25 -6.28479 3
    endloop
  endfacet
  facet normal 0 0 1
    outer loop
      vertex 9.25 6.28479 3
      vertex 8.75 0 3
      vertex 9.25 -6.28479 3
    endloop
  endfacet
  facet normal 0 0 1
    outer loop
      vertex 9.25 6.28479 3
      vertex 8.67146 0.621724 3
      vertex 8.75 0 3
    endloop
  endfacet
  facet normal 0 0 1
    outer loop
      vertex 9.25 6.28479 3
      vertex 8.44077 1.20438 3
      vertex 8.67146 0.621724 3
    endloop
  endfacet
  facet normal 0 0 1
    outer loop
      vertex 7.02254 2.37764 3
      vertex 9.25 6.28479 3
      vertex 8.41312 6.6574 3
    endloop
  endfacet
  facet normal 0 0 1
    outer loop
      vertex 9.25 6.28479 3
      vertex 8.07242 1.71137 3
      vertex 8.44077 1.20438 3
    endloop
  endfacet
  facet normal 0 0 1
    outer loop
      vertex 9.25 6.28479 3
      vertex 7.58957 2.11082 3
      vertex 8.07242 1.71137 3
    endloop
  endfacet
  facet normal 0 0 1
    outer loop
      vertex 9.25 6.28479 3
      vertex 7.02254 2.37764 3
      vertex 7.58957 2.11082 3
    endloop
  endfacet
  facet normal 0 0 1
    outer loop
      vertex 6.9817 6.96165 3
      vertex 7.02254 2.37764 3
      vertex 8.41312 6.6574 3
    endloop
  endfacet
  facet normal 0 0 1
    outer loop
      vertex 6.9817 6.96165 3
      vertex 6.40698 2.49507 3
      vertex 7.02254 2.37764 3
    endloop
  endfacet
  facet normal -0 0 1
    outer loop
      vertex 5.5183 6.96165 3
      vertex 6.40698 2.49507 3
      vertex 6.9817 6.96165 3
    endloop
  endfacet
  facet normal 0 0 1
    outer loop
      vertex 6.40698 2.49507 3
      vertex 5.5183 6.96165 3
      vertex 5.78155 2.45572 3
    endloop
  endfacet
  facet normal -0 0 1
    outer loop
      vertex 4.08688 6.6574 3
      vertex 5.78155 2.45572 3
      vertex 5.5183 6.96165 3
    endloop
  endfacet
  facet normal 0 0 1
    outer loop
      vertex 5.78155 2.45572 3
      vertex 4.08688 6.6574 3
      vertex 5.18555 2.26207 3
    endloop
  endfacet
  facet normal -0 0 1
    outer loop
      vertex 3.25 6.28479 3
      vertex 5.18555 2.26207 3
      vertex 4.08688 6.6574 3
    endloop
  endfacet
  facet normal 0 0 1
    outer loop
      vertex 5.18555 2.26207 3
      vertex 3.25 6.28479 3
      vertex 4.65644 1.92628 3
    endloop
  endfacet
  facet normal 0 0 1
    outer loop
      vertex 4.65644 1.92628 3
      vertex 3.25 6.28479 3
      vertex 4.22746 1.46946 3
    endloop
  endfacet
  facet normal 0 0 1
    outer loop
      vertex 4.22746 1.46946 3
      vertex 3.25 6.28479 3
      vertex 3.92556 0.920311 3
    endloop
  endfacet
  facet normal 0 0 1
    outer loop
      vertex 3.76971 0.313333 3
      vertex 3.25 6.28479 3
      vertex 3.76971 -0.313333 3
    endloop
  endfacet
  facet normal 0 0 1
    outer loop
      vertex 3.92556 0.920311 3
      vertex 3.25 6.28479 3
      vertex 3.76971 0.313333 3
    endloop
  endfacet
  facet normal -0 0 1
    outer loop
      vertex 8.67146 -0.621724 3
      vertex 9.25 -6.28479 3
      vertex 8.75 0 3
    endloop
  endfacet
  facet normal -0 0 1
    outer loop
      vertex 8.44077 -1.20438 3
      vertex 9.25 -6.28479 3
      vertex 8.67146 -0.621724 3
    endloop
  endfacet
  facet normal -0 0 1
    outer loop
      vertex 8.07242 -1.71137 3
      vertex 9.25 -6.28479 3
      vertex 8.44077 -1.20438 3
    endloop
  endfacet
  facet normal -0 0 1
    outer loop
      vertex 7.58957 -2.11082 3
      vertex 9.25 -6.28479 3
      vertex 8.07242 -1.71137 3
    endloop
  endfacet
  facet normal -0 0 1
    outer loop
      vertex 7.02254 -2.37764 3
      vertex 9.25 -6.28479 3
      vertex 7.58957 -2.11082 3
    endloop
  endfacet
  facet normal 0 0 1
    outer loop
      vertex 9.25 -6.28479 3
      vertex 7.02254 -2.37764 3
      vertex 8.41312 -6.6574 3
    endloop
  endfacet
  facet normal 0 0 1
    outer loop
      vertex 7.02254 -2.37764 3
      vertex 6.9817 -6.96165 3
      vertex 8.41312 -6.6574 3
    endloop
  endfacet
  facet normal -0 0 1
    outer loop
      vertex 6.40698 -2.49507 3
      vertex 6.9817 -6.96165 3
      vertex 7.02254 -2.37764 3
    endloop
  endfacet
  facet normal 0 0 1
    outer loop
      vertex 5.5183 -6.96165 3
      vertex 6.40698 -2.49507 3
      vertex 5.78155 -2.45572 3
    endloop
  endfacet
  facet normal 0 0 1
    outer loop
      vertex 6.40698 -2.49507 3
      vertex 5.5183 -6.96165 3
      vertex 6.9817 -6.96165 3
    endloop
  endfacet
  facet normal 0 0 1
    outer loop
      vertex 4.08688 -6.6574 3
      vertex 5.78155 -2.45572 3
      vertex 5.18555 -2.26207 3
    endloop
  endfacet
  facet normal 0 0 1
    outer loop
      vertex 3.25 -6.28479 3
      vertex 5.18555 -2.26207 3
      vertex 4.65644 -1.92628 3
    endloop
  endfacet
  facet normal 0 0 1
    outer loop
      vertex 3.25 -6.28479 3
      vertex 4.65644 -1.92628 3
      vertex 4.22746 -1.46946 3
    endloop
  endfacet
  facet normal 0 0 1
    outer loop
      vertex 5.78155 -2.45572 3
      vertex 4.08688 -6.6574 3
      vertex 5.5183 -6.96165 3
    endloop
  endfacet
  facet normal 0 0 1
    outer loop
      vertex 3.25 -6.28479 3
      vertex 4.22746 -1.46946 3
      vertex 3.92556 -0.920311 3
    endloop
  endfacet
  facet normal 0 0 1
    outer loop
      vertex 3.25 -6.28479 3
      vertex 3.92556 -0.920311 3
      vertex 3.76971 -0.313333 3
    endloop
  endfacet
  facet normal 0 0 1
    outer loop
      vertex 3.25 -6.28479 3
      vertex 3.76971 -0.313333 3
      vertex 3.25 6.28479 3
    endloop
  endfacet
  facet normal 0 0 1
    outer loop
      vertex 5.18555 -2.26207 3
      vertex 3.25 -6.28479 3
      vertex 4.08688 -6.6574 3
    endloop
  endfacet
  facet normal -1 7.58716e-08 0
    outer loop
      vertex 9.25 -6.28479 3
      vertex 9.25 6.28479 5
      vertex 9.25 6.28479 3
    endloop
  endfacet
  facet normal -1 7.58716e-08 0
    outer loop
      vertex 9.25 6.28479 5
      vertex 9.25 -6.28479 3
      vertex 9.25 -6.28479 5
    endloop
  endfacet
endsolid OpenSCAD_Model
