solid 
 facet normal -1.000000e+00  0.000000e+00  0.000000e+00
   outer loop
     vertex  0.000000e+00  0.000000e+00  1.300000e+01
     vertex  0.000000e+00  3.535500e+00  1.300000e+01
     vertex  0.000000e+00  3.535500e+00  3.000000e+00
   endloop
 endfacet
 facet normal -1.000000e+00  0.000000e+00  0.000000e+00
   outer loop
     vertex  0.000000e+00  0.000000e+00  1.300000e+01
     vertex  0.000000e+00  3.535500e+00  3.000000e+00
     vertex  0.000000e+00  0.000000e+00  3.000000e+00
   endloop
 endfacet
 facet normal  0.000000e+00  0.000000e+00  1.000000e+00
   outer loop
     vertex  7.867228e-01  3.446858e+00  1.300000e+01
     vertex  0.000000e+00  3.535500e+00  1.300000e+01
     vertex  0.000000e+00  0.000000e+00  1.300000e+01
   endloop
 endfacet
 facet normal  0.000000e+00  0.000000e+00  1.000000e+00
   outer loop
     vertex  3.446858e+00  7.867228e-01  1.300000e+01
     vertex  0.000000e+00  0.000000e+00  1.300000e+01
     vertex  3.535500e+00 -8.659478e-16  1.300000e+01
   endloop
 endfacet
 facet normal  0.000000e+00  0.000000e+00  1.000000e+00
   outer loop
     vertex  1.533996e+00  3.185375e+00  1.300000e+01
     vertex  7.867228e-01  3.446858e+00  1.300000e+01
     vertex  0.000000e+00  0.000000e+00  1.300000e+01
   endloop
 endfacet
 facet normal  0.000000e+00  0.000000e+00  1.000000e+00
   outer loop
     vertex  3.185375e+00  1.533996e+00  1.300000e+01
     vertex  0.000000e+00  0.000000e+00  1.300000e+01
     vertex  3.446858e+00  7.867228e-01  1.300000e+01
   endloop
 endfacet
 facet normal  0.000000e+00  0.000000e+00  1.000000e+00
   outer loop
     vertex  2.204348e+00  2.764165e+00  1.300000e+01
     vertex  1.533996e+00  3.185375e+00  1.300000e+01
     vertex  0.000000e+00  0.000000e+00  1.300000e+01
   endloop
 endfacet
 facet normal  0.000000e+00  0.000000e+00  1.000000e+00
   outer loop
     vertex  2.764165e+00  2.204348e+00  1.300000e+01
     vertex  0.000000e+00  0.000000e+00  1.300000e+01
     vertex  3.185375e+00  1.533996e+00  1.300000e+01
   endloop
 endfacet
 facet normal  0.000000e+00  0.000000e+00  1.000000e+00
   outer loop
     vertex  2.764165e+00  2.204348e+00  1.300000e+01
     vertex  2.204348e+00  2.764165e+00  1.300000e+01
     vertex  0.000000e+00  0.000000e+00  1.300000e+01
   endloop
 endfacet
 facet normal  9.937122e-01  1.119645e-01  0.000000e+00
   outer loop
     vertex  3.446858e+00  7.867228e-01  1.300000e+01
     vertex  3.535500e+00 -8.659478e-16  3.000000e+00
     vertex  3.446858e+00  7.867228e-01  3.000000e+00
   endloop
 endfacet
 facet normal  9.937122e-01  1.119645e-01  0.000000e+00
   outer loop
     vertex  3.446858e+00  7.867228e-01  1.300000e+01
     vertex  3.535500e+00 -8.659478e-16  1.300000e+01
     vertex  3.535500e+00 -8.659478e-16  3.000000e+00
   endloop
 endfacet
 facet normal  9.438833e-01  3.302791e-01  0.000000e+00
   outer loop
     vertex  3.185375e+00  1.533996e+00  1.300000e+01
     vertex  3.446858e+00  7.867228e-01  3.000000e+00
     vertex  3.185375e+00  1.533996e+00  3.000000e+00
   endloop
 endfacet
 facet normal  9.438833e-01  3.302791e-01  0.000000e+00
   outer loop
     vertex  3.185375e+00  1.533996e+00  1.300000e+01
     vertex  3.446858e+00  7.867228e-01  1.300000e+01
     vertex  3.446858e+00  7.867228e-01  3.000000e+00
   endloop
 endfacet
 facet normal  8.467242e-01  5.320321e-01  0.000000e+00
   outer loop
     vertex  2.764165e+00  2.204348e+00  1.300000e+01
     vertex  3.185375e+00  1.533996e+00  3.000000e+00
     vertex  2.764165e+00  2.204348e+00  3.000000e+00
   endloop
 endfacet
 facet normal  8.467242e-01  5.320321e-01  0.000000e+00
   outer loop
     vertex  2.764165e+00  2.204348e+00  1.300000e+01
     vertex  3.185375e+00  1.533996e+00  1.300000e+01
     vertex  3.185375e+00  1.533996e+00  3.000000e+00
   endloop
 endfacet
 facet normal  7.071068e-01  7.071068e-01  0.000000e+00
   outer loop
     vertex  2.204348e+00  2.764165e+00  1.300000e+01
     vertex  2.764165e+00  2.204348e+00  3.000000e+00
     vertex  2.204348e+00  2.764165e+00  3.000000e+00
   endloop
 endfacet
 facet normal  7.071068e-01  7.071068e-01  0.000000e+00
   outer loop
     vertex  2.204348e+00  2.764165e+00  1.300000e+01
     vertex  2.764165e+00  2.204348e+00  1.300000e+01
     vertex  2.764165e+00  2.204348e+00  3.000000e+00
   endloop
 endfacet
 facet normal  5.320321e-01  8.467242e-01  0.000000e+00
   outer loop
     vertex  1.533996e+00  3.185375e+00  1.300000e+01
     vertex  2.204348e+00  2.764165e+00  3.000000e+00
     vertex  1.533996e+00  3.185375e+00  3.000000e+00
   endloop
 endfacet
 facet normal  5.320321e-01  8.467242e-01  0.000000e+00
   outer loop
     vertex  1.533996e+00  3.185375e+00  1.300000e+01
     vertex  2.204348e+00  2.764165e+00  1.300000e+01
     vertex  2.204348e+00  2.764165e+00  3.000000e+00
   endloop
 endfacet
 facet normal  3.302791e-01  9.438833e-01  0.000000e+00
   outer loop
     vertex  7.867228e-01  3.446858e+00  1.300000e+01
     vertex  1.533996e+00  3.185375e+00  3.000000e+00
     vertex  7.867228e-01  3.446858e+00  3.000000e+00
   endloop
 endfacet
 facet normal  1.119645e-01  9.937122e-01  0.000000e+00
   outer loop
     vertex  7.867228e-01  3.446858e+00  1.300000e+01
     vertex  7.867228e-01  3.446858e+00  3.000000e+00
     vertex  0.000000e+00  3.535500e+00  3.000000e+00
   endloop
 endfacet
 facet normal  3.302791e-01  9.438833e-01  0.000000e+00
   outer loop
     vertex  7.867228e-01  3.446858e+00  1.300000e+01
     vertex  1.533996e+00  3.185375e+00  1.300000e+01
     vertex  1.533996e+00  3.185375e+00  3.000000e+00
   endloop
 endfacet
 facet normal  1.119645e-01  9.937122e-01  0.000000e+00
   outer loop
     vertex  0.000000e+00  3.535500e+00  1.300000e+01
     vertex  7.867228e-01  3.446858e+00  1.300000e+01
     vertex  0.000000e+00  3.535500e+00  3.000000e+00
   endloop
 endfacet
 facet normal -0.000000e+00  0.000000e+00 -1.000000e+00
   outer loop
     vertex  7.867228e-01  3.446858e+00  3.000000e+00
     vertex  0.000000e+00  0.000000e+00  3.000000e+00
     vertex  0.000000e+00  3.535500e+00  3.000000e+00
   endloop
 endfacet
 facet normal  0.000000e+00 -0.000000e+00 -1.000000e+00
   outer loop
     vertex  3.446858e+00  7.867228e-01  3.000000e+00
     vertex  3.535500e+00 -8.659478e-16  3.000000e+00
     vertex  0.000000e+00  0.000000e+00  3.000000e+00
   endloop
 endfacet
 facet normal -0.000000e+00  0.000000e+00 -1.000000e+00
   outer loop
     vertex  1.533996e+00  3.185375e+00  3.000000e+00
     vertex  0.000000e+00  0.000000e+00  3.000000e+00
     vertex  7.867228e-01  3.446858e+00  3.000000e+00
   endloop
 endfacet
 facet normal  0.000000e+00 -0.000000e+00 -1.000000e+00
   outer loop
     vertex  3.185375e+00  1.533996e+00  3.000000e+00
     vertex  3.446858e+00  7.867228e-01  3.000000e+00
     vertex  0.000000e+00  0.000000e+00  3.000000e+00
   endloop
 endfacet
 facet normal -0.000000e+00  0.000000e+00 -1.000000e+00
   outer loop
     vertex  2.204348e+00  2.764165e+00  3.000000e+00
     vertex  0.000000e+00  0.000000e+00  3.000000e+00
     vertex  1.533996e+00  3.185375e+00  3.000000e+00
   endloop
 endfacet
 facet normal  0.000000e+00 -0.000000e+00 -1.000000e+00
   outer loop
     vertex  2.764165e+00  2.204348e+00  3.000000e+00
     vertex  3.185375e+00  1.533996e+00  3.000000e+00
     vertex  0.000000e+00  0.000000e+00  3.000000e+00
   endloop
 endfacet
 facet normal -0.000000e+00  0.000000e+00 -1.000000e+00
   outer loop
     vertex  2.764165e+00  2.204348e+00  3.000000e+00
     vertex  0.000000e+00  0.000000e+00  3.000000e+00
     vertex  2.204348e+00  2.764165e+00  3.000000e+00
   endloop
 endfacet
 facet normal -2.449294e-16 -1.000000e+00 -0.000000e+00
   outer loop
     vertex  3.535500e+00 -8.659478e-16  1.300000e+01
     vertex  0.000000e+00  0.000000e+00  3.000000e+00
     vertex  3.535500e+00 -8.659478e-16  3.000000e+00
   endloop
 endfacet
 facet normal -2.449294e-16 -1.000000e+00  0.000000e+00
   outer loop
     vertex  3.535500e+00 -8.659478e-16  1.300000e+01
     vertex  0.000000e+00  0.000000e+00  1.300000e+01
     vertex  0.000000e+00  0.000000e+00  3.000000e+00
   endloop
 endfacet
 facet normal -0.000000e+00  1.000000e+00  0.000000e+00
   outer loop
     vertex  0.000000e+00  1.150000e+02  1.300000e+01
     vertex  3.535500e+00  1.150000e+02  1.300000e+01
     vertex  3.535500e+00  1.150000e+02  3.000000e+00
   endloop
 endfacet
 facet normal  0.000000e+00  1.000000e+00  0.000000e+00
   outer loop
     vertex  0.000000e+00  1.150000e+02  1.300000e+01
     vertex  3.535500e+00  1.150000e+02  3.000000e+00
     vertex  0.000000e+00  1.150000e+02  3.000000e+00
   endloop
 endfacet
 facet normal  0.000000e+00 -0.000000e+00  1.000000e+00
   outer loop
     vertex  3.446858e+00  1.142133e+02  1.300000e+01
     vertex  3.535500e+00  1.150000e+02  1.300000e+01
     vertex  0.000000e+00  1.150000e+02  1.300000e+01
   endloop
 endfacet
 facet normal  0.000000e+00  0.000000e+00  1.000000e+00
   outer loop
     vertex  7.867228e-01  1.115531e+02  1.300000e+01
     vertex  0.000000e+00  1.150000e+02  1.300000e+01
     vertex -2.043506e-15  1.114645e+02  1.300000e+01
   endloop
 endfacet
 facet normal  0.000000e+00 -0.000000e+00  1.000000e+00
   outer loop
     vertex  3.185375e+00  1.134660e+02  1.300000e+01
     vertex  3.446858e+00  1.142133e+02  1.300000e+01
     vertex  0.000000e+00  1.150000e+02  1.300000e+01
   endloop
 endfacet
 facet normal  0.000000e+00  0.000000e+00  1.000000e+00
   outer loop
     vertex  1.533996e+00  1.118146e+02  1.300000e+01
     vertex  0.000000e+00  1.150000e+02  1.300000e+01
     vertex  7.867228e-01  1.115531e+02  1.300000e+01
   endloop
 endfacet
 facet normal  0.000000e+00 -0.000000e+00  1.000000e+00
   outer loop
     vertex  2.764165e+00  1.127957e+02  1.300000e+01
     vertex  3.185375e+00  1.134660e+02  1.300000e+01
     vertex  0.000000e+00  1.150000e+02  1.300000e+01
   endloop
 endfacet
 facet normal  0.000000e+00  0.000000e+00  1.000000e+00
   outer loop
     vertex  2.204348e+00  1.122358e+02  1.300000e+01
     vertex  0.000000e+00  1.150000e+02  1.300000e+01
     vertex  1.533996e+00  1.118146e+02  1.300000e+01
   endloop
 endfacet
 facet normal  0.000000e+00 -0.000000e+00  1.000000e+00
   outer loop
     vertex  2.204348e+00  1.122358e+02  1.300000e+01
     vertex  2.764165e+00  1.127957e+02  1.300000e+01
     vertex  0.000000e+00  1.150000e+02  1.300000e+01
   endloop
 endfacet
 facet normal  1.119645e-01 -9.937122e-01  0.000000e+00
   outer loop
     vertex  7.867228e-01  1.115531e+02  1.300000e+01
     vertex -2.043506e-15  1.114645e+02  3.000000e+00
     vertex  7.867228e-01  1.115531e+02  3.000000e+00
   endloop
 endfacet
 facet normal  1.119645e-01 -9.937122e-01  0.000000e+00
   outer loop
     vertex  7.867228e-01  1.115531e+02  1.300000e+01
     vertex -2.043506e-15  1.114645e+02  1.300000e+01
     vertex -2.043506e-15  1.114645e+02  3.000000e+00
   endloop
 endfacet
 facet normal  3.302791e-01 -9.438833e-01  0.000000e+00
   outer loop
     vertex  1.533996e+00  1.118146e+02  1.300000e+01
     vertex  7.867228e-01  1.115531e+02  3.000000e+00
     vertex  1.533996e+00  1.118146e+02  3.000000e+00
   endloop
 endfacet
 facet normal  3.302791e-01 -9.438833e-01  0.000000e+00
   outer loop
     vertex  1.533996e+00  1.118146e+02  1.300000e+01
     vertex  7.867228e-01  1.115531e+02  1.300000e+01
     vertex  7.867228e-01  1.115531e+02  3.000000e+00
   endloop
 endfacet
 facet normal  5.320321e-01 -8.467242e-01  0.000000e+00
   outer loop
     vertex  2.204348e+00  1.122358e+02  1.300000e+01
     vertex  1.533996e+00  1.118146e+02  3.000000e+00
     vertex  2.204348e+00  1.122358e+02  3.000000e+00
   endloop
 endfacet
 facet normal  5.320321e-01 -8.467242e-01  0.000000e+00
   outer loop
     vertex  2.204348e+00  1.122358e+02  1.300000e+01
     vertex  1.533996e+00  1.118146e+02  1.300000e+01
     vertex  1.533996e+00  1.118146e+02  3.000000e+00
   endloop
 endfacet
 facet normal  7.071068e-01 -7.071068e-01  0.000000e+00
   outer loop
     vertex  2.764165e+00  1.127957e+02  1.300000e+01
     vertex  2.204348e+00  1.122358e+02  3.000000e+00
     vertex  2.764165e+00  1.127957e+02  3.000000e+00
   endloop
 endfacet
 facet normal  7.071068e-01 -7.071068e-01  0.000000e+00
   outer loop
     vertex  2.764165e+00  1.127957e+02  1.300000e+01
     vertex  2.204348e+00  1.122358e+02  1.300000e+01
     vertex  2.204348e+00  1.122358e+02  3.000000e+00
   endloop
 endfacet
 facet normal  8.467242e-01 -5.320321e-01  0.000000e+00
   outer loop
     vertex  3.185375e+00  1.134660e+02  1.300000e+01
     vertex  2.764165e+00  1.127957e+02  3.000000e+00
     vertex  3.185375e+00  1.134660e+02  3.000000e+00
   endloop
 endfacet
 facet normal  8.467242e-01 -5.320321e-01  0.000000e+00
   outer loop
     vertex  3.185375e+00  1.134660e+02  1.300000e+01
     vertex  2.764165e+00  1.127957e+02  1.300000e+01
     vertex  2.764165e+00  1.127957e+02  3.000000e+00
   endloop
 endfacet
 facet normal  9.438833e-01 -3.302791e-01  0.000000e+00
   outer loop
     vertex  3.446858e+00  1.142133e+02  1.300000e+01
     vertex  3.185375e+00  1.134660e+02  3.000000e+00
     vertex  3.446858e+00  1.142133e+02  3.000000e+00
   endloop
 endfacet
 facet normal  9.937122e-01 -1.119645e-01  0.000000e+00
   outer loop
     vertex  3.446858e+00  1.142133e+02  1.300000e+01
     vertex  3.446858e+00  1.142133e+02  3.000000e+00
     vertex  3.535500e+00  1.150000e+02  3.000000e+00
   endloop
 endfacet
 facet normal  9.438833e-01 -3.302791e-01  0.000000e+00
   outer loop
     vertex  3.446858e+00  1.142133e+02  1.300000e+01
     vertex  3.185375e+00  1.134660e+02  1.300000e+01
     vertex  3.185375e+00  1.134660e+02  3.000000e+00
   endloop
 endfacet
 facet normal  9.937122e-01 -1.119645e-01  0.000000e+00
   outer loop
     vertex  3.535500e+00  1.150000e+02  1.300000e+01
     vertex  3.446858e+00  1.142133e+02  1.300000e+01
     vertex  3.535500e+00  1.150000e+02  3.000000e+00
   endloop
 endfacet
 facet normal  0.000000e+00  0.000000e+00 -1.000000e+00
   outer loop
     vertex  3.446858e+00  1.142133e+02  3.000000e+00
     vertex  0.000000e+00  1.150000e+02  3.000000e+00
     vertex  3.535500e+00  1.150000e+02  3.000000e+00
   endloop
 endfacet
 facet normal -0.000000e+00  0.000000e+00 -1.000000e+00
   outer loop
     vertex  7.867228e-01  1.115531e+02  3.000000e+00
     vertex -2.043506e-15  1.114645e+02  3.000000e+00
     vertex  0.000000e+00  1.150000e+02  3.000000e+00
   endloop
 endfacet
 facet normal  0.000000e+00  0.000000e+00 -1.000000e+00
   outer loop
     vertex  3.185375e+00  1.134660e+02  3.000000e+00
     vertex  0.000000e+00  1.150000e+02  3.000000e+00
     vertex  3.446858e+00  1.142133e+02  3.000000e+00
   endloop
 endfacet
 facet normal -0.000000e+00  0.000000e+00 -1.000000e+00
   outer loop
     vertex  1.533996e+00  1.118146e+02  3.000000e+00
     vertex  7.867228e-01  1.115531e+02  3.000000e+00
     vertex  0.000000e+00  1.150000e+02  3.000000e+00
   endloop
 endfacet
 facet normal  0.000000e+00  0.000000e+00 -1.000000e+00
   outer loop
     vertex  2.764165e+00  1.127957e+02  3.000000e+00
     vertex  0.000000e+00  1.150000e+02  3.000000e+00
     vertex  3.185375e+00  1.134660e+02  3.000000e+00
   endloop
 endfacet
 facet normal -0.000000e+00  0.000000e+00 -1.000000e+00
   outer loop
     vertex  2.204348e+00  1.122358e+02  3.000000e+00
     vertex  1.533996e+00  1.118146e+02  3.000000e+00
     vertex  0.000000e+00  1.150000e+02  3.000000e+00
   endloop
 endfacet
 facet normal  0.000000e+00  0.000000e+00 -1.000000e+00
   outer loop
     vertex  2.204348e+00  1.122358e+02  3.000000e+00
     vertex  0.000000e+00  1.150000e+02  3.000000e+00
     vertex  2.764165e+00  1.127957e+02  3.000000e+00
   endloop
 endfacet
 facet normal -1.000000e+00  5.779963e-16  0.000000e+00
   outer loop
     vertex -2.043506e-15  1.114645e+02  1.300000e+01
     vertex  0.000000e+00  1.150000e+02  3.000000e+00
     vertex -2.043506e-15  1.114645e+02  3.000000e+00
   endloop
 endfacet
 facet normal -1.000000e+00  5.779963e-16  0.000000e+00
   outer loop
     vertex -2.043506e-15  1.114645e+02  1.300000e+01
     vertex  0.000000e+00  1.150000e+02  1.300000e+01
     vertex  0.000000e+00  1.150000e+02  3.000000e+00
   endloop
 endfacet
 facet normal  1.000000e+00  0.000000e+00  0.000000e+00
   outer loop
     vertex  1.150000e+02  1.150000e+02  1.300000e+01
     vertex  1.150000e+02  1.114645e+02  1.300000e+01
     vertex  1.150000e+02  1.114645e+02  3.000000e+00
   endloop
 endfacet
 facet normal  1.000000e+00  0.000000e+00  0.000000e+00
   outer loop
     vertex  1.150000e+02  1.150000e+02  1.300000e+01
     vertex  1.150000e+02  1.114645e+02  3.000000e+00
     vertex  1.150000e+02  1.150000e+02  3.000000e+00
   endloop
 endfacet
 facet normal -0.000000e+00  0.000000e+00  1.000000e+00
   outer loop
     vertex  1.142133e+02  1.115531e+02  1.300000e+01
     vertex  1.150000e+02  1.114645e+02  1.300000e+01
     vertex  1.150000e+02  1.150000e+02  1.300000e+01
   endloop
 endfacet
 facet normal  0.000000e+00 -0.000000e+00  1.000000e+00
   outer loop
     vertex  1.115531e+02  1.142133e+02  1.300000e+01
     vertex  1.150000e+02  1.150000e+02  1.300000e+01
     vertex  1.114645e+02  1.150000e+02  1.300000e+01
   endloop
 endfacet
 facet normal -0.000000e+00  0.000000e+00  1.000000e+00
   outer loop
     vertex  1.134660e+02  1.118146e+02  1.300000e+01
     vertex  1.142133e+02  1.115531e+02  1.300000e+01
     vertex  1.150000e+02  1.150000e+02  1.300000e+01
   endloop
 endfacet
 facet normal  0.000000e+00 -0.000000e+00  1.000000e+00
   outer loop
     vertex  1.118146e+02  1.134660e+02  1.300000e+01
     vertex  1.150000e+02  1.150000e+02  1.300000e+01
     vertex  1.115531e+02  1.142133e+02  1.300000e+01
   endloop
 endfacet
 facet normal -0.000000e+00  0.000000e+00  1.000000e+00
   outer loop
     vertex  1.127957e+02  1.122358e+02  1.300000e+01
     vertex  1.134660e+02  1.118146e+02  1.300000e+01
     vertex  1.150000e+02  1.150000e+02  1.300000e+01
   endloop
 endfacet
 facet normal  0.000000e+00 -0.000000e+00  1.000000e+00
   outer loop
     vertex  1.122358e+02  1.127957e+02  1.300000e+01
     vertex  1.150000e+02  1.150000e+02  1.300000e+01
     vertex  1.118146e+02  1.134660e+02  1.300000e+01
   endloop
 endfacet
 facet normal -0.000000e+00  0.000000e+00  1.000000e+00
   outer loop
     vertex  1.122358e+02  1.127957e+02  1.300000e+01
     vertex  1.127957e+02  1.122358e+02  1.300000e+01
     vertex  1.150000e+02  1.150000e+02  1.300000e+01
   endloop
 endfacet
 facet normal -9.937122e-01 -1.119645e-01 -0.000000e+00
   outer loop
     vertex  1.115531e+02  1.142133e+02  1.300000e+01
     vertex  1.114645e+02  1.150000e+02  3.000000e+00
     vertex  1.115531e+02  1.142133e+02  3.000000e+00
   endloop
 endfacet
 facet normal -9.937122e-01 -1.119645e-01  0.000000e+00
   outer loop
     vertex  1.115531e+02  1.142133e+02  1.300000e+01
     vertex  1.114645e+02  1.150000e+02  1.300000e+01
     vertex  1.114645e+02  1.150000e+02  3.000000e+00
   endloop
 endfacet
 facet normal -9.438833e-01 -3.302791e-01 -0.000000e+00
   outer loop
     vertex  1.118146e+02  1.134660e+02  1.300000e+01
     vertex  1.115531e+02  1.142133e+02  3.000000e+00
     vertex  1.118146e+02  1.134660e+02  3.000000e+00
   endloop
 endfacet
 facet normal -9.438833e-01 -3.302791e-01  0.000000e+00
   outer loop
     vertex  1.118146e+02  1.134660e+02  1.300000e+01
     vertex  1.115531e+02  1.142133e+02  1.300000e+01
     vertex  1.115531e+02  1.142133e+02  3.000000e+00
   endloop
 endfacet
 facet normal -8.467242e-01 -5.320321e-01 -0.000000e+00
   outer loop
     vertex  1.122358e+02  1.127957e+02  1.300000e+01
     vertex  1.118146e+02  1.134660e+02  3.000000e+00
     vertex  1.122358e+02  1.127957e+02  3.000000e+00
   endloop
 endfacet
 facet normal -8.467242e-01 -5.320321e-01  0.000000e+00
   outer loop
     vertex  1.122358e+02  1.127957e+02  1.300000e+01
     vertex  1.118146e+02  1.134660e+02  1.300000e+01
     vertex  1.118146e+02  1.134660e+02  3.000000e+00
   endloop
 endfacet
 facet normal -7.071068e-01 -7.071068e-01 -0.000000e+00
   outer loop
     vertex  1.127957e+02  1.122358e+02  1.300000e+01
     vertex  1.122358e+02  1.127957e+02  3.000000e+00
     vertex  1.127957e+02  1.122358e+02  3.000000e+00
   endloop
 endfacet
 facet normal -7.071068e-01 -7.071068e-01  0.000000e+00
   outer loop
     vertex  1.127957e+02  1.122358e+02  1.300000e+01
     vertex  1.122358e+02  1.127957e+02  1.300000e+01
     vertex  1.122358e+02  1.127957e+02  3.000000e+00
   endloop
 endfacet
 facet normal -5.320321e-01 -8.467242e-01 -0.000000e+00
   outer loop
     vertex  1.134660e+02  1.118146e+02  1.300000e+01
     vertex  1.127957e+02  1.122358e+02  3.000000e+00
     vertex  1.134660e+02  1.118146e+02  3.000000e+00
   endloop
 endfacet
 facet normal -5.320321e-01 -8.467242e-01  0.000000e+00
   outer loop
     vertex  1.134660e+02  1.118146e+02  1.300000e+01
     vertex  1.127957e+02  1.122358e+02  1.300000e+01
     vertex  1.127957e+02  1.122358e+02  3.000000e+00
   endloop
 endfacet
 facet normal -3.302791e-01 -9.438833e-01 -0.000000e+00
   outer loop
     vertex  1.142133e+02  1.115531e+02  1.300000e+01
     vertex  1.134660e+02  1.118146e+02  3.000000e+00
     vertex  1.142133e+02  1.115531e+02  3.000000e+00
   endloop
 endfacet
 facet normal -1.119645e-01 -9.937122e-01 -0.000000e+00
   outer loop
     vertex  1.142133e+02  1.115531e+02  1.300000e+01
     vertex  1.142133e+02  1.115531e+02  3.000000e+00
     vertex  1.150000e+02  1.114645e+02  3.000000e+00
   endloop
 endfacet
 facet normal -3.302791e-01 -9.438833e-01  0.000000e+00
   outer loop
     vertex  1.142133e+02  1.115531e+02  1.300000e+01
     vertex  1.134660e+02  1.118146e+02  1.300000e+01
     vertex  1.134660e+02  1.118146e+02  3.000000e+00
   endloop
 endfacet
 facet normal -1.119645e-01 -9.937122e-01 -0.000000e+00
   outer loop
     vertex  1.150000e+02  1.114645e+02  1.300000e+01
     vertex  1.142133e+02  1.115531e+02  1.300000e+01
     vertex  1.150000e+02  1.114645e+02  3.000000e+00
   endloop
 endfacet
 facet normal  0.000000e+00  0.000000e+00 -1.000000e+00
   outer loop
     vertex  1.142133e+02  1.115531e+02  3.000000e+00
     vertex  1.150000e+02  1.150000e+02  3.000000e+00
     vertex  1.150000e+02  1.114645e+02  3.000000e+00
   endloop
 endfacet
 facet normal  0.000000e+00  0.000000e+00 -1.000000e+00
   outer loop
     vertex  1.115531e+02  1.142133e+02  3.000000e+00
     vertex  1.114645e+02  1.150000e+02  3.000000e+00
     vertex  1.150000e+02  1.150000e+02  3.000000e+00
   endloop
 endfacet
 facet normal  0.000000e+00  0.000000e+00 -1.000000e+00
   outer loop
     vertex  1.134660e+02  1.118146e+02  3.000000e+00
     vertex  1.150000e+02  1.150000e+02  3.000000e+00
     vertex  1.142133e+02  1.115531e+02  3.000000e+00
   endloop
 endfacet
 facet normal  0.000000e+00  0.000000e+00 -1.000000e+00
   outer loop
     vertex  1.118146e+02  1.134660e+02  3.000000e+00
     vertex  1.115531e+02  1.142133e+02  3.000000e+00
     vertex  1.150000e+02  1.150000e+02  3.000000e+00
   endloop
 endfacet
 facet normal  0.000000e+00  0.000000e+00 -1.000000e+00
   outer loop
     vertex  1.127957e+02  1.122358e+02  3.000000e+00
     vertex  1.150000e+02  1.150000e+02  3.000000e+00
     vertex  1.134660e+02  1.118146e+02  3.000000e+00
   endloop
 endfacet
 facet normal  0.000000e+00  0.000000e+00 -1.000000e+00
   outer loop
     vertex  1.122358e+02  1.127957e+02  3.000000e+00
     vertex  1.118146e+02  1.134660e+02  3.000000e+00
     vertex  1.150000e+02  1.150000e+02  3.000000e+00
   endloop
 endfacet
 facet normal  0.000000e+00  0.000000e+00 -1.000000e+00
   outer loop
     vertex  1.122358e+02  1.127957e+02  3.000000e+00
     vertex  1.150000e+02  1.150000e+02  3.000000e+00
     vertex  1.127957e+02  1.122358e+02  3.000000e+00
   endloop
 endfacet
 facet normal  0.000000e+00  1.000000e+00  0.000000e+00
   outer loop
     vertex  1.114645e+02  1.150000e+02  1.300000e+01
     vertex  1.150000e+02  1.150000e+02  3.000000e+00
     vertex  1.114645e+02  1.150000e+02  3.000000e+00
   endloop
 endfacet
 facet normal -0.000000e+00  1.000000e+00  0.000000e+00
   outer loop
     vertex  1.114645e+02  1.150000e+02  1.300000e+01
     vertex  1.150000e+02  1.150000e+02  1.300000e+01
     vertex  1.150000e+02  1.150000e+02  3.000000e+00
   endloop
 endfacet
 facet normal  1.004869e-15 -1.000000e+00  0.000000e+00
   outer loop
     vertex  1.150000e+02  0.000000e+00  1.300000e+01
     vertex  1.114645e+02 -3.552714e-15  1.300000e+01
     vertex  1.114645e+02 -3.552714e-15  3.000000e+00
   endloop
 endfacet
 facet normal  1.004869e-15 -1.000000e+00  0.000000e+00
   outer loop
     vertex  1.150000e+02  0.000000e+00  1.300000e+01
     vertex  1.114645e+02 -3.552714e-15  3.000000e+00
     vertex  1.150000e+02  0.000000e+00  3.000000e+00
   endloop
 endfacet
 facet normal  0.000000e+00  0.000000e+00  1.000000e+00
   outer loop
     vertex  1.115531e+02  7.867228e-01  1.300000e+01
     vertex  1.114645e+02 -3.552714e-15  1.300000e+01
     vertex  1.150000e+02  0.000000e+00  1.300000e+01
   endloop
 endfacet
 facet normal -0.000000e+00  0.000000e+00  1.000000e+00
   outer loop
     vertex  1.142133e+02  3.446858e+00  1.300000e+01
     vertex  1.150000e+02  0.000000e+00  1.300000e+01
     vertex  1.150000e+02  3.535500e+00  1.300000e+01
   endloop
 endfacet
 facet normal  0.000000e+00  0.000000e+00  1.000000e+00
   outer loop
     vertex  1.118146e+02  1.533996e+00  1.300000e+01
     vertex  1.115531e+02  7.867228e-01  1.300000e+01
     vertex  1.150000e+02  0.000000e+00  1.300000e+01
   endloop
 endfacet
 facet normal -0.000000e+00  0.000000e+00  1.000000e+00
   outer loop
     vertex  1.134660e+02  3.185375e+00  1.300000e+01
     vertex  1.150000e+02  0.000000e+00  1.300000e+01
     vertex  1.142133e+02  3.446858e+00  1.300000e+01
   endloop
 endfacet
 facet normal  0.000000e+00  0.000000e+00  1.000000e+00
   outer loop
     vertex  1.122358e+02  2.204348e+00  1.300000e+01
     vertex  1.118146e+02  1.533996e+00  1.300000e+01
     vertex  1.150000e+02  0.000000e+00  1.300000e+01
   endloop
 endfacet
 facet normal -0.000000e+00  0.000000e+00  1.000000e+00
   outer loop
     vertex  1.127957e+02  2.764165e+00  1.300000e+01
     vertex  1.150000e+02  0.000000e+00  1.300000e+01
     vertex  1.134660e+02  3.185375e+00  1.300000e+01
   endloop
 endfacet
 facet normal  0.000000e+00  0.000000e+00  1.000000e+00
   outer loop
     vertex  1.127957e+02  2.764165e+00  1.300000e+01
     vertex  1.122358e+02  2.204348e+00  1.300000e+01
     vertex  1.150000e+02  0.000000e+00  1.300000e+01
   endloop
 endfacet
 facet normal -1.119645e-01  9.937122e-01  0.000000e+00
   outer loop
     vertex  1.142133e+02  3.446858e+00  1.300000e+01
     vertex  1.150000e+02  3.535500e+00  3.000000e+00
     vertex  1.142133e+02  3.446858e+00  3.000000e+00
   endloop
 endfacet
 facet normal -1.119645e-01  9.937122e-01  0.000000e+00
   outer loop
     vertex  1.142133e+02  3.446858e+00  1.300000e+01
     vertex  1.150000e+02  3.535500e+00  1.300000e+01
     vertex  1.150000e+02  3.535500e+00  3.000000e+00
   endloop
 endfacet
 facet normal -3.302791e-01  9.438833e-01  0.000000e+00
   outer loop
     vertex  1.134660e+02  3.185375e+00  1.300000e+01
     vertex  1.142133e+02  3.446858e+00  3.000000e+00
     vertex  1.134660e+02  3.185375e+00  3.000000e+00
   endloop
 endfacet
 facet normal -3.302791e-01  9.438833e-01  0.000000e+00
   outer loop
     vertex  1.134660e+02  3.185375e+00  1.300000e+01
     vertex  1.142133e+02  3.446858e+00  1.300000e+01
     vertex  1.142133e+02  3.446858e+00  3.000000e+00
   endloop
 endfacet
 facet normal -5.320321e-01  8.467242e-01  0.000000e+00
   outer loop
     vertex  1.127957e+02  2.764165e+00  1.300000e+01
     vertex  1.134660e+02  3.185375e+00  3.000000e+00
     vertex  1.127957e+02  2.764165e+00  3.000000e+00
   endloop
 endfacet
 facet normal -5.320321e-01  8.467242e-01  0.000000e+00
   outer loop
     vertex  1.127957e+02  2.764165e+00  1.300000e+01
     vertex  1.134660e+02  3.185375e+00  1.300000e+01
     vertex  1.134660e+02  3.185375e+00  3.000000e+00
   endloop
 endfacet
 facet normal -7.071068e-01  7.071068e-01  0.000000e+00
   outer loop
     vertex  1.122358e+02  2.204348e+00  1.300000e+01
     vertex  1.127957e+02  2.764165e+00  3.000000e+00
     vertex  1.122358e+02  2.204348e+00  3.000000e+00
   endloop
 endfacet
 facet normal -7.071068e-01  7.071068e-01  0.000000e+00
   outer loop
     vertex  1.122358e+02  2.204348e+00  1.300000e+01
     vertex  1.127957e+02  2.764165e+00  1.300000e+01
     vertex  1.127957e+02  2.764165e+00  3.000000e+00
   endloop
 endfacet
 facet normal -8.467242e-01  5.320321e-01  0.000000e+00
   outer loop
     vertex  1.118146e+02  1.533996e+00  1.300000e+01
     vertex  1.122358e+02  2.204348e+00  3.000000e+00
     vertex  1.118146e+02  1.533996e+00  3.000000e+00
   endloop
 endfacet
 facet normal -8.467242e-01  5.320321e-01  0.000000e+00
   outer loop
     vertex  1.118146e+02  1.533996e+00  1.300000e+01
     vertex  1.122358e+02  2.204348e+00  1.300000e+01
     vertex  1.122358e+02  2.204348e+00  3.000000e+00
   endloop
 endfacet
 facet normal -9.438833e-01  3.302791e-01  0.000000e+00
   outer loop
     vertex  1.115531e+02  7.867228e-01  1.300000e+01
     vertex  1.118146e+02  1.533996e+00  3.000000e+00
     vertex  1.115531e+02  7.867228e-01  3.000000e+00
   endloop
 endfacet
 facet normal -9.937122e-01  1.119645e-01  0.000000e+00
   outer loop
     vertex  1.115531e+02  7.867228e-01  1.300000e+01
     vertex  1.115531e+02  7.867228e-01  3.000000e+00
     vertex  1.114645e+02 -3.552714e-15  3.000000e+00
   endloop
 endfacet
 facet normal -9.438833e-01  3.302791e-01  0.000000e+00
   outer loop
     vertex  1.115531e+02  7.867228e-01  1.300000e+01
     vertex  1.118146e+02  1.533996e+00  1.300000e+01
     vertex  1.118146e+02  1.533996e+00  3.000000e+00
   endloop
 endfacet
 facet normal -9.937122e-01  1.119645e-01  0.000000e+00
   outer loop
     vertex  1.114645e+02 -3.552714e-15  1.300000e+01
     vertex  1.115531e+02  7.867228e-01  1.300000e+01
     vertex  1.114645e+02 -3.552714e-15  3.000000e+00
   endloop
 endfacet
 facet normal  0.000000e+00 -0.000000e+00 -1.000000e+00
   outer loop
     vertex  1.115531e+02  7.867228e-01  3.000000e+00
     vertex  1.150000e+02  0.000000e+00  3.000000e+00
     vertex  1.114645e+02 -3.552714e-15  3.000000e+00
   endloop
 endfacet
 facet normal  0.000000e+00  0.000000e+00 -1.000000e+00
   outer loop
     vertex  1.142133e+02  3.446858e+00  3.000000e+00
     vertex  1.150000e+02  3.535500e+00  3.000000e+00
     vertex  1.150000e+02  0.000000e+00  3.000000e+00
   endloop
 endfacet
 facet normal  0.000000e+00 -0.000000e+00 -1.000000e+00
   outer loop
     vertex  1.118146e+02  1.533996e+00  3.000000e+00
     vertex  1.150000e+02  0.000000e+00  3.000000e+00
     vertex  1.115531e+02  7.867228e-01  3.000000e+00
   endloop
 endfacet
 facet normal  0.000000e+00  0.000000e+00 -1.000000e+00
   outer loop
     vertex  1.134660e+02  3.185375e+00  3.000000e+00
     vertex  1.142133e+02  3.446858e+00  3.000000e+00
     vertex  1.150000e+02  0.000000e+00  3.000000e+00
   endloop
 endfacet
 facet normal  0.000000e+00 -0.000000e+00 -1.000000e+00
   outer loop
     vertex  1.122358e+02  2.204348e+00  3.000000e+00
     vertex  1.150000e+02  0.000000e+00  3.000000e+00
     vertex  1.118146e+02  1.533996e+00  3.000000e+00
   endloop
 endfacet
 facet normal  0.000000e+00  0.000000e+00 -1.000000e+00
   outer loop
     vertex  1.127957e+02  2.764165e+00  3.000000e+00
     vertex  1.134660e+02  3.185375e+00  3.000000e+00
     vertex  1.150000e+02  0.000000e+00  3.000000e+00
   endloop
 endfacet
 facet normal  0.000000e+00 -0.000000e+00 -1.000000e+00
   outer loop
     vertex  1.127957e+02  2.764165e+00  3.000000e+00
     vertex  1.150000e+02  0.000000e+00  3.000000e+00
     vertex  1.122358e+02  2.204348e+00  3.000000e+00
   endloop
 endfacet
 facet normal  1.000000e+00  0.000000e+00  0.000000e+00
   outer loop
     vertex  1.150000e+02  3.535500e+00  1.300000e+01
     vertex  1.150000e+02  0.000000e+00  3.000000e+00
     vertex  1.150000e+02  3.535500e+00  3.000000e+00
   endloop
 endfacet
 facet normal  1.000000e+00  0.000000e+00  0.000000e+00
   outer loop
     vertex  1.150000e+02  3.535500e+00  1.300000e+01
     vertex  1.150000e+02  0.000000e+00  1.300000e+01
     vertex  1.150000e+02  0.000000e+00  3.000000e+00
   endloop
 endfacet
 facet normal -1.000000e+00  5.779963e-16  0.000000e+00
   outer loop
     vertex  0.000000e+00  1.150000e+02  7.000000e+00
     vertex  0.000000e+00  1.150000e+02  3.000000e+00
     vertex -2.043506e-15  1.114645e+02  3.000000e+00
   endloop
 endfacet
 facet normal -1.000000e+00 -1.893380e-17 -3.405843e-16
   outer loop
     vertex  0.000000e+00  3.535500e+00  3.000000e+00
     vertex -2.043506e-15  1.114645e+02  3.000000e+00
     vertex -1.021753e-15  1.114645e+02  0.000000e+00
   endloop
 endfacet
 facet normal -1.000000e+00 -9.466899e-18 -0.000000e+00
   outer loop
     vertex  0.000000e+00  3.535500e+00  3.000000e+00
     vertex -1.021753e-15  1.114645e+02  0.000000e+00
     vertex  0.000000e+00  3.535500e+00  0.000000e+00
   endloop
 endfacet
 facet normal -1.000000e+00 -1.893380e-17  5.276116e-16
   outer loop
     vertex  0.000000e+00  3.535500e+00  3.000000e+00
     vertex  0.000000e+00  1.150000e+02  7.000000e+00
     vertex -2.043506e-15  1.114645e+02  3.000000e+00
   endloop
 endfacet
 facet normal -1.000000e+00  0.000000e+00  0.000000e+00
   outer loop
     vertex  0.000000e+00  0.000000e+00  7.000000e+00
     vertex  0.000000e+00  3.535500e+00  3.000000e+00
     vertex  0.000000e+00  0.000000e+00  3.000000e+00
   endloop
 endfacet
 facet normal -1.000000e+00  0.000000e+00  0.000000e+00
   outer loop
     vertex  0.000000e+00  0.000000e+00  7.000000e+00
     vertex  0.000000e+00  1.150000e+02  7.000000e+00
     vertex  0.000000e+00  3.535500e+00  3.000000e+00
   endloop
 endfacet
 facet normal -2.449294e-16 -1.000000e+00 -0.000000e+00
   outer loop
     vertex  0.000000e+00  0.000000e+00  7.000000e+00
     vertex  0.000000e+00  0.000000e+00  3.000000e+00
     vertex  3.535500e+00 -8.659478e-16  3.000000e+00
   endloop
 endfacet
 facet normal  4.011655e-18 -1.000000e+00  0.000000e+00
   outer loop
     vertex  1.114645e+02  0.000000e+00  3.000000e+00
     vertex  3.535500e+00 -4.329739e-16  0.000000e+00
     vertex  1.114645e+02  0.000000e+00  0.000000e+00
   endloop
 endfacet
 facet normal  8.023309e-18 -1.000000e+00 -1.443246e-16
   outer loop
     vertex  1.114645e+02  0.000000e+00  3.000000e+00
     vertex  3.535500e+00 -8.659478e-16  3.000000e+00
     vertex  3.535500e+00 -4.329739e-16  0.000000e+00
   endloop
 endfacet
 facet normal  8.023309e-18 -1.000000e+00  2.235785e-16
   outer loop
     vertex  1.114645e+02  0.000000e+00  3.000000e+00
     vertex  0.000000e+00  0.000000e+00  7.000000e+00
     vertex  3.535500e+00 -8.659478e-16  3.000000e+00
   endloop
 endfacet
 facet normal  0.000000e+00 -1.000000e+00 -0.000000e+00
   outer loop
     vertex  1.150000e+02  0.000000e+00  7.000000e+00
     vertex  1.114645e+02  0.000000e+00  3.000000e+00
     vertex  1.150000e+02  0.000000e+00  3.000000e+00
   endloop
 endfacet
 facet normal -0.000000e+00 -1.000000e+00  0.000000e+00
   outer loop
     vertex  1.150000e+02  0.000000e+00  7.000000e+00
     vertex  0.000000e+00  0.000000e+00  7.000000e+00
     vertex  1.114645e+02  0.000000e+00  3.000000e+00
   endloop
 endfacet
 facet normal  0.000000e+00  0.000000e+00  1.000000e+00
   outer loop
     vertex  2.500000e+00  1.125000e+02  7.000000e+00
     vertex  0.000000e+00  0.000000e+00  7.000000e+00
     vertex  2.500000e+00  2.500000e+00  7.000000e+00
   endloop
 endfacet
 facet normal  0.000000e+00  0.000000e+00  1.000000e+00
   outer loop
     vertex  0.000000e+00  1.150000e+02  7.000000e+00
     vertex  0.000000e+00  0.000000e+00  7.000000e+00
     vertex  2.500000e+00  1.125000e+02  7.000000e+00
   endloop
 endfacet
 facet normal  0.000000e+00  0.000000e+00  1.000000e+00
   outer loop
     vertex  1.125000e+02  2.500000e+00  7.000000e+00
     vertex  2.500000e+00  2.500000e+00  7.000000e+00
     vertex  0.000000e+00  0.000000e+00  7.000000e+00
   endloop
 endfacet
 facet normal  0.000000e+00  0.000000e+00  1.000000e+00
   outer loop
     vertex  1.150000e+02  0.000000e+00  7.000000e+00
     vertex  1.125000e+02  2.500000e+00  7.000000e+00
     vertex  0.000000e+00  0.000000e+00  7.000000e+00
   endloop
 endfacet
 facet normal  0.000000e+00  0.000000e+00  1.000000e+00
   outer loop
     vertex  1.125000e+02  1.125000e+02  7.000000e+00
     vertex  1.125000e+02  2.500000e+00  7.000000e+00
     vertex  1.150000e+02  0.000000e+00  7.000000e+00
   endloop
 endfacet
 facet normal  0.000000e+00  0.000000e+00  1.000000e+00
   outer loop
     vertex  1.150000e+02  1.150000e+02  7.000000e+00
     vertex  1.125000e+02  1.125000e+02  7.000000e+00
     vertex  1.150000e+02  0.000000e+00  7.000000e+00
   endloop
 endfacet
 facet normal  0.000000e+00  0.000000e+00  1.000000e+00
   outer loop
     vertex  1.150000e+02  1.150000e+02  7.000000e+00
     vertex  0.000000e+00  1.150000e+02  7.000000e+00
     vertex  2.500000e+00  1.125000e+02  7.000000e+00
   endloop
 endfacet
 facet normal  0.000000e+00  0.000000e+00  1.000000e+00
   outer loop
     vertex  1.150000e+02  1.150000e+02  7.000000e+00
     vertex  2.500000e+00  1.125000e+02  7.000000e+00
     vertex  1.125000e+02  1.125000e+02  7.000000e+00
   endloop
 endfacet
 facet normal  0.000000e+00  1.000000e+00  0.000000e+00
   outer loop
     vertex  0.000000e+00  1.150000e+02  7.000000e+00
     vertex  3.535500e+00  1.150000e+02  3.000000e+00
     vertex  0.000000e+00  1.150000e+02  3.000000e+00
   endloop
 endfacet
 facet normal  0.000000e+00  1.000000e+00  0.000000e+00
   outer loop
     vertex  1.114645e+02  1.150000e+02  3.000000e+00
     vertex  1.114645e+02  1.150000e+02  0.000000e+00
     vertex  3.535500e+00  1.150000e+02  0.000000e+00
   endloop
 endfacet
 facet normal  0.000000e+00  1.000000e+00  0.000000e+00
   outer loop
     vertex  1.114645e+02  1.150000e+02  3.000000e+00
     vertex  3.535500e+00  1.150000e+02  0.000000e+00
     vertex  3.535500e+00  1.150000e+02  3.000000e+00
   endloop
 endfacet
 facet normal  0.000000e+00  1.000000e+00  0.000000e+00
   outer loop
     vertex  1.114645e+02  1.150000e+02  3.000000e+00
     vertex  3.535500e+00  1.150000e+02  3.000000e+00
     vertex  0.000000e+00  1.150000e+02  7.000000e+00
   endloop
 endfacet
 facet normal  0.000000e+00  1.000000e+00  0.000000e+00
   outer loop
     vertex  1.150000e+02  1.150000e+02  7.000000e+00
     vertex  1.150000e+02  1.150000e+02  3.000000e+00
     vertex  1.114645e+02  1.150000e+02  3.000000e+00
   endloop
 endfacet
 facet normal  0.000000e+00  1.000000e+00  0.000000e+00
   outer loop
     vertex  1.150000e+02  1.150000e+02  7.000000e+00
     vertex  1.114645e+02  1.150000e+02  3.000000e+00
     vertex  0.000000e+00  1.150000e+02  7.000000e+00
   endloop
 endfacet
 facet normal  0.000000e+00  0.000000e+00 -1.000000e+00
   outer loop
     vertex  3.446858e+00  1.142133e+02  3.000000e+00
     vertex  0.000000e+00  1.150000e+02  3.000000e+00
     vertex  3.535500e+00  1.150000e+02  3.000000e+00
   endloop
 endfacet
 facet normal -0.000000e+00  0.000000e+00 -1.000000e+00
   outer loop
     vertex  7.867228e-01  1.115531e+02  3.000000e+00
     vertex -2.043506e-15  1.114645e+02  3.000000e+00
     vertex  0.000000e+00  1.150000e+02  3.000000e+00
   endloop
 endfacet
 facet normal  0.000000e+00  0.000000e+00 -1.000000e+00
   outer loop
     vertex  3.185375e+00  1.134660e+02  3.000000e+00
     vertex  0.000000e+00  1.150000e+02  3.000000e+00
     vertex  3.446858e+00  1.142133e+02  3.000000e+00
   endloop
 endfacet
 facet normal -0.000000e+00  0.000000e+00 -1.000000e+00
   outer loop
     vertex  1.533996e+00  1.118146e+02  3.000000e+00
     vertex  7.867228e-01  1.115531e+02  3.000000e+00
     vertex  0.000000e+00  1.150000e+02  3.000000e+00
   endloop
 endfacet
 facet normal  0.000000e+00  0.000000e+00 -1.000000e+00
   outer loop
     vertex  2.764165e+00  1.127957e+02  3.000000e+00
     vertex  0.000000e+00  1.150000e+02  3.000000e+00
     vertex  3.185375e+00  1.134660e+02  3.000000e+00
   endloop
 endfacet
 facet normal -0.000000e+00  0.000000e+00 -1.000000e+00
   outer loop
     vertex  2.204348e+00  1.122358e+02  3.000000e+00
     vertex  1.533996e+00  1.118146e+02  3.000000e+00
     vertex  0.000000e+00  1.150000e+02  3.000000e+00
   endloop
 endfacet
 facet normal  0.000000e+00  0.000000e+00 -1.000000e+00
   outer loop
     vertex  2.204348e+00  1.122358e+02  3.000000e+00
     vertex  0.000000e+00  1.150000e+02  3.000000e+00
     vertex  2.764165e+00  1.127957e+02  3.000000e+00
   endloop
 endfacet
 facet normal -1.119645e-01  9.937122e-01  2.071759e-17
   outer loop
     vertex  7.867228e-01  1.115531e+02  3.000000e+00
     vertex  7.867228e-01  1.115531e+02  0.000000e+00
     vertex -1.021753e-15  1.114645e+02  0.000000e+00
   endloop
 endfacet
 facet normal -3.302791e-01  9.438833e-01  6.111390e-17
   outer loop
     vertex  7.867228e-01  1.115531e+02  3.000000e+00
     vertex  1.533996e+00  1.118146e+02  0.000000e+00
     vertex  7.867228e-01  1.115531e+02  0.000000e+00
   endloop
 endfacet
 facet normal -1.119645e-01  9.937122e-01 -3.505816e-17
   outer loop
     vertex  7.867228e-01  1.115531e+02  3.000000e+00
     vertex -1.021753e-15  1.114645e+02  0.000000e+00
     vertex -2.043506e-15  1.114645e+02  3.000000e+00
   endloop
 endfacet
 facet normal -5.320321e-01  8.467242e-01  2.362697e-16
   outer loop
     vertex  1.533996e+00  1.118146e+02  3.000000e+00
     vertex  2.204348e+00  1.122358e+02  0.000000e+00
     vertex  1.533996e+00  1.118146e+02  0.000000e+00
   endloop
 endfacet
 facet normal -3.302791e-01  9.438833e-01  1.466734e-16
   outer loop
     vertex  1.533996e+00  1.118146e+02  3.000000e+00
     vertex  1.533996e+00  1.118146e+02  0.000000e+00
     vertex  7.867228e-01  1.115531e+02  3.000000e+00
   endloop
 endfacet
 facet normal -7.071068e-01  7.071068e-01  2.093457e-16
   outer loop
     vertex  2.204348e+00  1.122358e+02  3.000000e+00
     vertex  2.764165e+00  1.127957e+02  0.000000e+00
     vertex  2.204348e+00  1.122358e+02  0.000000e+00
   endloop
 endfacet
 facet normal -5.320321e-01  8.467242e-01  1.575131e-16
   outer loop
     vertex  2.204348e+00  1.122358e+02  3.000000e+00
     vertex  2.204348e+00  1.122358e+02  0.000000e+00
     vertex  1.533996e+00  1.118146e+02  3.000000e+00
   endloop
 endfacet
 facet normal -8.467242e-01  5.320321e-01  3.760211e-16
   outer loop
     vertex  2.764165e+00  1.127957e+02  3.000000e+00
     vertex  3.185375e+00  1.134660e+02  0.000000e+00
     vertex  2.764165e+00  1.127957e+02  0.000000e+00
   endloop
 endfacet
 facet normal -7.071068e-01  7.071068e-01  3.140185e-16
   outer loop
     vertex  2.764165e+00  1.127957e+02  3.000000e+00
     vertex  2.764165e+00  1.127957e+02  0.000000e+00
     vertex  2.204348e+00  1.122358e+02  3.000000e+00
   endloop
 endfacet
 facet normal -9.438833e-01  3.302791e-01  4.191684e-16
   outer loop
     vertex  3.185375e+00  1.134660e+02  3.000000e+00
     vertex  3.446858e+00  1.142133e+02  0.000000e+00
     vertex  3.185375e+00  1.134660e+02  0.000000e+00
   endloop
 endfacet
 facet normal -8.467242e-01  5.320321e-01  3.760211e-16
   outer loop
     vertex  3.185375e+00  1.134660e+02  3.000000e+00
     vertex  3.185375e+00  1.134660e+02  0.000000e+00
     vertex  2.764165e+00  1.127957e+02  3.000000e+00
   endloop
 endfacet
 facet normal -9.937122e-01  1.119645e-01  2.941979e-16
   outer loop
     vertex  3.446858e+00  1.142133e+02  3.000000e+00
     vertex  3.535500e+00  1.150000e+02  0.000000e+00
     vertex  3.446858e+00  1.142133e+02  0.000000e+00
   endloop
 endfacet
 facet normal -9.438833e-01  3.302791e-01  2.794456e-16
   outer loop
     vertex  3.446858e+00  1.142133e+02  3.000000e+00
     vertex  3.446858e+00  1.142133e+02  0.000000e+00
     vertex  3.185375e+00  1.134660e+02  3.000000e+00
   endloop
 endfacet
 facet normal -9.937122e-01  1.119645e-01  0.000000e+00
   outer loop
     vertex  3.535500e+00  1.150000e+02  3.000000e+00
     vertex  3.535500e+00  1.150000e+02  0.000000e+00
     vertex  3.446858e+00  1.142133e+02  3.000000e+00
   endloop
 endfacet
 facet normal -0.000000e+00  0.000000e+00 -1.000000e+00
   outer loop
     vertex  1.142133e+02  1.115531e+02  0.000000e+00
     vertex  1.142133e+02  3.446858e+00  0.000000e+00
     vertex  1.134660e+02  1.118146e+02  0.000000e+00
   endloop
 endfacet
 facet normal -0.000000e+00  0.000000e+00 -1.000000e+00
   outer loop
     vertex  1.114645e+02  1.150000e+02  0.000000e+00
     vertex  3.446858e+00  1.142133e+02  0.000000e+00
     vertex  3.535500e+00  1.150000e+02  0.000000e+00
   endloop
 endfacet
 facet normal  0.000000e+00 -0.000000e+00 -1.000000e+00
   outer loop
     vertex  1.114645e+02  1.150000e+02  0.000000e+00
     vertex  1.115531e+02  1.142133e+02  0.000000e+00
     vertex  3.446858e+00  1.142133e+02  0.000000e+00
   endloop
 endfacet
 facet normal  0.000000e+00 -0.000000e+00 -1.000000e+00
   outer loop
     vertex  1.150000e+02  1.114645e+02  0.000000e+00
     vertex  1.150000e+02  3.535500e+00  0.000000e+00
     vertex  1.142133e+02  3.446858e+00  0.000000e+00
   endloop
 endfacet
 facet normal -0.000000e+00  0.000000e+00 -1.000000e+00
   outer loop
     vertex  1.150000e+02  1.114645e+02  0.000000e+00
     vertex  1.142133e+02  3.446858e+00  0.000000e+00
     vertex  1.142133e+02  1.115531e+02  0.000000e+00
   endloop
 endfacet
 facet normal  0.000000e+00  0.000000e+00 -1.000000e+00
   outer loop
     vertex -1.021753e-15  1.114645e+02  0.000000e+00
     vertex  7.867228e-01  3.446858e+00  0.000000e+00
     vertex  0.000000e+00  3.535500e+00  0.000000e+00
   endloop
 endfacet
 facet normal  0.000000e+00  0.000000e+00 -1.000000e+00
   outer loop
     vertex  1.115531e+02  7.867228e-01  0.000000e+00
     vertex  1.114645e+02  0.000000e+00  0.000000e+00
     vertex  3.535500e+00 -4.329739e-16  0.000000e+00
   endloop
 endfacet
 facet normal -0.000000e+00  0.000000e+00 -1.000000e+00
   outer loop
     vertex  1.115531e+02  7.867228e-01  0.000000e+00
     vertex  3.535500e+00 -4.329739e-16  0.000000e+00
     vertex  3.446858e+00  7.867228e-01  0.000000e+00
   endloop
 endfacet
 facet normal  0.000000e+00  0.000000e+00 -1.000000e+00
   outer loop
     vertex  7.867228e-01  1.115531e+02  0.000000e+00
     vertex  7.867228e-01  3.446858e+00  0.000000e+00
     vertex -1.021753e-15  1.114645e+02  0.000000e+00
   endloop
 endfacet
 facet normal -0.000000e+00  0.000000e+00 -1.000000e+00
   outer loop
     vertex  1.118146e+02  1.533996e+00  0.000000e+00
     vertex  3.446858e+00  7.867228e-01  0.000000e+00
     vertex  3.185375e+00  1.533996e+00  0.000000e+00
   endloop
 endfacet
 facet normal  0.000000e+00  0.000000e+00 -1.000000e+00
   outer loop
     vertex  1.118146e+02  1.533996e+00  0.000000e+00
     vertex  1.115531e+02  7.867228e-01  0.000000e+00
     vertex  3.446858e+00  7.867228e-01  0.000000e+00
   endloop
 endfacet
 facet normal  0.000000e+00 -0.000000e+00 -1.000000e+00
   outer loop
     vertex  1.533996e+00  1.118146e+02  0.000000e+00
     vertex  2.204348e+00  2.764165e+00  0.000000e+00
     vertex  1.533996e+00  3.185375e+00  0.000000e+00
   endloop
 endfacet
 facet normal  0.000000e+00  0.000000e+00 -1.000000e+00
   outer loop
     vertex  1.533996e+00  1.118146e+02  0.000000e+00
     vertex  1.533996e+00  3.185375e+00  0.000000e+00
     vertex  7.867228e-01  3.446858e+00  0.000000e+00
   endloop
 endfacet
 facet normal  0.000000e+00  0.000000e+00 -1.000000e+00
   outer loop
     vertex  1.533996e+00  1.118146e+02  0.000000e+00
     vertex  7.867228e-01  3.446858e+00  0.000000e+00
     vertex  7.867228e-01  1.115531e+02  0.000000e+00
   endloop
 endfacet
 facet normal -0.000000e+00  0.000000e+00 -1.000000e+00
   outer loop
     vertex  1.122358e+02  2.204348e+00  0.000000e+00
     vertex  3.185375e+00  1.533996e+00  0.000000e+00
     vertex  2.764165e+00  2.204348e+00  0.000000e+00
   endloop
 endfacet
 facet normal  0.000000e+00  0.000000e+00 -1.000000e+00
   outer loop
     vertex  1.122358e+02  2.204348e+00  0.000000e+00
     vertex  1.118146e+02  1.533996e+00  0.000000e+00
     vertex  3.185375e+00  1.533996e+00  0.000000e+00
   endloop
 endfacet
 facet normal  0.000000e+00 -0.000000e+00 -1.000000e+00
   outer loop
     vertex  2.204348e+00  1.122358e+02  0.000000e+00
     vertex  2.764165e+00  2.204348e+00  0.000000e+00
     vertex  2.204348e+00  2.764165e+00  0.000000e+00
   endloop
 endfacet
 facet normal  0.000000e+00  0.000000e+00 -1.000000e+00
   outer loop
     vertex  2.204348e+00  1.122358e+02  0.000000e+00
     vertex  2.204348e+00  2.764165e+00  0.000000e+00
     vertex  1.533996e+00  1.118146e+02  0.000000e+00
   endloop
 endfacet
 facet normal  0.000000e+00  0.000000e+00 -1.000000e+00
   outer loop
     vertex  1.127957e+02  2.764165e+00  0.000000e+00
     vertex  1.122358e+02  2.204348e+00  0.000000e+00
     vertex  2.764165e+00  2.204348e+00  0.000000e+00
   endloop
 endfacet
 facet normal -0.000000e+00  0.000000e+00 -1.000000e+00
   outer loop
     vertex  1.122358e+02  1.127957e+02  0.000000e+00
     vertex  2.204348e+00  1.122358e+02  0.000000e+00
     vertex  2.764165e+00  1.127957e+02  0.000000e+00
   endloop
 endfacet
 facet normal  0.000000e+00 -0.000000e+00 -1.000000e+00
   outer loop
     vertex  1.127957e+02  1.122358e+02  0.000000e+00
     vertex  1.134660e+02  3.185375e+00  0.000000e+00
     vertex  1.127957e+02  2.764165e+00  0.000000e+00
   endloop
 endfacet
 facet normal -0.000000e+00  0.000000e+00 -1.000000e+00
   outer loop
     vertex  1.127957e+02  1.122358e+02  0.000000e+00
     vertex  2.764165e+00  2.204348e+00  0.000000e+00
     vertex  2.204348e+00  1.122358e+02  0.000000e+00
   endloop
 endfacet
 facet normal  0.000000e+00  0.000000e+00 -1.000000e+00
   outer loop
     vertex  1.127957e+02  1.122358e+02  0.000000e+00
     vertex  1.127957e+02  2.764165e+00  0.000000e+00
     vertex  2.764165e+00  2.204348e+00  0.000000e+00
   endloop
 endfacet
 facet normal  0.000000e+00  0.000000e+00 -1.000000e+00
   outer loop
     vertex  1.127957e+02  1.122358e+02  0.000000e+00
     vertex  2.204348e+00  1.122358e+02  0.000000e+00
     vertex  1.122358e+02  1.127957e+02  0.000000e+00
   endloop
 endfacet
 facet normal -0.000000e+00  0.000000e+00 -1.000000e+00
   outer loop
     vertex  1.118146e+02  1.134660e+02  0.000000e+00
     vertex  2.764165e+00  1.127957e+02  0.000000e+00
     vertex  3.185375e+00  1.134660e+02  0.000000e+00
   endloop
 endfacet
 facet normal  0.000000e+00 -0.000000e+00 -1.000000e+00
   outer loop
     vertex  1.118146e+02  1.134660e+02  0.000000e+00
     vertex  1.122358e+02  1.127957e+02  0.000000e+00
     vertex  2.764165e+00  1.127957e+02  0.000000e+00
   endloop
 endfacet
 facet normal  0.000000e+00 -0.000000e+00 -1.000000e+00
   outer loop
     vertex  1.134660e+02  1.118146e+02  0.000000e+00
     vertex  1.142133e+02  3.446858e+00  0.000000e+00
     vertex  1.134660e+02  3.185375e+00  0.000000e+00
   endloop
 endfacet
 facet normal -0.000000e+00  0.000000e+00 -1.000000e+00
   outer loop
     vertex  1.134660e+02  1.118146e+02  0.000000e+00
     vertex  1.134660e+02  3.185375e+00  0.000000e+00
     vertex  1.127957e+02  1.122358e+02  0.000000e+00
   endloop
 endfacet
 facet normal -0.000000e+00  0.000000e+00 -1.000000e+00
   outer loop
     vertex  1.115531e+02  1.142133e+02  0.000000e+00
     vertex  3.185375e+00  1.134660e+02  0.000000e+00
     vertex  3.446858e+00  1.142133e+02  0.000000e+00
   endloop
 endfacet
 facet normal  0.000000e+00 -0.000000e+00 -1.000000e+00
   outer loop
     vertex  1.115531e+02  1.142133e+02  0.000000e+00
     vertex  1.118146e+02  1.134660e+02  0.000000e+00
     vertex  3.185375e+00  1.134660e+02  0.000000e+00
   endloop
 endfacet
 facet normal -9.937122e-01 -1.119645e-01 -0.000000e+00
   outer loop
     vertex  3.446858e+00  7.867228e-01  3.000000e+00
     vertex  3.446858e+00  7.867228e-01  0.000000e+00
     vertex  3.535500e+00 -4.329739e-16  0.000000e+00
   endloop
 endfacet
 facet normal -9.937122e-01 -1.119645e-01 -1.752908e-17
   outer loop
     vertex  3.446858e+00  7.867228e-01  3.000000e+00
     vertex  3.535500e+00 -4.329739e-16  0.000000e+00
     vertex  3.535500e+00 -8.659478e-16  3.000000e+00
   endloop
 endfacet
 facet normal -9.438833e-01 -3.302791e-01 -0.000000e+00
   outer loop
     vertex  3.185375e+00  1.533996e+00  3.000000e+00
     vertex  3.185375e+00  1.533996e+00  0.000000e+00
     vertex  3.446858e+00  7.867228e-01  0.000000e+00
   endloop
 endfacet
 facet normal -9.438833e-01 -3.302791e-01  0.000000e+00
   outer loop
     vertex  3.185375e+00  1.533996e+00  3.000000e+00
     vertex  3.446858e+00  7.867228e-01  0.000000e+00
     vertex  3.446858e+00  7.867228e-01  3.000000e+00
   endloop
 endfacet
 facet normal -8.467242e-01 -5.320321e-01 -0.000000e+00
   outer loop
     vertex  2.764165e+00  2.204348e+00  3.000000e+00
     vertex  2.764165e+00  2.204348e+00  0.000000e+00
     vertex  3.185375e+00  1.533996e+00  0.000000e+00
   endloop
 endfacet
 facet normal -8.467242e-01 -5.320321e-01  0.000000e+00
   outer loop
     vertex  2.764165e+00  2.204348e+00  3.000000e+00
     vertex  3.185375e+00  1.533996e+00  0.000000e+00
     vertex  3.185375e+00  1.533996e+00  3.000000e+00
   endloop
 endfacet
 facet normal -7.071068e-01 -7.071068e-01 -0.000000e+00
   outer loop
     vertex  2.204348e+00  2.764165e+00  3.000000e+00
     vertex  2.204348e+00  2.764165e+00  0.000000e+00
     vertex  2.764165e+00  2.204348e+00  0.000000e+00
   endloop
 endfacet
 facet normal -7.071068e-01 -7.071068e-01  0.000000e+00
   outer loop
     vertex  2.204348e+00  2.764165e+00  3.000000e+00
     vertex  2.764165e+00  2.204348e+00  0.000000e+00
     vertex  2.764165e+00  2.204348e+00  3.000000e+00
   endloop
 endfacet
 facet normal -5.320321e-01 -8.467242e-01 -0.000000e+00
   outer loop
     vertex  1.533996e+00  3.185375e+00  3.000000e+00
     vertex  1.533996e+00  3.185375e+00  0.000000e+00
     vertex  2.204348e+00  2.764165e+00  0.000000e+00
   endloop
 endfacet
 facet normal -5.320321e-01 -8.467242e-01  0.000000e+00
   outer loop
     vertex  1.533996e+00  3.185375e+00  3.000000e+00
     vertex  2.204348e+00  2.764165e+00  0.000000e+00
     vertex  2.204348e+00  2.764165e+00  3.000000e+00
   endloop
 endfacet
 facet normal -3.302791e-01 -9.438833e-01 -0.000000e+00
   outer loop
     vertex  7.867228e-01  3.446858e+00  3.000000e+00
     vertex  7.867228e-01  3.446858e+00  0.000000e+00
     vertex  1.533996e+00  3.185375e+00  0.000000e+00
   endloop
 endfacet
 facet normal -1.119645e-01 -9.937122e-01 -0.000000e+00
   outer loop
     vertex  7.867228e-01  3.446858e+00  3.000000e+00
     vertex  0.000000e+00  3.535500e+00  0.000000e+00
     vertex  7.867228e-01  3.446858e+00  0.000000e+00
   endloop
 endfacet
 facet normal -3.302791e-01 -9.438833e-01  0.000000e+00
   outer loop
     vertex  7.867228e-01  3.446858e+00  3.000000e+00
     vertex  1.533996e+00  3.185375e+00  0.000000e+00
     vertex  1.533996e+00  3.185375e+00  3.000000e+00
   endloop
 endfacet
 facet normal -1.119645e-01 -9.937122e-01 -0.000000e+00
   outer loop
     vertex  0.000000e+00  3.535500e+00  3.000000e+00
     vertex  0.000000e+00  3.535500e+00  0.000000e+00
     vertex  7.867228e-01  3.446858e+00  3.000000e+00
   endloop
 endfacet
 facet normal -0.000000e+00  0.000000e+00 -1.000000e+00
   outer loop
     vertex  7.867228e-01  3.446858e+00  3.000000e+00
     vertex  0.000000e+00  0.000000e+00  3.000000e+00
     vertex  0.000000e+00  3.535500e+00  3.000000e+00
   endloop
 endfacet
 facet normal  0.000000e+00 -0.000000e+00 -1.000000e+00
   outer loop
     vertex  3.446858e+00  7.867228e-01  3.000000e+00
     vertex  3.535500e+00 -8.659478e-16  3.000000e+00
     vertex  0.000000e+00  0.000000e+00  3.000000e+00
   endloop
 endfacet
 facet normal -0.000000e+00  0.000000e+00 -1.000000e+00
   outer loop
     vertex  1.533996e+00  3.185375e+00  3.000000e+00
     vertex  0.000000e+00  0.000000e+00  3.000000e+00
     vertex  7.867228e-01  3.446858e+00  3.000000e+00
   endloop
 endfacet
 facet normal  0.000000e+00 -0.000000e+00 -1.000000e+00
   outer loop
     vertex  3.185375e+00  1.533996e+00  3.000000e+00
     vertex  3.446858e+00  7.867228e-01  3.000000e+00
     vertex  0.000000e+00  0.000000e+00  3.000000e+00
   endloop
 endfacet
 facet normal -0.000000e+00  0.000000e+00 -1.000000e+00
   outer loop
     vertex  2.204348e+00  2.764165e+00  3.000000e+00
     vertex  0.000000e+00  0.000000e+00  3.000000e+00
     vertex  1.533996e+00  3.185375e+00  3.000000e+00
   endloop
 endfacet
 facet normal  0.000000e+00 -0.000000e+00 -1.000000e+00
   outer loop
     vertex  2.764165e+00  2.204348e+00  3.000000e+00
     vertex  3.185375e+00  1.533996e+00  3.000000e+00
     vertex  0.000000e+00  0.000000e+00  3.000000e+00
   endloop
 endfacet
 facet normal -0.000000e+00  0.000000e+00 -1.000000e+00
   outer loop
     vertex  2.764165e+00  2.204348e+00  3.000000e+00
     vertex  0.000000e+00  0.000000e+00  3.000000e+00
     vertex  2.204348e+00  2.764165e+00  3.000000e+00
   endloop
 endfacet
 facet normal  1.119645e-01 -9.937122e-01  0.000000e+00
   outer loop
     vertex  1.142133e+02  3.446858e+00  3.000000e+00
     vertex  1.142133e+02  3.446858e+00  0.000000e+00
     vertex  1.150000e+02  3.535500e+00  0.000000e+00
   endloop
 endfacet
 facet normal  1.119645e-01 -9.937122e-01  0.000000e+00
   outer loop
     vertex  1.142133e+02  3.446858e+00  3.000000e+00
     vertex  1.150000e+02  3.535500e+00  0.000000e+00
     vertex  1.150000e+02  3.535500e+00  3.000000e+00
   endloop
 endfacet
 facet normal  3.302791e-01 -9.438833e-01  0.000000e+00
   outer loop
     vertex  1.134660e+02  3.185375e+00  3.000000e+00
     vertex  1.134660e+02  3.185375e+00  0.000000e+00
     vertex  1.142133e+02  3.446858e+00  0.000000e+00
   endloop
 endfacet
 facet normal  3.302791e-01 -9.438833e-01  0.000000e+00
   outer loop
     vertex  1.134660e+02  3.185375e+00  3.000000e+00
     vertex  1.142133e+02  3.446858e+00  0.000000e+00
     vertex  1.142133e+02  3.446858e+00  3.000000e+00
   endloop
 endfacet
 facet normal  5.320321e-01 -8.467242e-01  0.000000e+00
   outer loop
     vertex  1.127957e+02  2.764165e+00  3.000000e+00
     vertex  1.127957e+02  2.764165e+00  0.000000e+00
     vertex  1.134660e+02  3.185375e+00  0.000000e+00
   endloop
 endfacet
 facet normal  5.320321e-01 -8.467242e-01  0.000000e+00
   outer loop
     vertex  1.127957e+02  2.764165e+00  3.000000e+00
     vertex  1.134660e+02  3.185375e+00  0.000000e+00
     vertex  1.134660e+02  3.185375e+00  3.000000e+00
   endloop
 endfacet
 facet normal  7.071068e-01 -7.071068e-01  0.000000e+00
   outer loop
     vertex  1.122358e+02  2.204348e+00  3.000000e+00
     vertex  1.122358e+02  2.204348e+00  0.000000e+00
     vertex  1.127957e+02  2.764165e+00  0.000000e+00
   endloop
 endfacet
 facet normal  7.071068e-01 -7.071068e-01  0.000000e+00
   outer loop
     vertex  1.122358e+02  2.204348e+00  3.000000e+00
     vertex  1.127957e+02  2.764165e+00  0.000000e+00
     vertex  1.127957e+02  2.764165e+00  3.000000e+00
   endloop
 endfacet
 facet normal  8.467242e-01 -5.320321e-01  0.000000e+00
   outer loop
     vertex  1.118146e+02  1.533996e+00  3.000000e+00
     vertex  1.118146e+02  1.533996e+00  0.000000e+00
     vertex  1.122358e+02  2.204348e+00  0.000000e+00
   endloop
 endfacet
 facet normal  8.467242e-01 -5.320321e-01  0.000000e+00
   outer loop
     vertex  1.118146e+02  1.533996e+00  3.000000e+00
     vertex  1.122358e+02  2.204348e+00  0.000000e+00
     vertex  1.122358e+02  2.204348e+00  3.000000e+00
   endloop
 endfacet
 facet normal  9.438833e-01 -3.302791e-01  0.000000e+00
   outer loop
     vertex  1.115531e+02  7.867228e-01  3.000000e+00
     vertex  1.115531e+02  7.867228e-01  0.000000e+00
     vertex  1.118146e+02  1.533996e+00  0.000000e+00
   endloop
 endfacet
 facet normal  9.937122e-01 -1.119645e-01  0.000000e+00
   outer loop
     vertex  1.115531e+02  7.867228e-01  3.000000e+00
     vertex  1.114645e+02  0.000000e+00  0.000000e+00
     vertex  1.115531e+02  7.867228e-01  0.000000e+00
   endloop
 endfacet
 facet normal  9.438833e-01 -3.302791e-01  0.000000e+00
   outer loop
     vertex  1.115531e+02  7.867228e-01  3.000000e+00
     vertex  1.118146e+02  1.533996e+00  0.000000e+00
     vertex  1.118146e+02  1.533996e+00  3.000000e+00
   endloop
 endfacet
 facet normal  9.937122e-01 -1.119645e-01  0.000000e+00
   outer loop
     vertex  1.114645e+02  0.000000e+00  3.000000e+00
     vertex  1.114645e+02  0.000000e+00  0.000000e+00
     vertex  1.115531e+02  7.867228e-01  3.000000e+00
   endloop
 endfacet
 facet normal  0.000000e+00 -0.000000e+00 -1.000000e+00
   outer loop
     vertex  1.115531e+02  7.867228e-01  3.000000e+00
     vertex  1.150000e+02  0.000000e+00  3.000000e+00
     vertex  1.114645e+02  0.000000e+00  3.000000e+00
   endloop
 endfacet
 facet normal  0.000000e+00  0.000000e+00 -1.000000e+00
   outer loop
     vertex  1.142133e+02  3.446858e+00  3.000000e+00
     vertex  1.150000e+02  3.535500e+00  3.000000e+00
     vertex  1.150000e+02  0.000000e+00  3.000000e+00
   endloop
 endfacet
 facet normal  0.000000e+00 -0.000000e+00 -1.000000e+00
   outer loop
     vertex  1.118146e+02  1.533996e+00  3.000000e+00
     vertex  1.150000e+02  0.000000e+00  3.000000e+00
     vertex  1.115531e+02  7.867228e-01  3.000000e+00
   endloop
 endfacet
 facet normal  0.000000e+00  0.000000e+00 -1.000000e+00
   outer loop
     vertex  1.134660e+02  3.185375e+00  3.000000e+00
     vertex  1.142133e+02  3.446858e+00  3.000000e+00
     vertex  1.150000e+02  0.000000e+00  3.000000e+00
   endloop
 endfacet
 facet normal  0.000000e+00 -0.000000e+00 -1.000000e+00
   outer loop
     vertex  1.122358e+02  2.204348e+00  3.000000e+00
     vertex  1.150000e+02  0.000000e+00  3.000000e+00
     vertex  1.118146e+02  1.533996e+00  3.000000e+00
   endloop
 endfacet
 facet normal  0.000000e+00  0.000000e+00 -1.000000e+00
   outer loop
     vertex  1.127957e+02  2.764165e+00  3.000000e+00
     vertex  1.134660e+02  3.185375e+00  3.000000e+00
     vertex  1.150000e+02  0.000000e+00  3.000000e+00
   endloop
 endfacet
 facet normal  0.000000e+00 -0.000000e+00 -1.000000e+00
   outer loop
     vertex  1.127957e+02  2.764165e+00  3.000000e+00
     vertex  1.150000e+02  0.000000e+00  3.000000e+00
     vertex  1.122358e+02  2.204348e+00  3.000000e+00
   endloop
 endfacet
 facet normal  1.000000e+00  0.000000e+00  0.000000e+00
   outer loop
     vertex  1.150000e+02  1.150000e+02  7.000000e+00
     vertex  1.150000e+02  1.114645e+02  3.000000e+00
     vertex  1.150000e+02  1.150000e+02  3.000000e+00
   endloop
 endfacet
 facet normal  1.000000e+00 -0.000000e+00  0.000000e+00
   outer loop
     vertex  1.150000e+02  3.535500e+00  3.000000e+00
     vertex  1.150000e+02  1.114645e+02  0.000000e+00
     vertex  1.150000e+02  1.114645e+02  3.000000e+00
   endloop
 endfacet
 facet normal  1.000000e+00  0.000000e+00  0.000000e+00
   outer loop
     vertex  1.150000e+02  3.535500e+00  3.000000e+00
     vertex  1.150000e+02  3.535500e+00  0.000000e+00
     vertex  1.150000e+02  1.114645e+02  0.000000e+00
   endloop
 endfacet
 facet normal  1.000000e+00  0.000000e+00  0.000000e+00
   outer loop
     vertex  1.150000e+02  3.535500e+00  3.000000e+00
     vertex  1.150000e+02  1.114645e+02  3.000000e+00
     vertex  1.150000e+02  1.150000e+02  7.000000e+00
   endloop
 endfacet
 facet normal  1.000000e+00  0.000000e+00  0.000000e+00
   outer loop
     vertex  1.150000e+02  0.000000e+00  7.000000e+00
     vertex  1.150000e+02  0.000000e+00  3.000000e+00
     vertex  1.150000e+02  3.535500e+00  3.000000e+00
   endloop
 endfacet
 facet normal  1.000000e+00 -0.000000e+00  0.000000e+00
   outer loop
     vertex  1.150000e+02  0.000000e+00  7.000000e+00
     vertex  1.150000e+02  3.535500e+00  3.000000e+00
     vertex  1.150000e+02  1.150000e+02  7.000000e+00
   endloop
 endfacet
 facet normal  0.000000e+00  1.000000e+00  0.000000e+00
   outer loop
     vertex  1.125000e+02  2.500000e+00  7.000000e+00
     vertex  2.500000e+00  2.500000e+00  2.000000e+00
     vertex  2.500000e+00  2.500000e+00  7.000000e+00
   endloop
 endfacet
 facet normal  0.000000e+00  1.000000e+00  0.000000e+00
   outer loop
     vertex  1.125000e+02  2.500000e+00  7.000000e+00
     vertex  1.125000e+02  2.500000e+00  2.000000e+00
     vertex  2.500000e+00  2.500000e+00  2.000000e+00
   endloop
 endfacet
 facet normal -1.000000e+00  0.000000e+00  0.000000e+00
   outer loop
     vertex  1.125000e+02  2.500000e+00  7.000000e+00
     vertex  1.125000e+02  1.125000e+02  7.000000e+00
     vertex  1.125000e+02  1.125000e+02  2.000000e+00
   endloop
 endfacet
 facet normal -1.000000e+00  0.000000e+00  0.000000e+00
   outer loop
     vertex  1.125000e+02  2.500000e+00  7.000000e+00
     vertex  1.125000e+02  1.125000e+02  2.000000e+00
     vertex  1.125000e+02  2.500000e+00  2.000000e+00
   endloop
 endfacet
 facet normal -0.000000e+00 -1.000000e+00  0.000000e+00
   outer loop
     vertex  1.125000e+02  1.125000e+02  7.000000e+00
     vertex  2.500000e+00  1.125000e+02  7.000000e+00
     vertex  2.500000e+00  1.125000e+02  2.000000e+00
   endloop
 endfacet
 facet normal  0.000000e+00 -1.000000e+00 -0.000000e+00
   outer loop
     vertex  1.125000e+02  1.125000e+02  7.000000e+00
     vertex  2.500000e+00  1.125000e+02  2.000000e+00
     vertex  1.125000e+02  1.125000e+02  2.000000e+00
   endloop
 endfacet
 facet normal  1.000000e+00 -0.000000e+00  0.000000e+00
   outer loop
     vertex  2.500000e+00  2.500000e+00  7.000000e+00
     vertex  2.500000e+00  1.125000e+02  2.000000e+00
     vertex  2.500000e+00  1.125000e+02  7.000000e+00
   endloop
 endfacet
 facet normal  1.000000e+00  0.000000e+00  0.000000e+00
   outer loop
     vertex  2.500000e+00  2.500000e+00  7.000000e+00
     vertex  2.500000e+00  2.500000e+00  2.000000e+00
     vertex  2.500000e+00  1.125000e+02  2.000000e+00
   endloop
 endfacet
 facet normal  9.937122e-01  1.119645e-01  0.000000e+00
   outer loop
     vertex  1.115531e+02  1.142133e+02  3.000000e+00
     vertex  1.115531e+02  1.142133e+02  0.000000e+00
     vertex  1.114645e+02  1.150000e+02  0.000000e+00
   endloop
 endfacet
 facet normal  9.438833e-01  3.302791e-01  0.000000e+00
   outer loop
     vertex  1.115531e+02  1.142133e+02  3.000000e+00
     vertex  1.118146e+02  1.134660e+02  0.000000e+00
     vertex  1.115531e+02  1.142133e+02  0.000000e+00
   endloop
 endfacet
 facet normal  9.937122e-01  1.119645e-01  0.000000e+00
   outer loop
     vertex  1.115531e+02  1.142133e+02  3.000000e+00
     vertex  1.114645e+02  1.150000e+02  0.000000e+00
     vertex  1.114645e+02  1.150000e+02  3.000000e+00
   endloop
 endfacet
 facet normal  8.467242e-01  5.320321e-01  0.000000e+00
   outer loop
     vertex  1.118146e+02  1.134660e+02  3.000000e+00
     vertex  1.122358e+02  1.127957e+02  0.000000e+00
     vertex  1.118146e+02  1.134660e+02  0.000000e+00
   endloop
 endfacet
 facet normal  9.438833e-01  3.302791e-01  0.000000e+00
   outer loop
     vertex  1.118146e+02  1.134660e+02  3.000000e+00
     vertex  1.118146e+02  1.134660e+02  0.000000e+00
     vertex  1.115531e+02  1.142133e+02  3.000000e+00
   endloop
 endfacet
 facet normal  7.071068e-01  7.071068e-01  0.000000e+00
   outer loop
     vertex  1.122358e+02  1.127957e+02  3.000000e+00
     vertex  1.127957e+02  1.122358e+02  0.000000e+00
     vertex  1.122358e+02  1.127957e+02  0.000000e+00
   endloop
 endfacet
 facet normal  8.467242e-01  5.320321e-01  0.000000e+00
   outer loop
     vertex  1.122358e+02  1.127957e+02  3.000000e+00
     vertex  1.122358e+02  1.127957e+02  0.000000e+00
     vertex  1.118146e+02  1.134660e+02  3.000000e+00
   endloop
 endfacet
 facet normal  5.320321e-01  8.467242e-01  0.000000e+00
   outer loop
     vertex  1.127957e+02  1.122358e+02  3.000000e+00
     vertex  1.134660e+02  1.118146e+02  0.000000e+00
     vertex  1.127957e+02  1.122358e+02  0.000000e+00
   endloop
 endfacet
 facet normal  7.071068e-01  7.071068e-01  0.000000e+00
   outer loop
     vertex  1.127957e+02  1.122358e+02  3.000000e+00
     vertex  1.127957e+02  1.122358e+02  0.000000e+00
     vertex  1.122358e+02  1.127957e+02  3.000000e+00
   endloop
 endfacet
 facet normal  3.302791e-01  9.438833e-01  0.000000e+00
   outer loop
     vertex  1.134660e+02  1.118146e+02  3.000000e+00
     vertex  1.142133e+02  1.115531e+02  0.000000e+00
     vertex  1.134660e+02  1.118146e+02  0.000000e+00
   endloop
 endfacet
 facet normal  5.320321e-01  8.467242e-01  0.000000e+00
   outer loop
     vertex  1.134660e+02  1.118146e+02  3.000000e+00
     vertex  1.134660e+02  1.118146e+02  0.000000e+00
     vertex  1.127957e+02  1.122358e+02  3.000000e+00
   endloop
 endfacet
 facet normal  1.119645e-01  9.937122e-01  0.000000e+00
   outer loop
     vertex  1.142133e+02  1.115531e+02  3.000000e+00
     vertex  1.150000e+02  1.114645e+02  0.000000e+00
     vertex  1.142133e+02  1.115531e+02  0.000000e+00
   endloop
 endfacet
 facet normal  3.302791e-01  9.438833e-01  0.000000e+00
   outer loop
     vertex  1.142133e+02  1.115531e+02  3.000000e+00
     vertex  1.142133e+02  1.115531e+02  0.000000e+00
     vertex  1.134660e+02  1.118146e+02  3.000000e+00
   endloop
 endfacet
 facet normal  1.119645e-01  9.937122e-01  0.000000e+00
   outer loop
     vertex  1.150000e+02  1.114645e+02  3.000000e+00
     vertex  1.150000e+02  1.114645e+02  0.000000e+00
     vertex  1.142133e+02  1.115531e+02  3.000000e+00
   endloop
 endfacet
 facet normal  0.000000e+00  0.000000e+00 -1.000000e+00
   outer loop
     vertex  1.142133e+02  1.115531e+02  3.000000e+00
     vertex  1.150000e+02  1.150000e+02  3.000000e+00
     vertex  1.150000e+02  1.114645e+02  3.000000e+00
   endloop
 endfacet
 facet normal  0.000000e+00  0.000000e+00 -1.000000e+00
   outer loop
     vertex  1.115531e+02  1.142133e+02  3.000000e+00
     vertex  1.114645e+02  1.150000e+02  3.000000e+00
     vertex  1.150000e+02  1.150000e+02  3.000000e+00
   endloop
 endfacet
 facet normal  0.000000e+00  0.000000e+00 -1.000000e+00
   outer loop
     vertex  1.134660e+02  1.118146e+02  3.000000e+00
     vertex  1.150000e+02  1.150000e+02  3.000000e+00
     vertex  1.142133e+02  1.115531e+02  3.000000e+00
   endloop
 endfacet
 facet normal  0.000000e+00  0.000000e+00 -1.000000e+00
   outer loop
     vertex  1.118146e+02  1.134660e+02  3.000000e+00
     vertex  1.115531e+02  1.142133e+02  3.000000e+00
     vertex  1.150000e+02  1.150000e+02  3.000000e+00
   endloop
 endfacet
 facet normal  0.000000e+00  0.000000e+00 -1.000000e+00
   outer loop
     vertex  1.127957e+02  1.122358e+02  3.000000e+00
     vertex  1.150000e+02  1.150000e+02  3.000000e+00
     vertex  1.134660e+02  1.118146e+02  3.000000e+00
   endloop
 endfacet
 facet normal  0.000000e+00  0.000000e+00 -1.000000e+00
   outer loop
     vertex  1.122358e+02  1.127957e+02  3.000000e+00
     vertex  1.118146e+02  1.134660e+02  3.000000e+00
     vertex  1.150000e+02  1.150000e+02  3.000000e+00
   endloop
 endfacet
 facet normal  0.000000e+00  0.000000e+00 -1.000000e+00
   outer loop
     vertex  1.122358e+02  1.127957e+02  3.000000e+00
     vertex  1.150000e+02  1.150000e+02  3.000000e+00
     vertex  1.127957e+02  1.122358e+02  3.000000e+00
   endloop
 endfacet
 facet normal  0.000000e+00  0.000000e+00  1.000000e+00
   outer loop
     vertex  1.125000e+02  1.125000e+02  2.000000e+00
     vertex  2.500000e+00  1.125000e+02  2.000000e+00
     vertex  2.500000e+00  2.500000e+00  2.000000e+00
   endloop
 endfacet
 facet normal  0.000000e+00  0.000000e+00  1.000000e+00
   outer loop
     vertex  1.125000e+02  1.125000e+02  2.000000e+00
     vertex  2.500000e+00  2.500000e+00  2.000000e+00
     vertex  1.125000e+02  2.500000e+00  2.000000e+00
   endloop
 endfacet
endsolid
